ply
format ascii 1.0
comment created by cisstICP
element vertex 300
property float32 x
property float32 y
property float32 z
property float32 nx
property float32 ny
property float32 nz
end_header
-12.9907 21.2251 -17.6372 -0.294377 -0.364641 -0.883391
-12.1443 12.9393 -7.78655 -0.994939 -0.0787949 -0.0623593
8.50016 14.6321 -6.33286 -0.421439 0.664041 0.617607
10.4547 20.0963 -12.3243 0.994227 -0.0132407 -0.10648
-5.64258 13.7541 -7.29868 0.819893 0.492996 0.291086
-7.10318 -13.0387 2.30203 -0.809188 0.302173 0.503892
-3.22385 -15.8211 0.355642 0.640247 -0.69304 -0.331329
3.24406 1.2902 -5.73715 -0.969409 -0.179083 -0.167859
-8.26196 17.7933 -13.5555 -0.515877 -0.528512 -0.6742
-3.89239 -1.507 5.7018 -0.99367 0.0386523 0.10548
3.60239 0.441955 15.0969 -0.868977 0.162525 0.467402
-4.92607 -12.3878 16.6729 0.96491 0.115254 0.235933
-5.73422 14.4598 -8.72897 0.813271 0.496672 0.303162
4.71471 -7.75613 -3.22368 -0.958522 -0.132209 -0.252502
1.45966 -5.50782 -4.46798 -0.998791 -0.0390931 -0.0297903
2.91802 -1.02634 3.34673 -0.951702 -0.0429111 -0.30401
3.87001 -13.894 4.82928 -0.962634 -0.27018 -0.0184036
6.46408 0.623558 -8.38891 0.449823 -0.425867 -0.785046
-8.19542 6.92974 -11.3223 -0.893255 -0.0903321 -0.440382
7.57988 14.0695 -12.9743 -0.85403 0.215986 -0.473269
6.83271 -2.11367 -2.55301 0.689664 0.315351 0.651856
7.32989 18.5483 -12.792 -0.756432 -0.145507 -0.637682
-7.23952 21.8557 -13.2301 0.689572 0.6752 0.261907
7.45168 11.1865 -4.92864 -0.349064 0.614744 0.70728
11.765 22.7485 -14.4303 0.411307 0.740194 -0.531921
-1.63618 -9.61803 6.82183 0.921648 -0.278017 -0.270687
-7.91279 4.66797 -2.79657 -0.845246 -0.431295 0.315505
4.96811 -13.855 -3.55848 -0.231662 -0.822225 -0.519883
-9.71476 12.4746 -10.6295 -0.757799 -0.19837 -0.621603
4.3912 -17.5199 11.5545 -0.770968 -0.47354 -0.425874
6.95402 -15.2794 1.0419 0.597494 -0.645283 -0.476036
10.5005 7.23165 -4.21724 -0.299731 -0.549762 -0.779694
4.97196 -13.6486 19.7047 -0.765733 -0.210262 0.607818
5.17007 -19.9277 9.39445 -0.772311 -0.382799 -0.506953
-13.1587 14.499 -13.4715 -0.803962 -0.509674 -0.306393
-2.87357 -6.52511 -4.08248 0.99733 -0.0109138 -0.0722029
4.26523 -20.2465 11.5371 -0.371021 -0.914443 -0.161669
-9.50747 13.7159 -8.08028 0.0119821 0.677789 0.735159
8.17967 8.52892 -6.84692 0.856024 -0.0578222 0.513692
-5.98128 6.01494 -1.39094 -0.621555 -0.760353 0.188502
-10.3034 8.71281 -6.62046 -0.749857 0.218115 0.624612
-8.31065 22.2724 -14.9407 0.782964 0.401667 0.475006
4.8842 17.8642 -13.2642 -0.8466 0.14207 -0.512918
-5.26485 0.572663 2.68998 -0.977178 0.145222 0.155026
-10.5536 20.0111 -9.8925 -0.567564 0.593258 0.570891
-13.3455 12.8475 -8.83619 -0.991518 -0.116422 -0.0577734
-5.44735 -13.9409 10.1687 -0.949998 0.306162 0.061386
5.23729 -11.071 16.721 0.990497 -0.00941944 0.137208
8.72044 16.7333 -8.37556 -0.300949 0.633633 0.712698
-3.85768 9.08962 -1.95298 0.712713 0.478754 0.512674
9.68259 12.3404 -12.8719 0.675245 -0.337236 -0.655984
3.27591 -3.1352 15.7567 -0.756954 0.423836 0.497377
-5.42596 -16.5239 2.31676 0.747118 -0.561651 -0.355476
3.81745 -1.38485 13.7337 0.947808 0.0284175 -0.317571
-11.4404 1.54768 -8.87188 -0.727731 -0.176142 -0.662859
2.35823 -9.09958 -5.6503 -0.911725 -0.182893 -0.367842
-11.3481 17.6302 -9.17943 -0.631235 0.575554 0.519884
-9.72311 2.41433 -3.45993 -0.867015 0.00872098 0.498205
-4.87573 -13.4865 7.39729 0.969188 -0.082615 -0.232054
2.58676 -9.39088 -0.0451696 -0.983332 -0.135914 -0.120774
7.04917 2.14949 -9.82232 0.415205 -0.320342 -0.851461
7.15285 6.50623 -3.9735 0.240956 -0.820295 -0.518707
-2.01735 5.12033 -5.23961 0.999391 -0.031361 -0.0153204
-4.79376 8.02504 -3.57289 0.642568 0.600222 0.476277
-6.38532 -9.56951 -3.84596 -0.467126 -0.292533 -0.834397
9.74892 11.2098 -12.0275 0.909373 -0.237729 -0.34136
6.54065 -11.437 -3.94874 0.298621 -0.52507 -0.796949
2.75011 3.65452 15.2538 -0.576955 0.333986 0.74537
-4.69579 0.371434 7.24029 -0.993202 0.0442337 0.107673
-1.98743 2.35281 6.8899 0.980347 0.0973469 -0.171593
11.7141 16.2491 -11.2336 0.878164 -0.425494 -0.218595
4.48456 1.90968 -2.14347 0.957916 0.128912 0.256474
9.31851 20.4963 -12.5776 -0.360846 0.889589 0.28004
-1.82825 -8.29469 -0.184017 0.996669 -0.0690871 -0.0433365
-11.696 20.6237 -13.1436 -0.580638 0.733905 0.352482
2.68743 -10.9742 12.8884 -0.999955 0.000427919 0.00948594
-9.15173 21.235 -12.6957 0.6305 0.77059 0.0930588
4.52132 5.2962 0.594561 -0.811859 0.581281 -0.0547482
-8.76749 21.7112 -17.0993 -0.288029 -0.468329 -0.835289
-5.33536 -2.61568 11.403 -0.993297 0.111168 0.0316629
-4.303 -5.04651 -6.02204 0.835856 -0.284403 -0.469531
0.327375 -1.36616 11.2949 0.990515 0.128546 0.0485419
4.60787 -17.8637 12.8176 -0.358529 -0.906954 -0.221112
-11.6482 13.4326 -5.88269 -0.361931 0.562703 0.743217
-4.8412 -6.96189 2.98737 -0.860438 0.270693 0.431709
8.16989 10.6558 -4.85669 0.836424 -0.038476 0.546731
-4.98663 -0.359571 -7.9303 0.912981 -0.141573 -0.382652
8.56393 12.566 -14.0345 0.199492 -0.240093 -0.950031
-11.4022 15.8325 -8.59218 -0.227285 0.647746 0.727164
-3.33662 -3.29226 -7.53381 0.836315 -0.159 -0.524687
-8.75896 7.15954 -9.15474 -0.995694 -0.0449771 0.0810581
2.14836 1.47734 6.45629 0.988131 -0.0213558 0.152121
-6.36783 -14.3548 5.39351 -0.890142 0.214881 0.401838
-1.28308 3.7262 -6.51739 0.963429 0.147246 -0.223882
2.50941 5.23328 11.3923 0.227064 0.890678 0.393871
7.0972 1.27085 -11.2797 0.392282 -0.276134 -0.87742
6.84865 8.55988 -12.4382 -0.784511 -0.146411 -0.602583
-3.93916 -0.705907 -1.96402 -0.61452 0.468887 0.634437
4.03076 3.96373 7.99889 0.981346 -0.0295864 -0.189959
5.21417 -1.8151 -0.459343 0.940071 0.195458 0.279397
4.08131 9.32511 -8.46148 -0.993828 0.0633172 -0.0910855
4.34977 -12.034 -1.79916 -0.860924 -0.370579 -0.34854
4.17448 -5.76224 10.0874 0.98974 0.140545 0.0257228
8.12604 8.39325 -4.92597 0.77201 -0.413055 0.4831
6.21174 -14.0405 7.8868 0.940359 -0.117014 0.319425
5.93309 4.55656 -1.17352 0.397855 -0.794554 -0.458689
-3.69771 -17.9871 4.94546 0.690623 -0.668245 -0.276563
7.58245 -12.8169 8.03588 0.821676 0.303409 0.482484
4.03115 0.46034 -9.64732 -0.00466824 -0.308224 -0.951302
-1.22758 -2.81049 11.4708 0.983499 0.0591033 0.170989
-3.27783 -17.3987 7.07615 0.59686 -0.749386 -0.286667
12.3756 16.804 -9.68785 0.993302 -0.107975 0.0411393
2.47683 -18.04 14.0339 0.982911 -0.171275 0.0674624
-8.05501 9.16959 -2.73144 0.293512 0.570045 0.767398
12.2503 18.0166 -13.4891 0.961601 -0.219278 -0.165047
8.65142 -11.1661 -3.09212 0.539676 -0.32156 -0.778042
-5.57948 -16.585 17.0237 -0.958955 -0.282922 0.0189646
-4.20688 -15.2982 8.41186 -0.895951 -0.0075646 0.444089
2.84331 1.19797 14.7375 -0.917703 0.173268 0.357491
8.52389 -12.1644 -3.60781 0.80727 -0.370481 -0.459412
5.84989 5.71893 -10.1824 -0.0417395 -0.131929 -0.99038
-2.24686 -11.6197 15.4158 0.992047 0.087956 0.090034
6.72525 -17.7744 2.61069 -0.547334 -0.836358 -0.0304985
4.8877 -5.31612 16.9222 0.99155 0.108777 0.0706825
12.2882 23.3887 -15.3086 0.145462 0.710619 -0.688376
-1.41718 -7.58454 13.5068 0.958078 -0.214602 0.18982
3.22935 -3.03053 4.69143 -0.641512 0.00316817 -0.767107
6.73042 17.267 -10.2661 -0.588593 0.615723 0.523873
9.4271 -11.1493 -0.281226 0.976217 0.0717799 0.204566
9.76768 7.27344 0.107062 0.605573 -0.484276 0.631473
7.63657 15.3021 -13.3237 -0.677855 0.0375139 -0.734238
10.0249 16.1842 -9.61596 0.981364 0.117126 0.152333
-8.92986 -14.9559 0.39483 -0.997567 -0.0625262 -0.0308376
-4.9434 -13.0638 20.2141 -0.725766 -0.0335102 0.687125
-2.50398 -12.4938 18.5513 0.932699 -0.0353258 0.35892
5.13793 -12.7801 12.5324 0.979434 0.176393 -0.0979557
3.40725 -9.16684 -4.92566 -0.769466 -0.340277 -0.540494
9.10199 7.60429 -2.45992 -0.0446096 -0.790235 -0.611178
-9.16935 -11.9159 0.654403 -0.817029 0.323837 0.477066
-4.12087 11.5362 -13.7272 0.71882 -0.0787942 -0.690717
5.75207 6.35514 -1.48979 0.980618 -0.181042 0.0749199
-5.29708 9.85314 -5.95062 0.640484 0.514188 0.570431
-7.87815 -8.01511 -0.171433 -0.762117 0.347866 0.546046
-9.0229 18.778 -13.5734 -0.255644 -0.526423 -0.810879
9.34965 -5.39911 -5.26934 0.788258 -0.198142 -0.582571
-11.0854 21.5729 -16.874 0.237681 0.954071 -0.182365
6.97291 -1.34319 -1.38785 0.785914 0.218843 0.578313
3.94205 -18.6967 14.9736 0.96022 -0.276229 0.0409214
-5.94886 5.43655 -1.27543 -0.418033 -0.637639 0.647043
2.14327 -12.7277 5.51092 -0.985596 -0.164485 -0.0393075
5.03571 -10.8268 17.3957 0.950951 0.263878 -0.161431
8.14546 -6.85597 0.342864 0.773894 0.367977 0.515442
-8.75544 6.33195 -12.2777 -0.522085 -0.0552972 -0.851099
2.08575 1.57046 8.82178 0.986469 -0.150017 -0.0661308
-2.86564 -11.6338 4.81646 0.985351 -0.119347 -0.121816
-8.20417 19.8269 -9.26656 0.602218 0.596419 0.530677
-12.1853 13.5856 -9.24329 -0.99572 -0.0809731 0.0445454
3.3967 8.84348 -4.45328 -0.905918 0.186183 0.380328
3.05058 2.39279 -0.661926 -0.992911 0.0951941 0.0711765
-1.73016 1.6977 9.60048 -0.986942 -0.0576614 -0.150403
4.50972 -14.8228 19.7828 0.556285 -0.522042 0.646545
-7.13017 -16.6474 6.69116 -0.796946 -0.506368 0.329346
-3.86616 -15.4639 12.685 -0.969145 -0.0614494 0.238709
3.74383 -4.59789 13.1523 0.997058 -0.0245703 0.072603
-4.31658 -15.0104 13.8145 -0.952151 0.303783 0.0335206
4.39227 -18.0876 2.90071 -0.510025 -0.835449 -0.204692
2.54257 -6.11107 -7.70883 -0.940582 -0.224591 -0.254686
-6.49145 4.29265 -11.2206 0.262066 -0.271524 -0.926065
3.11782 3.04 -6.84935 -0.971147 0.0114491 -0.238208
1.95707 3.32008 14.4641 -0.668756 0.575993 0.470104
8.80311 7.17939 -2.19125 -0.161496 -0.934902 -0.316033
-3.13671 -18.3662 15.6207 0.696492 -0.679008 0.232051
9.3601 6.56924 -2.68115 0.969473 -0.22433 -0.0989865
1.33905 -15.1062 13.5424 -0.988903 -0.109671 -0.10022
6.06285 -4.57766 -7.32664 0.773714 -0.27406 -0.57119
-5.21081 -5.47227 -6.83732 0.267042 -0.426816 -0.864012
-1.89928 -0.50848 7.8553 0.920753 -0.101145 -0.376808
4.3396 -11.9588 13.4594 0.972574 0.226848 -0.0513726
4.68349 -10.3937 14.3779 0.981655 0.11239 -0.15402
-2.85784 3.8698 12.8566 -0.961787 0.224491 0.156746
-2.40393 -0.974794 11.3087 -0.986964 -0.141441 -0.0767842
6.08752 10.2922 -2.16839 -0.510671 0.541114 0.66814
-12.1853 22.6215 -13.8182 0.201229 0.928337 0.312566
-5.61019 0.930633 -5.52988 0.997861 0.0233081 -0.061068
8.66084 8.17692 -5.16499 0.523182 0.316057 0.791447
-7.43665 -9.93933 -2.90363 -0.199966 -0.372914 -0.906062
-5.60472 9.30381 -12.7152 0.668448 -0.0868464 -0.738671
8.68787 6.60908 -6.49336 0.542996 0.329359 0.772449
4.32659 -3.75684 3.25385 0.645817 -0.627156 0.435426
-6.28565 11.2534 -4.37777 -0.0100157 0.639891 0.768401
10.8063 20.3956 -13.5428 0.651895 0.544495 0.527786
7.63963 -13.0924 5.6902 0.861752 0.176225 0.475739
11.001 7.10642 -3.61572 0.95494 -0.258444 0.145932
7.38931 -8.20446 -7.37035 0.536843 -0.394096 -0.745981
-0.717186 -13.5835 16.6896 0.999554 -0.0263238 0.0140891
4.47958 -11.4566 -5.84462 -0.677869 -0.47022 -0.565143
-4.19126 -9.59022 -5.0753 0.79061 -0.316651 -0.524088
-7.85324 20.0301 -15.1906 0.679467 0.0984712 -0.727068
5.10412 -16.1852 1.97313 -0.134581 -0.988243 -0.0725577
4.48107 -18.7098 14.6549 -0.95583 -0.28095 0.0863436
-5.50209 4.51907 -2.31728 -0.833666 -0.264279 0.484931
-4.47167 0.685518 -9.04975 0.801842 -0.106451 -0.587977
6.04676 15.8926 -14.5073 -0.861356 0.13532 -0.489648
-7.6043 -2.25112 -7.42645 -0.619248 -0.272605 -0.736355
-11.3659 15.6195 -11.6457 -0.870531 -0.368311 -0.326379
-8.03526 -6.49669 -0.388643 -0.9044 0.0532059 0.423355
1.62138 4.21029 0.611502 -0.935683 0.196202 -0.293262
3.80201 4.13971 11.1537 0.40875 0.907966 0.0923092
-9.15604 13.3645 -3.06833 -0.112892 0.691732 0.713275
8.70622 3.15342 -4.07847 0.494929 0.0370694 0.868142
-4.07188 -7.51204 10.5796 -0.991984 0.0915431 -0.0871061
3.51979 -4.6585 -7.4253 -0.936826 -0.176345 -0.302091
4.05129 2.7641 11.4759 0.857928 0.32017 0.40181
-3.15974 -10.6374 6.53784 0.973014 -0.110488 -0.202576
-3.48037 -17.79 15.2132 -0.444357 -0.755245 0.481821
6.73373 -16.1243 6.64309 0.953542 -0.258176 0.155249
5.86558 1.23333 -10.5579 -0.573412 -0.252244 -0.779469
5.19353 -12.1863 20.2078 0.99978 0.0184333 0.00999414
-1.88979 -9.18656 -2.35139 0.996784 -0.0685031 -0.0415742
8.93976 10.5433 -3.33077 0.387918 0.512851 0.765836
-8.18005 -1.71736 -4.07183 -0.925493 0.0551935 0.374722
-6.50286 -8.05034 -0.875992 -0.924101 0.104853 0.367482
11.5717 17.5243 -13.4366 0.895637 -0.339464 -0.287399
-5.72198 -15.4102 18.785 -0.944235 -0.319623 0.079131
4.3067 9.41143 -8.48006 -0.933691 0.238951 0.26669
3.51547 -4.77896 16.8685 -0.381792 0.449552 0.80755
2.53928 -10.9779 20.5348 -0.954719 -0.121491 0.271574
4.97227 -11.2065 16.0037 0.991188 0.127086 0.037367
10.6637 11.4504 -6.15129 0.471442 -0.719638 -0.509768
-4.79932 10.2984 -2.24774 0.734057 0.408003 0.542857
-3.51524 4.01188 -1.24076 -0.876789 -0.0833947 0.473588
4.77091 -5.31665 -5.62729 -0.942034 -0.0801373 -0.325805
-8.01569 7.21854 -5.70522 -0.935774 -0.200436 0.290089
-2.8205 -12.3468 12.5965 0.99738 -0.0611374 -0.038667
8.29313 20.8923 -16.721 -0.494964 0.685969 -0.533345
-1.23506 -11.2609 14.484 0.999311 0.0183372 -0.0322794
-0.517771 -0.92826 8.72426 0.951192 -0.104721 -0.290289
-3.05115 -3.9458 13.8033 -0.947384 0.199614 -0.250234
8.6542 10.0618 -7.16465 0.703394 0.0813273 0.706133
2.05838 -13.779 6.54961 -0.934751 -0.275002 -0.224978
-8.99633 -9.72336 -2.78912 -0.995392 -0.0949469 0.0133981
10.2487 6.68202 -6.80129 0.993276 -0.0705676 -0.0917772
-11.2857 9.56637 -10.5791 -0.981817 -0.154475 -0.110335
-4.98204 11.6907 -13.7179 0.905454 0.0957044 -0.413513
-3.89488 -2.66496 17.1671 0.743887 0.452116 0.492162
6.02529 -11.0836 4.79258 0.877597 0.253342 0.406991
5.32581 -7.47476 -7.53066 -0.65806 -0.364385 -0.658924
5.48235 5.38533 2.157 0.83383 0.532028 0.147221
8.11022 -13.923 4.3007 0.915953 0.172045 0.362534
-7.11302 -4.513 -9.2187 -0.318693 -0.340319 -0.884657
3.70478 1.86551 2.36431 0.945673 0.0466164 0.321761
-3.62431 -13.5254 -1.34987 0.722621 -0.487993 -0.489574
-4.76268 -18.5663 8.10652 0.671266 -0.639608 -0.374571
-11.018 21.7085 -11.8162 -0.379691 0.835406 0.397407
-8.64088 -8.08618 -5.51513 -0.472949 -0.420813 -0.774103
-8.76314 -8.17952 -1.75188 -0.922721 -0.041922 0.383181
-2.95557 -2.6065 2.33568 0.95536 0.0329418 -0.293602
10.9143 22.6156 -15.3158 0.36179 0.764361 -0.533723
-1.84354 -0.830551 5.74549 0.964899 0.104359 -0.240998
4.94312 9.9299 -8.61253 -0.980581 0.193049 -0.0345342
5.35871 -13.0331 10.9994 0.93243 0.305356 0.193214
7.48743 -0.706627 -3.07179 0.666402 0.0930412 0.739765
3.41972 -16.2981 7.13735 -0.89801 -0.341726 -0.27713
-11.3714 13.2835 -7.30151 -0.389772 -0.742001 -0.545447
-12.0152 20.619 -15.6377 -0.940137 0.328179 0.0918756
9.43107 12.2246 -7.55463 0.611214 -0.565676 -0.55356
8.28109 8.81742 -10.9925 0.641298 -0.270891 -0.717882
-1.89423 -1.04864 12.9007 -0.955244 -0.185786 -0.230201
7.38391 9.08776 -2.19384 -0.388532 0.59783 0.701171
-8.12727 -12.5586 -3.09426 -0.843538 -0.398591 -0.359957
-5.24144 -12.8405 12.7646 -0.984701 0.166314 -0.0519971
-4.63515 -0.0987514 15.4602 0.413381 0.152009 0.89778
5.69672 4.68399 -9.61486 -0.566588 -0.112096 -0.816341
-1.39537 -9.344 4.73621 0.949385 -0.147704 -0.277221
-5.23204 -8.08653 -3.32229 0.984494 -0.093728 -0.14828
9.85349 17.9024 -11.3734 -0.0914627 0.695395 0.712784
13.5942 18.3005 -10.0518 0.889529 0.332753 0.313071
-9.04184 20.9196 -15.9831 0.526404 0.726927 -0.440994
2.83532 -6.98826 11.1113 0.995882 0.0579003 0.069755
6.45258 5.82245 -9.65693 0.255884 -0.318006 -0.912905
-8.15687 21.799 -14.9862 0.583699 0.810015 0.0563067
4.04277 10.6138 -3.50843 -0.581621 0.595862 0.553774
-9.66947 1.93526 -6.8918 -0.999627 -0.0202 0.0184065
-8.65183 -4.78694 -8.38596 -0.622739 -0.383145 -0.6822
-1.03168 4.29172 8.24431 0.95164 0.299154 0.0699123
7.78355 -4.93929 -0.124866 0.712617 0.434183 0.551055
-2.22247 2.96352 -7.12515 0.992333 0.0847142 -0.0899961
-11.3501 12.5799 -6.90451 -0.346709 -0.787117 -0.510136
-7.29048 -15.8011 5.02988 -0.926578 -0.0654984 0.370357
-2.62663 -8.87698 16.9725 0.967743 0.0213926 0.251031
-0.841147 0.725714 10.3843 0.974392 0.222773 0.0305405
11.5221 13.2065 -6.94426 0.468509 0.599452 0.648965
12.9601 20.5825 -11.4026 0.99748 0.067595 0.0215705
3.42306 -10.3686 -3.24973 -0.889868 -0.323406 -0.321783
4.75076 -14.8719 19.8163 0.883245 -0.408038 0.231048
-4.42799 0.0205559 4.95319 -0.909166 0.0698635 0.410533
-2.09315 3.4033 7.7756 -0.991932 0.121806 0.0351288
-3.54019 -18.5555 13.9134 0.659728 -0.673217 0.333974
1.9057 -10.6177 16.4314 -0.946157 0.00232108 0.3237
3.98682 3.92574 -10.0293 -0.803326 0.00698195 -0.595498
