ply
format ascii 1.0
comment created by cisstICP
element vertex 300
property float32 x
property float32 y
property float32 z
property float32 nx
property float32 ny
property float32 nz
end_header
-3.25707 10.165 -6.88683 -0.245416 -0.562431 -0.789584
-2.78691 4.35059 4.61878 -0.989488 -0.11509 -0.0875655
17.7358 6.83119 6.57796 -0.46036 0.776273 0.430661
19.9103 10.8412 -0.405396 0.998362 -0.0128073 -0.0557566
3.67121 5.41292 5.20093 0.797784 0.565962 0.207911
2.0992 -18.5341 20.5708 -0.837102 0.388713 0.384918
6.10714 -21.5898 19.4855 0.665124 -0.734294 -0.135733
12.637 -6.15244 9.95657 -0.957426 -0.236027 -0.166215
1.31004 7.86391 -1.92242 -0.474755 -0.67997 -0.558792
4.9823 -6.45719 21.3984 -0.998099 0.0373369 0.0490268
11.9766 -2.2476 30.4315 -0.893127 0.243015 0.378508
3.55445 -14.5902 34.4996 0.950429 0.189198 0.246755
3.64086 5.77362 3.64494 0.790525 0.572117 0.218523
14.1035 -14.3551 14.5263 -0.943002 -0.209306 -0.258726
10.8839 -12.5273 12.6576 -0.995481 -0.0691453 -0.065093
11.8937 -6.35707 19.3051 -0.934849 -0.133868 -0.328842
12.9446 -18.5267 23.7182 -0.956818 -0.290686 0.00019759
15.9928 -7.32411 7.67396 0.493771 -0.581628 -0.646451
1.41257 -2.20591 2.72491 -0.869099 -0.209525 -0.448069
17.1526 4.75569 0.204274 -0.83243 0.0822301 -0.547995
16.1095 -8.65759 13.9901 0.652292 0.471591 0.593395
16.8335 9.15184 -0.648888 -0.721962 -0.304632 -0.621265
2.26029 11.918 -2.48426 0.666621 0.733581 0.132193
16.6657 3.76907 8.68069 -0.391847 0.75036 0.532367
21.2871 12.9781 -2.99839 0.427078 0.610165 -0.66731
7.28954 -14.0459 24.4353 0.937564 -0.309598 -0.158504
1.30395 -2.46889 11.5455 -0.853915 -0.36902 0.366951
14.4553 -20.3631 15.5999 -0.19458 -0.924052 -0.329039
-0.213762 3.31295 2.06857 -0.723409 -0.352493 -0.593657
13.1816 -20.5202 31.1086 -0.742525 -0.576376 -0.341244
16.2304 -20.6589 20.4884 0.628935 -0.721633 -0.289286
19.7288 0.153835 10.41 -0.253392 -0.719306 -0.646831
13.3066 -14.8894 38.1816 -0.791933 -0.0856166 0.604576
14.0987 -23.3352 29.5905 -0.741082 -0.506434 -0.44082
-3.54 4.55606 -1.31175 -0.780894 -0.585283 -0.218287
6.55099 -13.536 13.0688 0.999736 -0.00269734 -0.0228045
13.0934 -23.182 31.7065 -0.350217 -0.936047 0.034108
-0.149464 5.10439 4.27518 -0.0335036 0.826859 0.56141
17.5234 0.764398 7.45229 0.830292 0.08098 0.551415
3.1453 -0.791743 12.6933 -0.619805 -0.712751 0.328372
-0.949078 0.54455 6.79777 -0.782682 0.335675 0.524148
1.26949 11.9099 -4.29129 0.753046 0.517823 0.405932
14.4236 8.31918 -1.0627 -0.822054 0.00145431 -0.569408
3.73247 -5.14835 17.9336 -0.985515 0.152732 0.0737144
-1.18951 10.7976 1.03274 -0.60303 0.693205 0.394741
-3.93342 3.99412 3.56451 -0.985792 -0.150604 -0.0743883
3.37624 -17.5892 28.5028 -0.955912 0.288874 -0.0527698
13.6843 -13.0495 34.7048 0.982543 0.0460542 0.180246
18.0284 8.41947 4.12276 -0.344318 0.771152 0.535508
5.25244 2.12633 11.5427 0.679986 0.599707 0.421865
19.2707 3.14662 0.792092 0.711325 -0.460588 -0.53092
11.6662 -5.58897 31.8726 -0.786255 0.506969 0.35325
3.82048 -21.8833 21.4538 0.771277 -0.609233 -0.184303
12.2834 -4.33004 29.5308 0.961876 -0.0212205 -0.272662
-1.87674 -6.96991 6.187 -0.691641 -0.339468 -0.637491
11.8881 -16.2706 12.3654 -0.889883 -0.283658 -0.357277
-1.98615 8.62168 2.23234 -0.663859 0.662856 0.346285
-0.440824 -4.85764 11.3315 -0.890617 0.10029 0.443558
4.07796 -17.761 25.7293 0.980498 -0.109426 -0.163247
11.8433 -15.2782 17.8942 -0.974239 -0.183662 -0.130866
16.6274 -6.14898 5.95878 0.461059 -0.494777 -0.736627
16.3832 -0.578789 10.6613 0.277333 -0.910393 -0.307036
7.3063 -2.43854 9.33186 0.999258 -0.00966366 0.0372721
4.412 0.699823 10.167 0.610095 0.708019 0.355659
3.07321 -16.5322 13.8334 -0.421331 -0.485325 -0.76612
19.3105 2.23875 1.87374 0.928254 -0.286687 -0.23697
16.0125 -18.0589 14.7409 0.344694 -0.6846 -0.642269
11.0744 0.895193 29.8147 -0.617538 0.480076 0.623036
4.07861 -4.29909 22.4313 -0.997815 0.0432798 0.0499106
6.77401 -2.38333 21.7616 0.986228 0.0797727 -0.144884
21.1659 7.37319 1.58774 0.89355 -0.442444 -0.0762337
13.6899 -4.70454 13.3672 0.942245 0.206982 0.263312
18.7827 11.1456 -0.793993 -0.386204 0.920848 0.0537084
7.42613 -14.3499 17.3107 0.998433 -0.0528126 0.0184823
-2.17796 10.6294 -2.32055 -0.607189 0.780328 0.149696
11.3259 -13.886 30.8398 -0.999117 -0.0217912 -0.0359338
0.332553 11.3881 -1.90936 0.614685 0.786752 -0.056418
13.5457 -0.785712 15.2615 -0.815923 0.533792 -0.222116
0.927498 10.8631 -6.28384 -0.240056 -0.652333 -0.718913
3.27441 -6.27965 27.1314 -0.995056 0.091222 -0.0392613
5.19937 -12.5707 10.7813 0.861798 -0.362974 -0.354337
8.91821 -4.94961 26.997 0.985082 0.160291 0.0626047
13.3402 -20.5634 32.4252 -0.334904 -0.941924 -0.0248553
-2.39219 5.27456 6.3808 -0.405773 0.707521 0.578586
4.24243 -12.4068 19.9565 -0.884293 0.340454 0.319558
17.3866 3.28615 8.9038 0.808824 0.106828 0.578267
4.54777 -8.45634 7.82775 0.932602 -0.202334 -0.298854
18.208 3.07548 -0.440574 0.24942 -0.444236 -0.860491
-2.0449 7.00318 3.2102 -0.271656 0.789967 0.549687
6.21554 -11.1818 8.95512 0.863292 -0.253362 -0.436504
0.739544 -1.5046 4.75569 -0.997786 -0.0496752 0.0442102
10.9376 -3.23328 21.7254 0.979603 0.0377545 0.197362
2.69855 -19.0969 23.9106 -0.911729 0.278617 0.301865
8.12154 -4.06769 8.43927 0.971244 0.116095 -0.207864
11.0036 1.55132 25.6884 0.195293 0.96203 0.190681
16.7593 -7.33364 4.74323 0.438853 -0.458175 -0.772971
16.4701 -0.505152 1.94646 -0.751726 -0.298241 -0.588183
5.30367 -7.41579 13.7573 -0.651389 0.585368 0.482739
12.7078 -0.416866 22.745 0.989845 -0.0479569 -0.133819
14.3856 -7.93178 15.8858 0.922394 0.276536 0.269663
13.4995 1.07386 5.5159 -0.988875 0.0167971 -0.147796
13.7263 -18.2063 16.869 -0.837573 -0.46079 -0.293503
12.8792 -9.4099 26.9962 0.985275 0.166784 0.0376425
17.3767 1.06638 9.34929 0.752689 -0.273881 0.598706
15.1341 -17.9194 26.8312 0.924915 -0.0186296 0.379717
15.0529 -1.87223 13.7736 0.430713 -0.867905 -0.247442
5.43627 -22.6701 24.4216 0.712393 -0.696512 -0.0858325
16.4792 -16.6608 26.7596 0.792662 0.424791 0.43731
13.6275 -7.82751 6.37738 0.0465083 -0.515835 -0.855425
7.37608 -6.35393 27.4267 0.97296 0.120259 0.197197
5.74237 -21.6041 26.3792 0.620346 -0.78009 -0.0814219
21.7427 8.27996 2.9949 0.99142 -0.0716124 0.109351
11.1542 -20.5113 33.5524 0.980595 -0.127532 0.148892
1.09802 1.92551 10.5781 0.247516 0.736116 0.629975
21.7891 8.59602 -0.984269 0.971452 -0.227489 -0.0673117
18.0745 -17.5496 15.6076 0.581754 -0.476291 -0.659325
2.94114 -18.6132 35.7665 -0.95482 -0.294534 0.039612
4.72021 -19.2787 27.1586 -0.91662 0.0714628 0.39332
11.2261 -1.61144 29.8756 -0.936502 0.227377 0.266954
17.9861 -18.6416 15.3274 0.833909 -0.445188 -0.326195
15.3994 -2.78434 4.74223 0.00904045 -0.353941 -0.935224
6.28192 -14.0619 33.2227 0.985109 0.130212 0.11227
15.9581 -22.7383 22.5719 -0.533834 -0.834583 0.135986
13.2477 -7.40906 33.5752 0.985289 0.146086 0.0886864
21.8444 13.4152 -3.97482 0.169713 0.539433 -0.824748
7.15046 -10.5454 30.485 0.950332 -0.142592 0.276653
12.1652 -7.99614 21.0832 -0.6028 -0.186406 -0.775812
16.1273 8.46218 2.07268 -0.622011 0.70391 0.342946
18.71 -16.8773 18.373 0.963858 0.140034 0.226646
18.7826 1.15677 14.5738 0.580098 -0.313652 0.751737
17.2098 5.8781 -0.4136 -0.641183 -0.1464 -0.753294
19.3999 7.63544 3.09995 0.970968 0.172473 0.165751
0.395028 -20.8776 19.0696 -0.99389 -0.092169 -0.0607242
3.37124 -14.4462 38.0972 -0.758321 0.10543 0.6433
5.88195 -14.2086 36.4601 0.914212 0.0696728 0.399201
13.8152 -15.6654 31.0149 0.980611 0.173406 -0.0912842
12.9009 -16.1463 13.1328 -0.737156 -0.472564 -0.482995
18.2402 0.880893 11.9716 -0.00369268 -0.909039 -0.416694
0.102046 -17.8646 18.6195 -0.8439 0.403536 0.353542
5.53852 1.83347 -0.478975 0.753075 -0.215761 -0.621551
14.8635 -0.197097 13.0485 0.978068 -0.135408 0.158266
4.00221 1.92862 7.41547 0.604519 0.64554 0.466728
1.37978 -14.2222 16.9867 -0.792792 0.443904 0.417647
0.537704 8.80006 -2.19815 -0.208136 -0.702576 -0.68049
18.8016 -12.4109 12.209 0.818686 -0.305764 -0.486068
-1.39665 10.723 -6.13769 0.23352 0.893409 -0.383783
16.1815 -7.6399 14.9545 0.753351 0.3633 0.548157
12.5799 -20.9021 34.682 0.960661 -0.236292 0.145936
3.17977 -1.32793 12.9388 -0.440867 -0.484382 0.755652
11.1707 -17.2788 24.0381 -0.980142 -0.193071 -0.0452223
13.4464 -12.6637 35.2964 0.954124 0.243506 -0.174219
17.3413 -12.5867 17.9453 0.742443 0.493965 0.452522
0.908561 -3.01814 1.90637 -0.478591 -0.25946 -0.838827
10.7569 -2.608 24.0024 0.990465 -0.137027 0.0142663
6.18798 -16.493 22.8879 0.991687 -0.119813 -0.0469292
1.12837 10.8174 1.78939 0.56716 0.715663 0.407622
-2.76457 4.64877 3.05285 -0.995523 -0.0929997 0.0168834
12.6242 1.49669 9.49351 -0.926035 0.245415 0.28676
12.1781 -3.93329 14.6337 -0.996408 0.0846337 0.00282679
6.90582 -2.40057 24.5589 -0.977435 -0.114273 -0.177656
12.857 -16.0263 38.504 0.530638 -0.348208 0.772771
1.90398 -21.0536 25.6601 -0.805351 -0.437803 0.399674
4.85152 -18.4632 31.3682 -0.978842 -0.0293356 0.202506
12.282 -7.59205 29.6931 0.992492 0.0168192 0.121147
4.33975 -17.7766 32.3434 -0.956653 0.280189 -0.0794307
13.618 -23.0343 22.8201 -0.487977 -0.87227 -0.0319815
12.1337 -13.8228 9.69127 -0.923732 -0.299314 -0.23902
3.14482 -4.70901 3.50071 0.311151 -0.467884 -0.827206
12.5423 -4.70386 8.47085 -0.958253 -0.0664981 -0.278081
10.326 0.371261 29.0869 -0.698876 0.651087 0.296072
17.9341 0.520785 12.3161 -0.133062 -0.98585 -0.101948
5.47405 -20.606 34.9172 0.693262 -0.591571 0.411621
18.5228 -0.170763 12.0036 0.976116 -0.217244 -0.00154889
10.0027 -17.7938 32.3554 -0.981173 -0.153587 -0.117096
15.6098 -12.1574 9.87274 0.804622 -0.377457 -0.458377
4.33879 -13.1922 10.0442 0.315146 -0.604902 -0.731284
6.85291 -4.94833 23.3558 0.93953 -0.161457 -0.302019
12.961 -14.6751 31.6937 0.970778 0.232923 -0.0577621
13.2379 -12.9346 32.2465 0.986463 0.0984349 -0.131155
5.58942 0.424878 27.1811 -0.971297 0.230679 0.058042
6.18453 -4.63194 26.7983 -0.979967 -0.179161 -0.0869821
15.179 3.49068 11.5077 -0.550316 0.665862 0.503767
-2.66024 12.4099 -3.45348 0.173003 0.97964 0.10186
3.789 -6.67124 9.84099 0.999255 0.0331603 -0.0197368
17.9256 0.814598 9.19012 0.47912 0.499861 0.721514
1.98167 -16.7043 14.7868 -0.149896 -0.573325 -0.8055
4.0367 -0.146927 0.946544 0.705248 -0.235697 -0.668635
18.0394 -1.01239 8.25598 0.499668 0.508989 0.700901
13.3418 -9.00243 19.8996 0.631904 -0.496223 0.595366
2.91833 3.6244 8.58224 -0.0566045 0.796957 0.601378
20.3175 10.865 -1.64295 0.617615 0.665661 0.418864
16.6559 -17.4593 24.5431 0.834733 0.300403 0.461496
20.2005 0.180423 11.0462 0.949958 -0.195303 0.243796
16.9855 -15.6663 10.7153 0.578318 -0.539719 -0.61176
7.7731 -15.648 34.9777 0.9979 0.0019106 0.0647405
14.0481 -18.5579 12.8083 -0.64271 -0.602441 -0.473274
5.32543 -16.7775 12.7412 0.819742 -0.40784 -0.402107
1.76888 9.68117 -4.00352 0.713181 -0.0523598 -0.699022
14.3491 -21.3749 21.517 -0.117497 -0.981947 0.148237
13.1342 -20.9739 34.3992 -0.955055 -0.277267 0.104845
3.68981 -2.44651 12.1543 -0.852975 -0.167719 0.494271
5.10329 -7.67994 6.52422 0.831284 -0.217381 -0.511579
15.6726 6.14603 -1.77091 -0.83785 -0.000203063 -0.545901
1.93413 -10.2476 8.63032 -0.578368 -0.447407 -0.682142
-1.85486 6.10453 0.290102 -0.848293 -0.453792 -0.272895
1.21314 -12.7968 16.4228 -0.924853 0.125728 0.358942
10.6633 -1.90983 15.3944 -0.922605 0.101776 -0.372077
12.321 0.463945 25.7634 0.391411 0.91494 -0.0984011
-0.0414671 5.90676 9.24621 -0.15732 0.832434 0.531323
17.9849 -3.82927 11.3922 0.450874 0.244913 0.85833
4.64293 -11.203 27.5015 -0.987611 0.0452267 -0.150266
13.076 -12.3204 9.68056 -0.918289 -0.262991 -0.295941
12.5726 -0.796343 26.4011 0.832627 0.423709 0.356656
5.79576 -15.1398 24.3223 0.983237 -0.129791 -0.128059
5.14321 -20.1457 34.3742 -0.457405 -0.63698 0.620513
15.745 -20.2174 26.1191 0.948098 -0.192965 0.252736
15.4941 -7.23656 5.39843 -0.530736 -0.436237 -0.726648
13.4833 -13.3462 38.3483 0.997725 0.0445667 0.0505826
7.48381 -15.711 15.4027 0.998454 -0.0518417 0.0200688
18.0816 3.54118 10.4484 0.342646 0.682374 0.645725
1.18615 -8.98165 11.746 -0.943541 0.116127 0.310233
2.78856 -14.3827 16.3714 -0.942463 0.162872 0.291953
21.1154 8.11201 -0.85167 0.913241 -0.373849 -0.16195
2.69594 -17.0737 37.206 -0.942597 -0.316273 0.107152
13.7243 1.15918 5.48835 -0.948867 0.270361 0.162963
11.8727 -6.93164 33.3389 -0.427262 0.611447 0.666018
10.8001 -12.1602 38.2718 -0.965249 -0.0799957 0.248787
13.4569 -13.3505 34.026 0.986326 0.156354 0.0520969
19.9304 3.82717 7.57608 0.505718 -0.804746 -0.310859
4.31031 3.21352 10.9385 0.700764 0.53818 0.468286
5.62768 -2.64796 13.4064 -0.89792 0.00478178 0.440134
14.2455 -12.5233 11.6357 -0.923615 -0.174818 -0.341136
1.31056 -0.64722 8.13118 -0.946181 -0.152204 0.285615
5.85817 -15.4228 30.62 0.998806 -0.0439965 0.0212475
17.9581 10.5671 -4.96074 -0.477202 0.53497 -0.697198
7.3336 -13.8991 32.2804 0.999347 0.0348804 0.00946298
8.19532 -5.12645 24.3588 0.965701 -0.144588 -0.215675
5.45493 -6.97509 29.8718 -0.936464 0.114566 -0.331526
17.9924 2.19643 6.8158 0.666475 0.256364 0.700063
11.0488 -18.069 25.2838 -0.918697 -0.341522 -0.198388
0.415466 -16.506 14.7788 -0.993467 -0.113657 -0.0102197
19.6124 -0.973133 8.01019 0.997459 -0.0653158 -0.028453
-1.74591 0.454483 2.70864 -0.972992 -0.199331 -0.116419
4.67595 1.96501 -0.543921 0.923412 0.0215181 -0.383206
4.4288 -4.98613 32.8143 0.712492 0.569881 0.409379
15.061 -15.7461 23.1401 0.852915 0.360293 0.377789
14.9228 -15.0424 10.3003 -0.619718 -0.520166 -0.587688
14.427 -0.3214 16.8044 0.818287 0.5717 0.059716
17.2058 -18.5715 23.4018 0.894514 0.271995 0.354773
2.54383 -12.8442 7.4238 -0.269966 -0.539629 -0.797445
12.689 -3.74486 17.7269 0.927901 0.141351 0.344993
5.76056 -19.7509 17.286 0.752446 -0.568504 -0.332608
4.22428 -22.5435 27.5802 0.697519 -0.691314 -0.188556
-1.58109 12.0031 -1.24566 -0.410095 0.894234 0.179354
0.883108 -15.5211 11.7706 -0.428398 -0.596704 -0.678542
0.576279 -14.7621 15.4469 -0.939882 0.0235531 0.340685
6.09908 -8.26785 18.4165 0.968172 -0.0111986 -0.250035
20.4831 12.6273 -3.86788 0.377389 0.632082 -0.676794
7.01719 -5.73875 21.3793 0.974135 0.0704931 -0.214688
14.3595 1.64948 5.27019 -0.980189 0.156253 -0.121712
14.1148 -16.2538 29.5913 0.917541 0.363821 0.160479
16.77 -7.38922 13.1949 0.627712 0.274492 0.728445
12.4133 -20.3554 26.4901 -0.878528 -0.417415 -0.232278
-2.04357 4.81449 5.04709 -0.352301 -0.855585 -0.379287
-2.37343 10.0518 -4.7599 -0.947867 0.317461 -0.0276774
18.7583 4.23287 5.97931 0.645395 -0.661358 -0.382192
17.8257 0.108176 3.35872 0.679587 -0.410845 -0.607756
6.61588 -4.33059 28.3867 -0.940108 -0.256339 -0.224694
16.4912 2.34376 11.8154 -0.430735 0.731546 0.528496
1.33669 -19.3146 15.1663 -0.819267 -0.490229 -0.297451
3.43875 -15.9243 30.7867 -0.98308 0.126163 -0.1328
3.73926 -2.89239 30.5366 0.366419 0.361558 0.857329
15.2324 -3.66714 5.5229 -0.523987 -0.307969 -0.794098
7.62942 -14.2459 22.355 0.963831 -0.183521 -0.193263
4.17911 -14.9414 14.0573 0.991793 -0.100887 -0.0785396
19.2924 8.90595 0.991767 -0.135944 0.83641 0.530977
22.9575 9.68425 2.35523 0.868403 0.416618 0.268898
0.609015 10.3386 -5.03029 0.537709 0.62066 -0.570658
11.5077 -10.4042 28.2108 0.990347 0.0964444 0.0995568
15.974 -2.54977 5.25698 0.304953 -0.51031 -0.804107
1.4317 11.4424 -4.22088 0.569231 0.815669 -0.103248
13.1989 3.45026 10.0389 -0.616259 0.691519 0.376865
-0.211184 -6.10062 8.10468 -0.998951 -0.0398461 -0.0225478
0.96958 -12.9597 8.22681 -0.583041 -0.542847 -0.604468
7.63544 -0.165208 22.6809 0.942903 0.330304 0.0428173
16.9771 -10.8353 17.0379 0.678594 0.565006 0.469337
7.22371 -4.97092 7.97931 0.994336 0.0862584 -0.0620982
-2.0325 4.21994 5.59433 -0.310431 -0.890461 -0.332732
1.81457 -20.61 23.8444 -0.942782 -0.0024032 0.333402
5.78873 -11.0478 34.0958 0.953777 0.101299 0.282928
7.76803 -3.14765 25.5826 0.9686 0.247565 0.0229257
20.8032 5.37816 6.44383 0.42774 0.74217 0.515968
22.3603 11.5846 0.493436 0.994193 0.0950018 0.0505525
12.85 -16.9362 15.0372 -0.868437 -0.409499 -0.279515
13.0967 -16.0607 38.5586 0.876167 -0.323413 0.357401
4.46381 -5.15258 20.2985 -0.929203 0.138925 0.342464
6.6105 -1.16232 22.3793 -0.994008 0.102399 -0.0382492
5.15803 -21.1871 33.2814 0.651431 -0.563727 0.507789
10.3653 -12.7549 34.1698 -0.960944 0.0525791 0.271703
13.5554 -4.541 5.21526 -0.772935 -0.147739 -0.617045
