ply
format ascii 1.0
comment created by cisstICP
element vertex 300
property float32 x
property float32 y
property float32 z
property float32 nx
property float32 ny
property float32 nz
end_header
-2.81927 15.7841 -4.53644 -0.448664 -0.335519 -0.828328
-0.63644 7.25705 4.89394 -0.993638 -0.0468686 0.102409
20.0094 8.28377 2.92752 -0.290683 0.662595 0.690269
21.1301 13.8188 -3.21116 0.961882 -0.0412862 -0.270331
5.88028 7.86123 4.30907 0.872997 0.460993 0.159251
5.12002 -19.0832 13.5602 -0.703952 0.315417 0.636368
8.52724 -21.9386 10.9493 0.552726 -0.704704 -0.444844
14.4748 -4.9009 4.16 -0.98933 -0.145496 -0.00756195
2.40044 12.1183 -1.35594 -0.637934 -0.497188 -0.588085
9.23835 -7.73448 16.5759 -0.960636 0.0666849 0.269687
18.2459 -6.2275 24.6276 -0.773657 0.17852 0.607936
9.66541 -18.8223 27.3789 0.993993 0.0803217 0.0743386
5.57727 8.60134 2.92613 0.868593 0.464598 0.17232
16.0332 -14.0422 6.23949 -0.991012 -0.0970877 -0.0920254
12.6954 -11.6679 5.59164 -0.9907 -0.00780895 0.135839
15.5776 -7.40983 13.131 -0.989782 -0.00690652 -0.142418
16.3247 -20.3306 14.2149 -0.961018 -0.240092 0.137115
17.1872 -5.6061 0.999301 0.299039 -0.421701 -0.856005
2.46693 1.21035 0.649345 -0.956344 -0.0530199 -0.287393
17.9846 7.89892 -3.47745 -0.912732 0.252615 -0.321102
18.4232 -8.48373 6.64533 0.798297 0.279361 0.533553
17.9203 12.3781 -3.17975 -0.856 -0.107913 -0.505588
3.59984 16.1392 -1.13558 0.745903 0.647712 0.155236
19.0914 4.84127 4.42733 -0.206185 0.609102 0.765821
22.1631 16.4762 -5.45992 0.342511 0.739012 -0.580127
11.3723 -15.9339 17.167 0.854197 -0.299961 -0.424701
4.07924 -1.24996 8.96989 -0.795541 -0.412186 0.44409
16.0207 -20.1369 5.76317 -0.342235 -0.80286 -0.488151
1.27213 6.78215 1.67942 -0.85648 -0.161058 -0.490411
17.828 -24.121 20.6973 -0.846414 -0.440022 -0.29994
18.6908 -21.7244 9.94485 0.488268 -0.652422 -0.579603
22.08 0.779906 4.55487 -0.443066 -0.522673 -0.728358
19.8801 -20.4533 28.7027 -0.661312 -0.200314 0.72287
18.1566 -26.5024 18.3971 -0.858073 -0.347484 -0.378109
-2.52382 8.97442 -0.516137 -0.860394 -0.477804 -0.177274
8.45362 -12.5604 6.67401 0.97069 -0.0398261 -0.237011
17.6084 -26.8413 20.6545 -0.42346 -0.89879 -0.113394
1.9403 7.95892 4.17967 0.156426 0.660419 0.734423
19.4015 2.20638 2.36969 0.92675 -0.0955341 0.363328
6.26125 0.005318 10.058 -0.607237 -0.745004 0.276101
1.22756 2.95108 5.66577 -0.628354 0.226891 0.744105
2.27523 16.6268 -2.63716 0.863928 0.366729 0.345163
15.4084 11.78 -3.25077 -0.914476 0.179415 -0.362691
7.45789 -5.54664 13.8697 -0.932569 0.17156 0.317619
0.822957 14.3223 2.67411 -0.44484 0.597387 0.667268
-1.99715 7.22576 4.05696 -0.990784 -0.0846764 0.10572
8.0229 -20.2121 21.026 -0.915811 0.333655 0.223526
19.7354 -17.8187 25.7609 0.99865 -0.0428275 -0.029379
19.9599 10.4226 0.912776 -0.157224 0.626383 0.763495
8.36567 3.02537 9.20367 0.803532 0.445067 0.395287
20.0154 6.10445 -3.75522 0.545583 -0.342936 -0.764679
17.9119 -9.80689 25.2713 -0.649419 0.435539 0.623347
6.65735 -22.6175 13.2366 0.658525 -0.57614 -0.484157
18.1704 -8.02894 23.2166 0.882621 0.00650509 -0.47004
-0.508669 -4.12349 3.51245 -0.832915 -0.138839 -0.535702
13.2636 -15.258 4.21535 -0.965689 -0.146578 -0.214384
0.0770265 11.9515 3.46848 -0.516636 0.582792 0.627249
2.10872 -3.43163 8.57802 -0.771845 0.0240749 0.635354
8.14323 -19.7134 18.2063 0.914075 -0.107023 -0.391169
14.4062 -15.682 9.69888 -0.993799 -0.102989 0.0419108
17.5785 -4.06699 -0.485113 0.257512 -0.3137 -0.913937
18.7961 0.152052 5.33878 0.123854 -0.81543 -0.56545
9.50118 -0.923581 5.58975 0.981438 -0.0615994 -0.181619
7.13893 2.02662 7.74378 0.732495 0.569412 0.373123
4.92817 -15.5004 7.43846 -0.60838 -0.259274 -0.750101
20.1821 4.95364 -2.95298 0.831773 -0.257738 -0.491655
17.5881 -17.76 5.15851 0.144675 -0.515934 -0.844323
17.5408 -2.99468 24.9788 -0.434027 0.334671 0.836431
8.76473 -5.86736 18.2582 -0.959623 0.0721988 0.271867
11.4434 -3.96249 17.4968 0.941181 0.0711092 -0.330337
22.4213 9.91131 -2.41064 0.814952 -0.447169 -0.368636
16.313 -4.40058 7.5078 0.990961 0.0937234 0.0959854
19.9819 14.259 -3.26535 -0.279155 0.893707 0.351227
10.0688 -14.4483 10.3139 0.97284 -0.0985855 -0.209434
-0.820067 15.0425 -0.33117 -0.489087 0.743239 0.456497
16.5914 -17.5578 22.4071 -0.984009 0.0308369 0.175432
1.78245 15.5654 -0.301695 0.662981 0.748636 0.000196904
16.9171 -1.07913 10.2591 -0.789536 0.606954 0.0907776
1.44881 16.1284 -4.69913 -0.437967 -0.440408 -0.783726
8.72168 -8.92624 22.4178 -0.970021 0.140795 0.198082
6.77401 -10.9955 5.02432 0.736525 -0.299248 -0.606615
14.3276 -7.84861 21.392 0.988679 0.0970292 -0.114448
18.2388 -24.4995 21.9008 -0.420727 -0.890354 -0.17395
0.184251 7.6921 6.69711 -0.214688 0.556686 0.802502
7.66904 -13.0954 13.964 -0.767475 0.28715 0.573172
19.7932 4.28734 4.36993 0.913554 -0.0763438 0.399488
5.94351 -6.24816 3.33641 0.831761 -0.160834 -0.531325
18.7281 6.39022 -4.7119 0.0313125 -0.224689 -0.973927
0.0599427 10.1436 4.02576 -0.0817463 0.637905 0.765764
7.53592 -9.23817 3.40322 0.732107 -0.17271 -0.658932
2.27788 1.40856 2.88404 -0.969509 -0.0162736 0.244516
15.4184 -4.95424 16.3675 0.99838 -0.0550177 -0.0144862
6.3116 -20.4903 16.4636 -0.803588 0.232959 0.547701
9.96621 -2.31049 4.18416 0.917548 0.122665 -0.378231
16.7183 -1.32294 21.2384 0.319179 0.874234 0.36584
17.355 -4.91373 -1.94506 0.232123 -0.268239 -0.934969
17.1656 2.40367 -2.92157 -0.877899 -0.108745 -0.466335
7.95123 -6.76034 9.03907 -0.484828 0.473117 0.735597
17.6133 -2.56194 17.6182 0.934821 -0.0553506 -0.350778
17.1844 -8.18284 8.98352 0.979422 0.160252 0.122687
15.1219 3.16377 1.47204 -0.992474 0.0957523 0.0763279
15.7641 -18.3378 7.63158 -0.918792 -0.336118 -0.206994
17.7705 -12.3322 19.4875 0.984548 0.109557 -0.136614
19.6618 2.0293 4.27027 0.826831 -0.447251 0.341053
19.1336 -20.6175 16.8381 0.975727 -0.152902 0.15677
17.991 -1.82176 8.26875 0.289302 -0.795861 -0.531892
8.74602 -24.1917 15.5164 0.61228 -0.682701 -0.398789
20.5508 -19.4401 16.7783 0.899988 0.26719 0.34443
14.5755 -5.66643 0.159816 -0.172437 -0.28649 -0.942438
12.7751 -9.24824 21.799 0.999665 0.0251013 0.00625937
9.53233 -23.6645 17.5575 0.51544 -0.760685 -0.394564
23.3479 10.4109 -0.986935 0.982178 -0.13924 -0.126248
16.3336 -24.6378 23.4509 0.974144 -0.202767 -0.0996496
4.10255 3.25131 9.13459 0.435591 0.543407 0.717614
22.6366 11.7118 -4.69334 0.913046 -0.24486 -0.326176
19.8195 -17.5732 5.65718 0.392299 -0.320378 -0.862241
8.93703 -23.0042 27.7616 -0.951642 -0.253778 0.17313
8.90886 -21.567 19.0646 -0.80987 0.00990273 0.586526
17.4639 -5.44071 24.4122 -0.839502 0.193216 0.507843
19.5746 -18.5553 5.15286 0.707103 -0.384615 -0.59336
16.458 -0.455311 -0.580021 -0.20946 -0.108308 -0.9718
12.1242 -18.1085 25.7075 0.995677 0.0554899 -0.0744861
18.6402 -24.2459 11.487 -0.572891 -0.818308 0.0465504
19.6194 -12.0618 26.1155 0.992692 0.0767458 -0.0931279
22.5552 17.1197 -6.40182 0.0535982 0.721115 -0.690739
12.7631 -14.0588 23.7564 0.96844 -0.248051 0.0243756
16.039 -9.45232 14.3709 -0.759097 0.0400428 -0.649744
17.7038 11.0594 -0.611599 -0.472583 0.621536 0.624786
21.0496 -17.6434 8.30008 0.998474 0.0372375 0.0407914
22.0745 0.746971 8.94091 0.684915 -0.516656 0.513768
18.0244 9.13684 -3.81036 -0.788316 0.0747383 -0.610715
21.0218 9.86179 -0.536237 0.996444 0.0835663 -0.0107891
2.93902 -20.9002 11.9504 -0.990461 -0.0312391 0.134202
10.2112 -19.5768 30.8617 -0.602803 -0.0266952 0.797443
12.3599 -19.0446 28.8268 0.977483 -0.0719255 0.198378
18.8866 -19.4294 21.6184 0.955144 0.148473 -0.256232
14.4151 -15.3736 4.75445 -0.859375 -0.304327 -0.410926
21.0049 1.15563 6.52615 -0.171888 -0.77457 -0.608684
2.84904 -17.8609 12.298 -0.715384 0.337908 0.611591
6.24137 5.74274 -2.31982 0.591553 -0.0852349 -0.801748
17.8213 -0.0118306 8.0177 0.972785 -0.212625 -0.0920826
6.31149 3.92221 5.51423 0.743098 0.48139 0.464833
4.11741 -13.9839 11.3359 -0.649033 0.358688 0.670894
1.68088 13.126 -1.23037 -0.403979 -0.5 -0.766029
20.3431 -11.7829 3.49302 0.673836 -0.209053 -0.708691
-0.803244 16.0561 -4.09441 0.236463 0.9502 -0.202989
18.7803 -7.74428 7.784 0.877724 0.181627 0.443409
17.911 -25.36 24.1229 0.943827 -0.306355 -0.123842
6.29269 -0.576241 10.1566 -0.326616 -0.638912 0.696501
14.7751 -19.1277 15.1937 -0.983523 -0.1333 0.122123
19.6566 -17.5836 26.4638 0.919538 0.238192 -0.312593
20.0353 -13.3279 9.20157 0.860535 0.332434 0.385963
1.73662 0.651605 -0.20983 -0.657265 -0.0201509 -0.75339
15.7512 -4.91241 18.7117 0.956271 -0.178633 -0.231596
9.76034 -17.8655 15.3595 0.946997 -0.1467 -0.28579
3.23594 14.0523 2.89792 0.701595 0.565626 0.433396
-0.895919 7.93692 3.4755 -0.976796 -0.0514226 0.207906
15.0939 2.61342 5.52946 -0.82367 0.205248 0.528622
15.1611 -3.90719 9.21495 -0.963645 0.123933 0.236704
12.1232 -4.68589 20.1154 -0.999604 -0.0240175 0.0146335
19.3976 -21.6143 28.8365 0.637546 -0.553224 0.53617
5.69712 -22.787 17.8305 -0.748192 -0.488995 0.448434
9.94599 -21.839 23.2184 -0.917818 -0.0370883 0.395264
17.8926 -11.2244 22.6008 0.993915 -0.0567171 -0.0944259
9.70428 -21.3974 24.4146 -0.922624 0.331969 0.196369
16.3781 -24.4939 12.1551 -0.564905 -0.81463 -0.131379
13.2061 -12.2311 2.20612 -0.976825 -0.189904 -0.0987356
4.07378 -1.4793 0.4216 0.0958863 -0.258552 -0.961227
14.2257 -3.12351 3.11425 -0.996218 0.0465319 -0.0733825
16.6172 -3.28685 24.3261 -0.561838 0.585497 0.584406
20.7404 0.734148 6.83344 -0.243176 -0.922183 -0.300739
11.0522 -24.8274 25.9422 0.701842 -0.70506 0.101529
21.1876 0.11839 6.24749 0.931562 -0.251633 -0.262436
15.2304 -21.6602 23.2053 -0.994999 -0.0770567 0.0635497
16.791 -10.8151 2.02449 0.658808 -0.284726 -0.69635
5.72992 -11.3749 4.36398 0.105787 -0.415278 -0.903523
11.593 -6.8461 18.3852 0.841759 -0.120805 -0.526164
18.2809 -18.6051 22.6789 0.957802 0.198054 -0.208303
18.8249 -17.0723 23.5541 0.945887 0.0857072 -0.312972
11.6241 -2.55396 23.5502 -0.914426 0.250262 0.318111
11.6511 -7.37419 21.866 -0.99029 -0.10939 0.0857925
18.1732 3.92736 7.36013 -0.374444 0.541354 0.752813
-1.34621 17.0691 -0.880979 0.281542 0.914484 0.29061
5.76979 -4.99371 5.82873 0.974217 -0.0058952 -0.225537
20.142 1.80212 3.94209 0.657324 0.28203 0.698845
4.03528 -15.8589 8.53585 -0.35964 -0.346168 -0.866503
4.87052 3.53466 -1.11371 0.533698 -0.0906614 -0.840801
19.8957 0.264416 2.60111 0.674162 0.295141 0.677051
16.858 -10.1794 12.7588 0.6873 -0.656261 0.31135
5.64483 5.31639 7.2531 0.138957 0.622475 0.770205
21.2852 14.1345 -4.46586 0.748319 0.512283 0.421409
20.2098 -19.6644 14.4514 0.934058 0.139022 0.328952
22.6686 0.625923 5.06269 0.956599 -0.290779 -0.0191247
17.9682 -14.479 1.69917 0.39235 -0.393495 -0.831398
13.776 -20.1463 26.6759 0.986635 -0.0572314 -0.152563
15.2423 -17.6739 3.63121 -0.77758 -0.436427 -0.452659
6.88663 -15.5606 5.86164 0.681809 -0.328861 -0.653443
2.60867 14.3777 -2.99781 0.552765 0.0939243 -0.828027
16.9908 -22.5939 11.1548 -0.178178 -0.981778 -0.0660614
18.3891 -25.3824 23.7189 -0.937348 -0.253416 0.239078
6.52955 -1.48334 9.03955 -0.750432 -0.249451 0.612066
6.30133 -5.19445 2.16499 0.689441 -0.117722 -0.714711
16.2817 9.80214 -4.70323 -0.925399 0.172599 -0.337412
3.38262 -8.0695 4.23563 -0.741421 -0.236904 -0.62783
-0.416668 9.99817 1.00545 -0.924517 -0.334055 -0.183509
3.97813 -12.4569 11.1737 -0.819567 0.0713539 0.568524
14.0248 -2.07583 10.7389 -0.964104 0.231302 -0.130399
17.9157 -2.44995 20.7698 0.448953 0.89272 0.0386315
3.10391 7.48444 9.05691 0.0301981 0.678668 0.733824
20.1961 -3.24355 4.92006 0.6327 0.00238508 0.774393
9.66468 -13.8393 21.3125 -0.989041 0.123812 0.0804271
14.2655 -10.8158 2.34818 -0.97933 -0.140742 -0.145275
18.1681 -3.83943 21.0226 0.922941 0.28464 0.259153
9.78904 -16.8995 17.1226 0.921776 -0.135655 -0.363216
10.6656 -24.232 25.6073 -0.383885 -0.751915 0.535962
19.3717 -22.6878 15.4896 0.956772 -0.290679 -0.00970091
16.2592 -4.92972 -1.02942 -0.702686 -0.216993 -0.677604
20.2313 -19.0101 29.187 0.987699 -0.0124215 -0.155874
9.61937 -15.2889 8.17198 0.973265 -0.0980451 -0.207705
20.8007 4.11704 5.74465 0.526441 0.483398 0.699418
3.38823 -7.59385 7.64789 -0.848335 0.0750784 0.52411
5.35519 -14.0454 10.4122 -0.846476 0.124822 0.517588
21.9598 11.2394 -4.53721 0.823711 -0.360191 -0.437908
9.12781 -21.8656 29.5419 -0.928425 -0.292254 0.229381
15.3439 3.24354 1.41777 -0.868054 0.261381 0.422093
18.2762 -11.4818 26.2997 -0.227459 0.44278 0.867299
17.7103 -17.7287 29.9708 -0.900199 -0.0982661 0.424247
19.3509 -17.9299 25.0953 0.987444 0.0958015 -0.125603
22.064 5.0341 2.6929 0.355923 -0.722106 -0.593197
7.42979 4.26872 9.09007 0.827163 0.373035 0.420292
8.64875 -2.07519 9.76233 -0.788676 -0.0671221 0.611134
15.7737 -11.5522 3.90193 -0.985123 -0.0439123 -0.166149
3.58315 1.36726 6.1627 -0.881142 -0.17815 0.438008
11.0678 -18.7541 23.0107 0.974584 -0.0907682 -0.204812
18.2992 14.7792 -7.1736 -0.552818 0.712613 -0.431944
12.9795 -17.76 24.6269 0.980239 -0.0115536 -0.197478
13.0842 -7.3274 19.0053 0.885953 -0.127254 -0.445976
11.3251 -10.3793 24.3823 -0.968403 0.234103 -0.0859732
19.8686 3.73072 2.00378 0.81287 0.0438663 0.580791
14.8276 -20.1989 16.2139 -0.967874 -0.241124 -0.0712735
2.52427 -15.5979 8.91148 -0.9821 -0.0646967 0.176903
21.3857 0.296427 2.03953 0.961432 -0.098873 -0.256656
-0.36654 3.92302 1.94041 -0.991208 -0.121818 0.0516356
5.39935 5.92327 -2.16502 0.827286 0.0771956 -0.556452
11.0934 -9.14907 27.8608 0.829961 0.417954 0.36943
18.5383 -17.5875 13.8688 0.940917 0.217141 0.259854
15.9326 -13.683 1.89628 -0.769979 -0.329168 -0.546608
18.1258 -1.0546 11.6415 0.864258 0.502802 0.0157569
20.4156 -20.4776 12.989 0.96861 0.135727 0.208263
3.49361 -10.3045 2.34832 -0.472015 -0.310442 -0.825122
16.2887 -4.52209 12.0811 0.986902 0.010395 0.160984
7.92826 -19.594 9.37343 0.614694 -0.498773 -0.611046
8.19966 -24.8089 18.8001 0.577958 -0.65129 -0.491718
0.104588 16.076 0.88353 -0.280151 0.837504 0.469151
2.47918 -13.9115 6.19265 -0.608497 -0.388637 -0.691876
2.97809 -14.0856 9.92179 -0.847498 -0.0222419 0.530332
9.56754 -8.78627 13.0826 0.894183 0.0102564 -0.447583
21.1736 16.3894 -6.19401 0.294228 0.764719 -0.573267
11.2879 -7.12225 16.2902 0.91471 0.0801483 -0.396083
15.9668 3.74512 1.19031 -0.965661 0.223714 0.1321
18.842 -19.6546 20.0659 0.961361 0.272241 0.0408587
19.0304 -7.0861 6.04912 0.78237 0.0559491 0.620295
16.1811 -22.7711 16.5243 -0.942552 -0.307754 -0.129934
0.21734 7.56644 5.24967 -0.499583 -0.717277 -0.485727
-1.54747 15.1036 -2.73729 -0.900301 0.354669 0.252326
20.6432 5.87698 1.52719 0.491665 -0.571551 -0.656959
18.8254 2.58468 -1.72962 0.504133 -0.274209 -0.818938
12.4143 -7.49935 23.3497 -0.98591 -0.151228 -0.0714968
19.4059 2.68467 7.09916 -0.246672 0.593547 0.766065
3.23418 -18.4509 8.41787 -0.904494 -0.364386 -0.221616
8.69263 -19.1771 23.5701 -0.973518 0.197517 0.11511
10.1684 -6.52371 26.3446 0.561126 0.119074 0.819121
16.3658 -1.49756 -0.0126777 -0.697305 -0.0763265 -0.712699
11.2739 -15.6206 15.0753 0.884876 -0.170444 -0.433525
6.20183 -14.0655 7.78857 0.942643 -0.120479 -0.311302
20.6204 11.6235 -2.21116 0.0513622 0.681683 0.729843
24.5395 11.8771 -1.52263 0.939834 0.29824 0.166626
1.33621 15.3207 -3.56653 0.470548 0.720188 -0.509818
16.5784 -13.5393 20.6985 0.995083 0.0257939 -0.0956305
17.1425 -0.382127 -0.16025 0.0903931 -0.305107 -0.948018
2.40323 16.1501 -2.71563 0.61211 0.790291 -0.0275936
15.947 4.34143 6.38398 -0.461439 0.600804 0.65277
1.57759 -3.83491 5.17723 -0.982909 0.0100135 0.18382
2.10537 -10.5499 3.42026 -0.739653 -0.348474 -0.575743
12.6753 -2.08467 18.7066 0.959686 0.268225 -0.0840086
19.6662 -11.391 8.83324 0.808276 0.399668 0.432384
8.9139 -3.0302 3.72792 0.966065 0.0562857 -0.252092
0.280085 6.8538 5.62557 -0.452827 -0.764473 -0.458834
5.29298 -21.8991 16.2337 -0.85422 -0.0453951 0.517925
12.1005 -15.3911 27.3523 0.996098 -0.0138976 0.0871516
13.0962 -5.70201 20.724 0.973006 0.192087 -0.12791
22.8385 6.78039 1.79847 0.589479 0.570094 0.572282
23.7685 14.2072 -2.71019 0.989014 0.0365151 -0.143238
14.6672 -16.6127 6.38371 -0.941292 -0.288693 -0.175
19.639 -21.6715 28.8286 0.89494 -0.439981 0.0741504
8.63841 -6.17482 15.9528 -0.82582 0.0884334 0.556957
11.5214 -2.92941 18.4056 -0.967741 0.151306 0.201454
10.3656 -24.9659 24.3227 0.682665 -0.700436 0.208225
16.4192 -17.2572 26.0364 -0.878936 0.0240231 0.476333
14.5862 -2.19359 -0.150252 -0.890068 0.0449544 -0.453606
