ply
format ascii 1.0
comment created by cisstICP
element vertex 300
property float32 x
property float32 y
property float32 z
property float32 nx
property float32 ny
property float32 nz
end_header
-12.9907 21.2251 -17.6372 -0.292235 -0.365346 -0.883811
-12.1443 12.9393 -7.78655 -0.992948 -0.101119 -0.061877
8.50016 14.6321 -6.33286 -0.430574 0.656048 0.619844
10.4547 20.0963 -12.3243 0.994942 -0.00140222 -0.100442
-5.64258 13.7541 -7.29868 0.816615 0.495833 0.295447
-7.10318 -13.0387 2.30203 -0.805837 0.300769 0.510063
-3.22385 -15.8211 0.355642 0.637874 -0.697356 -0.32682
3.24406 1.2902 -5.73715 -0.97683 -0.160184 -0.141931
-8.26196 17.7933 -13.5555 -0.513982 -0.526799 -0.676983
-3.89239 -1.507 5.7018 -0.990625 0.0458963 0.128668
3.60239 0.441955 15.0969 -0.87025 0.169095 0.46268
-4.92607 -12.3878 16.6729 0.957961 0.111958 0.26415
-5.73422 14.4598 -8.72897 0.816446 0.496104 0.295461
4.71471 -7.75613 -3.22368 -0.958601 -0.126738 -0.254992
1.45966 -5.50782 -4.46798 -0.998917 -0.0447971 -0.0125686
2.91802 -1.02634 3.34673 -0.9553 -0.0484275 -0.291645
3.87001 -13.894 4.82928 -0.968525 -0.247648 -0.0250858
6.46408 0.623558 -8.38891 0.440193 -0.423811 -0.79159
-8.19542 6.92974 -11.3223 -0.89919 -0.0999651 -0.425986
7.57988 14.0695 -12.9743 -0.858617 0.21669 -0.464567
6.83271 -2.11367 -2.55301 0.696959 0.318598 0.642451
7.32989 18.5483 -12.792 -0.763468 -0.16234 -0.62511
-7.23952 21.8557 -13.2301 0.687759 0.676751 0.262671
7.45168 11.1865 -4.92864 -0.350637 0.608812 0.711619
11.765 22.7485 -14.4303 0.423344 0.744553 -0.516159
-1.63618 -9.61803 6.82183 0.926795 -0.264989 -0.266141
-7.91279 4.66797 -2.79657 -0.850977 -0.410726 0.327326
4.96811 -13.855 -3.55848 -0.236561 -0.821407 -0.51897
-9.71476 12.4746 -10.6295 -0.751903 -0.200444 -0.628063
4.3912 -17.5199 11.5545 -0.775302 -0.478951 -0.411719
6.95402 -15.2794 1.0419 0.599094 -0.642258 -0.478111
10.5005 7.23165 -4.21724 -0.30867 -0.552678 -0.774125
4.97196 -13.6486 19.7047 -0.758613 -0.214013 0.615389
5.17007 -19.9277 9.39445 -0.775948 -0.376725 -0.505948
-13.1587 14.499 -13.4715 -0.8057 -0.502704 -0.313266
-2.87357 -6.52511 -4.08248 0.997731 -0.00479877 -0.0671521
4.26523 -20.2465 11.5371 -0.363224 -0.919931 -0.147628
-9.50747 13.7159 -8.08028 0.0187895 0.657747 0.753005
8.17967 8.52892 -6.84692 0.848904 -0.0450953 0.52662
-5.98128 6.01494 -1.39094 -0.609173 -0.770544 0.187534
-10.3034 8.71281 -6.62046 -0.741185 0.213378 0.636487
-8.31065 22.2724 -14.9407 0.782585 0.425544 0.454393
4.8842 17.8642 -13.2642 -0.847443 0.162886 -0.505281
-5.26485 0.572663 2.68998 -0.975155 0.154148 0.159093
-10.5536 20.0111 -9.8925 -0.576901 0.594776 0.559845
-13.3455 12.8475 -8.83619 -0.991357 -0.122104 -0.0479797
-5.44735 -13.9409 10.1687 -0.954367 0.292322 0.0610837
5.23729 -11.071 16.721 0.989179 -0.0031678 0.146677
8.72044 16.7333 -8.37556 -0.306798 0.626284 0.71669
-3.85768 9.08962 -1.95298 0.707539 0.49143 0.507823
9.68259 12.3404 -12.8719 0.676067 -0.339857 -0.653782
3.27591 -3.1352 15.7567 -0.759778 0.412851 0.502286
-5.42596 -16.5239 2.31676 0.741382 -0.56694 -0.359072
3.81745 -1.38485 13.7337 0.948929 0.033465 -0.313711
-11.4404 1.54768 -8.87188 -0.719023 -0.182057 -0.670717
2.35823 -9.09958 -5.6503 -0.909091 -0.175192 -0.377969
-11.3481 17.6302 -9.17943 -0.628773 0.57652 0.521795
-9.72311 2.41433 -3.45993 -0.877025 0.00312915 0.480435
-4.87573 -13.4865 7.39729 0.968635 -0.0708775 -0.238166
2.58676 -9.39088 -0.0451696 -0.983776 -0.133979 -0.119304
7.04917 2.14949 -9.82232 0.422348 -0.326896 -0.845435
7.15285 6.50623 -3.9735 0.234978 -0.805897 -0.543429
-2.01735 5.12033 -5.23961 0.999695 -0.012598 -0.0212463
-4.79376 8.02504 -3.57289 0.630026 0.601042 0.491748
-6.38532 -9.56951 -3.84596 -0.461816 -0.297295 -0.835668
9.74892 11.2098 -12.0275 0.906916 -0.248448 -0.340261
6.54065 -11.437 -3.94874 0.286046 -0.525456 -0.801295
2.75011 3.65452 15.2538 -0.577132 0.334849 0.744846
-4.69579 0.371434 7.24029 -0.995282 0.0306106 0.0920658
-1.98743 2.35281 6.8899 0.979178 0.0975491 -0.178029
11.7141 16.2491 -11.2336 0.885829 -0.414955 -0.207653
4.48456 1.90968 -2.14347 0.96088 0.106772 0.255558
9.31851 20.4963 -12.5776 -0.350462 0.893778 0.279888
-1.82825 -8.29469 -0.184017 0.995783 -0.0800349 -0.0448499
-11.696 20.6237 -13.1436 -0.569606 0.733022 0.37179
2.68743 -10.9742 12.8884 -0.999952 0.000410477 0.00982397
-9.15173 21.235 -12.6957 0.629502 0.771069 0.0958096
4.52132 5.2962 0.594561 -0.812086 0.580478 -0.0596827
-8.76749 21.7112 -17.0993 -0.292181 -0.470808 -0.832448
-5.33536 -2.61568 11.403 -0.99357 0.112835 0.00930131
-4.303 -5.04651 -6.02204 0.847887 -0.272552 -0.454756
0.327375 -1.36616 11.2949 0.989549 0.13239 0.057154
4.60787 -17.8637 12.8176 -0.342571 -0.915783 -0.209732
-11.6482 13.4326 -5.88269 -0.365197 0.5524 0.749323
-4.8412 -6.96189 2.98737 -0.859253 0.276889 0.430135
8.16989 10.6558 -4.85669 0.829204 -0.0382322 0.557637
-4.98663 -0.359571 -7.9303 0.910766 -0.140916 -0.388134
8.56393 12.566 -14.0345 0.194315 -0.249141 -0.948773
-11.4022 15.8325 -8.59218 -0.237145 0.650756 0.721304
-3.33662 -3.29226 -7.53381 0.835257 -0.168643 -0.523359
-8.75896 7.15954 -9.15474 -0.996412 -0.00900963 0.0841605
2.14836 1.47734 6.45629 0.988812 -0.0194449 0.147892
-6.36783 -14.3548 5.39351 -0.881875 0.240201 0.405709
-1.28308 3.7262 -6.51739 0.968696 0.139208 -0.205548
2.50941 5.23328 11.3923 0.213902 0.892172 0.397839
7.0972 1.27085 -11.2797 0.400533 -0.264787 -0.877189
6.84865 8.55988 -12.4382 -0.772702 -0.168574 -0.611976
-3.93916 -0.705907 -1.96402 -0.609522 0.473649 0.63572
4.03076 3.96373 7.99889 0.979835 -0.00906666 -0.199602
5.21417 -1.8151 -0.459343 0.930333 0.209373 0.301069
4.08131 9.32511 -8.46148 -0.994048 0.0665666 -0.0862387
4.34977 -12.034 -1.79916 -0.865921 -0.36759 -0.339203
4.17448 -5.76224 10.0874 0.990219 0.136526 0.0287711
8.12604 8.39325 -4.92597 0.766798 -0.413161 0.491242
6.21174 -14.0405 7.8868 0.948367 -0.113915 0.296013
5.93309 4.55656 -1.17352 0.401328 -0.80333 -0.439996
-3.69771 -17.9871 4.94546 0.688879 -0.667322 -0.283069
7.58245 -12.8169 8.03588 0.824997 0.299246 0.479408
4.03115 0.46034 -9.64732 0.00328796 -0.309465 -0.950905
-1.22758 -2.81049 11.4708 0.984047 0.0612349 0.167038
-3.27783 -17.3987 7.07615 0.604354 -0.746197 -0.279188
12.3756 16.804 -9.68785 0.994619 -0.0984975 0.0321257
2.47683 -18.04 14.0339 0.983572 -0.171876 0.0551793
-8.05501 9.16959 -2.73144 0.299046 0.571405 0.764243
12.2503 18.0166 -13.4891 0.963703 -0.21684 -0.155745
8.65142 -11.1661 -3.09212 0.552095 -0.331548 -0.765027
-5.57948 -16.585 17.0237 -0.958903 -0.283657 0.00666496
-4.20688 -15.2982 8.41186 -0.903211 -0.0301905 0.428134
2.84331 1.19797 14.7375 -0.916434 0.171668 0.361494
8.52389 -12.1644 -3.60781 0.80388 -0.376942 -0.4601
5.84989 5.71893 -10.1824 -0.0369525 -0.149159 -0.988123
-2.24686 -11.6197 15.4158 0.993351 0.0646028 0.0952858
6.72525 -17.7744 2.61069 -0.540385 -0.839224 -0.0607276
4.8877 -5.31612 16.9222 0.990744 0.107961 0.0822864
12.2882 23.3887 -15.3086 0.147717 0.703885 -0.694784
-1.41718 -7.58454 13.5068 0.957827 -0.214955 0.190687
3.22935 -3.03053 4.69143 -0.643074 0.00998044 -0.765739
6.73042 17.267 -10.2661 -0.592635 0.613006 0.5225
9.4271 -11.1493 -0.281226 0.975398 0.0971197 0.197906
9.76768 7.27344 0.107062 0.605805 -0.490996 0.626038
7.63657 15.3021 -13.3237 -0.662516 0.0394654 -0.748008
10.0249 16.1842 -9.61596 0.981011 0.128283 0.145469
-8.92986 -14.9559 0.39483 -0.998401 -0.0389341 -0.0409781
-4.9434 -13.0638 20.2141 -0.733605 -0.0413879 0.678314
-2.50398 -12.4938 18.5513 0.929908 -0.0350223 0.366122
5.13793 -12.7801 12.5324 0.98017 0.172165 -0.098108
3.40725 -9.16684 -4.92566 -0.769676 -0.348477 -0.534941
9.10199 7.60429 -2.45992 -0.0531725 -0.787759 -0.613684
-9.16935 -11.9159 0.654403 -0.818402 0.326194 0.473092
-4.12087 11.5362 -13.7272 0.726578 -0.0817045 -0.682209
5.75207 6.35514 -1.48979 0.981749 -0.172444 0.0802014
-5.29708 9.85314 -5.95062 0.648246 0.512808 0.562854
-7.87815 -8.01511 -0.171433 -0.755223 0.337553 0.561868
-9.0229 18.778 -13.5734 -0.237018 -0.537391 -0.809341
9.34965 -5.39911 -5.26934 0.789098 -0.18653 -0.585261
-11.0854 21.5729 -16.874 0.21993 0.959379 -0.176702
6.97291 -1.34319 -1.38785 0.785598 0.229302 0.574679
3.94205 -18.6967 14.9736 0.958046 -0.283517 0.0420332
-5.94886 5.43655 -1.27543 -0.413696 -0.638304 0.649171
2.14327 -12.7277 5.51092 -0.984221 -0.172174 -0.0408207
5.03571 -10.8268 17.3957 0.953803 0.265434 -0.140729
8.14546 -6.85597 0.342864 0.779069 0.371948 0.504685
-8.75544 6.33195 -12.2777 -0.518502 -0.0391614 -0.854179
2.08575 1.57046 8.82178 0.988046 -0.141566 -0.061022
-2.86564 -11.6338 4.81646 0.985361 -0.12025 -0.120843
-8.20417 19.8269 -9.26656 0.584571 0.610867 0.533965
-12.1853 13.5856 -9.24329 -0.995937 -0.0756954 0.0487743
3.3967 8.84348 -4.45328 -0.910814 0.202252 0.359879
3.05058 2.39279 -0.661926 -0.994661 0.0914127 0.0478786
-1.73016 1.6977 9.60048 -0.988287 -0.0400279 -0.147261
4.50972 -14.8228 19.7828 0.534292 -0.537018 0.652797
-7.13017 -16.6474 6.69116 -0.794158 -0.516043 0.320955
-3.86616 -15.4639 12.685 -0.970242 -0.0644714 0.233395
3.74383 -4.59789 13.1523 0.998639 -0.0181254 0.048905
-4.31658 -15.0104 13.8145 -0.957449 0.287925 0.0197408
4.39227 -18.0876 2.90071 -0.503257 -0.839112 -0.206453
2.54257 -6.11107 -7.70883 -0.942793 -0.217662 -0.252517
-6.49145 4.29265 -11.2206 0.263737 -0.269687 -0.926127
3.11782 3.04 -6.84935 -0.971725 0.0179551 -0.235434
1.95707 3.32008 14.4641 -0.661267 0.581209 0.474259
8.80311 7.17939 -2.19125 -0.153913 -0.939385 -0.306378
-3.13671 -18.3662 15.6207 0.700489 -0.673496 0.236046
9.3601 6.56924 -2.68115 0.970432 -0.217403 -0.104874
1.33905 -15.1062 13.5424 -0.988638 -0.0983293 -0.113696
6.06285 -4.57766 -7.32664 0.777716 -0.260302 -0.57219
-5.21081 -5.47227 -6.83732 0.263393 -0.438387 -0.859326
-1.89928 -0.50848 7.8553 0.918825 -0.0720657 -0.388029
4.3396 -11.9588 13.4594 0.974888 0.216546 -0.0519727
4.68349 -10.3937 14.3779 0.982709 0.127805 -0.133974
-2.85784 3.8698 12.8566 -0.965579 0.217317 0.142933
-2.40393 -0.974794 11.3087 -0.986872 -0.144324 -0.0724912
6.08752 10.2922 -2.16839 -0.502309 0.553162 0.664603
-12.1853 22.6215 -13.8182 0.192677 0.928687 0.316884
-5.61019 0.930633 -5.52988 0.997786 0.0242509 -0.0619352
8.66084 8.17692 -5.16499 0.523154 0.299968 0.797703
-7.43665 -9.93933 -2.90363 -0.196997 -0.363149 -0.910667
-5.60472 9.30381 -12.7152 0.668084 -0.0766619 -0.740126
8.68787 6.60908 -6.49336 0.546413 0.327027 0.771029
4.32659 -3.75684 3.25385 0.649367 -0.629537 0.426622
-6.28565 11.2534 -4.37777 -0.0102417 0.623354 0.781873
10.8063 20.3956 -13.5428 0.654175 0.535358 0.534273
7.63963 -13.0924 5.6902 0.866421 0.18483 0.463846
11.001 7.10642 -3.61572 0.953247 -0.261438 0.151559
7.38931 -8.20446 -7.37035 0.531987 -0.387962 -0.752646
-0.717186 -13.5835 16.6896 0.999804 -0.0197079 -0.0020524
4.47958 -11.4566 -5.84462 -0.6792 -0.468851 -0.564682
-4.19126 -9.59022 -5.0753 0.800313 -0.313732 -0.510951
-7.85324 20.0301 -15.1906 0.679143 0.110392 -0.725657
5.10412 -16.1852 1.97313 -0.119346 -0.98935 -0.0833307
4.48107 -18.7098 14.6549 -0.95913 -0.272042 0.0778603
-5.50209 4.51907 -2.31728 -0.831721 -0.270195 0.48501
-4.47167 0.685518 -9.04975 0.800488 -0.109084 -0.589339
6.04676 15.8926 -14.5073 -0.863863 0.132391 -0.486018
-7.6043 -2.25112 -7.42645 -0.599087 -0.290274 -0.746214
-11.3659 15.6195 -11.6457 -0.870481 -0.368562 -0.326229
-8.03526 -6.49669 -0.388643 -0.90635 0.0435437 0.420278
1.62138 4.21029 0.611502 -0.942229 0.172173 -0.287334
3.80201 4.13971 11.1537 0.40516 0.910184 0.0860844
-9.15604 13.3645 -3.06833 -0.10281 0.689475 0.716976
8.70622 3.15342 -4.07847 0.491856 0.0326073 0.870066
-4.07188 -7.51204 10.5796 -0.98957 0.0966081 -0.106859
3.51979 -4.6585 -7.4253 -0.934157 -0.184437 -0.305504
4.05129 2.7641 11.4759 0.859848 0.31978 0.397996
-3.15974 -10.6374 6.53784 0.968442 -0.11854 -0.219247
-3.48037 -17.79 15.2132 -0.458684 -0.746363 0.482236
6.73373 -16.1243 6.64309 0.950274 -0.270407 0.154467
5.86558 1.23333 -10.5579 -0.570428 -0.260464 -0.778954
5.19353 -12.1863 20.2078 0.999366 0.0159835 0.0318214
-1.88979 -9.18656 -2.35139 0.99659 -0.0727314 -0.0389743
8.93976 10.5433 -3.33077 0.404715 0.515033 0.75561
-8.18005 -1.71736 -4.07183 -0.921297 0.047293 0.385972
-6.50286 -8.05034 -0.875992 -0.918139 0.107651 0.381355
11.5717 17.5243 -13.4366 0.902349 -0.34386 -0.259859
-5.72198 -15.4102 18.785 -0.939712 -0.336026 0.0634701
4.3067 9.41143 -8.48006 -0.927611 0.247929 0.279409
3.51547 -4.77896 16.8685 -0.390119 0.440249 0.808696
2.53928 -10.9779 20.5348 -0.95429 -0.137792 0.265225
4.97227 -11.2065 16.0037 0.989372 0.14506 0.0100722
10.6637 11.4504 -6.15129 0.484291 -0.711519 -0.50912
-4.79932 10.2984 -2.24774 0.718963 0.42026 0.5536
-3.51524 4.01188 -1.24076 -0.880006 -0.0794988 0.468262
4.77091 -5.31665 -5.62729 -0.938727 -0.0890656 -0.332955
-8.01569 7.21854 -5.70522 -0.932078 -0.206142 0.297886
-2.8205 -12.3468 12.5965 0.997676 -0.0586129 -0.0347541
8.29313 20.8923 -16.721 -0.496082 0.677832 -0.54263
-1.23506 -11.2609 14.484 0.999241 0.00978672 -0.0376934
-0.517771 -0.92826 8.72426 0.954748 -0.0998708 -0.280147
-3.05115 -3.9458 13.8033 -0.944963 0.212447 -0.248819
8.6542 10.0618 -7.16465 0.711362 0.0772049 0.698573
2.05838 -13.779 6.54961 -0.938769 -0.252265 -0.234679
-8.99633 -9.72336 -2.78912 -0.995521 -0.0943252 0.00639332
10.2487 6.68202 -6.80129 0.992525 -0.0812036 -0.0911069
-11.2857 9.56637 -10.5791 -0.980526 -0.157257 -0.117639
-4.98204 11.6907 -13.7179 0.902871 0.0874998 -0.420912
-3.89488 -2.66496 17.1671 0.738994 0.465579 0.486954
6.02529 -11.0836 4.79258 0.877516 0.249268 0.409671
5.32581 -7.47476 -7.53066 -0.658972 -0.375942 -0.651478
5.48235 5.38533 2.157 0.834411 0.529835 0.151769
8.11022 -13.923 4.3007 0.916644 0.169819 0.361836
-7.11302 -4.513 -9.2187 -0.313912 -0.345689 -0.884284
3.70478 1.86551 2.36431 0.948352 0.0515384 0.313006
-3.62431 -13.5254 -1.34987 0.723501 -0.497787 -0.478283
-4.76268 -18.5663 8.10652 0.667036 -0.639671 -0.381948
-11.018 21.7085 -11.8162 -0.378275 0.832119 0.405569
-8.64088 -8.08618 -5.51513 -0.467452 -0.428357 -0.773304
-8.76314 -8.17952 -1.75188 -0.929813 -0.0392368 0.365936
-2.95557 -2.6065 2.33568 0.952443 0.0311995 -0.303115
10.9143 22.6156 -15.3158 0.353247 0.75768 -0.54876
-1.84354 -0.830551 5.74549 0.96495 0.113918 -0.23642
4.94312 9.9299 -8.61253 -0.980157 0.191201 -0.0522876
5.35871 -13.0331 10.9994 0.934456 0.3031 0.186876
7.48743 -0.706627 -3.07179 0.668074 0.0913595 0.738465
3.41972 -16.2981 7.13735 -0.896638 -0.345268 -0.277182
-11.3714 13.2835 -7.30151 -0.378601 -0.746873 -0.546665
-12.0152 20.619 -15.6377 -0.942612 0.320635 0.0931417
9.43107 12.2246 -7.55463 0.61478 -0.560364 -0.555012
8.28109 8.81742 -10.9925 0.642612 -0.269086 -0.717386
-1.89423 -1.04864 12.9007 -0.959717 -0.175641 -0.2193
7.38391 9.08776 -2.19384 -0.388065 0.596546 0.702523
-8.12727 -12.5586 -3.09426 -0.839842 -0.383563 -0.384116
-5.24144 -12.8405 12.7646 -0.984767 0.163132 -0.0601742
-4.63515 -0.0987514 15.4602 0.430924 0.152293 0.889444
5.69672 4.68399 -9.61486 -0.578702 -0.126753 -0.805629
-1.39537 -9.344 4.73621 0.949997 -0.139528 -0.279353
-5.23204 -8.08653 -3.32229 0.983997 -0.0862366 -0.155926
9.85349 17.9024 -11.3734 -0.0643119 0.690765 0.720214
13.5942 18.3005 -10.0518 0.89073 0.327058 0.315647
-9.04184 20.9196 -15.9831 0.522979 0.732602 -0.435647
2.83532 -6.98826 11.1113 0.995408 0.0546662 0.0785844
6.45258 5.82245 -9.65693 0.25764 -0.327589 -0.909015
-8.15687 21.799 -14.9862 0.572135 0.817886 0.0610359
4.04277 10.6138 -3.50843 -0.589389 0.58275 0.559484
-9.66947 1.93526 -6.8918 -0.999523 -0.0144892 0.0272586
-8.65183 -4.78694 -8.38596 -0.624651 -0.384538 -0.679663
-1.03168 4.29172 8.24431 0.953759 0.295817 0.0532467
7.78355 -4.93929 -0.124866 0.721401 0.406448 0.560697
-2.22247 2.96352 -7.12515 0.990942 0.0837709 -0.104961
-11.3501 12.5799 -6.90451 -0.356856 -0.785678 -0.505335
-7.29048 -15.8011 5.02988 -0.925479 -0.0676339 0.372712
-2.62663 -8.87698 16.9725 0.968697 0.0300092 0.246424
-0.841147 0.725714 10.3843 0.976087 0.216851 0.0151731
11.5221 13.2065 -6.94426 0.462135 0.592342 0.659971
12.9601 20.5825 -11.4026 0.997596 0.0565158 0.0400908
3.42306 -10.3686 -3.24973 -0.894292 -0.317239 -0.315596
4.75076 -14.8719 19.8163 0.878024 -0.414981 0.238463
-4.42799 0.0205559 4.95319 -0.916728 0.0614654 0.394755
-2.09315 3.4033 7.7756 -0.991842 0.123553 0.0313602
-3.54019 -18.5555 13.9134 0.648704 -0.668349 0.363995
1.9057 -10.6177 16.4314 -0.943745 0.00101204 0.330673
3.98682 3.92574 -10.0293 -0.815 -0.000919172 -0.57946
