ply
format ascii 1.0
comment created by cisstICP
element vertex 300
property float32 x
property float32 y
property float32 z
property float32 nx
property float32 ny
property float32 nz
end_header
-9.36022 16.7596 -14.9252 -0.287064 -0.367066 -0.884792
-13.1579 12.4123 -7.86652 -0.984793 -0.151939 -0.084242
7.9886 11.8571 -6.84701 -0.460044 0.649056 0.605876
11.9886 18.7745 -13.991 0.998089 -0.022556 -0.057533
-6.62182 12.0639 -7.42866 0.82662 0.496124 0.265632
-6.89741 -13.9483 3.31047 -0.794177 0.312342 0.521273
-4.24183 -15.495 1.18488 0.653008 -0.672429 -0.348452
3.05044 -0.520549 -6.02205 -0.990737 -0.089806 -0.10186
-11.1086 13.7747 -14.0869 -0.51269 -0.519826 -0.683323
-3.76885 -0.0753688 5.90974 -0.983864 -0.00844 0.178717
4.44582 1.05925 15.0886 -0.881209 0.168237 0.441777
-2.47315 -13.5705 17.7933 0.951396 0.040268 0.305325
-6.62461 14.817 -10.0518 0.796602 0.525124 0.299448
6.00279 -7.76243 -4.12045 -0.964836 -0.12806 -0.229546
3.69505 -5.90416 -2.86314 -0.992357 -0.094255 -0.079647
4.09992 0.663348 4.2318 -0.961545 -0.069885 -0.265609
2.21683 -13.2336 4.34117 -0.981137 -0.190651 -0.031965
8.38431 -0.237609 -8.15727 0.473705 -0.385663 -0.79175
-10.6659 6.98262 -12.8836 -0.902119 -0.143394 -0.406963
7.36304 10.6517 -11.2146 -0.868092 0.223078 -0.443456
8.42472 -3.10817 -1.04573 0.69948 0.347346 0.624563
10.257 15.9428 -15.2258 -0.762064 -0.216475 -0.610244
-9.61307 18.679 -11.7902 0.696995 0.670001 0.255533
7.16937 10.4633 -1.19219 -0.332386 0.603067 0.725141
14.7566 19.4603 -13.5296 0.468399 0.734113 -0.49161
-3.70102 -10.876 8.1049 0.939757 -0.25444 -0.228291
-8.35934 4.46862 -1.80185 -0.835965 -0.387753 0.388342
6.13115 -12.7417 -2.12884 -0.224685 -0.833689 -0.50446
-11.4515 8.6714 -10.7083 -0.776891 -0.214592 -0.591938
3.37426 -19.7694 10.0222 -0.759759 -0.517551 -0.393582
9.26016 -15.6857 -0.637015 0.589012 -0.643854 -0.488382
9.98526 6.04732 -4.96857 -0.304997 -0.580003 -0.755363
5.15489 -13.6185 22.2488 -0.744176 -0.237048 0.624509
4.22099 -20.0113 12.6535 -0.758698 -0.411385 -0.505113
-13.097 14.9418 -12.8894 -0.823519 -0.496794 -0.273884
-5.74503 -5.44459 -2.37512 0.997872 -0.037039 -0.053664
3.09303 -20.1823 11.8336 -0.312371 -0.934466 -0.170873
-11.1432 14.7355 -6.9288 0.024365 0.605802 0.795242
9.24215 9.1623 -7.17367 0.817934 -0.074501 0.570467
-8.61132 3.16124 -3.14682 -0.587779 -0.793292 0.158758
-11.5926 8.61398 -7.70702 -0.752475 0.277494 0.597309
-9.01687 17.7267 -12.9967 0.800743 0.45913 0.38472
9.42434 16.1756 -13.8729 -0.847471 0.212958 -0.486253
-3.9501 -0.187397 -0.273165 -0.979398 0.106077 0.171834
-11.9473 17.8796 -8.3832 -0.608677 0.573323 0.548465
-14.2025 11.2615 -7.93172 -0.984793 -0.151939 -0.084242
-4.25863 -12.8942 8.66139 -0.945748 0.302857 0.117638
4.55711 -10.4757 20.3825 0.995854 0.004067 0.090879
10.5933 13.8379 -8.62935 -0.263154 0.631136 0.729669
-4.95961 5.00148 -2.35036 0.743413 0.479792 0.465979
9.40563 7.92893 -10.6671 0.672216 -0.324965 -0.665224
2.38368 -1.69286 15.8628 -0.772895 0.385148 0.504275
-5.79783 -16.3207 2.68363 0.752448 -0.573802 -0.323379
4.36007 -1.60373 12.2095 0.940963 0.009955 -0.338364
-11.4038 2.74362 -9.86133 -0.757041 -0.199683 -0.622106
6.01078 -9.56469 -4.17995 -0.913339 -0.230355 -0.335781
-11.9424 16.4267 -7.7422 -0.622525 0.581333 0.523941
-8.35695 1.97985 -5.82114 -0.859044 0.094671 0.503072
-3.78734 -15.0528 7.95426 0.959294 -0.136332 -0.247323
4.38834 -10.101 1.50048 -0.983131 -0.143033 -0.113992
8.64094 2.80869 -9.6806 0.442615 -0.33843 -0.830396
9.61768 5.43455 -1.21473 0.235507 -0.763798 -0.600957
-2.55818 1.07836 -6.23459 0.999394 0.03458 0.003991
-5.92807 7.64352 -2.43474 0.58932 0.624461 0.512592
-7.16421 -7.61602 -6.45819 -0.480361 -0.312428 -0.819538
9.87087 10.0065 -11.587 0.893053 -0.239323 -0.381027
6.56476 -11.5506 -2.37628 0.280235 -0.490393 -0.825217
3.64998 1.16032 16.5003 -0.578195 0.336514 0.743269
-0.861566 -0.600995 5.3236 -0.99769 -0.013856 0.066507
0.307397 1.35331 9.73406 0.976129 0.118412 -0.182074
13.1739 11.7863 -9.93945 0.896662 -0.370535 -0.242283
4.58095 0.14053 -0.0578742 0.972243 0.059551 0.226267
8.83423 20.862 -12.8831 -0.364923 0.873613 0.321918
-2.01247 -9.82066 0.0335543 0.99288 -0.103776 -0.058479
-10.4337 20.5667 -13.6653 -0.606285 0.681696 0.409524
3.44548 -11.3833 14.5049 -0.999943 0.00055 0.010637
-9.13977 19.1618 -14.5779 0.635454 0.765471 0.101252
3.04894 5.59725 1.48231 -0.802082 0.593731 -0.064406
-10.0523 18.3517 -14.6478 -0.265313 -0.465227 -0.844495
-5.93647 -3.10819 13.0285 -0.997711 0.060794 -0.029603
-3.96407 -4.02825 -5.04178 0.875292 -0.245387 -0.416713
-0.448269 -2.41741 11.6423 0.993953 0.09255 0.059085
5.03476 -22.6217 11.967 -0.312371 -0.934466 -0.170873
-13.3933 12.5351 -6.60344 -0.314261 0.578396 0.752794
-3.26939 -7.48298 4.98059 -0.848226 0.272758 0.454
10.1162 7.82543 -5.32845 0.817934 -0.074501 0.570467
-5.06524 -1.75834 -6.93651 0.908895 -0.127134 -0.397174
8.84296 8.29984 -11.8745 0.188023 -0.273487 -0.94332
-9.35346 16.8599 -9.41728 -0.267325 0.636965 0.723058
-4.61539 -4.08418 -5.60458 0.821708 -0.186923 -0.538383
-13.3018 5.36096 -10.4435 -0.989122 0.068882 0.129973
1.93871 0.673666 7.28046 0.987765 -0.00397 0.155896
-5.61296 -13.3191 7.82747 -0.843233 0.26467 0.467877
-5.67418 5.40809 -5.96966 0.966868 0.194929 -0.164829
3.2094 3.84762 11.7882 0.285701 0.880465 0.37836
10.0033 -0.72466 -8.91451 0.436736 -0.287844 -0.852295
7.872 7.91687 -8.80889 -0.730929 -0.203133 -0.651522
-7.83797 1.40399 -0.733539 -0.618176 0.487816 0.616355
5.29732 3.94445 7.06174 0.973568 0.039175 -0.225012
6.57273 -2.29693 0.495998 0.920072 0.144543 0.364109
3.68195 7.90025 -7.50102 -0.995238 0.039135 -0.089279
5.47749 -12.3336 0.6586 -0.866534 -0.388 -0.313965
3.06617 -4.59397 10.2619 0.990473 0.137618 0.004884
9.20493 6.27887 -4.27438 0.775692 -0.382708 0.501833
8.85784 -15.0354 8.46989 0.959729 -0.14558 0.240263
7.19556 5.7509 -3.46212 0.426629 -0.813332 -0.395574
-5.70662 -20.0113 6.37948 0.710415 -0.652802 -0.262982
8.92079 -11.9565 7.84349 0.80777 0.32495 0.491849
6.02707 -0.309049 -8.10858 -0.037944 -0.29553 -0.95458
-0.716363 -1.92192 12.5393 0.980194 0.07087 0.184926
-4.92397 -18.3949 7.37111 0.627275 -0.725047 -0.28431
12.1169 13.6288 -8.49385 0.993877 -0.075082 0.081059
2.96139 -17.6244 16.1295 0.973134 -0.218459 0.072699
-6.28798 9.53293 -2.87325 0.308084 0.580348 0.753843
13.3809 15.0821 -12.5781 0.949358 -0.254948 -0.183632
9.19724 -12.2896 -2.84635 0.545385 -0.385404 -0.744325
-4.03136 -15.8124 17.1819 -0.946354 -0.323125 0.00206
-6.48033 -15.1551 8.01512 -0.933639 -0.0373 0.356267
3.81444 0.104823 12.5101 -0.925197 0.167552 0.340495
7.61028 -13.2817 -0.0811575 0.800969 -0.353554 -0.483164
7.13612 0.794672 -9.39674 -0.072117 -0.187082 -0.979694
-1.06051 -10.488 16.6114 0.99908 0.020138 0.037855
5.62579 -18.6583 3.77858 -0.522911 -0.841817 -0.133819
3.69787 -6.69737 17.283 0.98597 0.154629 0.062872
12.286 20.266 -12.789 0.113416 0.73145 -0.672397
-0.172241 -8.07587 10.9039 0.958222 -0.216885 0.186471
3.02777 -3.50329 5.51406 -0.656458 -0.019026 -0.754122
8.25796 14.4806 -8.02504 -0.588076 0.603251 0.538754
9.76168 -12.1636 1.02234 0.98265 0.129191 0.133077
10.8021 7.01396 -0.0606693 0.625103 -0.489528 0.607954
11.0816 15.4731 -15.016 -0.625928 0.019664 -0.779633
12.1258 15.0506 -6.9225 0.988159 0.112085 0.104782
-9.04576 -14.9279 2.48477 -0.991209 -0.048601 -0.123057
-5.06931 -14.4268 22.2262 -0.724599 0.026189 0.688673
-3.13522 -13.3295 19.7213 0.944538 -0.032704 0.32677
5.5397 -12.7144 12.8705 0.982344 0.164067 -0.089899
4.44838 -10.8616 -2.33778 -0.781256 -0.356463 -0.512419
12.0784 6.38516 -3.47237 -0.034653 -0.769175 -0.638097
-8.43281 -9.79017 2.98548 -0.806555 0.337674 0.485227
-7.51177 11.2562 -11.9782 0.711351 -0.031244 -0.702142
6.13472 5.4462 -2.06627 0.971317 -0.219909 0.090459
-5.85663 9.51688 -3.60572 0.661022 0.521363 0.539658
-10.0719 -8.15071 0.820086 -0.780085 0.278716 0.560164
-10.5185 16.8265 -13.8263 -0.184492 -0.547364 -0.816306
9.32964 -6.68384 -3.51917 0.762674 -0.189969 -0.618256
-10.4433 21.5227 -18.041 0.179814 0.958614 -0.220738
8.1929 -2.27804 -1.65165 0.778681 0.25573 0.572938
4.37537 -19.6711 15.2477 0.964819 -0.254839 0.064658
-7.23801 5.49332 -0.299699 -0.432632 -0.623579 0.651137
3.00525 -13.766 6.68908 -0.981137 -0.190651 -0.031965
4.06736 -8.86801 19.2425 0.961219 0.260461 -0.090653
10.865 -5.5748 2.57514 0.772855 0.323292 0.546056
-9.51487 4.49479 -11.4099 -0.470354 -0.090088 -0.877867
4.71706 0.260333 9.26005 0.991495 -0.118602 -0.053579
-2.64906 -9.93358 7.36865 0.984501 -0.120884 -0.127063
-10.4541 15.8073 -8.20861 0.540371 0.60754 0.582146
-13.5831 14.296 -7.03286 -0.994999 -0.073984 0.067114
5.25188 6.99202 -5.02152 -0.928389 0.220285 0.299279
4.74646 0.929709 0.0364499 -0.998375 0.056984 -0.000447
-3.43801 2.55602 6.91875 -0.986175 0.002496 -0.165691
4.20341 -13.9862 20.7342 0.478749 -0.569013 0.668599
-5.45588 -17.7222 4.3241 -0.801087 -0.524781 0.287864
-5.08409 -16.1442 12.7927 -0.97366 -0.065773 0.21831
4.95424 -6.69474 11.5327 0.998624 0.04688 0.023489
-5.53484 -13.2804 11.9062 -0.972295 0.233036 0.018321
5.46226 -17.5413 5.79604 -0.488709 -0.850259 -0.195507
2.54743 -8.09925 -4.29432 -0.945161 -0.199056 -0.258937
-9.83132 2.27063 -11.6043 0.270468 -0.273421 -0.923086
4.56782 3.84415 -8.29461 -0.977127 0.005433 -0.212585
2.28089 1.78747 14.1123 -0.654256 0.565642 0.501994
10.4511 5.68724 -2.32538 -0.116905 -0.944011 -0.308507
-2.79671 -18.0977 16.1206 0.715343 -0.665086 0.214348
12.0148 7.47739 -2.15441 0.975198 -0.194093 -0.106383
1.74516 -15.0624 12.7693 -0.988897 -0.060762 -0.135612
7.5683 -4.54257 -5.88051 0.777089 -0.227364 -0.586889
-6.88053 -4.86556 -4.74712 0.220669 -0.436812 -0.872067
-1.60454 -0.131542 7.28643 0.937459 0.003435 -0.348079
6.98146 -12.7218 12.9108 0.980347 0.191962 -0.045496
3.5126 -8.53224 15.3814 0.979936 0.175382 -0.094688
-4.94271 2.37206 11.826 -0.972969 0.204663 0.106979
-4.82293 -1.38141 10.4301 -0.985598 -0.155633 -0.066141
7.51582 8.16957 -2.65091 -0.476933 0.579446 0.660892
-10.2078 20.4517 -13.8414 0.213382 0.937567 0.274656
-3.30245 2.56137 -6.16004 0.997561 0.024727 -0.065278
11.3219 5.28059 -4.56018 0.579196 0.301393 0.757426
-8.62158 -10.5688 -4.28645 -0.221495 -0.411851 -0.883922
-5.01205 9.67954 -10.1609 0.66387 -0.052744 -0.745986
10.5184 2.96873 -3.59348 0.554209 0.333982 0.762436
5.16767 -2.28365 6.57908 0.665233 -0.595544 0.450324
-9.34084 10.4396 -3.57314 0.008545 0.583951 0.811744
12.5936 20.2954 -12.3728 0.682648 0.537579 0.494975
6.60863 -14.2819 6.17934 0.868593 0.218647 0.44468
10.8432 7.56486 -2.19409 0.952369 -0.254119 0.168572
9.10815 -10.4242 -3.57563 0.520989 -0.372054 -0.76821
-2.63193 -15.0889 18.0875 0.995386 -0.030662 0.090916
7.89207 -13.2877 -1.83866 -0.672804 -0.469669 -0.571617
-5.74628 -9.46472 -0.77007 0.814948 -0.332743 -0.474491
-8.86235 17.7569 -14.3777 0.712921 0.079882 -0.69668
6.98044 -18.34 4.70558 -0.075425 -0.992453 -0.096687
2.62604 -19.0505 16.0373 -0.95688 -0.258389 0.132726
-5.48573 4.29125 -1.16496 -0.822685 -0.280211 0.494643
-5.74182 0.77812 -7.84035 0.796969 -0.115134 -0.592946
7.93365 12.6994 -11.2175 -0.853114 0.155342 -0.498062
-8.19057 -3.73563 -5.73185 -0.571333 -0.359174 -0.737951
-11.0445 14.444 -9.63181 -0.870181 -0.368089 -0.327559
-10.3889 -7.06614 -1.62165 -0.89789 0.098215 0.429124
4.19218 1.67721 2.4381 -0.961309 0.127648 -0.244112
3.01005 6.02965 11.2314 0.393294 0.911678 0.119007
-10.8071 10.7909 -5.95675 -0.093299 0.669025 0.737361
6.59144 2.21355 -3.17529 0.496477 0.061945 0.865837
-3.22141 -6.25912 11.8728 -0.985442 0.069929 -0.154967
4.55198 -4.43595 -5.96943 -0.948411 -0.141884 -0.283524
3.33493 3.45629 11.0886 0.850884 0.336108 0.403768
-2.60463 -9.23144 5.39775 0.956158 -0.151395 -0.250683
-1.40922 -18.7269 15.9741 -0.477279 -0.715577 0.510053
7.55048 -16.4285 8.56579 0.947809 -0.244653 0.204459
4.95776 0.391413 -9.83139 -0.599905 -0.256886 -0.75771
5.09154 -12.4027 18.3749 0.996434 0.007213 0.08407
-1.66908 -9.00222 0.160469 0.996715 -0.055378 -0.059102
11.852 9.76485 -1.60423 0.409804 0.561006 0.719258
-10.4124 -2.21264 -1.96722 -0.906304 0.047729 0.419924
-7.26989 -9.48387 -0.712196 -0.905937 0.146011 0.39744
12.4577 15.2982 -12.0106 0.912365 -0.36087 -0.193296
-2.57259 -16.764 18.6964 -0.919874 -0.389148 0.048951
4.8896 9.76737 -5.75377 -0.928697 0.197419 0.313922
3.96276 -2.32166 16.726 -0.388808 0.409945 0.82509
2.85513 -9.05982 20.1449 -0.970283 -0.059392 0.234569
4.73503 -12.2988 15.076 0.983392 0.168999 -0.066186
13.2144 11.4972 -6.57795 0.513887 -0.68968 -0.510159
-5.60438 8.27243 -3.13726 0.690913 0.471823 0.547743
-4.83121 0.0824431 -1.45975 -0.888475 -0.086166 0.450764
3.65299 -4.54756 -6.00623 -0.936734 -0.121386 -0.32832
-8.43766 8.44066 -5.86152 -0.950944 -0.172593 0.256744
-3.34803 -11.5749 10.976 0.996998 -0.07303 -0.02571
11.9155 17.8025 -15.842 -0.462776 0.683113 -0.564973
-1.96124 -9.65555 14.7945 0.999995 -0.000239 0.002997
-1.1107 -1.1196 6.39365 0.960879 -0.072254 -0.267376
-3.44277 -5.47319 11.7278 -0.963214 0.154214 -0.220081
11.6157 10.36 -7.31738 0.730814 0.088655 0.676795
4.13893 -15.941 8.54376 -0.921039 -0.240657 -0.306222
-10.3871 -9.64145 -2.14846 -0.995074 -0.09858 -0.01043
12.0677 4.21214 -7.01406 0.990952 -0.105861 -0.08251
-9.81734 10.1882 -10.6919 -0.987787 -0.128502 -0.088108
-7.23231 11.5976 -12.1474 0.911382 0.13843 -0.387582
-2.18105 -3.04329 16.4371 0.712242 0.443486 0.544088
5.67568 -12.592 7.96753 0.877461 0.239186 0.415755
5.6068 -6.98387 -5.86755 -0.662476 -0.402529 -0.63174
5.62805 3.66222 3.0401 0.837774 0.521815 0.16076
9.68178 -12.4583 5.87773 0.919044 0.173381 0.353974
-7.47399 -4.813 -6.84636 -0.299043 -0.355178 -0.885676
4.84887 1.50593 5.42558 0.950736 0.075289 0.300721
-4.89099 -12.894 0.653147 0.759175 -0.439871 -0.479757
-3.43708 -18.6451 9.48954 0.648688 -0.66119 -0.37687
-8.62143 19.3827 -12.6356 -0.393951 0.844922 0.361815
-7.63566 -7.55482 -6.90459 -0.49066 -0.441351 -0.751306
-8.90183 -9.29146 0.186672 -0.936226 -0.092153 0.339101
-2.58379 -2.43334 3.66511 0.949917 0.002818 -0.312488
12.2015 19.9332 -14.326 0.297395 0.786663 -0.541034
-1.98309 -2.41816 5.52424 0.954292 0.130704 -0.268782
7.3131 8.24727 -8.93222 -0.965976 0.2505 -0.064344
5.76802 -14.5463 11.8865 0.925951 0.304405 0.223499
9.70946 0.0631157 -3.33543 0.668178 0.083676 0.739281
4.17101 -13.8999 9.08035 -0.905151 -0.328887 -0.269322
-11.5732 11.8008 -8.38719 -0.354316 -0.763781 -0.539536
-12.9396 18.8821 -13.7177 -0.929258 0.351252 0.11446
10.5538 12.4234 -7.41035 0.628458 -0.563537 -0.536159
10.6789 9.03647 -11.1716 0.634447 -0.277474 -0.721446
-4.00798 -2.28666 14.7255 -0.967895 -0.137498 -0.210413
7.13444 7.36661 -0.330068 -0.385735 0.594131 0.705845
-8.53424 -12.7071 -1.91759 -0.855235 -0.314373 -0.411998
-5.74275 -13.3427 14.5211 -0.981099 0.192091 -0.023366
-3.62363 2.29363 14.9099 0.419103 0.076927 0.904674
7.72942 1.55784 -11.3683 -0.598627 -0.170505 -0.782671
-1.3869 -5.861 4.56535 0.943871 -0.132422 -0.302608
-4.98891 -9.72664 0.944039 0.976618 -0.113925 -0.182316
9.01051 19.0583 -10.8012 -0.007137 0.662205 0.749289
12.0162 15.0522 -8.729 0.895061 0.312343 0.318288
-8.69069 18.1882 -15.9033 0.504135 0.726508 -0.46694
4.59567 -6.71096 11.5558 0.994616 0.092084 0.047539
6.83596 4.3604 -11.054 0.263654 -0.350033 -0.898868
-8.87101 20.233 -11.63 0.598258 0.801297 -0.003395
6.67587 9.6569 -2.79425 -0.628581 0.574152 0.524629
-11.476 -1.64596 -5.90259 -0.999183 -0.030069 -0.027013
-9.35272 -4.58361 -5.92025 -0.618707 -0.372114 -0.691906
-0.679194 3.18004 9.57757 0.955285 0.29546 0.011589
8.3971 -5.52603 -0.322811 0.711212 0.347246 0.611227
-3.14563 3.07137 -5.18607 0.994029 0.030439 -0.104786
-11.049 9.92975 -5.09503 -0.371163 -0.76102 -0.532059
-7.28487 -16.7179 8.54996 -0.93019 -0.052954 0.363238
-1.9363 -7.44841 18.468 0.976247 0.018185 0.215895
-1.68929 1.00441 11.3272 0.986233 0.162393 0.03118
11.3369 12.9461 -4.68909 0.440587 0.579877 0.685292
13.0569 17.5395 -11.4627 0.993629 0.059623 0.095633
5.33479 -11.7379 -1.32795 -0.875422 -0.321281 -0.361129
4.55709 -12.7758 18.3546 0.905131 -0.364843 0.218239
-4.48008 -1.83708 2.40967 -0.928926 0.020743 0.369684
-3.56936 2.74865 7.18857 -0.990924 0.123455 0.053181
-4.01825 -18.2376 13.7983 0.624862 -0.647883 0.435654
2.18728 -11.8883 15.5092 -0.95404 0.022308 0.298849
5.33638 2.91517 -7.59244 -0.819075 -0.062758 -0.570244
