ply
format ascii 1.0
comment created by cisstICP
element vertex 300
property float32 x
property float32 y
property float32 z
property float32 nx
property float32 ny
property float32 nz
end_header
0.737533 12.5211 -2.20904 -0.287064 -0.367066 -0.884792
-1.87518 7.8474 5.17179 -0.984793 -0.151939 -0.084242
19.0705 6.67829 2.26727 -0.460044 0.649056 0.605876
21.9615 13.9164 -5.09077 0.998089 -0.022556 -0.057533
4.61458 7.30211 4.38465 0.82662 0.496124 0.265632
5.33038 -19.3068 13.5219 -0.794177 0.312342 0.521273
7.49752 -20.7883 10.8628 0.653008 -0.672429 -0.348452
13.9101 -5.59346 3.29003 -0.990737 -0.089806 -0.10186
-0.938894 9.5369 -1.23272 -0.51269 -0.519826 -0.683323
9.38862 -5.7071 16.2751 -0.983864 -0.00844 0.178717
19.1677 -5.35571 23.8425 -0.881209 0.168237 0.441777
12.3184 -19.9387 26.9472 0.951396 0.040268 0.305325
4.23786 10.2109 1.9644 0.796602 0.525124 0.299448
16.8888 -13.0135 4.21088 -0.964836 -0.12806 -0.229546
14.9175 -11.1766 5.97154 -0.992357 -0.094255 -0.079647
16.8445 -5.07207 13.2279 -0.961545 -0.069885 -0.265609
14.5005 -18.8953 12.9037 -0.981137 -0.190651 -0.031965
18.7751 -5.31877 0.232961 0.473705 -0.385663 -0.79175
-0.536506 2.67431 -0.512297 -0.902119 -0.143394 -0.406963
17.6192 5.76128 -1.9722 -0.868092 0.223078 -0.443456
19.9983 -8.62256 7.04503 0.69948 0.347346 0.624563
19.9313 11.2124 -6.14364 -0.762064 -0.216475 -0.610244
1.12843 14.2495 1.02151 0.696995 0.670001 0.255533
19.2393 4.96026 7.88961 -0.332386 0.603067 0.725141
24.7906 14.4999 -5.1067 0.468399 0.734113 -0.49161
9.45443 -16.6206 17.8137 0.939757 -0.25444 -0.228291
3.64688 -0.57779 9.8012 -0.835965 -0.387753 0.388342
17.1921 -18.1077 5.86388 -0.224685 -0.833689 -0.50446
-0.851723 4.24565 1.86102 -0.776891 -0.214592 -0.591938
16.4267 -25.7971 17.9024 -0.759759 -0.517551 -0.393582
20.4289 -21.2189 6.59034 0.589012 -0.643854 -0.488382
21.1587 0.713563 3.4205 -0.304997 -0.580003 -0.755363
20.6208 -20.4607 29.9201 -0.744176 -0.237048 0.624509
17.727 -26.2229 20.3162 -0.758698 -0.411385 -0.505113
-2.63269 10.6795 0.37211 -0.823519 -0.496794 -0.273884
5.74594 -10.5017 8.20567 0.997872 -0.037039 -0.053664
16.4635 -26.3135 19.7086 -0.312371 -0.934466 -0.170873
0.360584 10.055 5.85287 0.024365 0.605802 0.795242
20.1436 3.97696 1.56643 0.817934 -0.074501 0.570467
3.10707 -1.7927 8.45424 -0.587779 -0.793292 0.158758
-0.448265 4.00693 4.82934 -0.752475 0.277494 0.597309
1.46039 13.3582 -0.32509 0.800743 0.45913 0.38472
19.3669 11.383 -4.65026 -0.847471 0.212958 -0.486253
8.08519 -5.43279 10.2336 -0.979398 0.106077 0.171834
-0.577227 13.3027 4.74839 -0.608677 0.573323 0.548465
-2.95604 6.73055 5.23488 -0.984793 -0.151939 -0.084242
8.93281 -18.654 18.3493 -0.945748 0.302857 0.117638
19.811 -17.1942 28.3735 0.995854 0.004067 0.090879
21.3802 8.69655 0.151417 -0.263154 0.631136 0.729669
6.90811 -0.101085 8.66977 0.743413 0.479792 0.465979
19.6252 2.95756 -1.96117 0.672216 -0.324965 -0.665224
17.18 -8.09553 24.8263 -0.772895 0.385148 0.504275
6.20968 -21.664 12.5727 0.752448 -0.573802 -0.323379
18.463 -7.83289 20.8836 0.940963 0.009955 -0.338364
-0.870133 -1.7223 2.3523 -0.757041 -0.199683 -0.622106
16.8193 -14.8082 4.05032 -0.913339 -0.230355 -0.335781
-0.509797 11.8134 5.29543 -0.622525 0.581333 0.523941
2.82848 -2.81313 5.71681 -0.859044 0.094671 0.503072
9.18801 -20.7765 17.4483 0.959294 -0.136332 -0.247323
16.2351 -15.6513 9.89285 -0.983131 -0.143033 -0.113992
18.8635 -2.19205 -1.13896 0.442615 -0.33843 -0.830396
21.4555 -0.119761 7.13795 0.235507 -0.763798 -0.600957
8.41882 -3.83855 4.19829 0.999394 0.03458 0.003991
6.03865 2.56552 8.91201 0.58932 0.624461 0.512592
3.53068 -12.3793 4.33686 -0.480361 -0.312428 -0.819538
19.9924 5.07508 -2.8332 0.893053 -0.239323 -0.381027
17.6174 -16.9154 5.60814 0.280235 -0.490393 -0.825217
18.6454 -5.32115 25.3795 -0.578195 0.336514 0.743269
12.12 -6.27133 15.1378 -0.99769 -0.013856 0.066507
14.1407 -4.62397 19.3617 0.976129 0.118412 -0.182074
23.6029 6.663 -1.72184 0.896662 -0.370535 -0.242283
16.52 -5.3417 8.90033 0.972243 0.059551 0.226267
19.1395 16.0132 -3.30885 -0.364923 0.873613 0.321918
9.68918 -15.1139 9.64141 0.99288 -0.103776 -0.058479
0.0516993 16.27 -0.563041 -0.606285 0.681696 0.409524
17.6193 -17.7082 22.7575 -0.999943 0.00055 0.010637
1.10589 14.8908 -1.77431 0.635454 0.765471 0.101252
15.4953 0.0477858 10.9976 -0.802082 0.593731 -0.064406
0.166516 14.1107 -1.72104 -0.265313 -0.465227 -0.844495
8.4373 -9.11558 23.4898 -0.997711 0.060794 -0.029603
7.0649 -8.97054 5.34124 0.875292 -0.245387 -0.416713
13.6048 -8.48418 21.1623 0.993953 0.09255 0.059085
18.3058 -28.8063 19.3475 -0.312371 -0.934466 -0.170873
-1.87293 7.89826 6.46148 -0.314261 0.578396 0.752794
9.43737 -13.0538 14.8577 -0.848226 0.272758 0.454
21.2878 2.50646 3.14266 0.817934 -0.074501 0.570467
5.72301 -6.5601 3.81017 0.908895 -0.127134 -0.397174
18.8671 3.4168 -3.02241 0.188023 -0.273487 -0.94332
1.74666 12.2813 3.20127 -0.267325 0.636965 0.723058
6.32071 -8.97462 4.90506 0.821708 -0.186923 -0.538383
-2.74431 0.974643 2.27489 -0.989122 0.068882 0.129973
15.2738 -5.19336 16.6167 0.987765 -0.00397 0.155896
7.43496 -18.9912 17.7552 -0.843233 0.26467 0.467877
5.5646 0.546503 5.27111 0.966868 0.194929 -0.164829
17.4572 -2.33775 20.9855 0.285701 0.880465 0.37836
20.2108 -5.8003 -0.834083 0.436736 -0.287844 -0.852295
18.4546 2.87098 0.142916 -0.730929 -0.203133 -0.651522
4.23978 -3.71504 10.583 -0.618176 0.487816 0.616355
18.6556 -2.00415 15.9694 0.973568 0.039175 -0.225012
18.4878 -7.85987 8.94284 0.920072 0.144543 0.364109
14.5735 2.88316 2.19328 -0.995238 0.039135 -0.089279
17.0703 -17.8555 8.74227 -0.866534 -0.388 -0.313965
16.7279 -10.6625 19.042 0.990473 0.137618 0.004884
20.5263 0.922157 4.25774 0.775692 -0.382708 0.501833
21.7089 -21.1213 15.6387 0.959729 -0.14558 0.240263
18.6794 0.397756 5.39359 0.426629 -0.813332 -0.395574
6.83318 -25.5766 15.9772 0.710415 -0.652802 -0.262982
21.7709 -18.0122 15.1844 0.80777 0.32495 0.491849
16.4647 -5.33148 0.708614 -0.037944 -0.29553 -0.95458
13.5223 -8.03812 22.1195 0.980194 0.07087 0.184926
7.84183 -24.0455 16.8974 0.627275 -0.725047 -0.28431
22.8943 8.43976 -0.00639572 0.993877 -0.075082 0.081059
17.2076 -24.0229 24.0921 0.973134 -0.218459 0.072699
5.67522 4.48714 8.65313 0.308084 0.580348 0.753843
23.4495 10.1087 -4.16544 0.949358 -0.254948 -0.183632
20.0919 -17.6925 4.62319 0.545385 -0.385404 -0.744325
10.5934 -22.0972 26.5073 -0.946354 -0.323125 0.00206
6.5488 -20.812 17.9957 -0.933639 -0.0373 0.356267
18.0444 -6.13247 21.374 -0.925197 0.167552 0.340495
18.9971 -18.8115 7.5725 0.800969 -0.353554 -0.483164
17.3618 -4.17975 -0.697203 -0.072117 -0.187082 -0.979694
13.6062 -16.8271 25.7007 0.99908 0.020138 0.037855
17.5482 -24.3622 11.4239 -0.522911 -0.841817 -0.133819
18.5441 -13.2107 25.6998 0.98597 0.154629 0.062872
22.5267 15.3226 -3.88209 0.113416 0.73145 -0.672397
13.5332 -14.0916 20.0709 0.958222 -0.216885 0.186471
15.8695 -9.28044 14.45 -0.656458 -0.019026 -0.754122
19.2185 9.36158 1.2083 -0.588076 0.603251 0.538754
21.3527 -17.8201 8.3239 0.98265 0.129191 0.133077
22.8871 1.35399 8.1419 0.625103 -0.489528 0.607954
20.7623 10.7092 -6.11507 -0.625928 0.019664 -0.779633
23.2405 9.76124 1.61367 0.988159 0.112085 0.104782
3.03322 -20.1772 13.0504 -0.991209 -0.048601 -0.123057
10.5393 -20.9987 31.7258 -0.724599 0.026189 0.688673
12.0263 -19.7998 28.9743 0.944538 -0.032704 0.32677
19.3318 -18.9902 20.6954 0.982344 0.164067 -0.089899
15.57 -16.175 6.07215 -0.781256 -0.356463 -0.512419
23.4994 0.903698 4.52442 -0.034653 -0.769175 -0.638097
3.91614 -15.0979 13.7166 -0.806555 0.337674 0.485227
2.88519 6.8001 0.0372115 0.711351 -0.031244 -0.702142
17.8787 0.0353525 6.94092 0.971317 -0.219909 0.090459
5.96571 4.50504 7.8543 0.661022 0.521363 0.539658
1.97324 -13.2858 11.9832 -0.780085 0.278716 0.560164
-0.199032 12.5504 -0.914543 -0.184492 -0.547364 -0.816306
20.307 -12.0613 4.25181 0.762674 -0.189969 -0.618256
-0.715913 17.494 -4.80254 0.179814 0.958614 -0.220738
19.6913 -7.75086 6.53919 0.778681 0.25573 0.572938
18.3617 -26.0475 22.8532 0.964819 -0.254839 0.064658
5.05907 0.32268 11.1274 -0.432632 -0.623579 0.651137
15.6814 -19.592 15.034 -0.981137 -0.190651 -0.031965
19.1824 -15.507 27.434 0.961219 0.260461 -0.090653
22.962 -11.3707 10.014 0.772855 0.323292 0.546056
0.770021 0.0711115 0.584236 -0.470354 -0.090088 -0.877867
18.3479 -5.80043 18.0275 0.991495 -0.118602 -0.053579
10.3895 -15.6624 16.951 0.984501 -0.120884 -0.127063
0.845292 11.1853 4.5304 0.540371 0.60754 0.582146
-2.07226 9.68664 6.17318 -0.994999 -0.073984 0.067114
16.5324 1.78303 4.2885 -0.928389 0.220285 0.299279
16.729 -4.56443 9.00668 -0.998375 0.056984 -0.000447
9.9939 -3.1525 17.3519 -0.986175 0.002496 -0.165691
19.3976 -20.7092 28.5872 0.478749 -0.569013 0.668599
6.79143 -23.1725 14.0418 -0.801087 -0.524781 0.287864
8.75072 -22.13 22.3737 -0.97366 -0.065773 0.21831
18.7362 -12.8863 19.826 0.998624 0.04688 0.023489
8.25279 -19.2062 21.7463 -0.972295 0.233036 0.018321
17.7946 -23.3679 13.4964 -0.488709 -0.850259 -0.195507
13.4491 -13.2486 4.65445 -0.945161 -0.199056 -0.258937
0.341621 -2.12779 0.327059 0.270468 -0.273421 -0.923086
15.1503 -1.13802 1.02543 -0.977127 0.005433 -0.212585
16.8901 -4.51237 23.3215 -0.654256 0.565642 0.501994
22.0825 0.179101 5.90929 -0.116905 -0.944011 -0.308507
11.5299 -24.3442 25.1118 0.715343 -0.665086 0.214348
23.7163 1.91384 5.89066 0.975198 -0.194093 -0.106383
15.4977 -21.2276 21.16 -0.988897 -0.060762 -0.135612
18.227 -9.73318 2.37652 0.777089 -0.227364 -0.586889
4.22132 -9.74796 6.11797 0.220669 -0.436812 -0.872067
11.7631 -5.90459 17.2267 0.937459 0.003435 -0.348079
20.7557 -19.0377 20.4704 0.980347 0.191962 -0.045496
17.9495 -14.9194 23.7648 0.979936 0.175382 -0.094688
9.39824 -3.59941 22.4336 -0.972969 0.204663 0.106979
9.1242 -7.26149 20.8319 -0.985598 -0.155633 -0.066141
19.2306 2.7526 6.26626 -0.476933 0.579446 0.660892
0.237538 16.1602 -0.783723 0.213382 0.937567 0.274656
7.7557 -2.34402 4.49068 0.997561 0.024727 -0.065278
22.518 -0.111547 3.53361 0.579196 0.301393 0.757426
2.38323 -15.4213 6.57039 -0.221495 -0.411851 -0.883922
5.61304 5.04958 1.27487 0.66387 -0.052744 -0.745986
21.8182 -2.45685 4.50045 0.554209 0.333982 0.762436
18.2106 -8.18511 15.1715 0.665233 -0.595544 0.450324
2.58167 5.51467 8.57615 0.008545 0.583951 0.811744
22.9056 15.3182 -3.5284 0.682648 0.537579 0.494975
19.111 -20.1694 13.8447 0.868593 0.218647 0.44468
22.561 2.03417 6.07123 0.952369 -0.254119 0.168572
19.941 -15.784 4.02797 0.520989 -0.372054 -0.76821
12.1596 -21.4677 27.1802 0.995386 -0.030662 0.090916
18.9551 -18.7164 5.79557 -0.672804 -0.469669 -0.571617
5.88729 -14.6117 9.5566 0.814948 -0.332743 -0.474491
1.36292 13.4694 -1.70719 0.712921 0.079882 -0.69668
19.0593 -24.1372 12.1034 -0.075425 -0.992453 -0.096687
16.8087 -25.4313 23.9833 -0.95688 -0.258389 0.132726
6.57979 -0.869094 9.88992 -0.822685 -0.280211 0.494643
4.9879 -3.95592 3.18873 0.796969 -0.115134 -0.592946
18.2551 7.78967 -1.96519 -0.853114 0.155342 -0.498062
2.79707 -8.52563 5.45461 -0.571333 -0.359174 -0.737951
-0.0432832 9.9283 3.16553 -0.870181 -0.368089 -0.327559
1.25906 -12.0448 9.70535 -0.89789 0.098215 0.429124
16.6473 -3.95226 11.5072 -0.961309 0.127648 -0.244112
17.2409 -0.12107 20.5975 0.393294 0.911678 0.119007
0.721521 6.05047 6.52492 -0.093299 0.669025 0.737361
18.0071 -3.13356 5.58813 0.496477 0.061945 0.865837
10.7795 -12.2591 21.6819 -0.985442 0.069929 -0.154967
15.2506 -9.54253 2.8478 -0.948411 -0.141884 -0.283524
17.4392 -2.68833 20.254 0.850884 0.336108 0.403768
10.1017 -14.8414 15.0477 0.956158 -0.151395 -0.250683
12.8436 -24.9992 24.6787 -0.477279 -0.715577 0.510053
20.3901 -22.483 15.8945 0.947809 -0.244653 0.204459
15.1273 -4.4984 -0.747257 -0.599905 -0.256886 -0.75771
19.901 -19.007 26.1974 0.996434 0.007213 0.08407
10.0799 -14.3141 9.74879 0.996715 -0.055378 -0.059102
23.7405 4.16648 6.5883 0.409804 0.561006 0.719258
1.35255 -7.18022 9.64169 -0.906304 0.047729 0.419924
4.39978 -14.5946 9.89146 -0.905937 0.146011 0.39744
22.6532 10.3134 -3.42719 0.912365 -0.36087 -0.193296
12.2665 -23.1781 27.6734 -0.919874 -0.389148 0.048951
16.1461 4.60678 3.79126 -0.928697 0.197419 0.313922
18.8651 -8.81741 25.3492 -0.388808 0.409945 0.82509
18.1477 -15.7224 28.5311 -0.970283 -0.059392 0.234569
18.9563 -18.6906 23.0307 0.983392 0.168999 -0.066186
24.2415 6.16612 1.55385 0.513887 -0.68968 -0.510159
6.25259 3.2279 8.19834 0.690913 0.471823 0.547743
7.0141 -5.06736 9.2455 -0.888475 -0.086166 0.450764
14.3563 -9.62813 2.97015 -0.936734 -0.121386 -0.32832
2.98046 3.63778 6.05298 -0.950944 -0.172593 0.256744
10.2961 -17.5043 20.5279 0.996998 -0.07303 -0.02571
21.5181 13.0626 -6.94837 -0.462776 0.683113 -0.564973
12.4223 -15.861 24.1289 0.999995 -0.000239 0.002997
12.05 -6.84826 16.2047 0.960879 -0.072254 -0.267376
10.5647 -11.4602 21.6241 -0.963214 0.154214 -0.220081
22.4944 5.1188 1.05745 0.730814 0.088655 0.676795
17.0515 -21.9061 16.5251 -0.921039 -0.240657 -0.306222
1.07015 -14.5818 9.04406 -0.995074 -0.09858 -0.01043
22.7665 -1.04573 0.928835 0.990952 -0.105861 -0.08251
0.813249 5.71531 1.66249 -0.987787 -0.128502 -0.088108
3.14175 7.14388 -0.160908 0.911382 0.13843 -0.387582
12.7483 -9.35913 26.1508 0.712242 0.443486 0.544088
18.5809 -18.5692 15.8651 0.877461 0.239186 0.415755
16.2116 -12.1186 2.61219 -0.662476 -0.402529 -0.63174
18.2409 -2.04634 11.9459 0.837774 0.521815 0.16076
22.1438 -18.4115 13.0876 0.919044 0.173381 0.353974
3.25939 -9.55055 4.16925 -0.299043 -0.355178 -0.885676
17.8281 -4.32457 14.3095 0.950736 0.075289 0.300721
6.85922 -18.1434 10.6052 0.759175 -0.439871 -0.479757
9.67795 -24.4646 18.6902 0.648688 -0.66119 -0.37687
1.97562 14.9778 0.0493631 -0.393951 0.844922 0.361815
2.98868 -12.2784 3.98852 -0.49066 -0.441351 -0.751306
2.96613 -14.4154 11.0834 -0.936226 -0.092153 0.339101
10.0591 -7.95228 13.7232 0.949917 0.002818 -0.312488
22.1527 15.0876 -5.39384 0.297395 0.786663 -0.541034
10.9871 -8.0675 15.4387 0.954292 0.130704 -0.268782
17.8952 3.22284 0.142716 -0.965976 0.2505 -0.064344
19.3101 -20.7632 19.5854 0.925951 0.304405 0.223499
20.9628 -5.35073 4.73956 0.668178 0.083676 0.739281
17.2557 -19.9035 17.1599 -0.905151 -0.328887 -0.269322
-0.43477 7.22802 4.33626 -0.354316 -0.763781 -0.539536
-2.48266 14.6579 -0.249585 -0.929258 0.351252 0.11446
21.5101 7.21111 1.27605 0.628458 -0.563537 -0.536159
20.8259 4.06048 -2.62776 0.634447 -0.277474 -0.721446
10.6705 -8.45092 24.8479 -0.967895 -0.137498 -0.210413
19.247 1.81825 8.56913 -0.385735 0.594131 0.705845
2.81964 -17.7032 8.75992 -0.855235 -0.314373 -0.411998
8.52033 -19.4242 24.3474 -0.981099 0.192091 -0.023366
11.2509 -3.90233 25.2144 0.419103 0.076927 0.904674
17.6155 -3.31219 -2.69832 -0.598627 -0.170505 -0.782671
11.272 -11.459 14.1959 0.943871 -0.132422 -0.302608
6.93272 -14.9986 11.0856 0.976618 -0.113925 -0.182316
19.6237 14.0806 -1.39858 -0.007137 0.662205 0.749289
22.8053 9.87712 -0.139218 0.895061 0.312343 0.318288
1.2709 13.9894 -3.21188 0.504135 0.726508 -0.46694
18.3874 -12.8945 19.9135 0.994616 0.092084 0.047539
16.898 -0.511974 -2.06954 0.263654 -0.350033 -0.898868
1.94412 15.7708 1.12965 0.598258 0.801297 -0.003395
18.4341 4.26737 6.36256 -0.628581 0.574152 0.524629
-0.38541 -6.34431 6.00571 -0.999183 -0.030069 -0.027013
1.58952 -9.32972 5.43523 -0.618707 -0.372114 -0.691906
13.2102 -2.76593 19.4909 0.955285 0.29546 0.011589
20.013 -11.0789 7.62453 0.711212 0.347246 0.611227
8.10526 -1.89934 5.44639 0.994029 0.030439 -0.104786
0.608214 5.14445 7.36689 -0.371163 -0.76102 -0.532059
5.79741 -22.3833 18.5807 -0.93019 -0.052954 0.363238
13.1944 -13.886 27.8532 0.976247 0.018185 0.215895
12.4545 -5.0182 21.2716 0.986233 0.162393 0.03118
22.7925 7.54432 3.83267 0.440587 0.579877 0.685292
23.4241 12.5003 -2.87398 0.993629 0.059623 0.095633
16.5918 -17.1348 6.85194 -0.875422 -0.321281 -0.361129
19.3583 -19.3641 26.2546 0.905131 -0.364843 0.218239
7.98993 -7.23041 12.8717 -0.928926 0.020743 0.369684
9.92086 -2.97351 17.6515 -0.990924 0.123455 0.053181
9.90319 -24.3086 23.0485 0.624862 -0.647883 0.435654
16.5463 -18.2411 23.9456 -0.95404 0.022308 0.298849
15.9986 -2.1283 1.52189 -0.819075 -0.062758 -0.570244
