ply
format ascii 1.0
comment created by cisstICP
element vertex 300
property float32 x
property float32 y
property float32 z
property float32 nx
property float32 ny
property float32 nz
end_header
-9.77164 18.1249 -14.6808 -0.287064 -0.367066 -0.884792
-13.4295 13.4919 -7.73079 -0.984793 -0.151939 -0.084242
7.7335 12.9846 -7.10311 -0.460044 0.649056 0.605876
11.5833 20.1899 -14.0422 0.998089 -0.022556 -0.057533
-6.88552 13.1537 -7.421 0.82662 0.496124 0.265632
-6.88265 -13.2557 2.30419 -0.794177 0.312342 0.521273
-4.25963 -14.708 0.0741406 0.653008 -0.672429 -0.348452
2.85314 0.564131 -6.67278 -0.990737 -0.089806 -0.10186
-11.4947 15.1026 -13.9285 -0.51269 -0.519826 -0.683323
-3.75641 0.518887 5.38459 -0.983864 -0.00844 0.178717
4.61471 1.33098 14.4557 -0.881209 0.168237 0.441777
-2.2053 -13.4209 16.7112 0.951396 0.040268 0.305325
-6.94396 16.0064 -9.93495 0.796602 0.525124 0.299448
5.86336 -6.73375 -5.10539 -0.964836 -0.12806 -0.229546
3.57176 -4.93507 -3.73682 -0.992357 -0.094255 -0.079647
4.079 1.35437 3.59938 -0.961545 -0.069885 -0.265609
2.24582 -12.544 3.20248 -0.981137 -0.190651 -0.031965
8.14757 0.951471 -8.88826 0.473705 -0.385663 -0.79175
-11.0076 8.27092 -12.9974 -0.902119 -0.143394 -0.406963
7.03525 11.9467 -11.5026 -0.868092 0.223078 -0.443456
8.32309 -2.19214 -1.89521 0.69948 0.347346 0.624563
9.83995 17.401 -15.3554 -0.762064 -0.216475 -0.610244
-9.97581 19.9205 -11.4697 0.696995 0.670001 0.255533
7.01879 11.3696 -1.49316 -0.332386 0.603067 0.725141
14.3566 20.8687 -13.603 0.468399 0.734113 -0.49161
-3.61287 -10.3582 7.15763 0.939757 -0.25444 -0.228291
-8.49759 5.33918 -2.06356 -0.835965 -0.387753 0.388342
6.04387 -11.7858 -3.31097 -0.224685 -0.833689 -0.50446
-11.7606 9.87095 -10.7449 -0.776891 -0.214592 -0.591938
3.52556 -19.2901 8.60467 -0.759759 -0.517551 -0.393582
9.20875 -14.7725 -1.98934 0.589012 -0.643854 -0.488382
9.78286 7.11473 -5.48662 -0.304997 -0.580003 -0.755363
5.50015 -13.61 21.0277 -0.744176 -0.237048 0.624509
4.41932 -19.6302 11.2093 -0.758698 -0.411385 -0.505113
-13.4657 16.2143 -12.652 -0.823519 -0.496794 -0.273884
-5.85978 -4.53356 -3.06651 0.997872 -0.037039 -0.053664
3.27769 -19.774 10.4032 -0.312371 -0.934466 -0.170873
-11.4066 15.7854 -6.73899 0.024365 0.605802 0.795242
8.99035 10.3097 -7.5559 0.817934 -0.074501 0.570467
-8.76873 4.08384 -3.45362 -0.587779 -0.793292 0.158758
-11.8486 9.69678 -7.74611 -0.752475 0.277494 0.597309
-9.39768 19.018 -12.7225 0.800743 0.45913 0.38472
9.03044 17.5778 -13.9802 -0.847471 0.212958 -0.486253
-4.04616 0.645626 -0.793891 -0.979398 0.106077 0.171834
-12.2469 18.9801 -8.05607 -0.608677 0.573323 0.548465
-14.4711 12.3403 -7.82232 -0.984793 -0.151939 -0.084242
-4.15367 -12.3988 7.64506 -0.945748 0.302857 0.117638
4.85881 -10.3997 19.2954 0.995854 0.004067 0.090879
10.2996 15.0437 -8.8525 -0.263154 0.631136 0.729669
-5.10989 5.90685 -2.65029 0.743413 0.479792 0.465979
9.0965 9.2132 -11.0969 0.672216 -0.324965 -0.665224
2.57598 -1.4575 15.1584 -0.772895 0.385148 0.504275
-5.78615 -15.5976 1.56669 0.752448 -0.573802 -0.323379
4.4874 -1.21884 11.4774 0.940963 0.009955 -0.338364
-11.6776 3.91507 -10.1295 -0.757041 -0.199683 -0.622106
5.87648 -8.53231 -5.23488 -0.913339 -0.230355 -0.335781
-12.2257 17.5035 -7.47209 -0.622525 0.581333 0.523941
-8.55745 3.00795 -6.1758 -0.859044 0.094671 0.503072
-3.6875 -14.5264 6.84661 0.959294 -0.136332 -0.247323
4.3562 -9.29489 0.447944 -0.983131 -0.143033 -0.113992
8.36688 4.0555 -10.2965 0.442615 -0.33843 -0.830396
9.48356 6.35555 -1.75352 0.235507 -0.763798 -0.600957
-2.7638 2.14699 -6.72514 0.999394 0.03458 0.003991
-6.08875 8.54617 -2.61519 0.58932 0.624461 0.512592
-7.3432 -6.55107 -7.20534 -0.480361 -0.312428 -0.819538
9.53834 11.3268 -11.9435 0.893053 -0.239323 -0.381027
6.46895 -10.5843 -3.51955 0.280235 -0.490393 -0.825217
3.84352 1.37404 15.8839 -0.578195 0.336514 0.743269
-0.85812 0.0283102 4.72782 -0.99769 -0.013856 0.066507
0.381633 1.81515 9.18967 0.976129 0.118412 -0.182074
12.8638 13.055 -10.2861 0.896662 -0.370535 -0.242283
4.48619 1.00004 -0.71509 0.972243 0.059551 0.226267
8.44178 22.22 -12.7992 -0.364923 0.873613 0.321918
-2.07038 -8.98424 -0.894972 0.99288 -0.103776 -0.058479
-10.8358 21.8759 -13.2556 -0.606285 0.681696 0.409524
3.64695 -11.0836 13.4073 -0.999943 0.00055 0.010637
-9.55334 20.5128 -14.2444 0.635454 0.765471 0.101252
2.96282 6.38668 1.06213 -0.802082 0.593731 -0.064406
-10.4642 19.7022 -14.3298 -0.265313 -0.465227 -0.844495
-5.78789 -2.79622 12.4172 -0.997711 0.060794 -0.029603
-4.13093 -3.00771 -5.70693 0.875292 -0.245387 -0.416713
-0.327362 -2.02971 10.9631 0.993953 0.09255 0.059085
5.22983 -22.2087 10.408 -0.312371 -0.934466 -0.170873
-13.643 13.5648 -6.45998 -0.314261 0.578396 0.752794
-3.24799 -6.84507 4.16022 -0.848226 0.272758 0.454
9.90131 8.90597 -5.77948 0.817934 -0.074501 0.570467
-5.27309 -0.670676 -7.49266 0.908895 -0.127134 -0.397174
8.51138 9.62828 -12.2789 0.188023 -0.273487 -0.94332
-9.6682 18.0119 -9.17407 -0.267325 0.636965 0.723058
-4.79187 -3.04448 -6.26002 0.821708 -0.186923 -0.538383
-13.5946 6.54517 -10.5764 -0.989122 0.068882 0.129973
1.9718 1.23774 6.68344 0.987765 -0.00397 0.155896
-5.52101 -12.7967 6.81908 -0.843233 0.26467 0.467877
-5.88949 6.45037 -6.23806 0.966868 0.194929 -0.164829
3.31079 4.23995 11.288 0.285701 0.880465 0.37836
9.75465 0.500769 -9.69199 0.436736 -0.287844 -0.852295
7.59588 9.12289 -9.21402 -0.730929 -0.203133 -0.651522
-7.94697 2.23765 -1.12421 -0.618176 0.487816 0.616355
5.31479 4.52832 6.53312 0.973568 0.039175 -0.225012
6.49577 -1.44883 -0.291061 0.920072 0.144543 0.364109
3.4296 9.03841 -7.83479 -0.995238 0.039135 -0.089279
5.43801 -11.4887 -0.498802 -0.866534 -0.388 -0.313965
3.16966 -4.13671 9.43813 0.990473 0.137618 0.004884
9.0141 7.31602 -4.77044 0.775692 -0.382708 0.501833
8.96467 -14.4771 7.14156 0.959729 -0.14558 0.240263
7.02116 6.74873 -3.94429 0.426629 -0.813332 -0.395574
-5.6172 -19.4281 5.11443 0.710415 -0.652802 -0.262982
9.00601 -11.3759 6.63406 0.80777 0.32495 0.491849
5.79181 0.868507 -8.80121 -0.037944 -0.29553 -0.95458
-0.581313 -1.57043 11.8832 0.980194 0.07087 0.184926
-4.82275 -17.8481 6.1542 0.627275 -0.725047 -0.28431
11.826 14.8357 -8.75185 0.993877 -0.075082 0.081059
3.21297 -17.3849 14.7968 0.973134 -0.218459 0.072699
-6.46281 10.4497 -2.97373 0.308084 0.580348 0.753843
13.0129 16.4513 -12.7982 0.949358 -0.254948 -0.183632
9.09527 -11.2937 -4.06385 0.545385 -0.385404 -0.744325
-3.76634 -15.6438 16.0407 -0.946354 -0.323125 0.00206
-6.37863 -14.6421 6.95049 -0.933639 -0.0373 0.356267
3.94129 0.474528 11.8535 -0.925197 0.167552 0.340495
7.56067 -12.3986 -1.31192 0.800969 -0.353554 -0.483164
6.87421 2.02583 -10.0648 -0.072117 -0.187082 -0.979694
-0.824285 -10.2891 15.6254 0.99908 0.020138 0.037855
5.66294 -17.9288 2.37042 -0.522911 -0.841817 -0.133819
3.93215 -6.50781 16.3602 0.98597 0.154629 0.062872
11.8967 21.6349 -12.7886 0.113416 0.73145 -0.672397
-0.0449679 -7.65415 10.0011 0.958222 -0.216885 0.186471
3.0439 -2.86317 4.73759 -0.656458 -0.019026 -0.754122
7.97307 15.6529 -8.18301 -0.588076 0.603251 0.538754
9.72733 -11.3153 -0.203625 0.98265 0.129191 0.133077
10.6827 7.89395 -0.559927 0.625103 -0.489528 0.607954
10.6697 16.9269 -15.1785 -0.625928 0.019664 -0.779633
11.8577 16.1957 -7.12693 0.988159 0.112085 0.104782
-9.04184 -14.2115 1.47877 -0.991209 -0.048601 -0.123057
-4.72003 -14.4589 21.1523 -0.724599 0.026189 0.688673
-2.83413 -13.2574 18.6584 0.944538 -0.032704 0.32677
5.71661 -12.3419 11.6862 0.982344 0.164067 -0.089899
4.35123 -9.90598 -3.41739 -0.781256 -0.356463 -0.512419
11.9008 7.40299 -4.01523 -0.034653 -0.769175 -0.638097
-8.4378 -9.09448 2.16761 -0.806555 0.337674 0.485227
-7.85268 12.5192 -11.9822 0.711351 -0.031244 -0.702142
5.98613 6.38585 -2.543 0.971317 -0.219909 0.090459
-6.04437 10.4638 -3.71369 0.661022 0.521363 0.539658
-10.1204 -7.37915 0.0964033 -0.780085 0.278716 0.560164
-10.9106 18.1444 -13.5601 -0.184492 -0.547364 -0.816306
9.19657 -5.66559 -4.52092 0.762674 -0.189969 -0.618256
-10.9258 23.0006 -17.59 0.179814 0.958614 -0.220738
8.07778 -1.34012 -2.46433 0.778681 0.25573 0.572938
4.61821 -19.3901 13.8117 0.964819 -0.254839 0.064658
-7.3535 6.30955 -0.542613 -0.432632 -0.623579 0.651137
3.0773 -13.1637 5.51384 -0.981137 -0.190651 -0.031965
4.34354 -8.75117 18.2273 0.961219 0.260461 -0.090653
10.8353 -4.78708 1.58407 0.772855 0.323292 0.546056
-9.82225 5.73264 -11.6417 -0.470354 -0.090088 -0.877867
4.78599 0.759486 8.59667 0.991495 -0.118602 -0.053579
-2.57728 -9.38373 6.44023 0.984501 -0.120884 -0.127063
-10.7438 16.9087 -7.9881 0.540371 0.60754 0.582146
-13.8464 15.3402 -6.81738 -0.994999 -0.073984 0.067114
5.04608 8.04131 -5.42019 -0.928389 0.220285 0.299279
4.65063 1.78565 -0.59313 -0.998375 0.056984 -0.000447
-3.41689 3.11057 6.48899 -0.986175 0.002496 -0.165691
4.52341 -13.9227 19.5167 0.478749 -0.569013 0.668599
-5.41055 -17.0601 3.14533 -0.801087 -0.524781 0.287864
-4.89507 -15.8097 11.661 -0.97366 -0.065773 0.21831
5.08702 -6.27735 10.5934 0.998624 0.04688 0.023489
-5.37119 -12.9156 10.8943 -0.972295 0.233036 0.018321
5.53114 -16.8915 4.43224 -0.488709 -0.850259 -0.195507
2.40664 -7.0778 -5.23181 -0.945161 -0.199056 -0.258937
-10.1344 3.5164 -11.9167 0.270468 -0.273421 -0.923086
4.31527 5.01976 -8.80048 -0.977127 0.005433 -0.212585
2.43043 2.08755 13.5463 -0.654256 0.565642 0.501994
10.2964 6.65449 -2.86792 -0.116905 -0.944011 -0.308507
-2.54274 -17.8812 14.8701 0.715343 -0.665086 0.214348
11.8567 8.44309 -2.65497 0.975198 -0.194093 -0.106383
1.92896 -14.6997 11.5602 -0.988897 -0.060762 -0.135612
7.38657 -3.44175 -6.76629 0.777089 -0.227364 -0.586889
-7.03886 -3.86778 -5.39407 0.220669 -0.436812 -0.872067
-1.56802 0.418344 6.72006 0.937459 0.003435 -0.348079
7.15887 -12.3449 11.701 0.980347 0.191962 -0.045496
3.71971 -8.26842 14.3924 0.979936 0.175382 -0.094688
-4.83428 2.73053 11.4109 -0.972969 0.204663 0.106979
-4.72622 -0.965544 9.86861 -0.985598 -0.155633 -0.066141
7.34736 9.13548 -3.04559 -0.476933 0.579446 0.660892
-10.6126 21.7687 -13.4399 0.213382 0.937567 0.274656
-3.51173 3.62294 -6.58012 0.997561 0.024727 -0.065278
11.1292 6.33827 -5.13168 0.579196 0.301393 0.757426
-8.75195 -9.59169 -5.12465 -0.221495 -0.411851 -0.883922
-5.31595 10.8836 -10.2714 0.66387 -0.052744 -0.745986
10.3507 3.98743 -4.2415 0.554209 0.333982 0.762436
5.19803 -1.67689 5.81157 0.665233 -0.595544 0.450324
-9.53062 11.3702 -3.58449 0.008545 0.583951 0.811744
12.2115 21.6495 -12.377 0.682648 0.537579 0.494975
6.67289 -13.6447 4.9216 0.868593 0.218647 0.44468
10.6843 8.52722 -2.67077 0.952369 -0.254119 0.168572
8.98694 -9.40185 -4.71855 0.520989 -0.372054 -0.76821
-2.35367 -14.9501 16.949 0.995386 -0.030662 0.090916
7.81149 -12.3354 -3.07299 -0.672804 -0.469669 -0.571617
-5.81896 -8.6128 -1.61884 0.814948 -0.332743 -0.474491
-9.26762 19.1023 -14.1038 0.712921 0.079882 -0.69668
7.0326 -17.6411 3.28527 -0.075425 -0.992453 -0.096687
2.88093 -18.8078 14.6552 -0.95688 -0.258389 0.132726
-5.61262 5.14909 -1.48433 -0.822685 -0.280211 0.494643
-5.97419 1.89608 -8.28548 0.796969 -0.115134 -0.592946
7.59869 13.9953 -11.436 -0.853114 0.155342 -0.498062
-8.36992 -2.70597 -6.3112 -0.571333 -0.359174 -0.737951
-11.3544 15.5992 -9.45258 -0.870181 -0.368089 -0.327559
-10.484 -6.20215 -2.29551 -0.89789 0.098215 0.429124
4.13617 2.4373 1.84502 -0.961309 0.127648 -0.244112
3.09418 6.44107 10.8199 0.393294 0.911678 0.119007
-11.0398 11.8075 -5.92671 -0.093299 0.669025 0.737361
6.43433 3.20048 -3.78439 0.496477 0.061945 0.865837
-3.08281 -5.88884 11.0928 -0.985442 0.069929 -0.154967
4.36881 -3.34417 -6.79832 -0.948411 -0.141884 -0.283524
3.42532 3.87653 10.5717 0.850884 0.336108 0.403768
-2.56998 -8.60563 4.49757 0.956158 -0.151395 -0.250683
-1.1559 -18.4986 14.6751 -0.477279 -0.715577 0.510053
7.66399 -15.8782 7.20617 0.947809 -0.244653 0.204459
4.68993 1.63076 -10.4766 -0.599905 -0.256886 -0.75771
5.36441 -12.2454 17.2055 0.996434 0.007213 0.08407
-1.72762 -8.16993 -0.742423 0.996715 -0.055378 -0.059102
11.6958 10.7068 -2.01372 0.409804 0.561006 0.719258
-10.5303 -1.33905 -2.45209 -0.906304 0.047729 0.419924
-7.34124 -8.64044 -1.53515 -0.905937 0.146011 0.39744
12.0991 16.6415 -12.2066 0.912365 -0.36087 -0.193296
-2.27786 -16.6473 17.4914 -0.919874 -0.389148 0.048951
4.66143 10.8414 -6.03779 -0.928697 0.197419 0.313922
4.17217 -2.11276 15.9689 -0.388808 0.409945 0.82509
3.14806 -8.98276 19.1426 -0.970283 -0.059392 0.234569
4.94949 -12.0153 13.9198 0.983392 0.168999 -0.066186
12.9644 12.6361 -6.93954 0.513887 -0.68968 -0.510159
-5.77965 9.20315 -3.29833 0.690913 0.471823 0.547743
-4.94896 0.957589 -1.95355 -0.888475 -0.086166 0.450764
3.46969 -3.45796 -6.82371 -0.936734 -0.121386 -0.32832
-8.66103 9.4651 -5.96411 -0.950944 -0.172593 0.256744
-3.20697 -11.1664 9.9928 0.996998 -0.07303 -0.02571
11.481 19.29 -15.9279 -0.462776 0.683113 -0.564973
-1.75973 -9.39065 13.8581 0.999995 -0.000239 0.002997
-1.08659 -0.532367 5.78113 0.960879 -0.072254 -0.267376
-3.30939 -5.09879 10.9823 -0.963214 0.154214 -0.220081
11.3569 11.5218 -7.69449 0.730814 0.088655 0.676795
4.25093 -15.4042 7.26267 -0.921039 -0.240657 -0.306222
-10.4827 -8.75511 -2.92178 -0.995074 -0.09858 -0.01043
11.8353 5.36872 -7.63781 0.990952 -0.105861 -0.08251
-10.1316 11.3926 -10.6982 -0.987787 -0.128502 -0.088108
-7.57743 12.868 -12.1429 0.911382 0.13843 -0.387582
-1.97327 -2.84792 15.7596 0.712242 0.443486 0.544088
5.76579 -12.0291 6.79003 0.877461 0.239186 0.415755
5.43399 -5.88976 -6.81378 -0.662476 -0.402529 -0.63174
5.5756 4.4034 2.4984 0.837774 0.521815 0.16076
9.73398 -11.7981 4.63733 0.919044 0.173381 0.353974
-7.66938 -3.73642 -7.47901 -0.299043 -0.355178 -0.885676
4.84596 2.15316 4.81168 0.950736 0.075289 0.300721
-4.92698 -12.091 -0.344874 0.759175 -0.439871 -0.479757
-3.29792 -18.174 8.23504 0.648688 -0.66119 -0.37687
-9.00163 20.6604 -12.3044 -0.393951 0.844922 0.361815
-7.82265 -6.47456 -7.64072 -0.49066 -0.441351 -0.751306
-8.95775 -8.4897 -0.601126 -0.936226 -0.092153 0.339101
-2.60299 -1.7455 3.02984 0.949917 0.002818 -0.312488
11.7863 21.3616 -14.3357 0.297395 0.786663 -0.541034
-1.96969 -1.79986 4.87738 0.954292 0.130704 -0.268782
7.03377 9.45552 -9.31466 -0.965976 0.2505 -0.064344
5.93385 -14.1333 10.628 0.925951 0.304405 0.223499
9.55641 1.07069 -4.08226 0.668178 0.083676 0.739281
4.28545 -13.3853 7.87739 -0.905151 -0.328887 -0.269322
-11.852 12.9076 -8.30239 -0.354316 -0.763781 -0.539536
-13.3364 20.1844 -13.3296 -0.929258 0.351252 0.11446
10.2864 13.5829 -7.68878 0.628458 -0.563537 -0.536159
10.3568 10.3447 -11.5802 0.634447 -0.277474 -0.721446
-3.83264 -2.03309 14.1108 -0.967895 -0.137498 -0.210413
7.00967 8.24168 -0.751338 -0.385735 0.594131 0.705845
-8.61556 -11.8197 -2.84239 -0.855235 -0.314373 -0.411998
-5.5328 -13.08 13.508 -0.981099 0.192091 -0.023366
-3.46082 2.53816 14.466 0.419103 0.076927 0.904674
7.43007 2.86721 -12.0153 -0.598627 -0.170505 -0.782671
-1.37868 -5.2005 3.77539 0.943871 -0.132422 -0.302608
-5.03063 -8.93779 0.0703267 0.976618 -0.113925 -0.182316
8.66089 20.3377 -10.7923 -0.007137 0.662205 0.749289
11.7164 16.2668 -8.92981 0.895061 0.312343 0.318288
-9.12434 19.5931 -15.6143 0.504135 0.726508 -0.46694
4.72897 -6.29592 10.622 0.994616 0.092084 0.047539
6.53267 5.6518 -11.577 0.263654 -0.350033 -0.898868
-9.23638 21.4701 -11.2623 0.598258 0.801297 -0.003395
6.49992 10.6238 -3.11644 -0.628581 0.574152 0.524629
-11.665 -0.624778 -6.34333 -0.999183 -0.030069 -0.027013
-9.53228 -3.55078 -6.51202 -0.618707 -0.372114 -0.691906
-0.613824 3.64249 9.12142 0.955285 0.29546 0.011589
8.31651 -4.63627 -1.26625 0.711212 0.347246 0.611227
-3.33953 4.09548 -5.58999 0.994029 0.030439 -0.104786
-11.2636 10.9126 -5.09494 -0.371163 -0.76102 -0.532059
-7.16826 -16.2277 7.43827 -0.93019 -0.052954 0.363238
-1.67766 -7.32733 17.6135 0.976247 0.018185 0.215895
-1.58547 1.39661 10.8027 0.986233 0.162393 0.03118
11.1156 14.003 -4.96339 0.440587 0.579877 0.685292
12.7002 18.8623 -11.5827 0.993629 0.059623 0.095633
5.25829 -10.8171 -2.45795 -0.875422 -0.321281 -0.361129
4.83096 -12.6196 17.1801 0.905131 -0.364843 0.218239
-4.52314 -1.10888 1.83178 -0.928926 0.020743 0.369684
-3.54413 3.29206 6.76833 -0.990924 0.123455 0.053181
-3.8045 -17.9361 12.5659 0.624862 -0.647883 0.435654
2.40838 -11.6323 14.4131 -0.95404 0.022308 0.298849
5.09926 4.06746 -8.14841 -0.819075 -0.062758 -0.570244
