ply
format ascii 1.0
comment created by cisstICP
element vertex 300
property float32 x
property float32 y
property float32 z
property float32 nx
property float32 ny
property float32 nz
end_header
-8.83656 18.0933 -15.0605 -0.278371 -0.37119 -0.885849
-11.8862 12.7676 -8.07213 -0.993351 -0.0852449 -0.0773774
7.17813 14.4996 -5.37412 -0.435022 0.66475 0.607341
10.0986 20.2922 -15.4816 0.995826 -0.0077 -0.0909459
-4.92471 12.3599 -8.51172 0.812256 0.499586 0.301087
-6.86702 -11.8028 3.1096 -0.818752 0.299898 0.489597
-4.41966 -16.2668 -1.43388 0.649519 -0.690862 -0.317544
3.5373 1.134 -5.59011 -0.965574 -0.18594 -0.181917
-7.92454 14.0739 -13.6576 -0.502103 -0.535292 -0.679231
-3.40439 -0.351639 6.71885 -0.995408 0.0331088 0.0898159
3.57941 0.37515 15.0634 -0.877118 0.159691 0.452948
-0.73263 -9.89905 18.4835 0.960403 0.122451 0.250262
-5.47882 14.3145 -8.45134 0.805425 0.503286 0.313038
2.63205 -5.75268 -4.30251 -0.953654 -0.139455 -0.266636
1.75415 -4.71697 -3.371 -0.997951 -0.045393 -0.04509
1.28805 0.884973 3.71171 -0.946576 -0.0503962 -0.31852
3.25612 -13.9941 5.05476 -0.960574 -0.276188 -0.0318783
6.81588 -1.1261 -8.43558 0.464565 -0.42731 -0.77562
-7.8576 7.35452 -11.0232 -0.885725 -0.0981897 -0.453706
7.8738 14.8744 -11.0327 -0.847852 0.208182 -0.487655
7.97457 -1.66482 -2.09362 0.677507 0.323087 0.660757
5.87159 17.2688 -14.6588 -0.745516 -0.153582 -0.648551
-8.58776 19.0951 -13.5044 0.681304 0.680826 0.26889
7.68173 9.4105 -4.76147 -0.363755 0.616381 0.698396
11.2221 22.7425 -15.827 0.415043 0.739837 -0.52951
-1.47521 -11.2343 7.7731 0.92742 -0.273797 -0.254809
-4.76586 5.82787 -2.59661 -0.847425 -0.434781 0.30469
6.38655 -14.8865 -3.17966 -0.218549 -0.826419 -0.518911
-9.38026 7.08307 -10.7163 -0.746812 -0.206366 -0.632206
5.16986 -16.9577 10.5807 -0.761358 -0.480554 -0.435203
7.24167 -15.3758 1.33636 0.608735 -0.644149 -0.463157
10.724 8.42445 -3.9166 -0.284216 -0.55578 -0.781236
4.96498 -14.2282 19.8253 -0.773815 -0.211694 0.59699
3.28187 -18.6691 9.28779 -0.761988 -0.390261 -0.516788
-12.881 18.6119 -11.6506 -0.795989 -0.516248 -0.316053
-4.34555 -4.84409 -4.02581 0.998381 -0.00516982 -0.0566383
4.48974 -20.3147 11.8832 -0.362907 -0.917564 -0.162406
-11.9186 16.752 -7.599 -0.00357589 0.681794 0.731535
8.45463 9.80533 -7.80149 0.848256 -0.0497943 0.527239
-7.11055 6.66645 -0.499781 -0.619792 -0.763136 0.182981
-9.59165 8.02581 -6.71505 -0.7608 0.216857 0.611683
-5.66026 20.4245 -14.2889 0.773023 0.409022 0.484908
9.63237 17.7044 -13.1124 -0.839357 0.134101 -0.526779
-6.8551 0.95577 0.537546 -0.980336 0.140043 0.139029
-9.75564 18.7329 -8.93511 -0.579971 0.592819 0.558749
-13.0719 12.8601 -9.11995 -0.989774 -0.122825 -0.0725331
-5.34217 -12.485 11.8242 -0.952678 0.300641 0.0449422
4.96458 -12.1822 22.8158 0.98828 -0.00259121 0.15263
7.90775 15.8803 -8.27557 -0.315846 0.635595 0.704458
-3.66074 5.17569 -1.05646 0.701728 0.485877 0.521057
10.0135 12.2312 -12.3485 0.687409 -0.336602 -0.643558
3.26133 -3.17545 15.9256 -0.767162 0.421843 0.483229
-5.14689 -16.824 2.35033 0.755955 -0.55895 -0.340746
3.73842 -1.37213 13.9 0.952449 0.0325361 -0.302958
-11.0979 1.28433 -8.95396 -0.71624 -0.184175 -0.673112
3.57796 -10.1147 -5.4421 -0.904761 -0.190471 -0.380956
-11.0973 15.4077 -8.63951 -0.642732 0.57445 0.506856
-7.8355 3.84571 -3.50425 -0.874704 0.00606945 0.484619
-2.75493 -13.6254 4.63716 0.973167 -0.0779013 -0.216513
2.85513 -11.3517 0.945614 -0.980489 -0.142605 -0.135292
9.22306 5.2219 -10.161 0.430347 -0.322358 -0.843141
7.34341 6.66126 -1.13442 0.253973 -0.821576 -0.510403
-1.25075 4.78026 -3.26944 0.99968 -0.0252978 0.00038041
-5.46311 8.70931 -3.60646 0.631424 0.606714 0.482911
-8.73663 -11.0022 -6.4843 -0.452295 -0.299883 -0.83994
10.0904 11.0555 -12.5604 0.916002 -0.233965 -0.325884
6.81157 -11.498 -3.81613 0.314172 -0.527503 -0.789327
4.24368 1.92453 17.1131 -0.590505 0.334436 0.734477
-2.57111 1.93315 7.28968 -0.995008 0.0387048 0.091985
-1.9148 2.49208 8.02249 0.982291 0.102448 -0.156871
12.0027 15.6836 -11.4706 0.884025 -0.421256 -0.202593
6.6641 0.493764 -1.9438 0.953007 0.136177 0.270616
9.57216 22.0271 -11.256 -0.37055 0.888846 0.269527
-3.61416 -10.4411 -2.05142 0.997623 -0.06319 -0.0274677
-10.1434 21.511 -12.0336 -0.590495 0.732206 0.339397
2.75241 -9.22579 13.194 -0.999965 -0.00566919 -0.00605354
-8.54305 21.7381 -13.0534 0.62429 0.774942 0.0986243
4.14248 5.79824 0.460168 -0.814418 0.575976 -0.0705358
-8.41456 21.2625 -17.5053 -0.272144 -0.474577 -0.837086
-5.2767 -3.07662 11.0953 -0.994325 0.105228 0.0156177
-3.94219 -5.84005 -7.2465 0.844775 -0.28178 -0.454925
-1.3778 0.104003 10.5893 0.988841 0.134892 0.0632209
3.55222 -17.8507 12.0307 -0.349537 -0.910318 -0.221688
-11.4382 13.6932 -5.33531 -0.376865 0.564456 0.734413
-4.4224 -5.61271 4.54653 -0.868681 0.267716 0.4168
8.41543 8.40217 -5.35204 0.828027 -0.0303915 0.559862
-3.08423 -2.18384 -8.68278 0.91967 -0.138013 -0.367641
8.91656 12.4124 -13.828 0.215712 -0.243968 -0.945488
-8.73106 15.5853 -8.71429 -0.242502 0.650238 0.719988
-3.13354 -2.67272 -7.292 0.845332 -0.156674 -0.510752
-11.8156 7.85188 -9.51496 -0.996544 -0.0506616 0.0658236
3.25689 0.469497 7.16787 0.985754 -0.0144615 0.16757
-7.56377 -14.4037 6.44559 -0.897578 0.211562 0.386778
-2.01721 3.54502 -4.01404 0.965887 0.15196 -0.209689
2.4632 5.43661 12.187 0.215499 0.894163 0.392471
6.99197 1.60462 -11.1979 0.407562 -0.278432 -0.869694
4.87742 9.53483 -11.163 -0.774132 -0.154471 -0.613889
-6.56478 -3.33272 -1.94974 -0.627155 0.468505 0.622237
2.90342 4.24603 9.08005 0.984346 -0.0245734 -0.174524
6.49991 -1.9742 -1.24481 0.934405 0.202734 0.292895
4.35001 9.30963 -7.2394 -0.992656 0.0567147 -0.10686
4.74479 -12.8681 -0.934956 -0.85313 -0.377735 -0.35984
4.57452 -5.95068 10.4774 0.988349 0.146764 0.0403272
7.18744 9.48146 -5.2724 0.766885 -0.405697 0.49729
8.85954 -16.7666 7.67325 0.935964 -0.10951 0.334632
4.96073 5.60155 -1.02772 0.409759 -0.794548 -0.448097
-3.50838 -16.3385 7.94896 0.698885 -0.665464 -0.262138
6.14378 -14.2806 7.73077 0.812209 0.311046 0.493524
5.45407 0.818512 -8.41735 0.012013 -0.313359 -0.949559
-0.770849 -3.35093 12.3405 0.980341 0.0660679 0.185922
-3.99157 -17.1135 4.98606 0.605784 -0.747233 -0.273253
11.9911 14.9898 -10.1489 0.993177 -0.101643 0.0571572
6.95512 -16.3132 16.0752 0.982762 -0.164863 0.0836617
-7.08379 10.7376 -0.900049 0.278066 0.575957 0.768733
12.5615 17.8736 -13.2927 0.965366 -0.214246 -0.148884
7.64336 -10.0102 -2.83384 0.553664 -0.322416 -0.767792
-5.52715 -16.6112 16.8571 -0.957401 -0.288707 0.00561173
-4.0323 -15.4236 8.53202 -0.902694 -0.0106845 0.43015
2.81838 1.14943 14.876 -0.924192 0.169542 0.342236
7.61133 -12.0702 -2.33594 0.816556 -0.367976 -0.44478
6.25491 2.05149 -13.1236 -0.0255138 -0.137508 -0.990173
-1.91558 -11.4051 16.3106 0.989973 0.0945367 0.104953
6.98375 -17.809 4.17351 -0.541711 -0.839859 -0.0344203
4.86046 -4.88933 17.4331 0.989651 0.11525 0.0854828
12.6222 22.6084 -16.6324 0.151851 0.707788 -0.689912
-0.861525 -9.16728 13.2247 0.95629 -0.207683 0.205855
2.40759 -2.16354 4.84004 -0.629498 -0.00490196 -0.776986
8.42454 16.4107 -10.1257 -0.600401 0.614902 0.511288
9.05623 -11.3549 -0.182408 0.972461 0.0788799 0.219313
9.36854 7.18511 0.313154 0.598594 -0.47714 0.643446
7.94858 17.0897 -13.073 -0.666556 0.0293959 -0.744875
11.6916 14.6609 -9.41523 0.978146 0.123975 0.166918
-8.63188 -15.1534 0.440823 -0.996568 -0.0688234 -0.04599
-4.52636 -14.3466 20.4525 -0.73616 -0.0342758 0.675939
-2.47911 -12.6133 17.0692 0.927195 -0.0276597 0.373556
5.19571 -11.1496 14.4414 0.979752 0.181883 -0.0836909
3.74648 -8.93601 -4.56346 -0.75888 -0.347904 -0.550513
9.3105 7.41312 -2.56945 -0.0302956 -0.793769 -0.607463
-6.54994 -8.74169 0.509992 -0.826307 0.321369 0.462535
-3.75988 10.5566 -13.7456 0.729952 -0.0780869 -0.679024
5.71305 6.41885 -2.17914 0.980412 -0.174604 0.091136
-5.09619 12.5167 -4.22882 0.628395 0.521177 0.57749
-7.62266 -7.99888 0.353658 -0.772621 0.346105 0.532227
-8.50829 19.6264 -14.1383 -0.239791 -0.532338 -0.81186
7.7815 -6.46102 -4.42621 0.79842 -0.196422 -0.569161
-10.7042 22.0415 -17.23 0.234701 0.954519 -0.183869
6.37047 -1.32856 -1.33067 0.775473 0.226779 0.589248
4.93819 -17.7805 17.1269 0.961124 -0.270096 0.0573462
-5.74895 5.24768 -1.29451 -0.424183 -0.636708 0.64395
4.79372 -12.8147 5.75409 -0.983849 -0.17075 -0.0537146
3.22631 -8.89322 17.286 0.951732 0.268848 -0.148079
7.26848 -6.60144 -0.185203 0.763529 0.375496 0.525382
-8.38318 5.59786 -12.5495 -0.508425 -0.0630828 -0.858792
2.15077 1.48543 8.94732 0.988271 -0.144303 -0.0499744
-2.17524 -11.7067 5.49402 0.987834 -0.11394 -0.105837
-8.30441 17.6797 -7.81023 0.590255 0.602956 0.536697
-12.8235 15.2761 -7.77207 -0.995784 -0.0868529 0.0295125
4.08398 9.41231 -5.28849 -0.912842 0.182652 0.365182
4.11605 3.42017 0.173369 -0.994458 0.089469 0.0552194
-4.33459 2.35296 6.93176 -0.984113 -0.0645366 -0.165401
3.66128 -14.8435 19.1217 0.549306 -0.515127 0.657957
-6.66553 -15.7867 6.00469 -0.798892 -0.50948 0.319691
-3.75716 -15.5642 12.8107 -0.972353 -0.0661221 0.223956
6.15804 -6.01354 13.3811 0.995937 -0.0180487 0.0882184
-6.32743 -14.3218 12.9114 -0.954382 0.298099 0.0170602
4.6692 -17.6914 2.91959 -0.501701 -0.839658 -0.208015
2.83573 -4.52415 -3.35255 -0.935123 -0.231737 -0.268036
-6.21577 3.46302 -11.4432 0.278095 -0.274885 -0.920381
2.15675 6.93952 -7.94669 -0.967371 0.0041966 -0.253327
3.71831 3.77957 14.0827 -0.679475 0.57439 0.456497
9.01107 7.39555 -2.52999 -0.150884 -0.937564 -0.313382
-3.06592 -17.9814 16.2329 0.696899 -0.673455 0.246557
9.59097 6.46066 -3.62954 0.972239 -0.218894 -0.082683
3.76989 -17.3156 11.8718 -0.986539 -0.116286 -0.114971
6.39389 -4.41064 -5.80378 0.784161 -0.272366 -0.557591
-5.83977 -5.68773 -7.82353 0.283045 -0.429807 -0.85741
-1.80604 -0.623141 7.93044 0.927104 -0.097507 -0.361898
4.45322 -12.0181 11.1838 0.971863 0.232544 -0.0374968
5.37257 -8.82904 12.3842 0.983234 0.117594 -0.139363
-2.70072 3.59243 12.7633 -0.965455 0.219413 0.140553
-2.36157 -1.07397 11.3781 -0.984773 -0.147917 -0.0913336
7.10234 11.0138 -2.01849 -0.524284 0.54155 0.657154
-11.8934 22.3263 -14.0266 0.190705 0.931224 0.310569
-4.35758 5.35096 -5.52842 0.998532 0.0291142 -0.045684
7.91465 5.98038 -5.60053 0.50887 0.32352 0.797738
-7.11923 -9.07459 -3.20275 -0.183569 -0.379004 -0.907005
-5.25422 9.08712 -12.5019 0.680382 -0.0867064 -0.72771
8.99142 3.53489 -6.27441 0.528897 0.336841 0.778978
4.24595 -3.22668 2.90883 0.64275 -0.620822 0.448834
-8.1891 12.0158 -0.0395365 -0.0258584 0.643941 0.764638
11.5521 22.9326 -12.9176 0.640285 0.551324 0.534862
7.46301 -13.1206 6.4142 0.853156 0.184076 0.488099
10.2685 7.90432 -2.88959 0.954102 -0.251779 0.162163
7.71367 -7.6151 -4.09351 0.550772 -0.394794 -0.735383
-1.14801 -14.1339 15.6099 0.999354 -0.0201015 0.0297609
7.50068 -12.8327 -4.44818 -0.666124 -0.477412 -0.573024
-2.85166 -8.87955 -4.07599 0.800579 -0.314598 -0.510001
-7.52772 19.8381 -15.1691 0.690096 0.0987351 -0.716952
6.67658 -17.4675 3.9241 -0.12744 -0.989427 -0.0692298
4.58835 -18.2412 14.056 -0.955338 -0.286353 0.0730194
-5.28046 4.32738 -2.32426 -0.839498 -0.266787 0.473359
-3.60485 -0.501066 -9.62642 0.811531 -0.104679 -0.574857
5.72413 15.0343 -14.4022 -0.854433 0.127386 -0.503704
-8.00286 -4.5455 -9.0567 -0.606043 -0.280364 -0.744383
-12.3694 15.3332 -11.8235 -0.863094 -0.375406 -0.337843
-9.37513 -6.81397 -4.02017 -0.911188 0.0499205 0.408955
1.78737 5.20131 0.975129 -0.932176 0.188865 -0.308834
2.0767 5.81527 11.3082 0.40175 0.910945 0.0936777
-11.4474 11.346 -4.98448 -0.128176 0.694852 0.707639
8.96164 3.02982 -3.85693 0.481118 0.0447803 0.875511
-4.39001 -5.52906 11.0435 -0.991045 0.0849725 -0.103007
3.84382 -4.37424 -5.38971 -0.930923 -0.183723 -0.31564
4.01155 4.89917 14.3556 0.849611 0.327595 0.413332
-3.00076 -8.06854 6.63424 0.976702 -0.105591 -0.186827
-3.55771 -17.9873 18.0728 -0.447217 -0.75536 0.478986
6.77491 -16.0294 6.93456 0.952558 -0.25147 0.171456
4.57092 2.71024 -10.4039 -0.559666 -0.259954 -0.786892
3.98379 -12.3557 19.0688 0.999373 0.0246335 0.025425
-1.68531 -7.59069 -1.54102 0.997708 -0.0625958 -0.0257071
10.4814 9.66287 -3.12114 0.372829 0.519337 0.768951
-8.88556 -1.17885 -4.68794 -0.931533 0.0515167 0.359991
-6.22904 -8.15933 -0.750104 -0.930329 0.101144 0.352501
11.0531 16.447 -13.2559 0.902045 -0.335492 -0.271587
-3.19984 -15.4715 19.319 -0.943397 -0.324992 0.0661995
3.34803 9.25232 -5.96128 -0.939162 0.234636 0.250839
3.15279 -4.81571 16.6984 -0.397038 0.451533 0.799048
2.48124 -9.5674 21.2456 -0.958077 -0.125896 0.257369
5.00663 -12.9921 14.811 0.989697 0.133377 0.052066
10.162 11.1519 -7.46973 0.483677 -0.719458 -0.498435
-4.60911 11.1643 -3.00142 0.723029 0.415422 0.551955
-3.60487 4.13194 -1.22044 -0.883535 -0.0862357 0.460358
3.32777 -3.07759 -4.81856 -0.936344 -0.0876789 -0.339958
-7.78304 7.52629 -4.32131 -0.938945 -0.204622 0.276608
-0.564688 -12.4279 12.7552 0.998213 -0.055211 -0.0228312
8.61299 19.9706 -14.7124 -0.490751 0.680035 -0.544717
-1.51469 -12.2565 14.4441 0.999562 0.0243071 -0.0168495
0.375681 -0.333328 6.38133 0.956213 -0.100431 -0.274898
-3.76358 -3.85935 13.331 -0.944566 0.192436 -0.266012
8.9127 9.56518 -6.98477 0.691808 0.0894471 0.71652
4.33512 -12.632 8.00938 -0.92945 -0.28195 -0.237965
-8.90885 -9.25277 -2.24899 -0.994886 -0.100992 -0.001549
8.49705 6.61977 -8.20965 0.994994 -0.0649518 -0.0759465
-10.9652 9.29451 -10.7024 -0.979024 -0.161099 -0.124728
-3.23983 14.0152 -12.3221 0.911186 0.0990442 -0.399913
-3.12784 -3.63368 17.8989 0.733379 0.459322 0.501178
6.20332 -11.4443 6.82665 0.869601 0.260918 0.419184
5.25164 -8.02538 -6.87214 -0.645499 -0.371962 -0.667064
5.62601 5.30062 2.4072 0.828195 0.537929 0.157244
8.9776 -13.2791 4.61136 0.909137 0.17962 0.375774
-6.72507 -5.39006 -9.19684 -0.302811 -0.347025 -0.887625
5.1811 3.89967 2.78598 0.940249 0.0541597 0.336154
-3.29385 -14.0363 -2.0437 0.733102 -0.486166 -0.475609
-4.56627 -18.6416 8.39535 0.680882 -0.637474 -0.36059
-10.6185 20.2621 -12.5345 -0.390892 0.835181 0.386882
-8.28096 -8.82121 -6.04834 -0.458279 -0.42787 -0.779042
-8.81779 -8.30695 -2.08527 -0.928305 -0.045533 0.369023
-2.76353 -2.75727 2.40664 0.959598 0.0372355 -0.278899
11.2174 21.8128 -14.3403 0.365415 0.76369 -0.532213
-0.579648 -2.14018 5.78481 0.967884 0.108992 -0.226545
4.10304 12.3785 -7.03105 -0.981077 0.186828 -0.050821
5.53321 -15.4021 9.26722 0.92744 0.312117 0.206003
7.79114 -0.229182 -5.68625 0.654226 0.101114 0.749509
2.84164 -15.5035 6.82822 -0.891497 -0.348727 -0.289174
-12.3522 12.7565 -8.10569 -0.376726 -0.747306 -0.547367
-10.1049 20.1062 -14.7221 -0.943426 0.322882 0.0754604
10.0302 11.6537 -8.89061 0.623177 -0.564876 -0.540893
8.66221 9.52739 -10.8115 0.654028 -0.2708 -0.706338
-1.87785 -1.35026 13.1642 -0.9504 -0.192891 -0.243995
4.98804 8.95991 -2.06582 -0.40302 0.599193 0.691768
-7.76507 -11.9376 -3.906 -0.835398 -0.4057 -0.370832
-5.18412 -13.0072 15.1124 -0.984763 0.159974 -0.0681992
-2.95175 1.10357 13.8801 0.398424 0.159375 0.903249
4.21391 4.46534 -11.4061 -0.553119 -0.119966 -0.82442
-1.23609 -6.72473 6.09943 0.954464 -0.143353 -0.261625
-1.5441 -8.24203 0.22496 0.987234 -0.0884694 -0.132451
10.1208 19.7406 -11.2247 -0.106765 0.698643 0.70746
9.59712 18.0311 -10.0282 0.882513 0.339895 0.325027
-8.70744 20.5755 -16.0429 0.528789 0.727767 -0.436734
2.9156 -5.49824 10.7356 0.994306 0.0643966 0.0849012
6.78628 7.72711 -10.7744 0.271991 -0.321333 -0.907065
-7.86215 22.0816 -14.0775 0.57783 0.81388 0.0609343
5.49477 11.2653 -4.03115 -0.593776 0.595244 0.541401
-9.32138 0.435609 -8.95936 -0.999651 -0.0262464 0.00298385
-8.10196 -5.72762 -8.26124 -0.609707 -0.39063 -0.689686
-0.979224 4.44754 8.55595 0.948605 0.305371 0.0830507
8.04784 -3.07436 -2.02103 0.701306 0.441513 0.559676
-2.73534 1.98212 -7.56606 0.993082 0.0903286 -0.0750301
-9.58388 11.6453 -5.66598 -0.333945 -0.791966 -0.511146
-7.09053 -15.3911 6.858 -0.931817 -0.0692012 0.356269
-3.04148 -8.6902 17.1265 0.963569 0.0286921 0.265915
-1.23865 0.740642 10.573 0.972429 0.228921 0.0444558
11.3222 13.0916 -6.74048 0.454705 0.605803 0.652875
10.6913 19.9401 -14.312 0.996594 0.0738416 0.036695
4.08125 -11.0598 -2.97596 -0.882772 -0.330597 -0.333794
4.74482 -15.0264 20.0725 0.881999 -0.401351 0.246973
-4.29243 -0.125279 4.98653 -0.915854 0.0664792 0.395969
-2.02852 4.12389 7.89098 -0.993079 0.115892 0.0190461
-3.4502 -18.7104 15.2822 0.658518 -0.667342 0.347863
2.91134 -10.2974 15.5248 -0.951079 -0.00175537 0.308944
4.59874 3.75407 -9.60813 -0.793985 -0.00116024 -0.607937
