ply
format ascii 1.0
comment created by cisstICP
element vertex 300
property float32 x
property float32 y
property float32 z
property float32 nx
property float32 ny
property float32 nz
end_header
1.29815 12.7589 -2.54274 -0.448664 -0.335519 -0.828328
-0.654782 7.35115 4.76773 -0.993637 -0.0468686 0.102409
18.638 8.31206 3.99692 -0.290683 0.662595 0.690269
19.9199 14.2795 -6.34676 0.961882 -0.0412862 -0.270331
6.09037 6.70351 3.06327 0.872997 0.460993 0.159251
5.29215 -17.693 14.3254 -0.703952 0.315417 0.636368
6.69448 -22.1122 9.3189 0.552726 -0.704704 -0.444843
14.4748 -4.9009 4.16 -0.98933 -0.145496 -0.00756195
2.2834 8.67083 -1.41485 -0.637934 -0.497188 -0.588085
9.81461 -6.4824 17.4899 -0.960636 0.0666849 0.269687
18.214 -6.24713 24.4418 -0.773657 0.17852 0.607936
14.174 -16.4509 28.3676 0.993993 0.0803216 0.0743385
5.63663 8.67439 3.26494 0.868593 0.464598 0.17232
13.5362 -11.7839 5.44315 -0.991012 -0.0970876 -0.0920253
12.8839 -10.7439 6.54044 -0.9907 -0.00780895 0.135839
13.9336 -5.33216 13.7081 -0.989783 -0.00690652 -0.142418
15.502 -20.3051 14.3535 -0.961018 -0.240092 0.137115
17.0906 -7.19688 0.719087 0.299039 -0.421701 -0.856005
2.55016 1.8813 1.01956 -0.956344 -0.0530199 -0.287392
18.3153 8.82197 -1.68461 -0.912732 0.252615 -0.321102
19.3522 -7.95726 6.73241 0.798298 0.279361 0.533553
15.7909 11.3895 -4.83505 -0.856 -0.107913 -0.505589
1.86453 13.7064 -1.03663 0.745903 0.647712 0.155236
19.0355 3.19269 4.39916 -0.206185 0.609102 0.765821
21.0618 16.6962 -6.83794 0.342511 0.739012 -0.580127
11.456 -17.4536 17.9438 0.854197 -0.299961 -0.424701
7.04742 0.0045928 8.71042 -0.795541 -0.412186 0.44409
17.0552 -21.0763 5.67056 -0.342236 -0.80286 -0.488151
1.09813 1.65674 1.59184 -0.85648 -0.161058 -0.490411
18.2592 -23.492 19.3758 -0.846414 -0.440022 -0.29994
18.6908 -21.7244 9.94485 0.488268 -0.652422 -0.579603
22.1374 2.07318 4.65655 -0.443066 -0.522673 -0.728358
19.8384 -21.0205 28.5601 -0.661313 -0.200314 0.72287
16.1004 -25.0962 18.4108 -0.858072 -0.347484 -0.378109
-2.03962 13.3271 1.5549 -0.860394 -0.477804 -0.177274
6.76624 -10.6307 7.0011 0.97069 -0.0398261 -0.237011
17.6887 -26.8577 20.7081 -0.42346 -0.89879 -0.113394
-0.438375 11.3191 5.32387 0.156426 0.660419 0.734423
19.2623 3.64538 1.27849 0.92675 -0.0955341 0.363328
5.15609 0.867903 11.2154 -0.607237 -0.745005 0.276101
1.65131 2.4925 5.58422 -0.628354 0.226891 0.744105
4.65414 14.9503 -2.31089 0.863928 0.366729 0.345163
19.7837 11.6441 -3.98801 -0.914476 0.179415 -0.362691
5.36099 -4.87544 12.067 -0.932569 0.17156 0.317619
1.52698 13.2573 3.65997 -0.44484 0.597387 0.667268
-2.00534 7.51643 3.95475 -0.990784 -0.0846764 0.10572
8.33611 -18.6775 22.6018 -0.915811 0.333655 0.223526
20.4615 -19.0617 31.544 0.998651 -0.0428275 -0.0293791
18.8876 9.74722 1.04139 -0.157224 0.626383 0.763495
8.38484 -0.730787 10.0101 0.803532 0.445066 0.395286
20.0725 6.14116 -3.42312 0.545582 -0.342936 -0.764679
17.9119 -9.80689 25.2713 -0.649419 0.435539 0.623346
6.64024 -22.7498 13.1595 0.658525 -0.57614 -0.484157
18.0887 -7.96528 23.2318 0.882621 0.0065051 -0.47004
-0.508669 -4.12349 3.51245 -0.832915 -0.138839 -0.535702
14.0817 -16.1433 4.05791 -0.965689 -0.146578 -0.214384
0.125952 9.97593 4.12311 -0.516636 0.582792 0.627249
3.78595 -1.83815 8.33291 -0.771846 0.0240749 0.635355
9.53447 -19.7065 15.0419 0.914075 -0.107023 -0.391169
14.474 -17.5341 10.4428 -0.993799 -0.102989 0.0419108
19.4041 -0.894072 -1.27863 0.257512 -0.3137 -0.913937
19.2455 0.355648 7.96782 0.123854 -0.81543 -0.56545
10.3375 -1.15048 7.38852 0.981438 -0.0615994 -0.181619
6.29767 2.93699 7.90568 0.732495 0.569412 0.373123
1.75548 -16.5529 5.24954 -0.60838 -0.259274 -0.750101
20.0617 4.96998 -3.67045 0.831773 -0.257738 -0.491656
17.4964 -17.6888 5.04002 0.144675 -0.515934 -0.844323
19.3001 -4.78175 26.3694 -0.434027 0.334671 0.836431
10.8299 -4.24653 17.9486 -0.959623 0.0721988 0.271867
11.63 -3.73286 18.5619 0.941181 0.0711092 -0.330337
22.3269 9.49268 -2.84728 0.814952 -0.447169 -0.368636
18.1797 -5.75762 7.16367 0.99096 0.0937233 0.0959854
20.2364 15.9117 -2.05971 -0.279155 0.893707 0.351227
7.61267 -16.3044 8.68995 0.97284 -0.0985855 -0.209434
0.700051 16.1345 0.743346 -0.489087 0.743239 0.456498
16.6713 -15.7547 22.5489 -0.984008 0.0308369 0.175431
2.09793 16.3321 -0.544859 0.662981 0.748636 0.000196904
16.3525 -0.435463 10.0981 -0.789536 0.606954 0.0907777
1.401 15.9788 -4.95528 -0.437967 -0.440407 -0.783725
8.65341 -9.26077 22.0743 -0.97002 0.140795 0.198082
6.54045 -11.5488 3.74018 0.736525 -0.299248 -0.606615
12.5236 -6.21081 20.937 0.988679 0.0970291 -0.114448
16.8948 -24.3664 21.0759 -0.420727 -0.890354 -0.17395
0.317381 8.18178 7.39692 -0.214688 0.556686 0.802502
8.20696 -11.6392 15.4266 -0.767476 0.28715 0.573172
19.6087 2.17556 3.66383 0.913553 -0.0763438 0.399488
7.27372 -7.8868 2.25044 0.831761 -0.160834 -0.531326
18.7348 6.40406 -4.67467 0.0313125 -0.224689 -0.973928
2.44507 10.0695 3.62387 -0.0817463 0.637905 0.765764
7.45637 -8.41288 3.6163 0.732107 -0.17271 -0.658932
-1.04685 2.47908 3.23143 -0.969509 -0.0162736 0.244516
16.4754 -5.9169 16.7398 0.99838 -0.0550177 -0.0144862
5.10343 -20.3606 17.6761 -0.803589 0.232959 0.547701
9.39936 -2.33541 6.7692 0.917548 0.122665 -0.378231
16.8046 -1.0688 21.9246 0.319179 0.874234 0.36584
16.8765 -4.397 -1.97037 0.232122 -0.268239 -0.934969
15.129 3.60061 -1.3829 -0.877899 -0.108745 -0.466335
5.02195 -9.09927 9.47729 -0.484828 0.473116 0.735597
16.6276 -2.18586 18.7646 0.934821 -0.0553506 -0.350778
18.0437 -8.23685 7.82798 0.979422 0.160252 0.122687
15.3098 3.28336 2.56556 -0.992475 0.0957523 0.076328
15.9295 -19.0642 8.21855 -0.918791 -0.336118 -0.206994
18.1054 -12.4721 19.6173 0.984547 0.109556 -0.136614
18.4604 3.29605 3.98807 0.826831 -0.447251 0.341053
21.368 -23.3525 15.8516 0.975727 -0.152902 0.15677
16.8799 -0.619406 8.48257 0.289302 -0.795861 -0.531892
9.28106 -22.4834 18.3768 0.61228 -0.6827 -0.398789
18.8111 -20.7722 16.4542 0.899988 0.26719 0.34443
15.8351 -5.20538 1.02572 -0.172437 -0.28649 -0.942438
13.295 -9.73386 22.4748 0.999666 0.0251013 0.00625937
8.23962 -23.1558 15.5349 0.51544 -0.760684 -0.394564
22.5258 8.76253 -1.56055 0.982178 -0.13924 -0.126248
21.0319 -23.0692 24.4674 0.974143 -0.202767 -0.0996495
5.27652 4.94509 10.904 0.43559 0.543407 0.717613
22.6366 11.7118 -4.69334 0.913046 -0.24486 -0.326176
18.552 -16.2608 5.88656 0.392299 -0.320378 -0.862241
8.89432 -22.9356 27.4955 -0.951642 -0.253778 0.17313
8.90886 -21.567 19.0646 -0.80987 0.00990272 0.586525
17.4639 -5.44071 24.4122 -0.839502 0.193216 0.507843
18.5262 -18.3315 6.33789 0.707103 -0.384615 -0.59336
15.8228 -3.86912 -3.72026 -0.20946 -0.108309 -0.971801
12.5576 -17.8506 26.4138 0.995677 0.0554898 -0.074486
18.8501 -24.2263 12.7291 -0.572891 -0.818308 0.0465504
19.6855 -11.6199 26.4266 0.992692 0.0767458 -0.0931279
22.2868 16.5343 -7.88675 0.0535982 0.721115 -0.690739
13.1278 -15.5658 23.2364 0.96844 -0.248051 0.0243756
15.1129 -8.45016 14.5491 -0.759097 0.0400428 -0.649744
19.0831 10.3109 -0.860082 -0.472584 0.621537 0.624786
20.3642 -17.7307 8.20817 0.998474 0.0372375 0.0407914
21.5183 0.764251 9.03462 0.684915 -0.516656 0.513768
18.111 11.0902 -3.65678 -0.788316 0.0747383 -0.610715
22.3505 8.424 -0.791927 0.996444 0.0835664 -0.0107891
2.93902 -20.9002 11.9504 -0.990462 -0.0312392 0.134202
10.6195 -20.8119 30.897 -0.602803 -0.0266952 0.797443
12.0914 -19.0586 27.2361 0.977483 -0.0719255 0.198378
19.219 -17.8007 23.2908 0.955144 0.148473 -0.256232
14.4541 -14.997 4.91634 -0.859375 -0.304327 -0.410926
20.9502 1.076 6.21597 -0.171888 -0.774569 -0.608684
5.25954 -14.5729 11.7774 -0.715384 0.337908 0.611591
6.21644 5.00846 -2.33237 0.591553 -0.0852349 -0.801748
17.4447 0.202396 7.23145 0.972785 -0.212625 -0.0920826
6.70151 6.74464 7.3085 0.743098 0.48139 0.464833
4.20749 -13.7875 11.8343 -0.649033 0.358688 0.670893
1.84991 14.2522 -1.66288 -0.403979 -0.5 -0.76603
18.5453 -12.6751 4.37173 0.673836 -0.209053 -0.708691
-0.767482 16.8324 -4.25239 0.236463 0.9502 -0.202989
17.9273 -7.58475 7.78085 0.877724 0.181627 0.443409
19.1797 -24.4914 25.8362 0.943827 -0.306354 -0.123842
6.29269 -0.576241 10.1566 -0.326617 -0.638912 0.696501
17.1875 -19.2026 14.7872 -0.983522 -0.1333 0.122123
17.8894 -15.5559 26.4932 0.919538 0.238192 -0.312593
18.8011 -12.9172 8.63142 0.860535 0.332434 0.385963
1.6863 0.188955 -0.423138 -0.657264 -0.0201509 -0.75339
15.7512 -4.91241 18.7117 0.95627 -0.178633 -0.231596
10.3373 -17.8353 15.8201 0.946997 -0.1467 -0.28579
3.11317 12.1205 4.47999 0.701595 0.565626 0.433396
-1.41922 9.88251 5.28645 -0.976797 -0.0514226 0.207906
15.4048 3.34018 4.53409 -0.823669 0.205248 0.528622
16.1775 -2.80189 9.77017 -0.963645 0.123933 0.236704
9.04947 -3.75293 17.9258 -0.999605 -0.0240175 0.0146336
18.4051 -21.5678 28.0918 0.637547 -0.553224 0.53617
5.85001 -21.7623 17.0501 -0.748192 -0.488995 0.448434
9.94599 -21.839 23.2184 -0.917818 -0.0370883 0.395264
20.1832 -12.6749 22.1834 0.993915 -0.0567171 -0.0944259
7.48908 -20.5075 23.8103 -0.922624 0.331969 0.196369
16.354 -23.9891 11.9189 -0.564905 -0.81463 -0.131379
13.958 -10.5911 6.36637 -0.976826 -0.189904 -0.0987356
3.92874 -2.05377 0.225527 0.0958863 -0.258552 -0.961227
12.9299 1.01554 2.21766 -0.996217 0.0465319 -0.0733824
18.3126 -2.82353 23.5251 -0.561838 0.585497 0.584406
20.6624 1.06821 6.30874 -0.243176 -0.922183 -0.300739
11.1443 -24.376 26.4058 0.701842 -0.70506 0.101529
20.9955 0.144477 5.10249 0.931562 -0.251633 -0.262436
17.1019 -23.8353 20.8916 -0.994999 -0.0770567 0.0635497
17.0168 -10.5373 3.31301 0.658808 -0.284726 -0.69635
4.57771 -11.3113 3.52054 0.105788 -0.415278 -0.903523
11.593 -6.8461 18.3852 0.841759 -0.120805 -0.526164
17.8657 -18.5487 20.2043 0.957802 0.198054 -0.208302
19.1162 -15.4306 21.2857 0.945887 0.0857071 -0.312971
11.7586 -2.73979 23.389 -0.914426 0.250262 0.318111
11.6511 -7.37419 21.866 -0.99029 -0.109389 0.0857925
19.0269 4.73745 7.23535 -0.374445 0.541354 0.752813
-1.34621 17.0691 -0.880979 0.281542 0.914483 0.29061
6.89984 -0.403362 5.74369 0.974217 -0.00589521 -0.225537
18.9727 -0.218401 3.45871 0.657324 0.28203 0.698845
4.01617 -14.7793 8.22341 -0.35964 -0.346168 -0.866502
4.91239 3.55949 -0.869796 0.533698 -0.0906615 -0.840802
19.8092 -2.68126 2.54851 0.674162 0.295141 0.677051
16.5274 -9.5241 12.294 0.6873 -0.656261 0.31135
4.39792 6.2377 11.9779 0.138957 0.622475 0.770205
21.9191 16.7915 -4.03335 0.748319 0.512283 0.421408
19.9173 -19.624 14.9451 0.934058 0.139022 0.328952
21.8539 1.54097 5.73782 0.956599 -0.290779 -0.0191247
18.4916 -13.8349 4.68649 0.39235 -0.393495 -0.831398
13.0739 -20.5845 25.5273 0.986635 -0.0572314 -0.152563
18.005 -19.0292 4.26503 -0.77758 -0.436427 -0.452659
8.0603 -14.7147 6.59443 0.681809 -0.328861 -0.653443
2.63607 14.4574 -2.84986 0.552765 0.0939243 -0.828027
18.5172 -23.8669 12.5469 -0.178178 -0.981778 -0.0660614
18.2627 -24.8518 22.8706 -0.937349 -0.253416 0.239078
6.52955 -1.48334 9.03955 -0.750433 -0.249451 0.612067
6.6605 -6.1601 1.45313 0.689441 -0.117722 -0.714711
15.601 9.15546 -4.60375 -0.925399 0.172599 -0.337412
2.27606 -10.0566 2.72516 -0.741421 -0.236904 -0.62783
-1.70205 10.0381 1.22203 -0.924517 -0.334055 -0.183509
1.74408 -12.4159 7.8775 -0.819567 0.0713539 0.568524
14.1066 -0.960828 11.0191 -0.964103 0.231302 -0.130399
16.2816 -0.65154 21.1388 0.448953 0.89272 0.0386314
0.275799 5.82742 7.69338 0.0301981 0.678668 0.733824
20.1958 -3.25339 4.91989 0.6327 0.00238508 0.774394
9.41518 -11.7413 21.81 -0.989041 0.123812 0.0804271
14.587 -10.4201 4.18375 -0.97933 -0.140742 -0.145275
18.6958 -1.72352 23.7641 0.922941 0.28464 0.259153
9.88057 -14.2034 17.1687 0.921777 -0.135655 -0.363217
10.993 -24.4162 28.3038 -0.383885 -0.751915 0.535962
19.2161 -22.5194 15.5195 0.956772 -0.290679 -0.00970091
14.6859 -3.22715 -0.726639 -0.702686 -0.216993 -0.677604
18.8141 -19.0929 28.0344 0.987699 -0.0124215 -0.155874
9.71684 -13.5416 8.90252 0.973266 -0.0980451 -0.207705
22.0932 3.29649 5.50908 0.526441 0.483398 0.699418
2.33495 -6.7856 7.25245 -0.848335 0.0750784 0.52411
5.37119 -13.967 10.4927 -0.846476 0.124822 0.517588
21.1026 10.3405 -4.41387 0.823711 -0.360192 -0.437908
11.6725 -21.9515 29.5178 -0.928425 -0.292254 0.229381
14.5536 3.2262 4.00279 -0.868054 0.261381 0.422093
17.8777 -11.4634 26.0158 -0.227459 0.44278 0.867299
17.8445 -16.3148 30.5069 -0.900199 -0.0982661 0.424246
19.0246 -19.6448 23.6491 0.987445 0.0958015 -0.125603
21.0551 4.91903 1.32351 0.355923 -0.722106 -0.593197
7.34649 5.34111 8.39794 0.827164 0.373035 0.420292
8.36748 -1.7708 9.81646 -0.788677 -0.0671221 0.611134
14.236 -9.12231 4.86664 -0.985122 -0.0439123 -0.166149
3.84042 1.85981 7.59868 -0.881142 -0.17815 0.438008
13.2014 -18.8204 22.6512 0.974583 -0.0907682 -0.204812
18.5857 13.9903 -5.32769 -0.552818 0.712612 -0.431944
12.5798 -18.6627 24.4878 0.980239 -0.0115536 -0.197478
13.4692 -6.59185 16.4723 0.885952 -0.127254 -0.445976
10.512 -10.1611 23.981 -0.968402 0.234103 -0.0859732
19.8501 3.36564 1.99318 0.81287 0.0438663 0.580792
17.1514 -19.0675 17.0916 -0.967874 -0.241124 -0.0712735
2.42239 -14.9194 9.48213 -0.982099 -0.0646966 0.176903
19.1001 0.473265 0.801474 0.961432 -0.098873 -0.256656
-0.36654 3.92302 1.94041 -0.991208 -0.121818 0.0516356
7.12586 8.40399 -0.953399 0.827286 0.0771956 -0.556452
11.9707 -10.0886 28.3613 0.829962 0.417954 0.36943
18.8223 -17.9154 15.6151 0.940917 0.217141 0.259854
15.5537 -14.0764 2.39278 -0.769979 -0.329168 -0.546607
18.1415 -1.04175 11.7325 0.864258 0.502802 0.0157569
21.0737 -19.7861 12.8944 0.96861 0.135727 0.208263
3.47194 -10.9427 2.33742 -0.472015 -0.310442 -0.825122
17.7154 -2.43581 12.1557 0.986902 0.010395 0.160984
7.7819 -19.9076 8.56263 0.614694 -0.498773 -0.611046
8.22791 -24.7583 18.9585 0.577958 -0.651289 -0.491717
0.0917112 14.9183 0.31044 -0.280151 0.837504 0.469152
2.37113 -14.4031 5.64202 -0.608496 -0.388637 -0.691876
2.58009 -13.9825 9.64677 -0.847499 -0.0222419 0.530332
9.56754 -8.78627 13.0826 0.894183 0.0102564 -0.447583
21.2876 15.7255 -5.39523 0.294228 0.764719 -0.573267
12.3488 -8.34513 16.0207 0.91471 0.0801483 -0.396083
15.2302 6.35205 2.88076 -0.965661 0.223714 0.1321
18.4427 -21.9139 18.0517 0.961361 0.272241 0.0408587
18.582 -6.41444 3.26425 0.78237 0.0559491 0.620295
15.3531 -21.8481 16.1401 -0.942552 -0.307754 -0.129934
-1.11926 7.35797 4.81909 -0.499583 -0.717277 -0.485727
0.195076 14.8061 -1.93687 -0.9003 0.354669 0.252326
20.6896 5.46543 -0.0388017 0.491665 -0.571551 -0.656959
18.9115 3.4457 -1.72445 0.504133 -0.274209 -0.818937
12.4376 -7.7185 23.5283 -0.98591 -0.151228 -0.0714968
16.8566 2.76388 7.52872 -0.246672 0.593547 0.766065
3.13751 -17.5958 7.58809 -0.904494 -0.364386 -0.221616
9.06375 -19.2983 25.7949 -0.973518 0.197517 0.11511
11.6118 -5.2486 24.4794 0.561126 0.119074 0.819121
14.2258 -1.43248 -1.6097 -0.697305 -0.0763265 -0.712699
11.5731 -12.9099 16.3512 0.884876 -0.170444 -0.433525
10.1478 -14.2475 10.5992 0.942643 -0.120479 -0.311303
20.6877 13.6068 -2.17727 0.0513622 0.681683 0.729843
20.3193 11.8842 -0.942382 0.939834 0.29824 0.166626
1.34913 15.2617 -3.47898 0.470548 0.720187 -0.509818
16.5402 -11.9672 20.1819 0.995083 0.0257939 -0.0956305
17.0011 1.71443 -1.38588 0.0903932 -0.305107 -0.948019
2.59621 16.6797 -1.66797 0.61211 0.790291 -0.0275936
17.094 5.10427 5.55375 -0.461439 0.600804 0.65277
1.20148 -5.03569 3.16656 -0.982909 0.0100135 0.18382
2.27396 -11.2565 3.49997 -0.739653 -0.348474 -0.575743
12.7257 -1.82862 18.9584 0.959687 0.268225 -0.0840086
19.3797 -9.37002 6.76038 0.808276 0.399668 0.432384
7.98846 -3.76967 3.37399 0.966065 0.0562857 -0.252092
1.99629 6.07803 6.69149 -0.452827 -0.764473 -0.458835
5.60259 -21.3759 17.9746 -0.85422 -0.0453951 0.517925
11.7094 -15.1209 27.4784 0.996098 -0.0138976 0.0871516
12.6834 -5.57944 20.9093 0.973006 0.192087 -0.12791
22.4062 6.79382 1.87131 0.589479 0.570094 0.572282
20.6992 13.873 -5.31188 0.989014 0.0365151 -0.143238
14.9829 -17.1757 6.37098 -0.941292 -0.288693 -0.175
19.6341 -21.8169 28.8261 0.894941 -0.439982 0.0741505
8.63841 -6.17482 15.9528 -0.82582 0.0884334 0.556957
11.5612 -2.09491 18.4881 -0.967741 0.151306 0.201454
10.5653 -25.0632 25.5253 0.682665 -0.700436 0.208225
17.2045 -16.8971 24.7888 -0.878937 0.0240231 0.476334
14.8995 -2.20804 0.0729325 -0.890068 0.0449544 -0.453606
