ply
format ascii 1.0
comment created by cisstICP
element vertex 300
property float32 x
property float32 y
property float32 z
property float32 nx
property float32 ny
property float32 nz
end_header
-9.17093 18.3758 -14.9224 -0.294377 -0.364641 -0.883391
-12.1443 13.0305 -7.91614 -0.994938 -0.0787949 -0.0623593
6.96992 14.6321 -5.506 -0.421439 0.664041 0.617607
9.76859 20.4621 -15.6265 0.994227 -0.0132407 -0.10648
-5.19314 12.5831 -8.46624 0.819893 0.492996 0.291086
-7.10318 -11.6307 3.05379 -0.809188 0.302173 0.503892
-4.7542 -16.0845 -1.55119 0.640247 -0.69304 -0.331329
3.24406 1.2902 -5.73715 -0.969409 -0.179083 -0.167859
-8.26196 14.3434 -13.5555 -0.515877 -0.528512 -0.6742
-3.51456 -0.220663 6.67022 -0.99367 0.0386522 0.10548
3.60239 0.41808 14.9088 -0.868977 0.162525 0.467402
-0.719086 -9.84835 18.3404 0.96491 0.115254 0.235933
-5.73422 14.5406 -8.38673 0.813271 0.496672 0.303162
2.3166 -5.5978 -4.47267 -0.958521 -0.132208 -0.252502
1.45966 -4.5619 -3.52205 -0.998791 -0.0390931 -0.0297903
1.13812 1.00391 3.59708 -0.951702 -0.0429111 -0.30401
3.03529 -13.894 4.82928 -0.962634 -0.270179 -0.0184036
6.46408 -0.974129 -8.64544 0.449823 -0.425867 -0.785046
-8.19542 7.60935 -10.9586 -0.893254 -0.0903321 -0.440382
7.57988 15.0337 -11.1726 -0.85403 0.215986 -0.473269
7.71783 -1.55457 -2.32528 0.689665 0.315351 0.651857
5.53633 17.4599 -14.7541 -0.756433 -0.145507 -0.637682
-8.89183 19.3675 -13.365 0.689573 0.6752 0.261907
7.45168 9.53676 -4.92864 -0.349063 0.614744 0.70728
10.9016 22.9074 -15.9761 0.411307 0.740194 -0.531921
-1.63618 -11.1205 7.63576 0.921648 -0.278017 -0.270687
-4.98257 6.01788 -2.58954 -0.845246 -0.431295 0.315505
6.03186 -14.7602 -3.45755 -0.231662 -0.822226 -0.519883
-9.71476 7.34546 -10.6295 -0.757799 -0.19837 -0.621603
5.0164 -16.8993 10.3087 -0.770968 -0.47354 -0.425874
6.95402 -15.2794 1.0419 0.597494 -0.645283 -0.476036
10.5005 8.52767 -4.13656 -0.299731 -0.549762 -0.779694
4.97196 -14.2192 19.57 -0.765733 -0.210262 0.607819
3.09806 -18.5921 9.03619 -0.772311 -0.382799 -0.506953
-13.1587 18.9003 -11.4472 -0.803963 -0.509674 -0.306393
-4.65013 -4.64845 -4.08248 0.99733 -0.0109138 -0.0722029
4.33597 -20.2592 11.6036 -0.371021 -0.914443 -0.161669
-12.1449 17.0124 -7.42113 0.0119821 0.677789 0.735159
8.17967 9.94353 -7.97816 0.856023 -0.0578222 0.513692
-7.2892 6.85917 -0.451978 -0.621555 -0.760353 0.188502
-9.85816 8.26756 -6.62046 -0.749857 0.218115 0.624612
-5.96876 20.6834 -14.1878 0.782964 0.401666 0.475006
9.3233 17.8642 -13.2642 -0.8466 0.14207 -0.512918
-7.05278 1.14146 0.550516 -0.977178 0.145222 0.155026
-9.99079 18.9875 -8.78008 -0.567564 0.593258 0.570891
-13.3455 13.136 -8.94485 -0.991518 -0.116422 -0.0577734
-5.44735 -12.3698 11.7398 -0.949998 0.306162 0.061386
5.03059 -12.1897 22.571 0.990498 -0.00941944 0.137208
7.66285 16.0242 -8.41099 -0.300949 0.633633 0.712698
-3.85768 5.35059 -1.07031 0.712713 0.478754 0.512674
9.68259 12.3847 -12.5358 0.675245 -0.337236 -0.655984
3.27591 -3.1352 15.7567 -0.756953 0.423836 0.497377
-5.42596 -16.658 2.24083 0.747118 -0.561651 -0.355476
3.73255 -1.32374 13.7337 0.947809 0.0284175 -0.317572
-11.4404 1.54768 -8.87188 -0.727731 -0.176142 -0.662859
3.21785 -9.9592 -5.6503 -0.911725 -0.182893 -0.367842
-11.3481 15.6689 -8.48151 -0.631235 0.575554 0.519884
-8.07807 4.05937 -3.45993 -0.867016 0.00872098 0.498205
-2.97914 -13.4865 4.50731 0.969188 -0.082615 -0.232054
2.58676 -11.2267 0.74115 -0.983331 -0.135914 -0.120774
8.88315 5.3685 -10.374 0.415205 -0.320342 -0.851461
7.15285 6.76981 -1.3116 0.240956 -0.820295 -0.518707
-1.48485 4.95268 -3.32264 0.999391 -0.0313611 -0.0153204
-5.6777 8.90898 -3.57289 0.642569 0.600222 0.476277
-9.11667 -10.7662 -6.5054 -0.467126 -0.292533 -0.834397
9.74892 11.2098 -12.7551 0.909373 -0.237729 -0.34136
6.46777 -11.371 -4.08233 0.298621 -0.52507 -0.796949
4.30793 1.95216 16.9562 -0.576955 0.333986 0.74537
-2.65847 2.05588 7.24029 -0.993202 0.0442338 0.107673
-1.98743 2.60679 7.96579 0.980347 0.0973469 -0.171593
11.7064 15.8201 -11.6704 0.878164 -0.425494 -0.218595
6.42314 0.61107 -2.14347 0.957916 0.128912 0.256474
9.31851 22.177 -11.3839 -0.360846 0.889588 0.28004
-3.92259 -10.2605 -2.14986 0.996669 -0.0690871 -0.0433365
-10.4096 21.7847 -11.8572 -0.580638 0.733905 0.352483
2.68743 -9.16729 13.0009 -0.999955 0.000427919 0.00948594
-8.82388 22.0077 -12.9005 0.6305 0.77059 0.0930588
3.97184 5.9175 0.327965 -0.811859 0.581281 -0.0547482
-8.76749 21.5557 -17.3564 -0.288029 -0.468329 -0.835288
-5.33536 -2.95815 11.0605 -0.993297 0.111168 0.0316629
-4.303 -5.6292 -7.31437 0.835856 -0.284403 -0.469531
-1.42531 0.201491 10.511 0.990514 0.128546 0.0485419
3.41602 -17.7904 11.7789 -0.358529 -0.906954 -0.221112
-11.6482 13.9384 -5.18168 -0.361931 0.562703 0.743217
-4.59852 -5.4635 4.48576 -0.860438 0.270693 0.431709
8.16989 8.52725 -5.53598 0.836423 -0.038476 0.546731
-3.44499 -1.97045 -8.74415 0.912981 -0.141573 -0.382652
8.56393 12.5807 -13.997 0.199492 -0.240093 -0.950031
-8.98228 15.8325 -8.59218 -0.227285 0.647746 0.727164
-3.47569 -2.46663 -7.35543 0.836315 -0.159 -0.524687
-12.1264 8.12244 -9.3863 -0.995694 -0.0449771 0.0810581
3.15782 0.557594 7.01989 0.988131 -0.0213558 0.152121
-7.76399 -14.2455 6.38618 -0.890142 0.214881 0.401838
-2.27036 3.7262 -4.06185 0.963429 0.147246 -0.223882
2.47276 5.50188 12.0775 0.227064 0.890678 0.393871
6.61402 1.77055 -11.3955 0.392282 -0.276134 -0.877419
4.54906 9.71313 -11.285 -0.784511 -0.146411 -0.602583
-6.82751 -3.13504 -1.96402 -0.61452 0.468887 0.634437
2.85733 4.32568 8.95762 0.981346 -0.0295864 -0.189958
6.25466 -1.85964 -1.45529 0.940071 0.195458 0.279397
4.08131 9.46966 -7.3549 -0.993829 0.0633172 -0.0910855
4.43762 -12.7443 -1.17674 -0.860924 -0.370579 -0.34854
4.48721 -5.88847 10.2739 0.98974 0.140545 0.0257228
6.94995 9.61351 -5.43142 0.77201 -0.413055 0.4831
8.66156 -16.7147 7.34526 0.940359 -0.117014 0.319425
4.76564 5.724 -1.17352 0.397855 -0.794554 -0.458689
-3.69771 -16.2131 7.8158 0.690623 -0.668245 -0.276563
5.96237 -14.2126 7.45843 0.821676 0.30341 0.482484
5.1147 0.978576 -8.59555 -0.00466824 -0.308224 -0.951303
-0.812481 -3.26659 12.234 0.983499 0.0591033 0.170989
-4.23163 -16.9689 4.85666 0.59686 -0.749386 -0.286667
11.7111 15.1192 -10.3524 0.993302 -0.107975 0.0411393
6.89074 -16.2958 15.7781 0.982911 -0.171274 0.0674624
-7.24363 10.9322 -0.830713 0.293512 0.570044 0.767397
12.2503 18.0166 -13.4891 0.961601 -0.219278 -0.165047
7.32385 -9.89366 -3.10513 0.539676 -0.32156 -0.778042
-5.57948 -16.5223 16.7527 -0.958955 -0.282922 0.0189646
-4.20688 -15.2982 8.41186 -0.89595 -0.0075646 0.444089
2.84331 1.19797 14.7375 -0.917703 0.173268 0.357491
7.2869 -11.9561 -2.61788 0.80727 -0.370481 -0.459412
5.84989 2.23242 -13.307 -0.0417395 -0.131929 -0.99038
-1.94489 -11.3352 16.178 0.992047 0.0879559 0.090034
6.72525 -17.7265 3.8696 -0.547334 -0.836358 -0.0304984
4.8877 -4.86696 17.2299 0.99155 0.108777 0.0706825
12.2882 22.7693 -16.8039 0.145462 0.710619 -0.688376
-0.925168 -9.08704 13.0882 0.958078 -0.214602 0.18982
2.25629 -2.05747 4.69143 -0.641511 0.00316817 -0.767106
8.15408 16.5616 -10.2661 -0.588593 0.615724 0.523873
8.76945 -11.2614 -0.483285 0.976218 0.0717799 0.204566
9.20341 7.27344 0.107062 0.605573 -0.484276 0.631472
7.63657 17.2596 -13.2019 -0.677855 0.0375139 -0.734238
11.421 14.7881 -9.61596 0.981365 0.117126 0.152333
-8.92986 -14.9559 0.39483 -0.997567 -0.0625262 -0.0308376
-4.50904 -14.2836 20.3442 -0.725766 -0.0335102 0.687125
-2.50398 -12.5442 16.9388 0.9327 -0.0353259 0.35892
5.13793 -11.1127 14.1998 0.979433 0.176393 -0.0979557
3.40725 -8.78636 -4.76806 -0.769466 -0.340277 -0.540494
9.10199 7.51757 -2.77302 -0.0446096 -0.790234 -0.611178
-6.80771 -8.55737 0.466059 -0.817029 0.323837 0.477066
-4.12087 10.8014 -13.7272 0.71882 -0.0787942 -0.690717
5.50499 6.54301 -2.3321 0.980617 -0.181042 0.0749199
-5.29708 12.7174 -4.18041 0.640484 0.514188 0.570431
-7.87815 -7.80723 0.330443 -0.762117 0.347866 0.546046
-8.81896 19.9018 -13.9971 -0.255644 -0.526423 -0.810879
7.45906 -6.33667 -4.68034 0.788258 -0.198142 -0.582571
-11.0477 22.3471 -17.0413 0.237681 0.95407 -0.182365
6.12787 -1.21277 -1.53565 0.785914 0.218843 0.578313
4.8814 -17.7565 16.8532 0.96022 -0.276229 0.0409213
-5.94886 5.43655 -1.27543 -0.418034 -0.637639 0.647043
4.5908 -12.7277 5.51092 -0.985596 -0.164485 -0.0393074
3.22689 -8.86 17.0868 0.950951 0.263878 -0.161431
7.01113 -6.49719 -0.432679 0.773894 0.367977 0.515442
-8.75544 5.86429 -12.486 -0.522085 -0.0552971 -0.851099
2.08575 1.57046 8.82178 0.986469 -0.150017 -0.0661308
-2.37442 -11.5761 5.36535 0.985351 -0.119347 -0.121816
-8.52876 17.9193 -7.68362 0.602218 0.596419 0.530677
-13.0615 15.543 -7.58803 -0.995721 -0.0809731 0.0445454
3.84625 9.56327 -5.39957 -0.905917 0.186183 0.380328
3.92634 3.54124 0.0288262 -0.992911 0.0951941 0.0711765
-4.42469 2.48832 6.91213 -0.986942 -0.0576615 -0.150403
3.65373 -14.8228 18.8834 0.556285 -0.522042 0.646545
-6.88123 -15.6316 5.92392 -0.796946 -0.506368 0.329346
-3.86616 -15.4639 12.685 -0.969145 -0.0614494 0.238709
6.11524 -5.97683 13.1523 0.997058 -0.0245703 0.0726029
-6.42687 -14.2066 12.8323 -0.952151 0.303783 0.0335206
4.39227 -17.588 2.65252 -0.510025 -0.835449 -0.204692
2.54257 -4.37576 -3.51941 -0.940582 -0.224591 -0.254686
-6.58426 3.71033 -11.425 0.262066 -0.271524 -0.926065
1.86278 7.11679 -8.0407 -0.971146 0.0114491 -0.238208
3.74696 3.82691 13.9444 -0.668756 0.575993 0.470104
8.80311 7.5016 -2.72899 -0.161496 -0.934902 -0.316033
-3.13671 -17.904 16.0829 0.696492 -0.679008 0.232051
9.3601 6.56924 -3.84246 0.969473 -0.22433 -0.0989865
3.63448 -17.2557 11.6195 -0.988902 -0.109671 -0.10022
6.06285 -4.2704 -6.02509 0.773714 -0.27406 -0.57119
-6.20834 -5.46221 -7.86097 0.267042 -0.426816 -0.864012
-1.89928 -0.50848 7.8553 0.920753 -0.101145 -0.376808
4.3396 -11.9588 10.9495 0.972574 0.226848 -0.0513726
5.29708 -8.78202 12.1525 0.981654 0.11239 -0.15402
-2.69283 3.68592 12.7241 -0.961787 0.224491 0.156746
-2.40393 -0.974794 11.3087 -0.986964 -0.141441 -0.0767842
6.92484 11.1285 -2.16839 -0.510671 0.541114 0.66814
-12.1853 22.6215 -13.8182 0.201229 0.928337 0.312566
-4.62283 5.55456 -5.52988 0.997862 0.0233081 -0.061068
7.65044 6.10994 -5.78966 0.523182 0.316057 0.791447
-7.43665 -8.86649 -3.23911 -0.199965 -0.372914 -0.906062
-5.60472 9.3342 -12.4684 0.668448 -0.0868464 -0.738671
8.70154 3.66169 -6.49336 0.542997 0.329359 0.772449
4.05784 -3.12115 2.72615 0.645817 -0.627155 0.435426
-8.32755 12.2124 0.053767 -0.0100157 0.639891 0.768401
11.2779 23.0796 -13.0712 0.651895 0.544495 0.527786
7.26809 -13.0535 6.12774 0.861752 0.176225 0.475739
10.0579 8.00469 -3.10539 0.95494 -0.258444 0.145932
7.38931 -7.49213 -4.35284 0.536843 -0.394096 -0.745982
-1.20509 -14.0648 15.4508 0.999554 -0.0263238 0.0140891
7.13876 -12.7064 -4.7322 -0.677869 -0.47022 -0.565143
-3.18205 -8.69255 -4.17763 0.79061 -0.316651 -0.524088
-7.85324 20.1132 -15.042 0.679468 0.0984712 -0.727068
6.41635 -17.3817 3.62684 -0.134581 -0.988243 -0.0725577
4.48107 -18.1983 13.7857 -0.955831 -0.28095 0.0863437
-5.50209 4.51907 -2.31728 -0.833666 -0.264279 0.484931
-3.96986 -0.279406 -9.67051 0.801842 -0.106451 -0.587977
5.37915 15.225 -14.5073 -0.861356 0.13532 -0.489648
-8.38326 -4.30016 -9.05415 -0.619248 -0.272605 -0.736354
-12.67 15.6195 -11.6457 -0.870531 -0.368311 -0.326378
-9.69104 -6.5878 -4.00913 -0.9044 0.0532059 0.423355
1.62138 5.33205 0.876314 -0.935683 0.196202 -0.293262
2.07499 5.88768 11.2068 0.40875 0.907966 0.0923092
-11.6663 11.5894 -4.84338 -0.112892 0.691733 0.713275
8.70622 3.14358 -4.07847 0.494929 0.0370694 0.868143
-4.46468 -5.4156 10.9818 -0.991984 0.0915431 -0.0871062
3.51979 -4.22081 -5.57118 -0.936827 -0.176345 -0.302091
4.05129 4.9432 14.2187 0.857928 0.32017 0.40181
-3.15974 -7.93929 6.53784 0.973014 -0.110488 -0.202576
-3.59988 -17.917 17.9301 -0.444357 -0.755245 0.481821
6.57028 -15.9608 6.64309 0.953542 -0.258176 0.155249
4.21244 2.88647 -10.5579 -0.573412 -0.252244 -0.779469
3.99066 -12.3367 18.8389 0.99978 0.0184333 0.00999414
-1.96855 -7.42469 -1.65423 0.996785 -0.0685031 -0.0415742
10.278 9.76316 -3.33077 0.387917 0.51285 0.765835
-9.17727 -0.952175 -4.65413 -0.925493 0.0551935 0.374723
-6.50286 -7.97008 -0.79573 -0.924101 0.104853 0.367482
10.7339 16.5991 -13.4366 0.895637 -0.339464 -0.287399
-3.20724 -15.4102 19.1841 -0.944235 -0.319623 0.079131
3.09897 9.41143 -6.06167 -0.933691 0.23895 0.26669
3.16931 -4.77896 16.5223 -0.381792 0.449552 0.80755
2.53928 -9.55132 21.0538 -0.954718 -0.12149 0.271574
4.94329 -12.956 14.5623 0.991188 0.127086 0.037367
9.90024 11.2779 -7.66578 0.471442 -0.719639 -0.509768
-4.79932 11.3554 -2.96803 0.734057 0.408003 0.542857
-3.81079 4.30743 -1.24076 -0.87679 -0.0833948 0.473588
3.02066 -2.9242 -4.9851 -0.942034 -0.0801373 -0.325805
-8.01569 7.74398 -4.2579 -0.935775 -0.200436 0.290089
-0.655715 -12.3468 12.5965 0.99738 -0.0611374 -0.038667
8.29313 20.1453 -14.8359 -0.494964 0.685969 -0.533345
-1.57829 -12.1789 14.3009 0.99931 0.0183372 -0.0322794
0.259858 -0.223427 6.27399 0.951191 -0.104721 -0.290289
-3.79253 -3.76227 13.2682 -0.947384 0.199614 -0.250234
8.64888 9.69613 -7.16998 0.703394 0.0813273 0.706133
4.16842 -12.5546 7.77403 -0.934751 -0.275002 -0.224978
-9.2123 -9.03903 -2.25857 -0.995392 -0.0949468 0.0133981
8.19615 6.76006 -8.40406 0.993276 -0.0705676 -0.0917772
-11.2857 9.56637 -10.5791 -0.981816 -0.154474 -0.110334
-3.55751 14.2489 -12.2934 0.905454 0.0957044 -0.413513
-3.08452 -3.56547 17.8268 0.743887 0.452116 0.492162
6.02529 -11.3718 6.56876 0.877597 0.253342 0.406991
4.88193 -7.87225 -7.09497 -0.65806 -0.364385 -0.658924
5.48235 5.40025 2.24896 0.83383 0.532028 0.147221
8.75348 -13.2113 4.3007 0.915953 0.172045 0.362534
-7.11302 -5.15167 -9.2187 -0.318693 -0.340319 -0.884657
5.03477 3.99996 2.62708 0.945673 0.0466164 0.321761
-3.62431 -13.8576 -2.16646 0.722621 -0.487993 -0.489574
-4.76268 -18.5122 8.26622 0.671265 -0.639608 -0.374571
-10.9 20.5415 -12.3574 -0.379691 0.835406 0.397407
-8.64088 -8.5905 -6.06486 -0.472949 -0.420813 -0.774102
-9.1129 -8.09469 -2.0912 -0.922722 -0.041922 0.383182
-2.95557 -2.6065 2.33568 0.95536 0.0329418 -0.293601
10.9143 21.9697 -14.4945 0.361791 0.764361 -0.533723
-0.715715 -2.02116 5.68271 0.964899 0.104359 -0.240998
3.85647 12.5388 -7.12623 -0.980581 0.193049 -0.0345342
5.36885 -15.3388 8.99814 0.93243 0.305355 0.193214
7.48743 -0.0982028 -5.90684 0.666402 0.0930412 0.739765
2.63914 -15.4104 6.60084 -0.89801 -0.341726 -0.27713
-12.6109 13.0225 -7.94249 -0.389773 -0.742001 -0.545447
-10.4215 20.3945 -14.5535 -0.940137 0.328179 0.0918756
9.74946 11.7882 -9.08172 0.611214 -0.565676 -0.55356
8.33874 9.68082 -10.9925 0.641298 -0.270891 -0.717882
-1.89423 -1.26378 13.0856 -0.955244 -0.185786 -0.230201
4.79747 9.08776 -2.19384 -0.388532 0.59783 0.701172
-8.11094 -11.7216 -3.9476 -0.843538 -0.398591 -0.359957
-5.24144 -12.9109 15.0223 -0.984701 0.166314 -0.0519971
-2.94177 1.19256 13.8313 0.413381 0.152009 0.89778
3.8507 4.64916 -11.545 -0.566588 -0.112096 -0.816341
-1.39537 -6.6033 5.98286 0.949385 -0.147704 -0.277221
-1.80393 -8.08653 0.105814 0.984494 -0.0937281 -0.14828
9.85349 19.8871 -11.3734 -0.0914627 0.695395 0.712784
9.33797 18.1743 -10.1781 0.889529 0.332753 0.313071
-9.04184 20.8625 -15.8933 0.526404 0.726926 -0.440994
2.83532 -5.4274 10.5603 0.995883 0.0579003 0.069755
6.45258 7.89177 -10.9358 0.255884 -0.318006 -0.912905
-8.15687 22.3527 -13.9332 0.5837 0.810016 0.0563068
5.28777 11.4008 -4.15439 -0.581621 0.595862 0.553774
-9.66947 0.688251 -8.90949 -0.999627 -0.0202 0.0184065
-8.47726 -5.48599 -8.26361 -0.622739 -0.383145 -0.6822
-1.03168 4.5536 8.49513 0.95164 0.299154 0.0699123
7.78355 -2.9649 -2.26142 0.712618 0.434183 0.551056
-3.05319 2.18715 -7.61061 0.992333 0.0847142 -0.0899961
-9.81184 11.8811 -5.55219 -0.346709 -0.787117 -0.510136
-7.29048 -15.238 6.78586 -0.926577 -0.0654984 0.370357
-3.04126 -8.61811 17.026 0.967742 0.0213926 0.251031
-1.28252 0.837353 10.496 0.974391 0.222773 0.0305405
11.0836 13.2065 -6.94426 0.468509 0.599452 0.648965
10.3772 20.1 -14.4681 0.997479 0.067595 0.0215705
3.75358 -10.9208 -3.19741 -0.889867 -0.323406 -0.321783
4.75076 -15.0174 19.8163 0.883245 -0.408038 0.231049
-4.42799 0.0205559 4.95319 -0.909166 0.0698635 0.410533
-2.09315 4.23996 7.84484 -0.991932 0.121806 0.0351288
-3.54019 -18.6254 15.1344 0.659728 -0.673217 0.333973
2.87596 -10.2526 15.3232 -0.946157 0.00232108 0.323701
4.25904 3.92574 -9.75707 -0.803326 0.00698195 -0.595499
