ply
format ascii 1.0
comment created by cisstICP
element vertex 300
property float32 x
property float32 y
property float32 z
property float32 nx
property float32 ny
property float32 nz
end_header
-9.1035 18.3492 -14.9762 -0.289819 -0.365424 -0.884574
-12.0694 12.9822 -7.98341 -0.994318 -0.0839995 -0.0653858
7.02889 14.6827 -5.51506 -0.426777 0.661267 0.616917
9.82673 20.5363 -15.6222 0.994595 -0.00789165 -0.103533
-5.11432 12.572 -8.51322 0.816405 0.49707 0.293945
-6.93047 -11.6615 2.9804 -0.812268 0.297453 0.50174
-4.54429 -16.0988 -1.62137 0.644885 -0.689357 -0.330015
3.37435 1.32155 -5.76869 -0.967945 -0.184059 -0.170894
-8.17727 14.3205 -13.6101 -0.51107 -0.530645 -0.676183
-3.413 -0.235814 6.61724 -0.994169 0.0333067 0.102557
3.67597 0.433381 14.8775 -0.871209 0.157522 0.464954
-0.601314 -9.85873 18.2874 0.963582 0.120148 0.238901
-5.66597 14.5266 -8.43365 0.809728 0.5007 0.306004
2.47959 -5.57236 -4.51286 -0.957054 -0.137054 -0.255465
1.61436 -4.54183 -3.5639 -0.998478 -0.044347 -0.0327946
1.24224 1.01601 3.55899 -0.950555 -0.0476775 -0.306877
3.21452 -13.8727 4.78411 -0.961132 -0.275249 -0.0214977
6.61493 -0.923196 -8.66932 0.454399 -0.422801 -0.784068
-8.08283 7.58467 -11.0188 -0.891452 -0.0946703 -0.443114
7.65355 15.0925 -11.1795 -0.853751 0.211879 -0.475623
7.85295 -1.50249 -2.34596 0.686048 0.318426 0.654174
5.60784 17.511 -14.765 -0.753755 -0.148949 -0.640053
-8.83428 19.3411 -13.4172 0.685211 0.678608 0.264534
7.53588 9.58953 -4.94062 -0.354409 0.612274 0.706763
10.9478 22.9879 -15.9664 0.408964 0.74282 -0.530063
-1.47987 -11.1264 7.57905 0.923905 -0.272905 -0.268181
-4.88647 6.00293 -2.64152 -0.843886 -0.436032 0.312621
6.24023 -14.7159 -3.49451 -0.225764 -0.822986 -0.521272
-9.60172 7.31247 -10.6944 -0.754889 -0.201833 -0.624023
5.19522 -16.8723 10.2669 -0.767184 -0.477238 -0.42857
7.15175 -15.2341 1.00722 0.60231 -0.641701 -0.474807
10.5877 8.59589 -4.14033 -0.294502 -0.550661 -0.781051
5.10909 -14.2005 19.5302 -0.766412 -0.214836 0.605358
3.28964 -18.5741 8.98717 -0.768766 -0.386436 -0.509574
-13.1043 18.8496 -11.5125 -0.800342 -0.513651 -0.309218
-4.4932 -4.66019 -4.14258 0.997584 -0.00557826 -0.0692452
4.52872 -20.2368 11.5568 -0.365697 -0.916251 -0.163552
-12.0925 16.9637 -7.48501 0.00621335 0.677203 0.73577
8.27076 10.0028 -7.98762 0.854788 -0.0537425 0.516187
-7.20386 6.83016 -0.510116 -0.618081 -0.763792 0.186003
-9.76191 8.2303 -6.68501 -0.752852 0.213605 0.622565
-5.91577 20.6732 -14.2302 0.779414 0.405387 0.477676
9.38817 17.934 -13.2634 -0.845813 0.138038 -0.515312
-6.94018 1.1129 0.488194 -0.978389 0.139919 0.152243
-9.94482 18.9513 -8.83586 -0.572387 0.589753 0.569707
-13.2681 13.0822 -9.01561 -0.990712 -0.121612 -0.0608219
-5.29655 -12.3994 11.6706 -0.951782 0.301082 0.0588212
5.14808 -12.1733 22.5332 0.990122 -0.00430212 0.140146
7.72307 16.081 -8.41678 -0.306411 0.631413 0.712341
-3.76259 5.34028 -1.11953 0.708645 0.482069 0.515201
9.77428 12.4559 -12.5387 0.678965 -0.333091 -0.65426
3.36578 -3.12231 15.7214 -0.760659 0.419396 0.495485
-5.22427 -16.6792 2.16814 0.751131 -0.557384 -0.353732
3.81883 -1.3067 13.7012 0.948584 0.0337041 -0.314726
-11.3019 1.50412 -8.94686 -0.724817 -0.17941 -0.665171
3.40739 -9.9279 -5.69152 -0.909648 -0.187391 -0.370709
-11.2855 15.6253 -8.54416 -0.635812 0.571757 0.518495
-7.96897 4.02884 -3.52279 -0.868526 0.00370392 0.495631
-2.801 -13.4968 4.44459 0.970297 -0.0772882 -0.229241
2.76403 -11.2043 0.69694 -0.982235 -0.141005 -0.123815
9.00554 5.43364 -10.3852 0.419421 -0.317402 -0.850495
7.24095 6.8179 -1.32686 0.246831 -0.818558 -0.518688
-1.38101 4.95687 -3.36513 0.999584 -0.0260638 -0.0123743
-5.59397 8.89117 -3.62447 0.637967 0.603196 0.478699
-8.92009 -10.7994 -6.584 -0.463092 -0.294273 -0.836032
9.84747 11.2815 -12.7588 0.911627 -0.232621 -0.338856
6.66006 -11.3238 -4.1151 0.30376 -0.522791 -0.796505
4.36731 1.96939 16.9283 -0.580925 0.330283 0.743935
-2.57066 2.04472 7.19178 -0.993738 0.0388887 0.104755
-1.9047 2.59855 7.91975 0.980323 0.102678 -0.168593
11.7773 15.9012 -11.6643 0.881047 -0.420655 -0.216345
6.5463 0.65611 -2.16614 0.956454 0.133752 0.259432
9.35499 22.2451 -11.3795 -0.366376 0.887424 0.279725
-3.74172 -10.27 -2.21259 0.997145 -0.0637793 -0.0404306
-10.3692 21.7489 -11.9118 -0.585556 0.730518 0.35138
2.81739 -9.15503 12.9587 -0.999967 -0.00486684 0.00651176
-8.78166 21.9812 -12.9502 0.626136 0.773832 0.0955919
4.05963 5.94736 0.302516 -0.814756 0.577028 -0.0566665
-8.70965 21.5334 -17.4063 -0.283066 -0.469118 -0.836541
-5.23233 -2.98671 10.9998 -0.993961 0.105888 0.028803
-4.13128 -5.63628 -7.37426 0.83874 -0.279572 -0.467286
-1.33743 0.194039 10.4646 0.989672 0.133738 0.0515978
3.59521 -17.7731 11.7315 -0.353069 -0.908645 -0.222952
-11.5862 13.8904 -5.24672 -0.367108 0.560135 0.742617
-4.46272 -5.48241 4.42508 -0.863136 0.265765 0.429378
8.26122 8.58436 -5.54668 0.834988 -0.0345289 0.549183
-3.28839 -1.9718 -8.79836 0.91485 -0.136412 -0.380055
8.65894 12.6472 -14.003 0.20358 -0.238209 -0.949638
-8.92019 15.8015 -8.64765 -0.232866 0.645903 0.727037
-3.32059 -2.46934 -7.41015 0.838699 -0.15412 -0.522332
-12.0211 8.0756 -9.45771 -0.995679 -0.0503109 0.0780575
3.2541 0.577402 6.98741 0.987774 -0.0162638 0.155042
-7.58733 -14.2827 6.30858 -0.892456 0.209822 0.399372
-2.15782 3.72691 -4.10772 0.963297 0.152532 -0.220889
2.52788 5.5136 12.0471 0.221179 0.891523 0.395306
6.75851 1.82462 -11.4165 0.396341 -0.273293 -0.876484
4.65126 9.75608 -11.3054 -0.781933 -0.150033 -0.605039
-6.68483 -3.16015 -2.02931 -0.618873 0.46508 0.633006
2.92794 4.34216 8.92746 0.982049 -0.0242327 -0.187064
6.38885 -1.81606 -1.48058 0.93819 0.200182 0.282359
4.17313 9.50672 -7.37695 -0.993875 0.0581414 -0.0939873
4.62858 -12.7104 -1.21673 -0.857913 -0.374822 -0.351416
4.6079 -5.86437 10.2399 0.988902 0.145753 0.0287868
7.03524 9.66407 -5.44483 0.772746 -0.409388 0.485042
8.84814 -16.6658 7.3144 0.940012 -0.112319 0.32212
4.8589 5.75936 -1.19677 0.403412 -0.79204 -0.458182
-3.51496 -16.23 7.74861 0.694967 -0.664344 -0.275078
6.13542 -14.1782 7.42168 0.818623 0.30733 0.485185
5.25509 1.0223 -8.62178 -0.000212422 -0.307417 -0.951575
-0.711384 -3.27225 12.1864 0.98266 0.0641532 0.173964
-4.03609 -16.986 4.78724 0.601664 -0.745971 -0.28553
11.7818 15.1992 -10.3469 0.993732 -0.102758 0.0440016
7.05008 -16.2636 15.7423 0.983598 -0.166134 0.0702396
-7.17871 10.9037 -0.885236 0.288213 0.570921 0.768754
12.315 18.1021 -13.4796 0.963233 -0.214047 -0.162373
7.50541 -9.84287 -3.13409 0.543678 -0.318026 -0.776708
-5.4216 -16.5569 16.6796 -0.957497 -0.288005 0.0158704
-4.03073 -15.3183 8.34393 -0.897213 -0.0126873 0.441415
2.91329 1.2094 14.7046 -0.919664 0.168103 0.354907
7.47792 -11.9059 -2.64872 0.810579 -0.365808 -0.457325
5.99763 2.28411 -13.3299 -0.0380994 -0.131286 -0.990613
-1.81281 -11.3502 16.1202 0.991296 0.0931211 0.0930596
6.92754 -17.6848 3.83213 -0.54281 -0.839213 -0.0328406
4.98232 -4.84681 17.1979 0.990746 0.113956 0.0737245
12.3375 22.8577 -16.7902 0.143746 0.711977 -0.687333
-0.79582 -9.09395 13.0353 0.958632 -0.209699 0.192486
2.37333 -2.04036 4.65405 -0.639238 0.00044371 -0.769008
8.21696 16.6226 -10.27 -0.593395 0.612148 0.522646
8.95043 -11.2052 -0.509128 0.975213 0.076762 0.20753
9.28459 7.33113 0.0983342 0.606248 -0.481616 0.632857
7.70449 17.3205 -13.2067 -0.67586 0.0345682 -0.736219
11.4912 14.8659 -9.61163 0.980275 0.12218 0.155352
-8.73162 -14.994 0.313179 -0.997126 -0.0677724 -0.0338583
-4.37369 -14.3157 20.2762 -0.727616 -0.0379442 0.684934
-2.36776 -12.5627 16.8783 0.931803 -0.0307065 0.361663
5.27458 -11.0885 14.1632 0.978773 0.181654 -0.0948912
3.58796 -8.75485 -4.80772 -0.766047 -0.34387 -0.543071
9.19044 7.57722 -2.78183 -0.0386138 -0.789927 -0.611983
-6.64357 -8.58442 0.396184 -0.820144 0.319098 0.47491
-4.01702 10.8006 -13.7725 0.721275 -0.0743922 -0.688642
5.59735 6.58327 -2.35244 0.981334 -0.17592 0.0776819
-5.2317 12.7021 -4.22761 0.636058 0.517071 0.572773
-7.71755 -7.83982 0.258025 -0.765564 0.343357 0.544074
-8.76235 19.8763 -14.0486 -0.250446 -0.527062 -0.812086
7.62648 -6.28385 -4.70585 0.791022 -0.193466 -0.580393
-10.9949 22.3124 -17.0973 0.233171 0.955472 -0.180842
6.25888 -1.16979 -1.56076 0.783025 0.222492 0.580835
5.04532 -17.7358 16.8102 0.961542 -0.271184 0.0435416
-5.85358 5.41536 -1.33079 -0.416575 -0.640403 0.645252
4.7618 -12.6989 5.47137 -0.984591 -0.169659 -0.0423795
3.34308 -8.84845 17.0464 0.950018 0.269042 -0.158376
7.16679 -6.45042 -0.459684 0.770402 0.371615 0.518056
-8.62907 5.838 -12.5493 -0.519255 -0.0573163 -0.852695
2.17134 1.58302 8.78697 0.987441 -0.144743 -0.0633242
-2.20894 -11.5839 5.30606 0.986326 -0.114031 -0.118986
-8.48042 17.8899 -7.73596 0.597476 0.599132 0.532975
-13.0007 15.4895 -7.65589 -0.995407 -0.0862748 0.0415142
3.93177 9.59739 -5.42225 -0.908015 0.18106 0.37779
4.02759 3.57115 0.00121444 -0.993608 0.0898816 0.0683039
-4.33815 2.46811 6.85875 -0.986172 -0.0627475 -0.153388
3.79612 -14.8104 18.8392 0.557116 -0.519656 0.647751
-6.69588 -15.6636 5.84776 -0.795232 -0.51086 0.326542
-3.70183 -15.4859 12.6179 -0.969511 -0.0667797 0.235773
6.22782 -5.94662 13.123 0.996954 -0.0193619 0.0755475
-6.26959 -14.2423 12.7586 -0.95384 0.298716 0.0309475
4.59748 -17.5576 2.60824 -0.504989 -0.837956 -0.206921
2.69626 -4.34996 -3.55788 -0.93862 -0.229339 -0.257675
-6.44969 3.69463 -11.4837 0.266248 -0.26933 -0.925512
1.96913 7.14276 -8.07136 -0.970481 0.00652192 -0.241086
3.80537 3.84376 13.9165 -0.673186 0.57204 0.468604
8.89151 7.55964 -2.7387 -0.15561 -0.935468 -0.31731
-2.96958 -17.9251 16.0159 0.699381 -0.675518 0.233542
9.45673 6.6312 -3.8513 0.970936 -0.219115 -0.0962938
3.81132 -17.2372 11.5733 -0.988007 -0.11481 -0.103255
6.22336 -4.22382 -6.05299 0.776846 -0.269469 -0.56912
-6.03584 -5.47889 -7.92638 0.27186 -0.424647 -0.863578
-1.79974 -0.516118 7.80687 0.92239 -0.095948 -0.374153
4.49039 -11.936 10.9099 0.971509 0.232031 -0.0482856
5.42748 -8.75523 12.1184 0.981499 0.117713 -0.151003
-2.62993 3.66979 12.6769 -0.963422 0.219267 0.154076
-2.31218 -0.988096 11.2584 -0.98597 -0.14659 -0.0798404
6.99243 11.1761 -2.18059 -0.515508 0.537826 0.66708
-12.1435 22.578 -13.8774 0.195387 0.929115 0.313956
-4.51556 5.54407 -5.58117 0.997901 0.0286363 -0.0580796
7.75532 6.16456 -5.80397 0.51915 0.318131 0.793269
-7.25986 -8.89363 -3.3111 -0.195298 -0.373177 -0.906971
-5.49682 9.32451 -12.5193 0.671089 -0.0826688 -0.736753
8.82144 3.72251 -6.50664 0.53895 0.331553 0.774342
4.18632 -3.0928 2.69323 0.647829 -0.624111 0.43681
-8.27202 12.1774 -0.00289141 -0.0156823 0.63916 0.768914
11.3146 23.1595 -13.0602 0.647436 0.547475 0.530187
7.43894 -13.011 6.09587 0.859392 0.180365 0.478451
10.1447 8.06968 -3.11094 0.955856 -0.253518 0.148551
7.56187 -7.43994 -4.37955 0.541133 -0.390603 -0.744718
-1.05642 -14.0752 15.3929 0.999633 -0.0210513 0.0170399
7.34003 -12.6551 -4.76411 -0.673691 -0.473305 -0.567558
-3.00347 -8.69639 -4.23681 0.793827 -0.31201 -0.522004
-7.79466 20.0937 -15.0904 0.681094 0.102694 -0.724959
6.61754 -17.3415 3.58875 -0.129136 -0.988877 -0.0738016
4.65644 -18.1771 13.7411 -0.954583 -0.286075 0.0832601
-5.39887 4.50116 -2.37209 -0.833693 -0.269104 0.482223
-3.81945 -0.282754 -9.72482 0.804137 -0.101699 -0.58568
5.46175 15.2751 -14.5206 -0.860602 0.13119 -0.492092
-8.21333 -4.32732 -9.12503 -0.615607 -0.275235 -0.738426
-12.5976 15.5716 -11.7123 -0.867597 -0.372624 -0.329281
-9.52397 -6.62622 -4.08588 -0.905922 0.0480557 0.420708
1.71068 5.34901 0.843371 -0.935832 0.191507 -0.295877
2.13067 5.89805 11.1757 0.403666 0.910034 0.0943
-11.5929 11.541 -4.91047 -0.118667 0.690506 0.713527
8.82169 3.20234 -4.09218 0.492145 0.0389304 0.869642
-4.34843 -5.43945 10.9215 -0.992192 0.0863732 -0.0899784
3.67874 -4.18807 -5.6066 -0.934979 -0.181032 -0.305027
4.10298 4.96141 14.1926 0.855025 0.324352 0.404633
-3.01697 -7.95234 6.47931 0.974182 -0.105166 -0.199775
-3.43816 -17.9421 17.8617 -0.441785 -0.758002 0.479852
6.75499 -15.9224 6.60666 0.954429 -0.253267 0.157865
4.34859 2.92711 -10.5851 -0.569752 -0.254594 -0.781387
4.12003 -12.3226 18.7978 0.999635 0.02371 0.0129838
-1.80419 -7.42432 -1.70873 0.997252 -0.0631962 -0.0386675
10.3562 9.82948 -3.33416 0.382923 0.514228 0.767424
-9.0381 -0.987405 -4.72453 -0.926881 0.049974 0.372015
-6.33808 -7.99443 -0.86419 -0.92573 0.0996461 0.364821
10.806 16.6765 -13.4327 0.89827 -0.334475 -0.285023
-3.06251 -15.4344 19.119 -0.942762 -0.324679 0.076049
3.18727 9.44217 -6.0867 -0.93573 0.233779 0.264115
3.2656 -4.76728 16.4853 -0.386561 0.446825 0.806795
2.64736 -9.54684 21.0108 -0.954865 -0.126772 0.268629
5.08862 -12.9331 14.5236 0.990387 0.132292 0.0404238
9.98331 11.3459 -7.66898 0.476754 -0.716693 -0.508978
-4.73034 11.3416 -3.01491 0.730274 0.411406 0.545386
-3.70968 4.29753 -1.29072 -0.877739 -0.0884408 0.470907
3.17102 -2.89463 -5.0209 -0.940625 -0.0848331 -0.328674
-7.92371 7.71442 -4.31742 -0.935559 -0.205632 0.287133
-0.50767 -12.3518 12.5417 0.9978 -0.05583 -0.0357521
8.35063 20.211 -14.8363 -0.496999 0.683806 -0.534229
-1.43618 -12.1903 14.2435 0.999291 0.0236481 -0.029291
0.362541 -0.218279 6.23223 0.95259 -0.0994385 -0.287548
-3.69183 -3.78458 13.2114 -0.947679 0.19482 -0.25288
8.73887 9.75718 -7.17825 0.700853 0.0844307 0.708291
4.3318 -12.5299 7.73336 -0.932611 -0.279744 -0.227993
-9.03747 -9.07642 -2.33599 -0.994911 -0.100219 0.010356
8.30535 6.81982 -8.41618 0.993904 -0.0652356 -0.0888824
-11.1845 9.52499 -10.6468 -0.980653 -0.159567 -0.113386
-3.47616 14.2498 -12.3341 0.90616 0.100849 -0.410736
-2.99841 -3.588 17.7721 0.74002 0.455615 0.494758
6.18595 -11.3363 6.53463 0.875032 0.257624 0.409816
5.06469 -7.83093 -7.12945 -0.654163 -0.367285 -0.661189
5.56715 5.43643 2.22756 0.830563 0.536301 0.150155
8.93056 -13.1593 4.27312 0.913949 0.176569 0.365404
-6.93812 -5.17196 -9.28653 -0.31426 -0.34123 -0.885891
5.12586 4.03346 2.60314 0.944453 0.0513354 0.324612
-3.42437 -13.8654 -2.23138 0.726643 -0.48374 -0.487838
-4.56909 -18.535 8.19389 0.675749 -0.635724 -0.373119
-10.8516 20.5035 -12.4145 -0.385283 0.833041 0.396989
-8.45713 -8.62156 -6.14018 -0.468415 -0.422634 -0.775865
-8.94357 -8.13171 -2.16753 -0.923621 -0.0471328 0.380399
-2.82852 -2.61489 2.28234 0.95604 0.0382474 -0.29073
10.9611 22.0489 -14.4855 0.359326 0.766727 -0.531991
-0.60175 -2.02063 5.63651 0.965045 0.109668 -0.238038
3.93139 12.5745 -7.14634 -0.981482 0.187892 -0.0372861
5.5433 -15.3088 8.95866 0.930224 0.310113 0.196247
7.6255 -0.0442538 -5.92694 0.6637 0.0959196 0.741823
2.82114 -15.3928 6.55319 -0.895363 -0.346228 -0.280091
-12.5358 12.9717 -8.01116 -0.384221 -0.743577 -0.547237
-10.3658 20.361 -14.6093 -0.942128 0.323124 0.0893588
9.83404 11.8567 -9.08493 0.615838 -0.561955 -0.552222
8.44017 9.74355 -11.0017 0.644851 -0.266873 -0.716202
-1.80624 -1.27593 13.0365 -0.95356 -0.190634 -0.233201
4.87597 9.12413 -2.21412 -0.39377 0.595158 0.700523
-7.91692 -11.7517 -4.02403 -0.840345 -0.402732 -0.362805
-5.09754 -12.9423 14.9533 -0.985408 0.161151 -0.054784
-2.86896 1.17419 13.7811 0.409903 0.153412 0.899135
3.98046 4.68872 -11.5718 -0.56356 -0.11438 -0.818118
-1.25804 -6.60656 5.93072 0.950972 -0.142441 -0.274522
-1.6413 -8.08682 0.0512271 0.985412 -0.088393 -0.14543
9.90204 19.958 -11.3693 -0.0972562 0.694281 0.713102
9.39204 18.2415 -10.177 0.886823 0.337179 0.315999
-8.98468 20.8374 -15.9446 0.523859 0.730082 -0.438805
2.95275 -5.41229 10.5218 0.995351 0.0631038 0.0727665
6.56334 7.94451 -10.9522 0.260273 -0.315855 -0.912411
-8.11342 22.3306 -13.9806 0.579237 0.813041 0.0587345
5.35985 11.4414 -4.17122 -0.586407 0.592297 0.55255
-9.52633 0.654096 -8.97994 -0.999556 -0.0255005 0.0154157
-8.3034 -5.51432 -8.33578 -0.618675 -0.385839 -0.684376
-0.960835 4.54992 8.4536 0.949833 0.30412 0.0729982
7.92594 -2.91251 -2.28311 0.708671 0.437465 0.553543
-2.92196 2.18682 -7.6601 0.992134 0.0900374 -0.0869715
-9.73787 11.8431 -5.61352 -0.341025 -0.788495 -0.511837
-7.10977 -15.273 6.70881 -0.927314 -0.0707181 0.367543
-2.92605 -8.63964 16.9672 0.966866 0.0262902 0.253927
-1.19796 0.83066 10.4505 0.973104 0.227895 0.0336291
11.1543 13.2802 -6.9423 0.463403 0.601356 0.650868
10.4338 20.1764 -14.4623 0.997039 0.0728487 0.0245953
3.94091 -10.8888 -3.23787 -0.887185 -0.327826 -0.324704
4.89139 -15.0001 19.7752 0.884701 -0.403563 0.233326
-4.32259 0.00206531 4.89769 -0.910738 0.0646989 0.407886
-2.0187 4.23124 7.79988 -0.992662 0.11653 0.032282
-3.36642 -18.6477 15.0656 0.662284 -0.670009 0.335359
3.00476 -10.2413 15.2806 -0.947113 -0.00296254 0.320886
4.38731 3.96591 -9.78332 -0.80158 0.00325273 -0.597879
