ply
format ascii 1.0
comment created by cisstICP
element vertex 300
property float32 x
property float32 y
property float32 z
property float32 nx
property float32 ny
property float32 nz
end_header
-9.63171 14.7245 -12.8907 -0.295401 -0.388249 -0.872927
-12.7526 9.43018 -6.23077 -0.994752 -0.0848337 -0.0571861
8.04845 11.0667 -3.65732 -0.422589 0.677584 0.601912
10.8538 16.8371 -13.3663 0.993947 -0.0114562 -0.109263
-6.14164 8.88633 -6.64576 0.818509 0.503909 0.275896
-7.34554 -14.0672 5.93883 -0.809021 0.311205 0.498635
-4.93226 -18.4071 1.87107 0.642402 -0.698327 -0.315687
3.92859 -1.48379 -3.00645 -0.969086 -0.187649 -0.16019
-8.95451 10.5772 -11.3365 -0.515507 -0.547759 -0.658949
-3.44781 -3.00207 8.41052 -0.993509 0.0368365 0.107618
3.83817 -2.24077 16.426 -0.86828 0.170408 0.465887
-0.331305 -12.2474 20.0787 0.965088 0.125547 0.229875
-6.6387 10.8186 -6.6033 0.811907 0.50786 0.287896
3.1949 -8.08678 -1.14409 -0.958672 -0.142887 -0.246029
2.25526 -7.16126 -0.408018 -0.998688 -0.0443365 -0.0256218
1.73983 -1.77094 5.32408 -0.95242 -0.0548951 -0.299805
3.74618 -16.6751 7.48873 -0.961437 -0.274895 -0.00849659
7.23531 -3.8603 -5.63307 0.449369 -0.443607 -0.775423
-9.25167 4.1996 -8.90082 -0.894173 -0.105495 -0.435115
8.99265 11.3189 -8.71985 -0.856454 0.200064 -0.47588
8.87629 -4.2694 0.385018 0.690201 0.334885 0.641464
6.8481 13.6867 -12.2114 -0.757703 -0.165038 -0.631387
-9.37014 15.5929 -11.4017 0.687267 0.684725 0.242522
8.55682 6.14668 -3.26828 -0.349715 0.630903 0.692575
11.9459 19.338 -13.7732 0.406281 0.728312 -0.551812
-1.27251 -13.8942 9.92904 0.922081 -0.280636 -0.266475
-5.8356 2.84856 -0.968839 -0.842291 -0.42696 0.329014
6.95028 -17.264 -0.0362358 -0.229477 -0.836181 -0.498139
-10.7039 3.82214 -8.4604 -0.758778 -0.217483 -0.613969
5.91103 -19.7378 12.7725 -0.770086 -0.487657 -0.411288
8.0514 -17.8557 4.13002 0.598989 -0.654449 -0.461421
11.8849 5.30988 -2.24055 -0.299589 -0.570703 -0.764555
5.41838 -16.4142 21.5953 -0.7629 -0.198229 0.615378
3.92314 -21.5193 11.4526 -0.772093 -0.399008 -0.494635
-13.7303 15.0999 -9.63421 -0.80255 -0.520898 -0.290825
-5.20085 -7.1569 -1.14008 0.997145 -0.00824689 -0.075066
5.11855 -23.1598 14.0685 -0.367316 -0.919912 -0.137262
-12.5419 13.2696 -5.74844 0.011121 0.696261 0.717702
9.5951 6.52317 -5.94989 0.857846 -0.0409185 0.512275
-8.13656 3.62616 1.05202 -0.617483 -0.758122 0.209683
-11.0075 4.81834 -4.71412 -0.748936 0.230504 0.621258
-6.45184 16.9137 -12.251 0.782562 0.417107 0.462187
10.6815 14.1128 -10.7904 -0.848806 0.1252 -0.513666
-7.46636 -1.66264 2.48697 -0.977355 0.144702 0.154395
-10.363 15.3086 -6.95661 -0.568531 0.604981 0.557469
-13.9819 9.49741 -7.25481 -0.991145 -0.122317 -0.0516589
-5.142 -14.9614 13.9457 -0.9512 0.303337 0.0566194
5.40752 -14.3845 24.4649 0.990945 -0.00147326 0.134261
8.64028 12.3984 -6.48409 -0.301671 0.65014 0.697361
-4.50277 2.15787 0.43662 0.712074 0.494808 0.498112
10.965 8.99145 -10.0275 0.674776 -0.350717 -0.649364
3.61647 -5.81586 17.3304 -0.757365 0.432898 0.488873
-5.43545 -19.1049 5.44736 0.748596 -0.567112 -0.343495
4.1381 -4.05554 15.3636 0.946693 0.0246258 -0.321194
-12.3561 -1.6757 -6.5457 -0.728938 -0.196172 -0.65587
4.14301 -12.4242 -2.16035 -0.911997 -0.196269 -0.360195
-11.6841 12.0172 -6.6836 -0.632276 0.585703 0.507129
-9.18903 0.934067 -1.47423 -0.86552 0.0174452 0.500571
-2.67708 -16.323 6.96591 0.968843 -0.0841048 -0.232958
3.42826 -13.6784 3.87345 -0.983062 -0.143362 -0.114171
9.82616 2.3422 -7.67795 0.414065 -0.339957 -0.844381
8.356 3.6608 0.51429 0.243128 -0.832091 -0.498511
-1.96976 2.12443 -1.31061 0.999473 -0.0272355 -0.0176904
-6.41227 5.53884 -2.1408 0.641262 0.614996 0.458871
-9.70346 -13.2448 -3.35042 -0.468328 -0.315701 -0.825229
11.0483 7.75659 -10.2706 0.909406 -0.242208 -0.338108
7.48572 -13.8738 -0.664816 0.298588 -0.54376 -0.784328
4.50522 -0.659262 18.4959 -0.5762 0.350177 0.738491
-2.51861 -0.818874 8.77337 -0.993061 0.0424739 0.109667
-1.67749 -0.318086 9.42448 0.979361 0.0973809 -0.177113
12.8314 12.2453 -9.5868 0.879433 -0.426939 -0.210525
7.24759 -2.22143 -0.000447355 0.958094 0.13969 0.250084
10.2365 18.6711 -9.23187 -0.364063 0.894769 0.258546
-4.20573 -12.6066 0.995081 0.996838 -0.0656718 -0.0447326
-10.9363 18.1577 -9.92275 -0.582917 0.739984 0.335608
3.20643 -11.8828 14.915 -0.999912 -0.00383783 0.0126436
-9.29111 18.2919 -10.9649 0.627241 0.775536 0.0714979
4.81588 2.96321 1.84982 -0.814679 0.576042 -0.066888
-9.27275 17.8021 -15.3763 -0.28843 -0.490654 -0.822232
-5.04665 -5.70631 12.6002 -0.993695 0.107458 0.0319855
-5.16764 -8.18049 -4.16355 0.835712 -0.292449 -0.464821
-1.08648 -2.58084 11.9574 0.990058 0.134197 0.0421263
4.17148 -20.6848 14.1673 -0.355041 -0.913876 -0.196916
-12.027 10.3643 -3.51037 -0.362234 0.579733 0.729861
-4.70713 -8.01521 6.86027 -0.860346 0.277674 0.427436
9.60133 5.16596 -3.46986 0.838258 -0.0208293 0.544875
-4.33333 -4.73495 -5.86793 0.912447 -0.147116 -0.381835
9.78945 9.14112 -11.3858 0.197686 -0.263207 -0.944268
-9.30439 12.1383 -6.7447 -0.228029 0.664947 0.71123
-4.38648 -5.08134 -4.33734 0.835428 -0.168484 -0.523138
-13.2472 4.65959 -7.45355 -0.995225 -0.0473936 0.0853297
3.79457 -2.36705 8.64305 0.988679 -0.0130381 0.149479
-7.72646 -16.8408 9.07899 -0.889886 0.220988 0.399084
-2.933 0.821146 -1.95982 0.962055 0.145861 -0.230596
2.88804 2.49293 13.6064 0.22418 0.901394 0.370448
7.49304 -1.25579 -8.57352 0.39086 -0.296525 -0.871378
5.73261 6.31523 -8.62124 -0.78567 -0.165179 -0.596188
-7.51246 -5.87496 0.402769 -0.614721 0.482051 0.624295
3.4768 1.26939 10.5328 0.980886 -0.0299715 -0.192259
7.23361 -4.59402 1.01668 0.940015 0.206715 0.27137
5.02576 6.33835 -5.28015 -0.994382 0.0565078 -0.0895084
5.29103 -15.1784 2.1355 -0.860277 -0.383174 -0.336303
5.09751 -8.72723 12.31 0.989159 0.145611 0.019013
8.30742 6.31378 -3.45907 0.775369 -0.397188 0.490963
9.76655 -19.5041 10.064 0.941858 -0.104637 0.319304
5.87164 2.6545 0.623286 0.40009 -0.80413 -0.439663
-3.42017 -19.0301 10.4202 0.692832 -0.671925 -0.261726
7.12458 -16.8241 10.1951 0.821747 0.319247 0.472031
5.75496 -1.88635 -5.64601 -0.00616253 -0.332267 -0.943165
-0.460135 -5.98861 13.7505 0.983736 0.0678518 0.166315
-3.9744 -19.8249 7.53201 0.599411 -0.753718 -0.269473
12.7676 11.5896 -8.31005 0.993907 -0.10242 0.040712
7.50962 -18.8407 17.9767 0.983887 -0.165077 0.0686638
-7.93298 7.45394 0.574852 0.29324 0.590639 0.751768
13.346 14.423 -11.2288 0.962087 -0.219057 -0.162485
8.3582 -12.3954 0.244589 0.538764 -0.338752 -0.77135
-5.10572 -19.0357 18.7766 -0.957585 -0.286669 0.0291708
-4.06998 -17.9467 10.9999 -0.894545 -0.000337757 0.446978
3.1055 -1.48448 16.2193 -0.917391 0.17814 0.355893
8.39271 -14.5074 0.592436 0.807552 -0.37837 -0.452432
6.66754 -0.85293 -10.4869 -0.0441611 -0.157188 -0.986581
-1.61885 -13.8475 18.023 0.991904 0.0946805 0.0846288
7.53833 -20.6353 6.71576 -0.543584 -0.83932 -0.00755482
5.25375 -7.55209 18.8202 0.991252 0.115002 0.0647575
13.3116 19.1665 -14.586 0.140098 0.693582 -0.706623
-0.496874 -11.8062 15.0453 0.959628 -0.2054 0.192159
2.81357 -4.81464 6.6462 -0.643861 -0.0191771 -0.764902
9.19054 12.8568 -8.30614 -0.589806 0.626152 0.509964
10.1187 -13.8278 2.47093 0.976499 0.0813429 0.199584
10.3363 4.08063 1.76789 0.609715 -0.465372 0.64162
8.99395 13.5439 -10.6636 -0.680261 0.015827 -0.732799
12.4439 11.2786 -7.53413 0.981278 0.125372 0.146202
-9.30957 -17.331 3.5668 -0.997359 -0.0677829 -0.0260788
-4.0101 -16.6943 22.263 -0.723501 -0.0193447 0.690052
-2.09578 -14.9827 18.8055 0.933944 -0.0220091 0.35674
5.77429 -13.6967 16.3359 0.97831 0.178264 -0.105501
4.33964 -11.2158 -1.25046 -0.769546 -0.357338 -0.529253
10.3377 4.37985 -0.954997 -0.0428535 -0.805672 -0.590808
-7.2325 -10.8714 3.40832 -0.817044 0.332146 0.471295
-5.1123 7.24814 -11.3577 0.717059 -0.0930449 -0.690774
6.44838 3.55769 -0.5403 0.981662 -0.174663 0.0763737
-6.14211 9.23089 -2.73611 0.63986 0.53137 0.555181
-8.3761 -10.1593 3.13395 -0.762031 0.358164 0.539469
-9.40732 16.1685 -11.8859 -0.255704 -0.547964 -0.796462
8.46194 -9.04939 -1.45362 0.787374 -0.209298 -0.579859
-11.5715 18.7176 -15.142 0.232745 0.9502 -0.20724
7.20019 -3.93169 1.04542 0.786666 0.236978 0.570085
5.51646 -20.2438 19.1178 0.961597 -0.270773 0.0448635
-6.67351 2.15889 0.174243 -0.413126 -0.622903 0.664319
5.28862 -15.4955 8.10356 -0.984947 -0.169868 -0.0319996
3.56622 -11.4264 18.8913 0.949233 0.263982 -0.171083
8.24978 -9.03041 2.40457 0.77377 0.384414 0.503493
-9.74503 2.53246 -10.125 -0.524425 -0.0792148 -0.847763
2.68204 -1.34675 10.412 0.98694 -0.147199 -0.0654359
-2.14829 -14.2508 7.92889 0.985511 -0.117957 -0.121876
-8.95595 14.1958 -5.91025 0.601096 0.612392 0.513477
-13.6162 11.9441 -5.9196 -0.995198 -0.0843037 0.0497414
4.87018 6.32417 -3.60206 -0.905595 0.191683 0.378358
4.66034 0.769583 1.8918 -0.993115 0.0924931 0.0718898
-4.22845 -0.506656 8.36747 -0.987123 -0.065904 -0.145762
4.11621 -17.0803 20.9109 0.560646 -0.502966 0.657801
-6.89068 -18.3302 8.67983 -0.793606 -0.501439 0.3446
-3.52868 -18.0689 14.8846 -0.968118 -0.0597428 0.243263
6.68786 -8.73047 15.1135 0.997377 -0.0182279 0.0700395
-6.07787 -16.7913 14.8984 -0.953427 0.300242 0.0288302
5.28857 -20.631 5.4149 -0.506812 -0.842661 -0.181833
3.35077 -6.89813 -0.228174 -0.940316 -0.235214 -0.245928
-7.59982 0.524492 -8.92863 0.260477 -0.293738 -0.919712
2.67582 4.09919 -5.74053 -0.971912 0.00102819 -0.23534
4.00856 1.05697 15.4063 -0.66995 0.58471 0.457473
10.0953 4.34527 -0.889528 -0.158173 -0.943334 -0.291723
-2.56586 -20.5202 18.1184 0.700304 -0.669759 0.246976
10.7616 3.28824 -1.98539 0.970185 -0.222397 -0.0963435
4.33704 -20.0087 13.8619 -0.988691 -0.116632 -0.0942713
7.01159 -7.09979 -2.85225 0.773213 -0.284967 -0.566511
-7.09137 -8.04335 -4.77272 0.266354 -0.447382 -0.85376
-1.59084 -3.33324 9.49305 0.920051 -0.106518 -0.377042
5.047 -14.6433 13.1875 0.971362 0.229852 -0.0601901
5.80819 -11.51 14.1236 0.980653 0.112871 -0.159932
-2.40256 0.869076 13.9101 -0.962323 0.224058 0.154055
-2.18881 -3.74318 12.7465 -0.986535 -0.147789 -0.0700439
8.04343 7.79483 -0.532041 -0.511102 0.555577 0.655827
-12.6773 19.0025 -11.8895 0.197924 0.936862 0.288297
-5.21828 2.72692 -3.27543 0.997553 0.0262485 -0.0648038
9.05886 2.95491 -3.60768 0.524144 0.338381 0.781519
-8.01643 -11.1863 -0.0458368 -0.201022 -0.396668 -0.895681
-6.60727 5.88994 -10.0593 0.666579 -0.102538 -0.738349
10.0098 0.582191 -4.28403 0.543839 0.351285 0.762127
4.68112 -5.88791 4.76541 0.650014 -0.612995 0.449131
-8.94276 8.70663 1.44013 -0.0106011 0.659119 0.751964
12.2573 19.5349 -10.9374 0.651002 0.560636 0.511745
8.4539 -15.6997 8.84794 0.862385 0.192115 0.468384
11.434 4.7791 -1.31329 0.956557 -0.250354 0.149405
8.38011 -10.0574 -0.975741 0.536362 -0.410464 -0.737452
-0.796726 -16.5665 17.4116 0.999702 -0.0214534 0.0115813
8.04779 -15.1545 -1.21263 -0.67743 -0.48745 -0.550891
-3.83996 -10.9584 -0.796797 0.790448 -0.326273 -0.518399
-8.4725 16.3377 -12.9041 0.676783 0.0830625 -0.731482
7.24422 -20.2828 6.48574 -0.13027 -0.990361 -0.04706
5.14415 -20.8948 15.9512 -0.954264 -0.282975 0.0964679
-6.35948 1.40953 -0.581385 -0.83096 -0.25565 0.494115
-4.90529 -3.11763 -6.87794 0.800521 -0.117713 -0.587631
6.73774 11.4886 -11.9241 -0.86346 0.118976 -0.490186
-9.12389 -7.06256 -6.22414 -0.620239 -0.293979 -0.727241
-13.2511 11.8131 -9.76653 -0.869826 -0.380388 -0.314176
-10.2528 -9.057 -1.20846 -0.903336 0.0598487 0.424737
2.4071 2.42138 2.40111 -0.937464 0.184483 -0.295172
2.55412 2.81331 12.7535 0.404862 0.911848 0.0679701
-12.1097 7.93428 -3.23673 -0.113882 0.709083 0.695869
9.84079 0.194591 -1.85394 0.497405 0.0613029 0.86535
-4.08323 -8.15919 12.7207 -0.992655 0.0848336 -0.0862516
4.22027 -6.84657 -2.31564 -0.936927 -0.188169 -0.294552
4.4217 2.07556 15.7431 0.857675 0.33412 0.390843
-2.96892 -10.5669 8.9477 0.972886 -0.111204 -0.202796
-3.02956 -20.4705 19.9673 -0.439415 -0.744778 0.502215
7.72015 -18.762 9.38205 0.955186 -0.249857 0.158718
4.82264 -0.0454438 -7.73603 -0.574629 -0.274511 -0.771003
4.34678 -14.6846 20.729 0.999711 0.023186 0.0063526
-2.3846 -9.73159 1.45451 0.996956 -0.0650428 -0.042986
11.396 6.36636 -1.61623 0.387901 0.533849 0.751357
-10.0799 -3.71317 -2.1889 -0.924587 0.0605073 0.376137
-6.97793 -10.2939 2.09867 -0.923444 0.109973 0.367636
11.8328 12.9833 -11.2724 0.896302 -0.342604 -0.281542
-2.73816 -17.8514 21.1643 -0.942513 -0.321765 0.090201
4.29972 6.01386 -4.06148 -0.933957 0.241427 0.263508
3.52694 -7.45765 18.1388 -0.381379 0.468162 0.797104
2.89801 -11.9003 22.8091 -0.953317 -0.118866 0.277593
5.49947 -15.523 16.6585 0.990705 0.132459 0.0309899
11.1922 7.76827 -5.68796 0.473177 -0.730203 -0.492858
-5.63381 7.93196 -1.49789 0.733835 0.424942 0.53001
-4.43439 1.38405 0.565106 -0.874946 -0.0753083 0.478329
3.74439 -5.53535 -1.78371 -0.942648 -0.092618 -0.32068
-9.16022 4.26402 -2.48984 -0.933955 -0.19723 0.298043
-0.212532 -15.0419 14.7063 0.997527 -0.0576031 -0.0402683
9.38689 16.4725 -12.4594 -0.499732 0.669986 -0.548987
-1.23476 -14.8324 16.2308 0.999112 0.0220158 -0.0359032
0.53234 -3.07039 7.90786 0.95077 -0.107762 -0.290557
-3.45148 -6.44266 14.7441 -0.94905 0.188932 -0.252207
10.102 6.33146 -5.06242 0.705168 0.102377 0.70161
4.88922 -15.4048 10.1494 -0.934163 -0.284829 -0.21497
-9.67619 -11.3729 0.768417 -0.9949 -0.0990612 0.0189573
9.61384 3.56336 -6.13795 0.993304 -0.0683955 -0.0931092
-12.2835 5.97648 -8.55331 -0.98143 -0.161646 -0.103269
-4.57112 10.5963 -10.0759 0.903738 0.0892665 -0.418675
-2.77418 -6.12356 19.1696 0.743307 0.467799 0.478183
7.07633 -14.0012 9.19299 0.877666 0.267533 0.397654
5.75014 -10.4793 -3.60289 -0.658393 -0.383939 -0.647386
6.29309 2.46395 3.78658 0.831827 0.539343 0.131044
10.0819 -15.8008 7.11067 0.916258 0.185309 0.35515
-7.94523 -7.8264 -6.23671 -0.319832 -0.364077 -0.874732
5.69142 1.10796 4.27194 0.946428 0.0590221 0.317475
-4.09251 -15.9974 1.39522 0.723351 -0.49699 -0.479338
-4.45582 -21.4072 10.8259 0.673043 -0.64587 -0.360367
-11.3744 16.8987 -10.3996 -0.382301 0.843496 0.377308
-9.2549 -11.0778 -2.9811 -0.473378 -0.442435 -0.761684
-9.61697 -10.4684 0.811436 -0.921344 -0.036349 0.387046
-2.93883 -5.34511 4.40001 0.954297 0.0297905 -0.297371
11.9566 18.4333 -12.2644 0.356649 0.752203 -0.554069
-0.539493 -4.77629 7.53152 0.963669 0.102561 -0.246625
5.18062 8.99203 -5.02654 -0.981557 0.18769 -0.0363056
6.30306 -18.0311 11.5466 0.931606 0.314356 0.182454
8.60472 -3.05632 -3.41248 0.668226 0.114773 0.735052
3.44825 -18.2986 9.14394 -0.897276 -0.352687 -0.26553
-13.3843 9.34122 -6.23736 -0.388031 -0.757344 -0.525226
-10.984 16.789 -12.5815 -0.941346 0.326163 0.0865098
11.0557 8.24853 -7.06013 0.612106 -0.576772 -0.540981
9.61907 6.38393 -8.39644 0.640336 -0.286116 -0.712816
-1.60561 -3.91304 14.3643 -0.955081 -0.195867 -0.222388
5.8603 5.86451 -0.600691 -0.389125 0.613663 0.687023
-8.58155 -14.0763 -0.728207 -0.842797 -0.411389 -0.347062
-4.87966 -15.4328 16.9997 -0.985608 0.160502 -0.0530721
-2.66092 -1.4616 15.0586 0.415422 0.176589 0.892323
4.58094 1.62307 -8.79921 -0.56856 -0.135314 -0.811437
-1.30784 -9.16338 8.37788 0.949201 -0.150407 -0.276398
-2.25519 -10.3065 3.29918 0.984456 -0.0930208 -0.148978
10.7104 16.2514 -9.38473 -0.0924713 0.712828 0.695217
10.2729 14.6147 -8.1407 0.888947 0.344591 0.301713
-9.51326 17.1877 -13.9007 0.521715 0.717874 -0.460944
3.42013 -8.26552 12.5486 0.995815 0.0641378 0.0651061
7.40428 4.77401 -8.27065 0.254548 -0.339899 -0.905359
-8.66342 18.6216 -11.9566 0.580149 0.813805 0.033907
6.40091 8.05686 -2.51568 -0.582652 0.607087 0.540336
-10.5701 -2.32146 -6.50135 -0.999463 -0.0242312 0.0220831
-9.15937 -8.14535 -5.35745 -0.623058 -0.403124 -0.670291
-0.68732 1.53143 9.86296 0.950468 0.305116 0.059289
9.02517 -5.57349 0.58189 0.7123 0.451224 0.537611
-3.73793 -0.673683 -5.16544 0.991654 0.0868757 -0.0952613
-10.7107 8.25644 -3.92565 -0.344654 -0.801355 -0.488921
-7.30282 -17.8537 9.5355 -0.925131 -0.0602601 0.374835
-2.71738 -11.2128 18.5346 0.968397 0.0321125 0.247338
-0.931096 -2.06082 11.9491 0.973448 0.227865 0.0217938
12.0675 9.70899 -5.01842 0.467737 0.617822 0.632074
11.4563 16.4629 -12.2694 0.99722 0.0726146 0.0166865
4.67631 -13.3195 0.252923 -0.889355 -0.335469 -0.310658
5.21207 -17.2239 21.846 0.885809 -0.398063 0.238514
-4.56429 -2.71499 6.81334 -0.908217 0.0761541 0.411512
-1.86845 1.20998 9.22777 -0.992368 0.118186 0.0351763
-2.96792 -21.3478 17.2182 0.663825 -0.661551 0.348835
3.35822 -12.8283 17.213 -0.945164 0.00626542 0.326537
4.97403 0.957744 -7.12414 -0.805166 -0.0117419 -0.592933
