ply
format ascii 1.0
comment created by cisstICP
element vertex 300
property float32 x
property float32 y
property float32 z
property float32 nx
property float32 ny
property float32 nz
end_header
-9.70822 18.1183 -14.7869 -0.28923 -0.365833 -0.884597
-12.8641 12.6488 -8.28685 -0.994241 -0.0845976 -0.0657854
7.91762 14.2447 -5.53764 -0.427425 0.661185 0.616557
10.7768 20.2688 -15.0752 0.994643 -0.0073392 -0.103108
-6.24982 12.1244 -8.67315 0.81599 0.497626 0.294157
-7.50113 -11.1496 3.30342 -0.812654 0.297115 0.501314
-5.0555 -15.3794 -0.85995 0.645427 -0.68907 -0.329554
3.8119 1.67626 -5.23933 -0.967765 -0.18467 -0.171256
-9.03499 13.9329 -13.3364 -0.510473 -0.531127 -0.676256
-3.6354 -0.147399 6.08657 -0.994232 0.0327542 0.102125
3.59788 0.414896 14.166 -0.871498 0.15714 0.464541
-0.580415 -9.68856 17.5307 0.96341 0.120775 0.239278
-6.74994 14.0543 -8.58376 0.809306 0.501256 0.306212
3.07585 -4.97378 -3.55374 -0.956865 -0.137682 -0.255834
2.13016 -4.0689 -2.79997 -0.998438 -0.0449387 -0.0332067
1.57015 1.17012 3.06666 -0.950396 -0.0483156 -0.307267
3.58419 -13.7826 4.85665 -0.960962 -0.275816 -0.0218313
7.13884 -0.627004 -7.90535 0.454978 -0.422748 -0.78376
-9.33851 7.49385 -11.0691 -0.891208 -0.0953108 -0.443467
8.89393 14.6295 -10.5857 -0.853672 0.211252 -0.476043
8.74177 -1.1901 -1.88945 0.685584 0.319004 0.654379
6.76838 17.0843 -14.0284 -0.753396 -0.149563 -0.640333
-9.45747 18.9481 -13.2742 0.684702 0.679079 0.264641
8.43063 9.3169 -5.27316 -0.355067 0.612259 0.706446
11.8679 22.7809 -15.4101 0.408756 0.742915 -0.530091
-1.45409 -11.0725 7.33588 0.924178 -0.272439 -0.267715
-5.97145 5.94172 -3.15299 -0.843764 -0.436439 0.312381
6.83736 -14.1718 -2.66024 -0.225063 -0.823259 -0.521144
-10.793 7.10322 -10.648 -0.754506 -0.202443 -0.624289
5.71953 -16.9787 10.073 -0.766723 -0.477802 -0.428766
7.91258 -14.8701 1.49627 0.602886 -0.641479 -0.474377
11.7532 8.45797 -4.24604 -0.293848 -0.551045 -0.781027
5.16546 -13.886 18.9757 -0.766544 -0.215119 0.605091
3.74274 -18.7279 8.69448 -0.768324 -0.387022 -0.509796
-13.8281 18.4037 -11.5482 -0.79991 -0.514202 -0.309419
-5.32109 -4.0551 -3.57977 0.997617 -0.00501476 -0.0688198
4.92372 -20.4342 11.2747 -0.365093 -0.916509 -0.163459
-12.662 16.4747 -7.70368 0.00550544 0.677406 0.735588
9.48555 9.76422 -7.93734 0.8546 -0.0531035 0.516564
-8.28646 6.66363 -1.12752 -0.617715 -0.764102 0.185948
-11.122 8.00142 -6.87918 -0.753241 0.213334 0.622187
-6.5357 20.2942 -14.07 0.778975 0.405971 0.477897
10.592 17.4783 -12.5721 -0.845674 0.137404 -0.515709
-7.6178 1.34021 0.17397 -0.978535 0.139389 0.151789
-10.4784 18.5472 -8.84444 -0.572973 0.589573 0.569303
-14.0869 12.7411 -9.3167 -0.990615 -0.122207 -0.0612098
-5.34771 -12.2486 11.2985 -0.951983 0.300543 0.0583351
5.13324 -11.9314 21.8969 0.990065 -0.00368618 0.140568
8.52565 15.6502 -8.32501 -0.307083 0.631427 0.712039
-4.64666 5.21648 -1.75737 0.708144 0.482622 0.515371
10.878 12.3393 -11.9406 0.679437 -0.332872 -0.653881
3.37558 -3.18275 14.9758 -0.761114 0.419086 0.495047
-5.58062 -16.1704 2.6937 0.751607 -0.557041 -0.353261
3.90726 -1.37129 13.0588 0.948698 0.0341724 -0.314333
-12.4494 1.5554 -8.88735 -0.724429 -0.180014 -0.66543
4.03675 -9.28212 -4.6761 -0.909381 -0.188022 -0.371044
-11.7965 15.2481 -8.66547 -0.636366 0.571526 0.51807
-9.31878 4.03668 -3.72953 -0.868738 0.00333141 0.495261
-2.83609 -13.4253 4.30171 0.970439 -0.076784 -0.228807
3.28512 -10.6935 1.31838 -0.9821 -0.141612 -0.124194
9.73376 5.62983 -9.7718 0.419968 -0.317388 -0.850231
8.20915 6.7334 -1.55775 0.247529 -0.818555 -0.518361
-2.10245 5.23167 -3.48849 0.999604 -0.0254837 -0.0119425
-6.54449 8.66077 -4.25843 0.637412 0.603698 0.478806
-9.80059 -10.0893 -5.97637 -0.462564 -0.29477 -0.836149
10.9646 11.1113 -12.2151 0.911907 -0.232181 -0.338406
7.3719 -10.7657 -3.19715 0.304403 -0.522829 -0.796234
4.24935 1.94299 16.2805 -0.581434 0.330146 0.743598
-2.71172 2.02684 6.51195 -0.993805 0.0383371 0.104323
-1.87552 2.51163 7.18124 0.980335 0.103204 -0.168204
12.7368 15.583 -11.4036 0.881384 -0.420199 -0.215857
7.1126 0.86509 -2.23213 0.956266 0.13438 0.259802
10.1304 21.9941 -10.8987 -0.367013 0.887286 0.279328
-4.33179 -9.55709 -1.58039 0.997199 -0.0632082 -0.0399896
-11.0368 21.4716 -11.7393 -0.586131 0.730272 0.350933
2.98985 -9.18548 12.4011 -0.999966 -0.00544874 0.00608824
-9.38515 21.6349 -12.7669 0.625644 0.774223 0.0956478
4.66155 5.99682 -0.263642 -0.815068 0.576537 -0.0571693
-9.33779 21.2599 -17.1893 -0.282437 -0.469511 -0.836534
-5.25717 -2.96155 10.1943 -0.994034 0.105315 0.0283519
-5.267 -4.9998 -6.6285 0.839101 -0.279209 -0.466853
-1.29749 0.184635 9.65831 0.989572 0.13433 0.051982
3.97245 -17.9639 11.4315 -0.352443 -0.908911 -0.222855
-12.1573 13.5129 -5.5385 -0.367751 0.560122 0.742309
-4.87747 -5.12021 4.39863 -0.863473 0.265378 0.428939
9.47783 8.34308 -5.49338 0.834774 -0.0338926 0.549547
-4.42677 -1.51011 -8.23747 0.915091 -0.135981 -0.37963
9.71097 12.5227 -13.3021 0.204123 -0.238348 -0.949487
-9.41658 15.3739 -8.70806 -0.233552 0.645964 0.726763
-4.48924 -1.89619 -6.71676 0.839011 -0.153772 -0.521934
-13.3439 7.91098 -9.6362 -0.995682 -0.0508709 0.0776481
3.60441 0.490672 6.38222 0.987717 -0.0156452 0.155466
-7.89816 -14.0043 6.36802 -0.892748 0.20941 0.398936
-3.05961 3.94444 -4.17751 0.963302 0.153034 -0.220521
2.659 5.21898 11.4641 0.220491 0.891759 0.395157
7.41166 2.05331 -10.7755 0.396873 -0.2733 -0.876241
5.64058 9.62075 -10.638 -0.781588 -0.150653 -0.605331
-7.64441 -2.81662 -2.01911 -0.619413 0.46489 0.632617
3.26924 4.07641 8.3636 0.982142 -0.0237102 -0.18664
7.09554 -1.53312 -1.27703 0.937953 0.200806 0.282703
4.91227 9.55621 -7.30211 -0.993868 0.0575358 -0.0944253
5.16118 -12.1454 -0.445861 -0.857545 -0.375418 -0.351678
4.89302 -5.96089 9.89124 0.988804 0.146338 0.0291673
8.18221 9.48858 -5.46115 0.772778 -0.408805 0.485481
9.59201 -16.6698 7.39642 0.93994 -0.111683 0.32255
5.7256 5.72142 -1.49094 0.404069 -0.791929 -0.457795
-3.5974 -16.2221 7.67972 0.695471 -0.664013 -0.274602
6.94537 -13.9975 7.58 0.818237 0.307939 0.48545
5.65574 1.34472 -7.87661 0.000371409 -0.307675 -0.951492
-0.67772 -3.26773 11.3664 0.982549 0.064774 0.174364
-4.13193 -16.9425 4.76834 0.602221 -0.745697 -0.285072
12.6658 14.8943 -10.1447 0.993773 -0.102166 0.0444517
7.28339 -16.215 15.3089 0.983665 -0.165541 0.0707026
-8.08537 10.5028 -1.50386 0.287553 0.571297 0.768721
13.2587 17.8033 -12.9851 0.963427 -0.213529 -0.161906
8.23637 -9.31033 -2.24407 0.544193 -0.317919 -0.77639
-5.33652 -16.4468 16.0221 -0.957336 -0.288559 0.0155418
-4.25249 -15.155 8.2831 -0.897393 -0.0130913 0.441038
2.86546 1.17536 13.9742 -0.919913 0.167662 0.354471
8.27172 -11.4306 -1.95094 0.810986 -0.365459 -0.456881
6.59786 2.50465 -12.683 -0.0376018 -0.131577 -0.990593
-1.85242 -11.2364 15.4259 0.991202 0.0937249 0.0934555
7.38696 -17.7165 4.00563 -0.542306 -0.839539 -0.0328433
5.00578 -4.95498 16.4305 0.990648 0.114554 0.0741145
13.239 22.6323 -16.2183 0.143622 0.711874 -0.687465
-0.714325 -9.11699 12.5095 0.958672 -0.209087 0.19295
2.63979 -1.90551 4.31623 -0.638911 -0.000138008 -0.76928
9.08692 16.1563 -10.131 -0.593974 0.611943 0.522227
9.98463 -10.7978 -0.0443481 0.975079 0.0773875 0.207924
10.1808 7.12308 -0.280926 0.60626 -0.481091 0.633246
8.90446 16.9041 -12.471 -0.675567 0.033974 -0.736515
12.3375 14.5629 -9.3792 0.980137 0.122794 0.155735
-9.44517 -14.3533 0.83486 -0.997072 -0.0683636 -0.0342635
-4.26669 -14.1954 19.5751 -0.727885 -0.0381831 0.684635
-2.33271 -12.3921 16.1756 0.931667 -0.0300645 0.362067
5.55116 -11.0324 13.791 0.978707 0.1822 -0.0945247
4.22579 -8.09751 -3.7339 -0.765615 -0.344465 -0.543303
10.1992 7.49289 -2.99507 -0.0378927 -0.790116 -0.611784
-7.3765 -7.889 0.857498 -0.820532 0.318748 0.474475
-5.18789 10.6105 -13.4193 0.721611 -0.074158 -0.688316
6.30849 6.65525 -2.62695 0.981404 -0.175326 0.0781466
-6.27587 12.3674 -4.75596 0.635513 0.517597 0.572902
-8.51934 -7.17153 0.594328 -0.765996 0.343058 0.543655
-9.49238 19.536 -13.7435 -0.249793 -0.527428 -0.812049
8.34615 -5.92127 -3.85416 0.791381 -0.193161 -0.580004
-11.6394 22.166 -16.9463 0.232691 0.955559 -0.181002
7.06097 -0.871807 -1.23133 0.782648 0.223107 0.581107
5.28499 -17.6498 16.4003 0.961681 -0.270611 0.0440237
-6.81567 5.22152 -2.03363 -0.416475 -0.640471 0.645249
5.12094 -12.6174 5.51182 -0.984474 -0.170245 -0.0427517
3.32345 -8.83202 16.3902 0.949928 0.269553 -0.158046
8.10922 -6.00274 0.00176794 0.769965 0.372205 0.518282
-9.82159 5.85843 -12.3393 -0.518859 -0.0578507 -0.8529
2.47907 1.46327 8.16983 0.987552 -0.144183 -0.0628654
-2.31649 -11.3782 5.32153 0.986443 -0.113487 -0.118536
-9.07649 17.4094 -7.81825 0.5969 0.599626 0.533066
-13.7333 15.1528 -7.91611 -0.995374 -0.0868445 0.0411147
4.74595 9.49826 -5.626 -0.908281 0.180632 0.377355
4.50892 3.80264 -0.279622 -0.993689 0.0893202 0.0678573
-4.41937 2.34729 6.10326 -0.98607 -0.0633648 -0.153789
3.86868 -14.5357 18.2658 0.557143 -0.519155 0.648128
-7.05768 -15.4818 5.93573 -0.795072 -0.511236 0.326342
-3.73595 -15.3773 12.1668 -0.969572 -0.0672816 0.235379
6.46535 -6.03488 12.7039 0.996933 -0.0187595 0.0759763
-6.28703 -14.1037 12.1973 -0.954027 0.298167 0.0304611
5.14559 -17.6814 2.69083 -0.504412 -0.838306 -0.206908
3.22411 -3.80912 -2.6063 -0.938377 -0.229957 -0.258011
-7.68118 3.82283 -11.1816 0.266799 -0.269425 -0.925326
2.56858 7.32673 -7.83561 -0.970382 0.00589006 -0.2415
3.77003 3.73821 13.2333 -0.673719 0.571774 0.468163
9.95642 7.45631 -2.93208 -0.154929 -0.935644 -0.317123
-2.79033 -17.9105 15.342 0.699676 -0.675046 0.234023
10.6313 6.42895 -4.05069 0.971105 -0.218575 -0.0958218
4.13898 -17.2798 11.1448 -0.987895 -0.115415 -0.103644
6.90199 -3.93788 -5.21105 0.777245 -0.26917 -0.568716
-7.18698 -4.84936 -7.24631 0.272475 -0.424723 -0.863347
-1.78493 -0.504174 7.17209 0.922605 -0.0955111 -0.373735
4.84547 -11.8978 10.6145 0.971394 0.232585 -0.0479359
5.59609 -8.78888 11.6365 0.981495 0.118244 -0.150618
-2.63108 3.581 11.6914 -0.963616 0.218746 0.153607
-2.40317 -0.999212 10.4099 -0.98585 -0.147187 -0.0802195
7.8973 10.8928 -2.49843 -0.516105 0.537706 0.666715
-12.7664 22.365 -13.6947 0.194711 0.929314 0.313787
-5.33916 5.88079 -5.45793 0.997909 0.029203 -0.0576634
8.93946 6.13566 -5.69203 0.518627 0.318649 0.793403
-8.13778 -8.11513 -2.60866 -0.194695 -0.373537 -0.906953
-6.68919 9.21709 -12.1662 0.67145 -0.082477 -0.736446
9.8982 3.78253 -6.42359 0.538427 0.332078 0.774481
4.52093 -2.92719 2.4203 0.648007 -0.623614 0.437254
-9.1025 11.7313 -0.612889 -0.0163821 0.63936 0.768733
12.1608 22.9045 -12.5682 0.646891 0.547996 0.530313
8.28167 -12.8368 6.27106 0.859083 0.180996 0.478767
11.2972 7.90272 -3.33579 0.955941 -0.25292 0.149026
8.26273 -6.94143 -3.40314 0.541677 -0.390489 -0.744382
-1.02245 -13.9375 14.7495 0.999638 -0.0204632 0.0174703
7.93933 -12.0311 -3.77438 -0.673174 -0.473852 -0.567716
-3.95692 -7.86254 -3.32649 0.79423 -0.311689 -0.521582
-8.55129 19.7328 -14.7509 0.681342 0.102895 -0.724698
7.09383 -17.3586 3.78295 -0.128528 -0.988972 -0.0735879
4.93396 -18.2189 13.2155 -0.954452 -0.286609 0.0829322
-6.49571 4.49244 -2.80641 -0.833741 -0.26946 0.481942
-4.99458 0.132151 -9.20883 0.804445 -0.101388 -0.585311
6.65938 14.8794 -13.799 -0.860469 0.130554 -0.492493
-9.21156 -3.83384 -8.68487 -0.615133 -0.275794 -0.738612
-13.3433 15.1221 -11.7627 -0.86724 -0.373219 -0.329548
-10.3697 -5.95928 -3.73003 -0.906129 0.047641 0.42031
2.25007 5.43776 0.257841 -0.935818 0.19088 -0.296326
2.33009 5.56097 10.6177 0.403094 0.910295 0.0942244
-12.2383 11.0765 -5.32856 -0.119373 0.69063 0.713289
9.71413 3.33175 -4.00552 0.491753 0.0394536 0.869841
-4.29098 -5.41549 10.2573 -0.992204 0.0857697 -0.0904233
4.10691 -3.70226 -4.68607 -0.934744 -0.181661 -0.305375
4.17952 4.74825 13.5991 0.854664 0.32496 0.404909
-3.14899 -7.72297 6.4303 0.974328 -0.104652 -0.199333
-3.26597 -17.9094 17.1885 -0.441547 -0.75813 0.47987
7.54896 -15.9129 6.72076 0.95451 -0.252667 0.158339
4.73419 3.23807 -9.92411 -0.569272 -0.255139 -0.781559
4.09694 -12.1358 18.1477 0.999615 0.0242969 0.0134021
-2.51781 -6.69267 -1.03476 0.997305 -0.0626246 -0.0382266
11.2588 9.49726 -3.59767 0.382297 0.514659 0.767447
-10.1983 -0.591572 -4.57031 -0.927068 0.0495339 0.371607
-7.11436 -7.2774 -0.435061 -0.925943 0.0992047 0.364401
11.748 16.3633 -13.0759 0.898586 -0.334028 -0.284551
-2.98606 -15.3219 18.455 -0.942605 -0.325209 0.0757366
4.1789 9.19925 -6.09699 -0.935978 0.233304 0.263654
3.28324 -4.84509 15.7407 -0.387165 0.446818 0.806509
2.63081 -9.40833 20.29 -0.954905 -0.127257 0.268258
5.27693 -12.8668 14.0644 0.990292 0.132881 0.0408086
11.0791 11.0041 -7.63287 0.477388 -0.716552 -0.508581
-5.77364 11.0374 -3.54861 0.729801 0.41198 0.545584
-4.57799 4.43967 -1.64857 -0.877887 -0.0888253 0.470558
3.62573 -2.4059 -4.12337 -0.940436 -0.0854713 -0.329051
-9.28829 7.39191 -4.65816 -0.935561 -0.2061 0.286791
-0.423118 -12.3425 12.0885 0.997847 -0.0552572 -0.0353131
9.30467 19.879 -14.1876 -0.497171 0.683371 -0.534625
-1.45541 -12.174 13.6112 0.999289 0.0242234 -0.0288728
0.347987 -0.197529 5.60799 0.95277 -0.0989605 -0.287116
-3.67472 -3.75127 12.3285 -0.947685 0.194198 -0.253336
9.98706 9.55018 -7.05188 0.700503 0.0850319 0.708566
4.70829 -12.5804 7.55668 -0.932351 -0.28035 -0.228313
-9.80247 -8.32499 -1.81025 -0.994857 -0.100797 0.00996056
9.50979 6.81031 -8.20203 0.993979 -0.0646796 -0.0884424
-12.3751 9.25722 -10.6952 -0.980512 -0.16017 -0.11376
-4.6598 13.9249 -12.0475 0.906275 0.101267 -0.410378
-3.02629 -3.5463 16.7651 0.739544 0.456181 0.494949
6.89946 -11.1496 6.65118 0.874707 0.258246 0.410118
5.65028 -7.29836 -6.05727 -0.653668 -0.367847 -0.661368
6.12703 5.44934 1.66899 0.830186 0.536826 0.150362
9.92094 -12.8907 4.54228 0.913691 0.177202 0.365745
-8.03174 -4.59558 -8.70965 -0.313684 -0.341654 -0.885932
5.52422 4.08043 2.1151 0.944285 0.0519747 0.324999
-4.21622 -12.9571 -1.26767 0.727132 -0.483448 -0.487398
-4.63217 -18.6103 8.01687 0.676278 -0.635431 -0.372659
-11.47 20.2248 -12.2515 -0.385938 0.832924 0.396599
-9.35756 -7.9321 -5.54805 -0.467839 -0.423118 -0.775949
-9.74484 -7.42179 -1.74339 -0.923755 -0.0475688 0.38002
-3.0973 -2.38486 2.01997 0.956141 0.0387265 -0.290334
11.8702 21.8373 -13.9252 0.359105 0.766792 -0.532047
-0.718933 -1.89446 5.1806 0.965082 0.110167 -0.237657
5.06165 12.2026 -6.97872 -0.981575 0.187309 -0.0377541
6.11695 -15.2403 8.89433 0.929959 0.310709 0.196558
8.4928 0.120818 -5.65585 0.663329 0.0965082 0.742079
3.278 -15.4489 6.4672 -0.895041 -0.346826 -0.280378
-13.4956 12.5593 -8.29982 -0.383554 -0.743949 -0.547198
-11.0655 20.1723 -14.4329 -0.942354 0.322598 0.0888708
10.9507 11.5197 -8.99297 0.616401 -0.561745 -0.551808
9.52541 9.68857 -10.3865 0.645311 -0.26669 -0.715855
-1.83012 -1.21027 12.0264 -0.953349 -0.191253 -0.233554
5.71746 8.9621 -2.63124 -0.394415 0.595118 0.700194
-8.69433 -10.9872 -3.36944 -0.839955 -0.403321 -0.363052
-5.1043 -12.7987 14.3408 -0.985479 0.16056 -0.0552463
-2.89342 1.22097 12.7773 0.409431 0.153895 0.899268
4.49689 4.93331 -10.9452 -0.563145 -0.114931 -0.818327
-1.48632 -6.30303 5.90784 0.951172 -0.141961 -0.274079
-2.39941 -7.31514 0.795166 0.985525 -0.0878573 -0.144988
10.6087 19.5798 -11.1113 -0.0979644 0.694418 0.712872
10.1656 17.9108 -9.91298 0.886491 0.337782 0.316284
-9.58686 20.6071 -15.7318 0.52362 0.730269 -0.438781
3.21347 -5.50769 10.1309 0.995283 0.0637045 0.0731722
7.3122 8.07309 -10.3168 0.260845 -0.315951 -0.912214
-8.7516 21.9911 -13.7457 0.578738 0.813395 0.0587598
6.26716 11.2041 -4.48515 -0.586987 0.592104 0.55214
-10.6629 0.910998 -8.84826 -0.999548 -0.0260797 0.0149979
-9.25104 -4.93881 -7.84682 -0.618159 -0.386385 -0.684534
-0.890869 4.35041 7.67396 0.949624 0.304694 0.0733192
8.89127 -2.49867 -1.72553 0.708181 0.438028 0.553726
-3.84179 2.53231 -7.42598 0.992118 0.0905929 -0.0865744
-10.8354 11.4183 -5.99984 -0.340347 -0.788833 -0.511768
-7.476 -15.0282 6.80081 -0.927428 -0.0711596 0.367168
-2.95804 -8.6173 15.9987 0.966742 0.0269234 0.254331
-1.14281 0.704899 9.66454 0.972957 0.228472 0.0339806
11.9473 12.9279 -6.90756 0.462775 0.601803 0.650901
11.3728 19.8671 -13.9846 0.996986 0.0734373 0.0249991
4.55586 -10.2391 -2.28348 -0.886855 -0.328431 -0.324992
4.95872 -14.7021 19.204 0.884837 -0.402984 0.233812
-4.74202 0.179622 4.4902 -0.910949 0.064278 0.407481
-2.06743 4.04404 7.02303 -0.992744 0.115959 0.0318286
-3.18541 -18.715 14.418 0.662533 -0.669532 0.335823
3.12827 -10.1901 14.6747 -0.947248 -0.00342831 0.320485
4.88019 4.22523 -9.28543 -0.801327 0.00262267 -0.598221
