ply
format ascii 1.0
comment created by cisstICP
element vertex 300
property float32 x
property float32 y
property float32 z
property float32 nx
property float32 ny
property float32 nz
end_header
0.737533 12.5211 -2.20904 -0.448664 -0.335519 -0.828328
-1.48996 7.02864 4.64627 -0.993637 -0.0468686 0.102409
19.5043 7.8058 3.85714 -0.290683 0.662595 0.690269
20.9488 13.9301 -5.93254 0.961882 -0.0412862 -0.270331
4.93814 6.27234 3.13621 0.872997 0.460993 0.159251
4.80555 -17.1984 14.7892 -0.703952 0.315417 0.636368
6.3438 -21.4219 10.2064 0.552726 -0.704704 -0.444843
15.0132 -4.60828 4.65222 -0.98933 -0.145496 -0.00756195
1.47961 8.28313 -0.958812 -0.637934 -0.497188 -0.588085
9.51836 -6.40812 17.047 -0.960636 0.0666849 0.269687
18.0282 -6.28738 23.791 -0.773657 0.17852 0.607936
14.081 -16.3035 27.6583 0.993993 0.0803216 0.0743385
4.53713 8.2167 3.33901 0.868593 0.464598 0.17232
14.3094 -11.2626 6.33486 -0.991012 -0.0970876 -0.0920253
13.5412 -10.3406 7.25197 -0.9907 -0.00780895 0.135839
14.1875 -5.21496 13.2091 -0.989783 -0.00690652 -0.142418
15.8809 -20.2669 14.3997 -0.961018 -0.240092 0.137115
17.7485 -6.972 1.4254 0.299039 -0.421701 -0.856005
1.30836 1.8111 1.22703 -0.956344 -0.0530199 -0.287392
19.6289 8.26571 -1.2768 -0.912732 0.252615 -0.321102
20.3204 -7.72523 7.07303 0.798298 0.279361 0.533553
17.0516 10.8714 -4.27086 -0.856 -0.107913 -0.505589
1.2727 13.3078 -0.748085 0.745903 0.647712 0.155236
19.8589 2.85798 3.95438 -0.206185 0.609102 0.765821
22.0663 16.4075 -6.40851 0.342511 0.739012 -0.580127
11.4448 -17.4302 17.7389 0.854197 -0.299961 -0.424701
5.89921 -0.0362943 8.43274 -0.795541 -0.412186 0.44409
17.8005 -20.6089 6.43502 -0.342236 -0.80286 -0.488151
-0.0685264 1.46454 1.88249 -0.85648 -0.161058 -0.490411
18.7378 -23.6525 19.1284 -0.846414 -0.440022 -0.29994
19.5334 -21.4371 10.3378 0.488268 -0.652422 -0.579603
23.2706 1.85625 4.38994 -0.443066 -0.522673 -0.728358
19.8175 -20.7381 28.0431 -0.661313 -0.200314 0.72287
16.489 -25.2978 18.078 -0.858072 -0.347484 -0.378109
-2.76198 12.8851 1.68517 -0.860394 -0.477804 -0.177274
6.07168 -10.0384 7.74692 0.97069 -0.0398261 -0.237011
18.02 -27.1024 20.3938 -0.42346 -0.89879 -0.113394
-1.04097 10.8308 5.246 0.156426 0.660419 0.734423
20.4659 3.32507 1.15719 0.92675 -0.0955341 0.363328
3.98977 0.724735 10.8323 -0.607237 -0.745005 0.276101
0.279234 2.29104 5.66602 -0.628354 0.226891 0.744105
4.0692 14.5638 -2.00673 0.863928 0.366729 0.345163
21.0788 11.0938 -3.47786 -0.914476 0.179415 -0.362691
4.65713 -4.64683 11.9189 -0.932569 0.17156 0.317619
0.999077 12.8471 3.78386 -0.44484 0.597387 0.667268
-2.86442 7.18795 3.84017 -0.990784 -0.0846764 0.10572
8.23242 -18.5506 22.2854 -0.915811 0.333655 0.223526
20.3562 -18.8484 30.9574 0.998651 -0.0428275 -0.0293791
19.6882 9.24915 1.02917 -0.157224 0.626383 0.763495
7.41079 -0.839807 9.57217 0.803532 0.445066 0.395286
21.2635 5.93512 -2.98373 0.545582 -0.342936 -0.764679
17.8034 -9.89147 24.5709 -0.649419 0.435539 0.623346
6.39517 -22.2711 13.785 0.658525 -0.57614 -0.484157
18.0752 -8.05887 22.6198 0.882621 0.0065051 -0.47004
-1.62238 -4.05665 3.81222 -0.832915 -0.138839 -0.535702
14.8957 -15.5773 4.99918 -0.965689 -0.146578 -0.214384
-0.399449 9.59503 4.1325 -0.516636 0.582792 0.627249
2.4298 -1.80503 8.40252 -0.771846 0.0240749 0.635355
9.47831 -19.6639 14.9468 0.914075 -0.107023 -0.391169
15.1114 -17.0918 11.0117 -0.993799 -0.102989 0.0419108
20.2369 -0.774289 -0.756685 0.257512 -0.3137 -0.913937
20.1657 0.203198 7.61304 0.123854 -0.81543 -0.56545
9.62485 -0.879215 7.43524 0.981438 -0.0615994 -0.181619
5.25596 2.72547 7.48274 0.732495 0.569412 0.373123
1.01646 -15.8513 6.0511 -0.60838 -0.259274 -0.750101
21.2538 4.71109 -3.28801 0.831773 -0.257738 -0.491656
18.3712 -17.2136 5.86815 0.144675 -0.515934 -0.844323
19.0872 -4.83089 25.7879 -0.434027 0.334671 0.836431
10.586 -4.27884 17.3433 -0.959623 0.0721988 0.271867
11.5417 -3.83965 17.8686 0.941181 0.0711092 -0.330337
23.3132 9.09635 -2.71935 0.814952 -0.447169 -0.368636
18.7394 -5.60504 7.0434 0.99096 0.0937233 0.0959854
21.0855 15.5855 -1.68062 -0.279155 0.893707 0.351227
7.16556 -15.6154 9.46409 0.97284 -0.0985855 -0.209434
0.0763034 15.8528 1.0713 -0.489087 0.743239 0.456498
16.7512 -15.8181 22.0061 -0.984008 0.0308369 0.175431
1.53597 15.9784 -0.218828 0.662981 0.748636 0.000196904
16.8611 -0.43198 9.47824 -0.789536 0.606954 0.0907777
0.821245 15.6992 -4.59054 -0.437967 -0.440407 -0.783725
8.50308 -9.25098 21.326 -0.97002 0.140795 0.198082
5.5729 -10.9171 4.71887 0.736525 -0.299248 -0.606615
12.4369 -6.24005 20.1754 0.988679 0.0970291 -0.114448
17.2075 -24.603 20.748 -0.420727 -0.890354 -0.17395
-0.295719 7.80579 7.2481 -0.214688 0.556686 0.802502
7.81318 -11.2941 15.5172 -0.767476 0.28715 0.573172
20.8145 1.85176 3.54475 0.913553 -0.0763438 0.399488
6.26703 -7.42584 3.04506 0.831761 -0.160834 -0.531326
19.8916 6.19076 -4.12467 0.0313125 -0.224689 -0.973928
1.94216 9.63491 3.68904 -0.0817463 0.637905 0.765764
6.44692 -7.84272 4.54818 0.732107 -0.17271 -0.658932
-2.37794 2.34221 3.32448 -0.969509 -0.0162736 0.244516
16.7237 -6.04077 16.1209 0.99838 -0.0550177 -0.0144862
4.81877 -20.1034 17.8321 -0.803589 0.232959 0.547701
8.51489 -2.11527 6.89858 0.917548 0.122665 -0.378231
16.8377 -1.39405 21.3622 0.319179 0.874234 0.36584
17.6389 -4.24094 -1.40753 0.232122 -0.268239 -0.934969
16.2176 3.38112 -0.854511 -0.877899 -0.108745 -0.466335
4.09606 -8.75071 9.69786 -0.484828 0.473116 0.735597
16.8701 -2.48963 18.1858 0.934821 -0.0553506 -0.350778
18.7889 -8.02146 7.95026 0.979422 0.160252 0.122687
16.0609 3.26982 2.5552 -0.992475 0.0957523 0.076328
16.6037 -18.572 8.93265 -0.918791 -0.336118 -0.206994
18.3296 -12.6106 19.2602 0.984547 0.109556 -0.136614
19.5894 3.04269 3.81391 0.826831 -0.447251 0.341053
22.112 -23.426 15.8392 0.975727 -0.152902 0.15677
17.6909 -0.718896 8.0842 0.289302 -0.795861 -0.531892
9.18797 -22.5047 18.3612 0.61228 -0.6827 -0.398789
19.6423 -20.6639 16.5102 0.899988 0.26719 0.34443
16.3708 -4.94868 1.73572 -0.172437 -0.28649 -0.942438
13.1989 -9.74942 21.7 0.999666 0.0251013 0.00625937
8.14155 -23.1409 15.5718 0.51544 -0.760684 -0.394564
23.4285 8.38322 -1.4775 0.982178 -0.13924 -0.126248
21.1921 -23.0615 24.0346 0.974143 -0.202767 -0.0996495
4.27636 4.56135 10.4869 0.43559 0.543407 0.717613
23.6483 11.3304 -4.33185 0.913046 -0.24486 -0.326176
19.4411 -15.8119 6.68334 0.392299 -0.320378 -0.862241
8.87452 -22.8493 26.8732 -0.951642 -0.253778 0.17313
8.68693 -21.428 19.0834 -0.80987 0.00990272 0.586525
17.3046 -5.49672 23.738 -0.839502 0.193216 0.507843
19.4414 -17.938 6.93332 0.707103 -0.384615 -0.59336
16.5333 -3.71844 -3.14226 -0.20946 -0.108309 -0.971801
12.4116 -17.7573 25.7758 0.995677 0.0554898 -0.074486
19.3266 -24.317 12.8555 -0.572891 -0.818308 0.0465504
19.5843 -11.7535 25.7006 0.992692 0.0767458 -0.0931279
23.2744 16.2269 -7.43962 0.0535982 0.721115 -0.690739
13.1241 -15.6172 22.7419 0.96844 -0.248051 0.0243756
15.33 -8.35423 14.2115 -0.759097 0.0400428 -0.649744
19.9562 9.77415 -0.837724 -0.472584 0.621537 0.624786
21.4753 -17.4101 8.53152 0.998474 0.0372375 0.0407914
22.3384 0.492655 8.54304 0.684915 -0.516656 0.513768
19.4111 10.5794 -3.10111 -0.788316 0.0747383 -0.610715
23.2213 8.04721 -0.672686 0.996444 0.0835664 -0.0107891
2.34736 -20.2741 12.6365 -0.990462 -0.0312392 0.134202
10.6171 -20.7169 30.2278 -0.602803 -0.0266952 0.797443
12.0193 -18.911 26.578 0.977483 -0.0719255 0.198378
19.4351 -17.7872 22.9129 0.955144 0.148473 -0.256232
15.2878 -14.4214 5.91395 -0.859375 -0.304327 -0.410926
21.913 0.921138 5.87113 -0.171888 -0.774569 -0.608684
4.64458 -13.8915 12.4084 -0.715384 0.337908 0.611591
5.12284 4.82542 -1.74415 0.591553 -0.0852349 -0.801748
18.1102 0.217848 6.88044 0.972785 -0.212625 -0.0920826
5.58334 6.42988 7.00442 0.743098 0.48139 0.464833
3.50304 -13.1273 12.3539 -0.649033 0.358688 0.670893
1.18239 13.9067 -1.19547 -0.403979 -0.5 -0.76603
19.4117 -12.3945 5.1307 0.673836 -0.209053 -0.708691
-1.36853 16.683 -3.94679 0.236463 0.9502 -0.202989
18.7887 -7.36049 8.01141 0.877724 0.181627 0.443409
19.3513 -24.4463 25.4266 0.943827 -0.306354 -0.123842
5.2282 -0.749708 9.66771 -0.326617 -0.638912 0.696501
17.5511 -19.1731 14.8029 -0.983522 -0.1333 0.122123
17.7671 -15.5648 25.8859 0.919538 0.238192 -0.312593
19.826 -12.5521 8.96924 0.860535 0.332434 0.385963
0.5534 0.22268 0.0318832 -0.657264 -0.0201509 -0.75339
15.9557 -5.06737 18.0883 0.95627 -0.178633 -0.231596
10.2433 -17.6599 15.8954 0.946997 -0.1467 -0.28579
2.50793 11.6366 4.53977 0.701595 0.565626 0.433396
-2.18425 9.55379 5.19778 -0.976797 -0.0514226 0.207906
16.1777 3.18112 4.23414 -0.823669 0.205248 0.528622
16.6211 -2.61826 9.45434 -0.963645 0.123933 0.236704
8.84789 -3.8875 17.235 -0.999605 -0.0240175 0.0146336
18.3947 -21.3244 27.5533 0.637547 -0.553224 0.53617
5.51503 -21.6007 17.2407 -0.748192 -0.488995 0.448434
9.84242 -21.7543 22.8194 -0.917818 -0.0370883 0.395264
20.3499 -12.8036 21.7641 0.993915 -0.0567171 -0.0944259
7.38557 -20.3896 23.3016 -0.922624 0.331969 0.196369
16.8986 -24.1714 11.9404 -0.564905 -0.81463 -0.131379
14.6615 -10.1252 7.2614 -0.976826 -0.189904 -0.0987356
2.77617 -1.91448 0.778251 0.0958863 -0.258552 -0.961227
13.5743 1.13943 2.39222 -0.996217 0.0465319 -0.0733824
18.1719 -2.95283 22.8943 -0.561838 0.585497 0.584406
21.6831 0.892046 5.97378 -0.243176 -0.922183 -0.300739
11.2094 -24.3894 25.7487 0.701842 -0.70506 0.101529
22.1183 -0.13437 4.74116 0.931562 -0.251633 -0.262436
17.3502 -23.9194 20.4479 -0.994999 -0.0770567 0.0635497
17.8389 -10.3305 4.06919 0.658808 -0.284726 -0.69635
3.58367 -10.6833 4.43789 0.105788 -0.415278 -0.903523
11.5099 -6.85582 17.7975 0.841759 -0.120805 -0.526164
18.1696 -18.5563 19.8889 0.957802 0.198054 -0.208302
19.2046 -15.5 20.817 0.945887 0.0857071 -0.312971
11.6013 -2.8429 22.4576 -0.914426 0.250262 0.318111
11.428 -7.39909 21.0851 -0.99029 -0.109389 0.0857925
19.8645 4.39087 6.80346 -0.374445 0.541354 0.752813
-1.92175 16.8513 -0.548502 0.281542 0.914483 0.29061
6.13042 -0.0695093 6.05331 0.974217 -0.00589521 -0.225537
20.1634 -0.329691 3.40603 0.657324 0.28203 0.698845
3.30076 -14.0135 9.11839 -0.35964 -0.346168 -0.866502
3.80061 3.46043 -0.276496 0.533698 -0.0906615 -0.840802
20.8909 -2.69952 2.48613 0.674162 0.295141 0.677051
16.8221 -9.4018 12.0085 0.6873 -0.656261 0.31135
3.4737 5.80618 11.5563 0.138957 0.622475 0.770205
22.8394 16.4578 -3.65583 0.748319 0.512283 0.421408
20.7834 -19.5241 15.0118 0.934058 0.139022 0.328952
22.9531 1.2981 5.3556 0.956599 -0.290779 -0.0191247
19.3652 -13.4206 5.57345 0.39235 -0.393495 -0.831398
13.0078 -20.4714 24.9267 0.986635 -0.0572314 -0.152563
18.7825 -18.4858 5.18353 -0.77758 -0.436427 -0.452659
7.30713 -13.8976 7.7062 0.681809 -0.328861 -0.653443
1.94697 14.0912 -2.34466 0.552765 0.0939243 -0.828027
19.0144 -23.9438 12.6913 -0.178178 -0.981778 -0.0660614
18.4455 -24.932 22.339 -0.937349 -0.253416 0.239078
5.38399 -1.47279 8.84066 -0.750433 -0.249451 0.612067
5.60891 -5.74302 2.2096 0.689441 -0.117722 -0.714711
16.8957 8.66738 -4.06048 -0.925399 0.172599 -0.337412
1.38715 -9.56338 3.37929 -0.741421 -0.236904 -0.62783
-2.45073 9.59356 1.34074 -0.924517 -0.334055 -0.183509
0.998753 -11.7537 8.42518 -0.819567 0.0713539 0.568524
14.552 -0.91418 10.3922 -0.964103 0.231302 -0.130399
16.3845 -1.02178 20.5892 0.448953 0.89272 0.0386314
-0.436518 5.36992 7.43092 0.0301981 0.678668 0.733824
21.0999 -3.19636 4.89312 0.6327 0.00238508 0.774394
9.36805 -11.7393 21.1863 -0.989041 0.123812 0.0804271
15.1841 -10.0048 5.06399 -0.97933 -0.140742 -0.145275
18.677 -1.96667 23.201 0.922941 0.28464 0.259153
9.75534 -14.0021 17.1858 0.921777 -0.135655 -0.363217
11.0527 -24.4116 27.6489 -0.383885 -0.751915 0.535962
20.0159 -22.5806 15.5315 0.956772 -0.290679 -0.00970091
15.1926 -2.97847 -0.0963193 -0.702686 -0.216993 -0.677604
18.6947 -18.9325 27.4354 0.987699 -0.0124215 -0.155874
9.15764 -12.8316 9.73867 0.973266 -0.0980451 -0.207705
22.9343 2.89836 5.12877 0.526441 0.483398 0.699418
1.23834 -6.37858 7.65134 -0.848335 0.0750784 0.52411
4.70878 -13.2616 11.0998 -0.846476 0.124822 0.517588
22.0881 9.94871 -4.18753 0.823711 -0.360192 -0.437908
11.6446 -21.8645 28.8895 -0.928425 -0.292254 0.229381
15.5279 2.91339 3.86152 -0.868054 0.261381 0.422093
17.7758 -11.5658 25.3146 -0.227459 0.44278 0.867299
17.7204 -16.2011 29.8372 -0.900199 -0.0982661 0.424246
19.1385 -19.6159 23.2003 0.987445 0.0958015 -0.125603
22.1358 4.49914 1.20629 0.355923 -0.722106 -0.593197
6.22909 5.05626 8.08838 0.827164 0.373035 0.420292
7.46602 -1.62081 9.65569 -0.788677 -0.0671221 0.611134
14.8566 -8.70451 5.72015 -0.985122 -0.0439123 -0.166149
2.43597 1.56647 7.5343 -0.881142 -0.17815 0.438008
13.2121 -18.8411 22.2277 0.974583 -0.0907682 -0.204812
19.6333 13.5747 -4.81436 -0.552818 0.712612 -0.431944
12.4591 -18.6686 23.9058 0.980239 -0.0115536 -0.197478
13.3586 -6.59274 15.8994 0.885952 -0.127254 -0.445976
10.3905 -10.1445 23.1486 -0.968402 0.234103 -0.0859732
21.1008 3.07349 1.94138 0.81287 0.0438663 0.580792
17.4913 -19.166 16.8884 -0.967874 -0.241124 -0.0712735
1.78775 -14.1801 10.1841 -0.982099 -0.0646966 0.176903
20.3281 0.378766 0.846452 0.961432 -0.098873 -0.256656
-1.54925 3.67523 2.13761 -0.991208 -0.121818 0.0516356
6.00578 8.08748 -0.430543 0.827286 0.0771956 -0.556452
11.7862 -10.0609 27.4137 0.829962 0.417954 0.36943
19.5531 -17.7964 15.6469 0.940917 0.217141 0.259854
16.3302 -13.6237 3.39539 -0.769979 -0.329168 -0.546607
18.6089 -1.07482 11.1257 0.864258 0.502802 0.0157569
22.1039 -19.5996 13.0295 0.96861 0.135727 0.208263
2.51474 -10.3669 3.14305 -0.472015 -0.310442 -0.825122
18.0363 -2.43034 11.6463 0.986902 0.010395 0.160984
7.19749 -19.0233 9.69993 0.614694 -0.498773 -0.611046
8.13117 -24.8605 18.8318 0.577958 -0.651289 -0.491717
-0.486159 14.6342 0.620695 -0.280151 0.837504 0.469152
1.61053 -13.7216 6.43152 -0.608496 -0.388637 -0.691876
1.89157 -13.2813 10.2542 -0.847499 -0.0222419 0.530332
9.27322 -8.57373 12.9138 0.894183 0.0102564 -0.447583
22.2819 15.4321 -4.9603 0.294228 0.764719 -0.573267
12.1685 -8.23988 15.6328 0.91471 0.0801483 -0.396083
16.3674 5.90126 2.88958 -0.965661 0.223714 0.1321
18.9991 -21.9042 17.9265 0.961361 0.272241 0.0408587
19.4913 -6.32362 3.42413 0.78237 0.0559491 0.620295
15.7852 -21.9559 16.0128 -0.942552 -0.307754 -0.129934
-2.11769 6.96243 4.73917 -0.499583 -0.717277 -0.485727
-0.458066 14.615 -1.59832 -0.9003 0.354669 0.252326
21.8002 5.0488 -0.104189 0.491665 -0.571551 -0.656959
20.0887 3.30188 -1.26413 0.504133 -0.274209 -0.818937
12.2569 -7.66637 22.5776 -0.98591 -0.151228 -0.0714968
17.6188 2.54423 7.01218 -0.246672 0.593547 0.766065
2.51046 -16.8459 8.41852 -0.904494 -0.364386 -0.221616
8.96392 -19.176 25.2336 -0.973518 0.197517 0.11511
11.4327 -5.21512 23.5355 0.561126 0.119074 0.819121
14.8537 -1.25367 -1.03596 -0.697305 -0.0763265 -0.712699
11.3609 -12.6325 16.4111 0.884876 -0.170444 -0.433525
9.55849 -13.498 11.5122 0.942643 -0.120479 -0.311303
21.4251 13.1606 -2.00861 0.0513622 0.681683 0.729843
21.1248 11.4829 -0.778571 0.939834 0.29824 0.166626
0.79613 15.024 -3.12215 0.470548 0.720187 -0.509818
16.7339 -12.1019 19.7881 0.995083 0.0257939 -0.0956305
17.8568 1.76693 -0.845331 0.0903932 -0.305107 -0.948019
2.00882 16.3327 -1.28521 0.61211 0.790291 -0.0275936
17.936 4.80496 5.12691 -0.461439 0.600804 0.65277
0.118202 -4.76639 3.53789 -0.982909 0.0100135 0.18382
1.44597 -10.6843 4.19466 -0.739653 -0.348474 -0.575743
12.6674 -2.04923 18.2157 0.959687 0.268225 -0.0840086
20.4434 -9.04167 7.18892 0.808276 0.399668 0.432384
7.14027 -3.42622 3.80822 0.966065 0.0562857 -0.252092
0.845348 5.67502 6.5369 -0.452827 -0.764473 -0.458835
5.26704 -21.1513 18.1711 -0.85422 -0.0453951 0.517925
11.5232 -15.113 26.5683 0.996098 -0.0138976 0.0871516
12.6109 -5.72603 20.1634 0.973006 0.192087 -0.12791
23.1895 6.37364 1.80367 0.589479 0.570094 0.572282
21.7039 13.483 -4.96504 0.989014 0.0365151 -0.143238
15.7729 -16.6049 7.25403 -0.941292 -0.288693 -0.175
19.62 -21.551 28.2903 0.894941 -0.439982 0.0741505
8.17197 -6.00599 15.6666 -0.82582 0.0884334 0.556957
11.3867 -2.29816 17.769 -0.967741 0.151306 0.201454
10.6324 -25.1584 24.8926 0.682665 -0.700436 0.208225
17.2315 -16.8768 24.2075 -0.878937 0.0240231 0.476334
15.4833 -2.01157 0.5236 -0.890068 0.0449544 -0.453606
