ply
format ascii 1.0
comment created by cisstICP
element vertex 300
property float32 x
property float32 y
property float32 z
property float32 nx
property float32 ny
property float32 nz
end_header
-13.5914 20.9742 -17.3956 -0.294377 -0.364641 -0.883391
-12.9375 12.5866 -8.03724 -0.994939 -0.0787949 -0.0623593
9.39273 14.1532 -6.31599 -0.421439 0.664041 0.617607
11.4107 19.7891 -11.7379 0.994227 -0.0132407 -0.10648
-6.77717 13.2854 -7.40769 0.819893 0.492996 0.291086
-7.67497 -12.553 2.66771 -0.809188 0.302173 0.503892
-3.73804 -15.128 1.15718 0.640247 -0.69304 -0.331329
3.68407 1.60928 -5.16933 -0.969409 -0.179083 -0.167859
-9.11807 17.3864 -13.2301 -0.515877 -0.528512 -0.6742
-4.11311 -1.45038 5.21445 -0.99367 0.0386523 0.10548
3.5286 0.384323 14.4254 -0.868977 0.162525 0.467402
-4.90447 -12.2558 15.9549 0.96491 0.115254 0.235933
-6.81621 13.9664 -8.82756 0.813271 0.496672 0.303162
5.31284 -7.19368 -2.22827 -0.958522 -0.132209 -0.252502
1.97694 -5.07041 -3.66676 -0.998791 -0.0390931 -0.0297903
3.24753 -0.909125 2.89417 -0.951702 -0.0429111 -0.30401
4.23464 -13.8421 4.93663 -0.962634 -0.27018 -0.0184036
6.98835 0.882651 -7.58871 0.449823 -0.425867 -0.785046
-9.45169 6.82101 -11.3216 -0.893255 -0.0903321 -0.440382
8.82387 13.5651 -12.3424 -0.85403 0.215986 -0.473269
7.72326 -1.84315 -2.06222 0.689664 0.315351 0.651856
8.49465 18.083 -12.0155 -0.756432 -0.145507 -0.637682
-7.85857 21.4423 -13.0346 0.689572 0.6752 0.261907
8.34744 10.8724 -5.22342 -0.349064 0.614744 0.70728
12.6926 22.5013 -13.8342 0.411307 0.740194 -0.531921
-1.61391 -9.59858 6.6174 0.921648 -0.278017 -0.270687
-8.99714 4.58342 -3.2594 -0.845246 -0.431295 0.315505
5.56144 -13.3496 -2.69195 -0.231662 -0.822225 -0.519883
-10.907 12.2479 -10.5317 -0.757799 -0.19837 -0.621603
4.90897 -17.6682 11.3934 -0.770968 -0.47354 -0.425874
7.7104 -14.9569 1.56223 0.597494 -0.645283 -0.476036
11.6684 7.04878 -4.28776 -0.299731 -0.549762 -0.779694
5.02852 -13.3759 19.185 -0.765733 -0.210262 0.607818
5.61448 -20.1217 9.13512 -0.772311 -0.382799 -0.506953
-13.8788 14.0351 -13.4527 -0.803962 -0.509674 -0.306393
-3.70016 -5.94405 -3.47534 0.99733 -0.0109138 -0.0722029
4.65143 -20.4851 11.2876 -0.371021 -0.914443 -0.161669
-10.0735 13.2062 -8.24578 0.0119821 0.677789 0.735159
9.39591 8.2476 -6.7602 0.856024 -0.0578222 0.513692
-7.06283 5.82577 -1.95844 -0.621555 -0.760353 0.188502
-11.6632 8.46634 -6.76228 -0.749857 0.218115 0.624612
-8.92587 21.8715 -14.7289 0.782964 0.401667 0.475006
6.09276 17.367 -12.5346 -0.8466 0.14207 -0.512918
-5.94101 0.774707 2.42239 -0.977178 0.145222 0.155026
-11.0819 19.5853 -9.84846 -0.567564 0.593258 0.570891
-14.1632 12.4882 -9.08391 -0.991518 -0.116422 -0.0577734
-5.50089 -13.823 9.83675 -0.949998 0.306162 0.061386
5.22441 -10.8715 16.1204 0.990497 -0.00941944 0.137208
9.52688 16.2625 -8.24397 -0.300949 0.633633 0.712698
-4.74167 8.94016 -2.54347 0.712713 0.478754 0.512674
10.7899 12.1824 -12.237 0.675245 -0.337236 -0.655984
3.28793 -3.23536 15.05 -0.756954 0.423836 0.497377
-5.78605 -16.0432 2.88217 0.747118 -0.561651 -0.355476
3.90863 -1.48928 13.1302 0.947808 0.0284175 -0.317571
-12.59 1.58181 -8.76206 -0.727731 -0.176142 -0.662859
2.98688 -8.49029 -4.60029 -0.911725 -0.182893 -0.367842
-11.8559 17.2319 -9.24853 -0.631235 0.575554 0.519884
-11.0724 2.40261 -3.61639 -0.867015 0.00872098 0.498205
-4.91659 -13.4474 7.29326 0.969188 -0.082615 -0.232054
3.10697 -8.91755 0.61123 -0.983332 -0.135914 -0.120774
7.77963 2.30635 -9.17262 0.415205 -0.320342 -0.851461
8.12343 6.37905 -4.16764 0.240956 -0.820295 -0.518707
-2.73581 5.36803 -5.31754 0.999391 -0.031361 -0.0153204
-5.74379 7.77111 -4.15748 0.642568 0.600222 0.476277
-7.26833 -8.87985 -3.19366 -0.467126 -0.292533 -0.834397
10.8683 10.9981 -11.4474 0.909373 -0.237729 -0.34136
7.25076 -10.9182 -2.9982 0.298621 -0.52507 -0.796949
2.63838 3.58827 14.6463 -0.576955 0.333986 0.74537
-4.83472 0.320534 6.60381 -0.993202 0.0442337 0.107673
-1.9561 2.23126 6.19408 0.980347 0.0973469 -0.171593
12.6772 15.8887 -10.9354 0.878164 -0.425494 -0.218595
5.05157 2.07909 -2.17287 0.957916 0.128912 0.256474
10.1024 20.2056 -12.056 -0.360846 0.889589 0.28004
-2.41861 -7.60809 0.489808 0.996669 -0.0690871 -0.0433365
-12.3566 20.3266 -12.9171 -0.580638 0.733905 0.352482
2.85821 -11.0441 12.3678 -0.999955 0.000427919 0.00948594
-9.74892 20.868 -12.4593 0.6305 0.77059 0.0930588
5.12547 5.30635 0.0674409 -0.811859 0.581281 -0.0547482
-9.39093 21.4183 -16.8293 -0.288029 -0.468329 -0.835289
-5.35957 -2.62376 10.6402 -0.993297 0.111168 0.0316629
-5.43853 -4.43147 -5.23134 0.835856 -0.284403 -0.469531
0.369355 -1.41132 10.5303 0.990515 0.128546 0.0485419
4.97781 -18.0951 12.5513 -0.358529 -0.906954 -0.221112
-12.2163 13.0336 -6.1224 -0.361931 0.562703 0.743217
-5.25493 -6.62884 3.00376 -0.860438 0.270693 0.431709
9.38815 10.3711 -4.76733 0.836424 -0.038476 0.546731
-6.12494 0.0804805 -7.32372 0.912981 -0.141573 -0.382652
9.6193 12.4015 -13.2961 0.199492 -0.240093 -0.950031
-11.8953 15.3823 -8.60136 -0.227285 0.647746 0.727164
-4.5038 -2.74085 -6.79482 0.836315 -0.159 -0.524687
-10.0822 6.9792 -9.28012 -0.995694 -0.0449771 0.0810581
2.49966 1.35141 5.88997 0.988131 -0.0213558 0.152121
-6.68218 -14.1048 5.49443 -0.890142 0.214881 0.401838
-2.18307 3.91839 -6.54109 0.963429 0.147246 -0.223882
2.64542 4.89979 10.8506 0.227064 0.890678 0.393871
7.75034 1.46227 -10.6022 0.392282 -0.276134 -0.87742
7.8406 8.3865 -11.7322 -0.784511 -0.146411 -0.602583
-4.89905 -0.385245 -1.90755 -0.61452 0.468887 0.634437
4.37518 3.65852 7.47518 0.981346 -0.0295864 -0.189959
5.92177 -1.57249 -0.220333 0.940071 0.195458 0.279397
4.82368 9.33688 -8.34714 -0.993828 0.0633172 -0.0910855
4.88062 -11.5071 -0.9946 -0.860924 -0.370579 -0.34854
4.45902 -5.89908 9.77555 0.98974 0.140545 0.0257228
9.2755 8.1754 -4.90523 0.77201 -0.413055 0.4831
6.94946 -14.0889 7.99927 0.940359 -0.117014 0.319425
6.80166 4.47785 -1.42989 0.397855 -0.794554 -0.458689
-3.78624 -18.0118 4.91519 0.690623 -0.668245 -0.276563
8.38909 -12.6795 8.22613 0.821676 0.303409 0.482484
4.43343 0.747147 -8.86442 -0.00466824 -0.308224 -0.951302
-1.19314 -2.84253 10.6912 0.983499 0.0591033 0.170989
-3.38107 -17.3865 7.09591 0.59686 -0.749386 -0.286667
13.2632 16.457 -9.4481 0.993302 -0.107975 0.0411393
2.70636 -18.0344 13.6335 0.982911 -0.171275 0.0674624
-8.95978 8.74507 -3.29952 0.293512 0.570045 0.767398
13.1991 17.676 -12.9568 0.961601 -0.219278 -0.165047
9.3817 -10.6738 -2.16951 0.539676 -0.32156 -0.778042
-5.49829 -16.5101 16.4049 -0.958955 -0.282922 0.0189646
-4.43299 -15.1665 8.39049 -0.895951 -0.0075646 0.444089
2.80001 1.12509 14.0476 -0.917703 0.173268 0.357491
9.31501 -11.73 -2.87817 0.80727 -0.370481 -0.459412
6.44954 5.90348 -9.49836 -0.0417395 -0.131929 -0.99038
-2.28767 -11.5424 14.7604 0.992047 0.087956 0.090034
7.17662 -17.8468 2.81617 -0.547334 -0.836358 -0.0304985
4.91264 -5.46544 16.1926 0.99155 0.108777 0.0706825
13.1967 23.1226 -14.6974 0.145462 0.710619 -0.688376
-1.33712 -7.64441 13.0198 0.958078 -0.214602 0.18982
3.4965 -2.93307 4.3923 -0.641512 0.00316817 -0.767107
7.60371 16.7607 -10.0875 -0.588593 0.615723 0.523873
10.4587 -10.7858 0.214206 0.976217 0.0717799 0.204566
10.6659 7.02147 -0.23585 0.605573 -0.484276 0.631473
8.84136 14.8453 -12.5493 -0.677855 0.0375139 -0.734238
10.875 15.8392 -9.34586 0.981364 0.117126 0.152333
-9.64616 -14.3386 0.959439 -0.997567 -0.0625262 -0.0308376
-4.83756 -12.9805 19.5517 -0.725766 -0.0335102 0.687125
-2.47023 -12.36 17.8872 0.932699 -0.0353258 0.35892
5.41335 -12.7657 12.1953 0.979434 0.176393 -0.0979557
4.04569 -8.54636 -3.81705 -0.769466 -0.340277 -0.540494
10.113 7.47632 -2.63716 -0.0446096 -0.790235 -0.611178
-9.90114 -11.2451 1.15952 -0.817029 0.323837 0.477066
-5.29085 11.3262 -13.3241 0.71882 -0.0787942 -0.690717
6.4658 6.38716 -1.72612 0.980618 -0.181042 0.0749199
-6.33905 9.49548 -6.42834 0.640484 0.514188 0.570431
-8.679 -7.37044 0.20958 -0.762117 0.347866 0.546046
-9.74788 18.4181 -13.2152 -0.255644 -0.526423 -0.810879
10.0689 -5.07639 -4.38401 0.788258 -0.198142 -0.582571
-11.724 21.4084 -16.6688 0.237681 0.954071 -0.182365
7.77677 -1.08592 -1.02307 0.785914 0.218843 0.578313
4.17784 -18.6528 14.5971 0.96022 -0.276229 0.0409214
-6.91154 5.21875 -1.9297 -0.418033 -0.637639 0.647043
2.49818 -12.6856 5.58589 -0.985596 -0.164485 -0.0393075
5.01627 -10.8502 16.777 0.950951 0.263878 -0.161431
9.08834 -6.45057 0.837294 0.773894 0.367977 0.515442
-9.94867 6.33499 -12.0173 -0.522085 -0.0552972 -0.851099
2.39559 1.4119 8.2444 0.986469 -0.150017 -0.0661308
-2.97615 -11.4605 4.87121 0.985351 -0.119347 -0.121816
-8.79582 19.3238 -9.29688 0.602218 0.596419 0.530677
-12.9146 13.2297 -9.44989 -0.99572 -0.0809731 0.0445454
4.21317 8.70564 -4.61758 -0.905918 0.186183 0.380328
3.53467 2.58595 -0.904052 -0.992911 0.0951941 0.0711765
-1.81 1.54459 8.88908 -0.986942 -0.0576614 -0.150403
4.58154 -14.5891 19.2446 0.556285 -0.522042 0.646545
-7.49696 -16.494 6.82009 -0.796946 -0.506368 0.329346
-3.90458 -15.3896 12.2725 -0.969145 -0.0614494 0.238709
3.98175 -4.72796 12.7694 0.997058 -0.0245703 0.072603
-4.33772 -14.9048 13.2932 -0.952151 0.303783 0.0335206
4.93103 -18.2509 3.01607 -0.510025 -0.835449 -0.204692
3.07305 -5.60634 -6.72045 -0.940582 -0.224591 -0.254686
-7.72352 4.40218 -10.8695 0.262066 -0.271524 -0.926065
3.72018 3.18865 -6.57342 -0.971147 0.0114491 -0.238208
1.92719 3.17533 13.8218 -0.668756 0.575993 0.470104
9.87023 7.03226 -2.34869 -0.161496 -0.934902 -0.316033
-2.96307 -18.3886 14.9839 0.696492 -0.679008 0.232051
10.5353 6.32252 -2.8454 0.969473 -0.22433 -0.0989865
1.66009 -15.1893 13.1478 -0.988903 -0.109671 -0.10022
6.74123 -4.33015 -6.44972 0.773714 -0.27406 -0.57119
-6.36216 -4.86287 -6.11141 0.267042 -0.426816 -0.864012
-1.88326 -0.531049 7.26232 0.920753 -0.101145 -0.376808
4.69179 -11.9614 13.1989 0.972574 0.226848 -0.0513726
4.85054 -10.4681 13.9319 0.981655 0.11239 -0.15402
-2.85505 3.74552 11.9146 -0.961787 0.224491 0.156746
-2.49338 -1.02057 10.5025 -0.986964 -0.141441 -0.0767842
6.99548 9.96691 -2.44785 -0.510671 0.541114 0.66814
-12.8011 22.3901 -13.5808 0.201229 0.928337 0.312566
-6.43019 1.24343 -5.3594 0.997861 0.0233081 -0.061068
9.84657 8.10521 -5.01745 0.523182 0.316057 0.791447
-8.31388 -9.18307 -2.15677 -0.199966 -0.372914 -0.906062
-6.79604 9.17724 -12.3119 0.668448 -0.0868464 -0.738671
9.76491 6.62646 -6.37552 0.542996 0.329359 0.772449
4.66084 -3.62951 3.01831 0.645817 -0.627156 0.435426
-7.11337 10.7836 -4.93665 -0.0100157 0.639891 0.768401
11.6609 20.0999 -13.0109 0.651895 0.544495 0.527786
8.47919 -12.962 5.89698 0.861752 0.176225 0.475739
12.1553 6.89449 -3.80528 0.95494 -0.258444 0.145932
8.09045 -7.74568 -6.3606 0.536843 -0.394096 -0.745981
-0.686001 -13.4829 16.084 0.999554 -0.0263238 0.0140891
5.07673 -10.8715 -4.8226 -0.677869 -0.47022 -0.565143
-5.14328 -8.78029 -4.12208 0.79061 -0.316651 -0.524088
-8.60513 19.6495 -14.7983 0.679467 0.0984712 -0.727068
5.57259 -16.2427 2.19946 -0.134581 -0.988243 -0.0725577
4.75201 -18.7929 14.1628 -0.95583 -0.28095 0.0863436
-6.5985 4.48735 -2.70313 -0.833666 -0.264279 0.484931
-5.64657 1.07954 -8.48723 0.801842 -0.106451 -0.587977
7.24753 15.4581 -13.7465 -0.861356 0.13532 -0.489648
-8.60418 -1.77719 -6.93964 -0.619248 -0.272605 -0.736355
-12.1099 15.1519 -11.6425 -0.870531 -0.368311 -0.326379
-8.88112 -5.85085 0.0131674 -0.9044 0.0532059 0.423355
2.16304 4.26131 0.0660351 -0.935683 0.196202 -0.293262
4.00601 3.76384 10.6372 0.40875 0.907966 0.0923092
-9.80053 12.8786 -3.43468 -0.112892 0.691732 0.713275
9.60009 3.24063 -3.95657 0.494929 0.0370694 0.868142
-4.0148 -7.52221 9.95676 -0.991984 0.0915431 -0.0871061
3.94938 -4.20826 -6.46797 -0.936826 -0.176345 -0.302091
4.13374 2.51088 10.9231 0.857928 0.32017 0.40181
-3.29219 -10.4402 6.52949 0.973014 -0.110488 -0.202576
-3.3129 -17.7945 14.5772 -0.444357 -0.755245 0.481821
7.52187 -16.158 6.78855 0.953542 -0.258176 0.155249
6.25273 1.50978 -9.85816 -0.573412 -0.252244 -0.779469
5.17035 -12.0402 19.5938 0.99978 0.0184333 0.00999414
-2.60157 -8.48178 -1.63545 0.996784 -0.0685031 -0.0415742
9.84408 10.1675 -3.55766 0.387918 0.512851 0.765836
-9.33962 -1.34103 -3.8691 -0.925493 0.0551935 0.374722
-7.27818 -7.35753 -0.402894 -0.924101 0.104853 0.367482
12.5174 17.1701 -13.0416 0.895637 -0.339464 -0.287399
-5.64775 -15.335 18.159 -0.944235 -0.319623 0.079131
5.30006 9.12948 -8.45114 -0.933691 0.238951 0.26669
3.53459 -4.89669 16.1625 -0.381792 0.449552 0.80755
2.52468 -10.88 19.8515 -0.954719 -0.121491 0.271574
5.15827 -11.1814 15.5794 0.991188 0.127086 0.037367
11.7612 11.0655 -6.07864 0.471442 -0.719638 -0.509768
-5.84054 9.97055 -2.73142 0.734057 0.408003 0.542857
-4.38164 4.12844 -1.55177 -0.876789 -0.0833947 0.473588
5.22799 -4.86353 -4.69249 -0.942034 -0.0801373 -0.325805
-9.38028 6.87666 -5.99446 -0.935774 -0.200436 0.290089
-2.73905 -12.3743 12.1812 0.99738 -0.0611374 -0.038667
9.25318 20.5213 -16.0323 -0.494964 0.685969 -0.533345
-1.25715 -11.2809 13.8904 0.999311 0.0183372 -0.0322794
-0.531527 -0.942677 8.14108 0.951192 -0.104721 -0.290289
-3.03316 -3.94753 12.9621 -0.947384 0.199614 -0.250234
9.90449 9.81137 -7.00224 0.703394 0.0813273 0.706133
2.43018 -13.8694 6.40769 -0.934751 -0.275002 -0.224978
-9.76108 -8.99418 -2.21861 -0.995392 -0.0949469 0.0133981
11.4545 6.63002 -6.55167 0.993276 -0.0705676 -0.0917772
-12.4766 9.282 -10.5747 -0.981817 -0.154475 -0.110335
-6.16317 11.3453 -13.3806 0.905454 0.0957044 -0.413513
-3.9202 -2.65976 16.2016 0.743887 0.452116 0.492162
6.73666 -10.9393 4.94214 0.877597 0.253342 0.406991
5.91082 -6.97898 -6.42382 -0.65806 -0.364385 -0.658924
6.04478 5.35778 1.63686 0.83383 0.532028 0.147221
9.09743 -13.6994 4.60022 0.915953 0.172045 0.362534
-8.20791 -3.95625 -8.59567 -0.318693 -0.340319 -0.884657
4.10548 1.87317 1.91504 0.945673 0.0466164 0.321761
-4.41628 -12.6421 -0.345085 0.722621 -0.487993 -0.489574
-4.83387 -18.6738 7.96792 0.671266 -0.639608 -0.374571
-11.6304 21.4103 -11.5995 -0.379691 0.835406 0.397407
-9.54254 -7.41743 -4.87785 -0.472949 -0.420813 -0.774103
-9.56413 -7.4918 -1.28262 -0.922721 -0.041922 0.383181
-3.22414 -2.40698 2.11581 0.95536 0.0329418 -0.293602
11.8311 22.3635 -14.7159 0.36179 0.764361 -0.533723
-1.96003 -0.738119 5.33084 0.964899 0.104359 -0.240998
6.07634 9.51816 -8.40557 -0.980581 0.193049 -0.0345342
5.92763 -13.0066 10.9679 0.93243 0.305356 0.193214
8.35433 -0.582298 -2.76575 0.666402 0.0930412 0.739765
3.86999 -16.3934 7.08572 -0.89801 -0.341726 -0.27713
-12.3301 12.853 -7.5366 -0.389772 -0.742001 -0.545447
-12.7093 20.4116 -15.4076 -0.940137 0.328179 0.0918756
10.5494 11.8448 -7.426 0.611214 -0.565676 -0.55356
9.36936 8.7215 -10.3407 0.641298 -0.270891 -0.717882
-1.91609 -1.01891 11.9324 -0.955244 -0.185786 -0.230201
8.22767 8.88531 -2.5721 -0.388532 0.59783 0.701171
-8.9062 -11.8164 -2.39607 -0.843538 -0.398591 -0.359957
-5.25037 -12.7313 12.192 -0.984701 0.166314 -0.0519971
-4.65592 -0.0874893 14.4991 0.413381 0.152009 0.89778
6.21481 4.89376 -8.94932 -0.566588 -0.112096 -0.816341
-1.62299 -9.07298 4.7539 0.949385 -0.147704 -0.277221
-5.98748 -7.34199 -2.5365 0.984494 -0.093728 -0.14828
10.5659 17.4845 -11.0751 -0.0914627 0.695395 0.712784
14.3733 17.9297 -9.74803 0.889529 0.332753 0.313071
-9.63888 20.6694 -15.7174 0.526404 0.726927 -0.440994
3.09571 -7.12298 10.7581 0.995882 0.0579003 0.069755
7.2046 5.91317 -8.98358 0.255884 -0.318006 -0.912905
-8.78876 21.4389 -14.6982 0.583699 0.810015 0.0563067
4.95279 10.336 -3.78325 -0.581621 0.595862 0.553774
-10.8071 2.17395 -6.71095 -0.999627 -0.0202 0.0184065
-9.60083 -4.23142 -7.85086 -0.622739 -0.383145 -0.6822
-0.959003 4.05661 7.50741 0.95164 0.299154 0.0699123
8.75076 -4.56776 0.466263 0.712617 0.434183 0.551055
-3.14112 3.28537 -6.84505 0.992333 0.0847142 -0.0899961
-12.4465 12.1355 -7.23829 -0.346709 -0.787117 -0.510136
-7.66072 -15.5847 5.1631 -0.926578 -0.0654984 0.370357
-2.65934 -8.8909 16.0441 0.967743 0.0213926 0.251031
-0.784207 0.564038 9.64021 0.974392 0.222773 0.0305405
12.3183 12.812 -6.87192 0.468509 0.599452 0.648965
13.9048 20.2328 -10.8857 0.99748 0.067595 0.0215705
4.03759 -9.7564 -2.2612 -0.889868 -0.323406 -0.321783
4.81777 -14.6158 19.2797 0.883245 -0.408038 0.231048
-4.84538 0.168547 4.59007 -0.909166 0.0698635 0.410533
-2.13954 3.182 7.04224 -0.991932 0.121806 0.0351288
-3.366 -18.6592 13.3029 0.659728 -0.673217 0.333974
2.0282 -10.6064 15.8623 -0.946157 0.00232108 0.3237
4.48134 4.14958 -9.49278 -0.803326 0.00698195 -0.595498
