ply
format ascii 1.0
comment created by cisstICP
element vertex 300
property float32 x
property float32 y
property float32 z
property float32 nx
property float32 ny
property float32 nz
end_header
-13.7754 20.9426 -17.3583 -0.294982 -0.368029 -0.881782
-13.0065 12.5696 -7.99556 -0.994464 -0.0876469 -0.057952
9.31626 14.3352 -6.37306 -0.424605 0.660847 0.618863
11.2607 19.9838 -11.8085 0.993832 -0.00454422 -0.110802
-6.84993 13.3234 -7.39349 0.816758 0.50049 0.287081
-7.47523 -12.5128 2.70812 -0.809628 0.295462 0.507153
-3.52228 -15.0542 1.18267 0.644905 -0.687651 -0.333517
3.72386 1.74232 -5.19065 -0.968508 -0.1878 -0.163475
-9.25233 17.3984 -13.2092 -0.514111 -0.533663 -0.671486
-4.00068 -1.37677 5.22968 -0.993505 0.0299588 0.109778
3.66452 0.533777 14.4056 -0.868338 0.155257 0.471046
-4.64965 -12.1791 15.9828 0.964871 0.123996 0.231624
-6.90117 14.0028 -8.81376 0.810157 0.504119 0.299183
5.44322 -7.04322 -2.24909 -0.958404 -0.140908 -0.248206
2.08244 -4.95084 -3.67486 -0.998527 -0.0479512 -0.0254009
3.34472 -0.772543 2.87686 -0.952599 -0.0516008 -0.29982
4.45509 -13.6945 4.9262 -0.960277 -0.278698 -0.0139717
7.02388 1.04275 -7.62379 0.450151 -0.422583 -0.78663
-9.48415 6.83211 -11.2901 -0.894329 -0.0986266 -0.436404
8.72641 13.7366 -12.3964 -0.857959 0.207997 -0.469727
7.80692 -1.67144 -2.09818 0.689678 0.322027 0.648569
8.35865 18.2517 -12.072 -0.757884 -0.152768 -0.634251
-8.02793 21.4654 -13.0227 0.684705 0.681508 0.258313
8.30481 11.0463 -5.2731 -0.351407 0.612273 0.708262
12.5094 22.7053 -13.9128 0.402423 0.74332 -0.534351
-1.42341 -9.50127 6.62878 0.922885 -0.270101 -0.274462
-8.97474 4.60593 -3.22802 -0.840016 -0.438467 0.319561
5.74426 -13.1971 -2.70851 -0.226639 -0.824712 -0.518155
-10.984 12.2466 -10.4985 -0.758713 -0.205627 -0.61812
5.19134 -17.5086 11.3833 -0.768595 -0.480724 -0.422098
7.92585 -14.7815 1.53765 0.601102 -0.640405 -0.478077
11.6635 7.25301 -4.34862 -0.298246 -0.553097 -0.777903
5.30682 -13.2083 19.1706 -0.76119 -0.216475 0.611333
5.90869 -19.9577 9.12408 -0.771093 -0.390073 -0.503248
-13.9841 14.0049 -13.4081 -0.800748 -0.517041 -0.302443
-3.58582 -5.87448 -3.45793 0.997064 -0.00215901 -0.0765415
4.95827 -20.3277 11.281 -0.363616 -0.917835 -0.159257
-10.1491 13.2143 -8.21713 0.00918484 0.678534 0.734512
9.36976 8.42945 -6.81217 0.85873 -0.0497848 0.510005
-7.04585 5.86651 -1.93658 -0.613977 -0.765649 0.191869
-11.6903 8.46195 -6.7226 -0.749032 0.212041 0.627687
-9.10635 21.8836 -14.7127 0.78144 0.409005 0.471239
5.96096 17.514 -12.58 -0.850048 0.134113 -0.509344
-5.86033 0.829538 2.4437 -0.977741 0.136715 0.15916
-11.2208 19.5829 -9.82092 -0.5703 0.588732 0.572846
-14.2358 12.4594 -9.03679 -0.990691 -0.125238 -0.0533485
-5.25881 -13.757 9.86871 -0.952393 0.297805 0.0652625
5.4672 -10.7051 16.103 0.99113 -0.000535558 0.132896
9.42335 16.4439 -8.30343 -0.303438 0.631592 0.713454
-4.75491 9.00077 -2.53442 0.710674 0.485502 0.509147
10.705 12.3715 -12.2984 0.675341 -0.331845 -0.65863
3.4586 -3.08732 15.0344 -0.758502 0.417576 0.500305
-5.55459 -15.9859 2.91736 0.750504 -0.555343 -0.358243
4.05546 -1.33756 13.1104 0.946129 0.0365107 -0.321726
-12.5648 1.56769 -8.71236 -0.729022 -0.18317 -0.659527
3.11853 -8.3625 -4.60982 -0.911663 -0.191282 -0.363705
-11.9713 17.2232 -9.21559 -0.634034 0.57042 0.522132
-11.0321 2.40653 -3.57407 -0.864882 0.00150427 0.501973
-4.68893 -13.3786 7.32237 0.968862 -0.0742509 -0.236206
3.26507 -8.78396 0.601496 -0.982607 -0.144714 -0.116368
7.79562 2.47197 -9.21236 0.414313 -0.317428 -0.852985
8.12515 6.55207 -4.21246 0.245944 -0.818601 -0.519041
-2.72962 5.44402 -5.31412 0.999553 -0.0225357 -0.0196509
-5.75366 7.82145 -4.14303 0.6393 0.606311 0.47295
-7.12662 -8.84146 -3.15815 -0.468147 -0.297408 -0.832098
10.7973 11.1886 -11.5081 0.909946 -0.229986 -0.345116
7.41065 -10.7512 -3.02423 0.299783 -0.52313 -0.797788
2.74696 3.72992 14.6276 -0.576638 0.329545 0.747589
-4.73188 0.388951 6.62064 -0.993076 0.0355462 0.111964
-1.87208 2.32468 6.1967 0.978691 0.105857 -0.17595
12.5651 16.0955 -11.0083 0.880934 -0.417909 -0.222053
5.10018 2.22692 -2.20059 0.957845 0.137611 0.252182
9.94741 20.3885 -12.1214 -0.36748 0.886616 0.28084
-2.27235 -7.52353 0.503034 0.997043 -0.0603097 -0.0476222
-12.5153 20.31 -12.8846 -0.585568 0.72906 0.354375
3.08632 -10.902 12.3609 -0.999869 -0.00840646 0.0138458
-9.9106 20.8749 -12.4386 0.624057 0.77622 0.0896408
5.15527 5.45674 0.0365835 -0.8172 0.574029 -0.0517113
-9.57652 21.4244 -16.8106 -0.287508 -0.471614 -0.833618
-5.21308 -2.55621 10.6619 -0.994094 0.102408 0.0358975
-5.34513 -4.37892 -5.20764 0.836288 -0.277425 -0.472925
0.504358 -1.29326 10.5259 0.989541 0.137344 0.0441109
5.26899 -17.9338 12.5413 -0.35145 -0.910289 -0.218761
-12.2809 13.0247 -6.08428 -0.363657 0.560153 0.7443
-5.10625 -6.56712 3.02848 -0.860911 0.263464 0.435222
9.35189 10.5546 -4.82111 0.839103 -0.0305828 0.543112
-6.08053 0.12489 -7.30092 0.912524 -0.13384 -0.386507
9.52794 12.5792 -13.3525 0.197472 -0.239179 -0.950683
-11.9916 15.3739 -8.56665 -0.229839 0.646369 0.727586
-4.43221 -2.68151 -6.77665 0.835397 -0.152072 -0.528191
-10.1071 6.98657 -9.24602 -0.994895 -0.0537072 0.085438
2.58992 1.48401 5.87393 0.988934 -0.0124789 0.14783
-6.45645 -14.0532 5.53182 -0.890251 0.207364 0.405529
-2.16941 3.99821 -6.53882 0.961105 0.155557 -0.228208
2.72587 5.03802 10.8308 0.220887 0.893007 0.392106
7.76758 1.62636 -10.6411 0.390887 -0.273448 -0.878882
7.79166 8.55009 -11.7775 -0.7858 -0.153888 -0.599029
-4.82701 -0.325073 -1.88974 -0.615877 0.464009 0.636704
4.45183 3.80904 7.44895 0.980733 -0.0210788 -0.19421
6.01113 -1.41506 -0.248699 0.939512 0.204016 0.275126
4.78121 9.47682 -8.38009 -0.994736 0.0544434 -0.0868059
5.05456 -11.3591 -1.00981 -0.859121 -0.378493 -0.344462
4.63024 -5.74536 9.75722 0.98856 0.149316 0.021285
9.25807 8.35787 -4.95662 0.77773 -0.405775 0.480087
7.18528 -13.9145 7.97719 0.942739 -0.108404 0.315423
6.83219 4.64174 -1.46733 0.402869 -0.791419 -0.459731
-3.52861 -17.9349 4.94335 0.695298 -0.662362 -0.278993
8.61337 -12.4922 8.19655 0.821052 0.311101 0.478634
4.46472 0.883507 -8.88823 -0.00608177 -0.309114 -0.951005
-1.0447 -2.73808 10.6949 0.983672 0.0679531 0.166647
-3.1195 -17.3041 7.12174 0.602213 -0.744338 -0.288617
13.1525 16.6703 -9.52401 0.994388 -0.0991495 0.0369012
3.00183 -17.8922 13.6333 0.984672 -0.162514 0.0633242
-8.97438 8.76771 -3.27191 0.291795 0.573312 0.765616
13.0624 17.8855 -13.0334 0.962776 -0.210915 -0.169048
9.54293 -10.4872 -2.20505 0.539108 -0.317479 -0.780109
-5.20385 -16.438 16.4391 -0.956323 -0.291375 0.0233911
-4.18538 -15.0923 8.41897 -0.893907 -0.0150855 0.447998
2.92777 1.26772 14.0304 -0.917635 0.165469 0.361339
9.48251 -11.5445 -2.91251 0.808509 -0.363743 -0.462606
6.43236 6.05689 -9.53542 -0.044881 -0.133189 -0.990074
-2.0445 -11.4436 14.7764 0.991613 0.096807 0.0856311
7.42312 -17.6748 2.7964 -0.540041 -0.841193 -0.0273867
5.10793 -5.30192 16.1718 0.990847 0.117605 0.0662639
13.0042 23.3303 -14.7788 0.136172 0.711255 -0.689619
-1.13605 -7.53894 13.0282 0.960757 -0.205949 0.185827
3.6181 -2.79285 4.37564 -0.644848 -0.00319943 -0.764305
7.48785 16.9233 -10.139 -0.591732 0.610968 0.525901
10.6313 -10.5875 0.174037 0.976425 0.0805952 0.200245
10.679 7.22051 -0.29235 0.612577 -0.47833 0.629245
8.73167 15.0168 -12.6045 -0.68135 0.0308533 -0.731307
10.7704 16.0315 -9.41082 0.980944 0.125938 0.147951
-9.43795 -14.3173 1.01001 -0.997099 -0.0713735 -0.0264333
-4.56068 -12.8999 19.5799 -0.722444 -0.0393052 0.690312
-2.2062 -12.26 17.9046 0.934529 -0.0267514 0.35488
5.65581 -12.601 12.1787 0.977399 0.184959 -0.102378
4.18119 -8.4085 -3.83116 -0.768771 -0.347558 -0.536838
10.1116 7.66827 -2.69162 -0.0402763 -0.791151 -0.610293
-9.71942 -11.226 1.20852 -0.817778 0.317031 0.480344
-5.37209 11.3722 -13.3146 0.716476 -0.0730596 -0.693776
6.47816 6.54773 -1.76374 0.982498 -0.172295 0.0708001
-6.37403 9.53844 -6.41278 0.638386 0.520348 0.567187
-8.53576 -7.3415 0.249901 -0.762781 0.341607 0.549063
-9.89117 18.4244 -13.1924 -0.254503 -0.529397 -0.8093
10.171 -4.8859 -4.42738 0.787437 -0.191691 -0.585831
-11.9087 21.394 -16.6399 0.228434 0.95597 -0.184226
7.85825 -0.912826 -1.05993 0.786457 0.226308 0.574691
4.4829 -18.4967 14.591 0.962796 -0.26769 0.0369733
-6.88908 5.26088 -1.90798 -0.409555 -0.640725 0.649412
2.7113 -12.5528 5.58203 -0.984264 -0.17323 -0.0348669
5.26174 -10.685 16.7605 0.947868 0.272131 -0.165805
9.22532 -6.26398 0.799338 0.772844 0.375273 0.511744
-9.97984 6.34109 -11.9832 -0.525275 -0.0606823 -0.848766
2.49557 1.5457 8.22874 0.987461 -0.141348 -0.0703017
-2.77671 -11.3767 4.89017 0.985829 -0.110739 -0.126008
-8.93012 19.3421 -9.27909 0.599222 0.602201 0.527529
-12.9954 13.2116 -9.40886 -0.994762 -0.0897351 0.048957
4.19254 8.84358 -4.64736 -0.905865 0.178508 0.384113
3.58438 2.72149 -0.925605 -0.993395 0.0864741 0.0754229
-1.70819 1.64178 8.89164 -0.987038 -0.0665232 -0.146048
4.87086 -14.4254 19.2332 0.56369 -0.516517 0.644565
-7.24428 -16.4483 6.8631 -0.790994 -0.513097 0.333257
-3.63811 -15.3072 12.2989 -0.967515 -0.0698014 0.242986
4.15567 -4.5758 12.7521 0.997543 -0.0156863 0.0682759
-4.07109 -14.8254 13.321 -0.954647 0.295381 0.0374088
5.18209 -18.0986 3.00644 -0.5035 -0.840112 -0.201742
3.16995 -5.47982 -6.73283 -0.939657 -0.233131 -0.250388
-7.7327 4.42907 -10.8434 0.260425 -0.270034 -0.926963
3.73987 3.32068 -6.59625 -0.972238 0.00264488 -0.233981
2.03587 3.30996 13.8066 -0.671773 0.570482 0.472516
9.87401 7.22235 -2.40171 -0.154593 -0.936579 -0.314516
-2.65832 -18.2953 15.0087 0.703475 -0.672612 0.229601
10.5431 6.51806 -2.90069 0.97098 -0.215837 -0.103018
1.92832 -15.057 13.1497 -0.98832 -0.118503 -0.0958121
6.82784 -4.171 -6.4792 0.773615 -0.267724 -0.57432
-6.26872 -4.81926 -6.0833 0.267044 -0.42522 -0.864798
-1.77016 -0.435902 7.26701 0.919963 -0.0933394 -0.380731
4.93154 -11.8023 13.1847 0.970297 0.235393 -0.0558096
5.08026 -10.307 13.9158 0.979942 0.120928 -0.158396
-2.75949 3.83612 11.9198 -0.963044 0.216119 0.160743
-2.36182 -0.927865 10.5103 -0.985999 -0.150233 -0.0723572
6.97301 10.1314 -2.49088 -0.512525 0.537181 0.669891
-12.981 22.3689 -13.5481 0.194366 0.930363 0.310881
-6.38751 1.28687 -5.33629 0.997341 0.0320764 -0.0654388
9.82925 8.29263 -5.07127 0.523805 0.321388 0.788884
-8.16492 -9.15298 -2.11644 -0.2006 -0.375487 -0.904858
-6.85379 9.21084 -12.294 0.665969 -0.0816002 -0.741503
9.75476 6.81199 -6.42768 0.543418 0.334847 0.769788
4.78256 -3.48021 2.99719 0.653229 -0.621026 0.43315
-7.15322 10.821 -4.91884 -0.0123319 0.640472 0.767882
11.5026 20.2956 -13.0829 0.649344 0.550716 0.524466
8.69582 -12.776 5.86727 0.862222 0.18427 0.471824
12.1539 7.10348 -3.86813 0.957815 -0.249857 0.14199
8.2076 -7.57438 -6.39301 0.537056 -0.390008 -0.747973
-0.419974 -13.3687 16.0946 0.9998 -0.0174706 0.00975325
5.22838 -10.7253 -4.83917 -0.676136 -0.476707 -0.561774
-5.00659 -8.72395 -4.09591 0.791092 -0.310121 -0.527256
-8.76627 19.6644 -14.7816 0.675398 0.103818 -0.730109
5.8023 -16.0856 2.18531 -0.126147 -0.989459 -0.0711137
5.05639 -18.6321 14.1543 -0.952922 -0.289314 0.0907541
-6.57294 4.53158 -2.68213 -0.829177 -0.271202 0.48879
-5.61609 1.12708 -8.46737 0.800186 -0.0998877 -0.591376
7.12728 15.6143 -13.7953 -0.864642 0.127254 -0.486004
-8.54155 -1.75429 -6.90442 -0.620011 -0.278737 -0.733411
-12.2173 15.1389 -11.6066 -0.868651 -0.37629 -0.32226
-8.75217 -5.82394 0.0530551 -0.902984 0.0455891 0.427249
2.20222 4.38554 0.049001 -0.93865 0.187654 -0.289349
4.09551 3.91395 10.6125 0.401099 0.911629 0.0897391
-9.85224 12.8936 -3.40698 -0.115901 0.691352 0.713161
9.63043 3.42702 -4.00511 0.498356 0.0422305 0.865944
-3.82801 -7.4432 9.97677 -0.993125 0.0826882 -0.0828591
4.03497 -4.07382 -6.48539 -0.936536 -0.184896 -0.29785
4.23557 2.66243 10.8989 0.856802 0.328108 0.397787
-3.09454 -10.3578 6.54892 0.973062 -0.102062 -0.206721
-3.01516 -17.7047 14.603 -0.435557 -0.758709 0.484409
7.77071 -15.9795 6.76578 0.956456 -0.249593 0.151314
6.27286 1.6613 -9.89054 -0.574545 -0.258011 -0.776742
5.43861 -11.8711 19.5776 0.999612 0.027283 0.00561855
-2.45682 -8.40072 -1.62065 0.997161 -0.0597231 -0.0458609
9.81486 10.3561 -3.61327 0.386695 0.516954 0.763692
-9.26744 -1.32186 -3.83109 -0.924305 0.047346 0.378706
-7.13778 -7.31676 -0.368686 -0.923384 0.097009 0.371417
12.3848 17.3735 -13.1148 0.897346 -0.331791 -0.291007
-5.35607 -15.2627 18.1928 -0.941017 -0.327889 0.0835245
5.25895 9.27355 -8.48598 -0.934599 0.230926 0.270551
3.72479 -4.7454 16.1472 -0.382236 0.446889 0.808818
2.78392 -10.734 19.8458 -0.952415 -0.129683 0.27584
5.40145 -11.016 15.5625 0.990178 0.135881 0.0329344
11.7129 11.2688 -6.14337 0.475567 -0.715902 -0.511195
-5.86365 10.0212 -2.71847 0.732775 0.41497 0.539297
-4.34801 4.19333 -1.54014 -0.873948 -0.0907165 0.477479
5.32704 -4.71614 -4.71494 -0.942698 -0.0887598 -0.321625
-9.39006 6.89322 -5.96336 -0.932693 -0.20844 0.29434
-2.49972 -12.2818 12.1998 0.997704 -0.0523498 -0.0429627
9.07809 20.693 -16.0942 -0.50333 0.681082 -0.531776
-1.02012 -11.1738 13.9016 0.998959 0.0271445 -0.0366524
-0.411025 -0.834765 8.14022 0.950808 -0.0965681 -0.294343
-2.86497 -3.85725 12.9748 -0.950194 0.191001 -0.246274
9.86343 9.99744 -7.05778 0.705714 0.0881836 0.702988
2.65736 -13.7363 6.40514 -0.933251 -0.283461 -0.220662
-9.61399 -8.97695 -2.17214 -0.994445 -0.103734 0.0178206
11.4434 6.83033 -6.61121 0.993453 -0.061864 -0.0960463
-12.5274 9.26694 -10.5322 -0.980882 -0.163251 -0.105918
-6.24479 11.3835 -13.3674 0.902764 0.103334 -0.41754
-3.74926 -2.57445 16.2169 0.741993 0.459122 0.488521
6.93133 -10.7696 4.91829 0.877084 0.261461 0.402941
6.02102 -6.82704 -6.44739 -0.657672 -0.370786 -0.655732
6.08091 5.51771 1.60194 0.829723 0.539514 0.143123
9.31491 -13.509 4.56847 0.915964 0.180466 0.358388
-8.13322 -3.93125 -8.56027 -0.319518 -0.343925 -0.882963
4.17374 2.01634 1.89158 0.946615 0.0552687 0.317593
-4.22902 -12.5758 -0.318777 0.724772 -0.482026 -0.492297
-4.55704 -18.6034 8.00119 0.675261 -0.633986 -0.37694
-11.793 21.4013 -11.5711 -0.385334 0.832375 0.398335
-9.42099 -7.40074 -4.83367 -0.472573 -0.42568 -0.771668
-9.42626 -7.47204 -1.23831 -0.920638 -0.0497335 0.387237
-3.11678 -2.32828 2.12802 0.953744 0.0411233 -0.297793
11.6453 22.5592 -14.7907 0.352687 0.767047 -0.535957
-1.8535 -0.64539 5.33606 0.962879 0.11267 -0.245293
6.03195 9.66912 -8.44414 -0.982392 0.184338 -0.0304254
6.16686 -12.8385 10.9493 0.930524 0.313764 0.188882
8.42373 -0.405691 -2.80556 0.668766 0.0996003 0.736771
4.12238 -16.2469 7.07907 -0.896149 -0.349905 -0.272915
-12.3993 12.8418 -7.49781 -0.385563 -0.745912 -0.543099
-12.8796 20.3897 -15.3736 -0.942595 0.319935 0.0956898
10.4884 12.0362 -7.4861 0.613779 -0.560749 -0.55573
9.32344 8.89986 -10.3929 0.640539 -0.265859 -0.720437
-1.77834 -0.919802 11.9376 -0.954556 -0.194435 -0.225873
8.21416 9.0606 -2.61956 -0.390751 0.595006 0.702341
-8.73495 -11.7917 -2.35088 -0.841537 -0.406361 -0.35593
-5.00771 -12.6609 12.2219 -0.986351 0.157552 -0.0478469
-4.51512 -0.0103287 14.5154 0.415924 0.156472 0.895837
6.20896 5.04563 -8.98448 -0.569122 -0.117841 -0.813765
-1.44525 -8.97746 4.76488 0.949439 -0.139553 -0.28123
-5.85657 -7.29174 -2.50791 0.98463 -0.0851523 -0.15249
10.4392 17.6724 -11.1401 -0.0945081 0.695204 0.712573
14.2482 18.1525 -9.83006 0.887905 0.34089 0.3089
-9.81299 20.6743 -15.697 0.518028 0.731154 -0.443915
3.28211 -6.98037 10.7468 0.995625 0.0667681 0.0653616
7.18953 6.07373 -9.02394 0.254712 -0.316557 -0.913736
-8.96529 21.4522 -14.6822 0.57675 0.815196 0.053059
4.92134 10.4811 -3.81768 -0.584454 0.591196 0.555788
-10.7783 2.17743 -6.66956 -0.999319 -0.0290226 0.0227827
-9.5204 -4.21805 -7.80916 -0.622288 -0.389254 -0.679145
-0.885469 4.15997 7.5041 0.949252 0.307621 0.0655027
8.86948 -4.38457 0.42815 0.71114 0.440966 0.547566
-3.12313 3.35647 -6.83804 0.991143 0.0934049 -0.0943957
-12.5081 12.1236 -7.19837 -0.341949 -0.790614 -0.507937
-7.4233 -15.5419 5.20605 -0.924341 -0.0733546 0.37445
-2.43402 -8.79433 16.0594 0.968599 0.0301771 0.24679
-0.670498 0.671013 9.63914 0.972506 0.231409 0.0260984
12.2511 13.0194 -6.94058 0.466008 0.604159 0.646397
13.7544 20.4504 -10.9676 0.996927 0.0764329 0.0171622
4.19057 -9.61715 -2.27424 -0.888364 -0.331554 -0.317619
5.10746 -14.45 19.2673 0.887818 -0.400001 0.227548
-4.74995 0.235052 4.6071 -0.907953 0.0621922 0.414432
-2.06024 3.27454 7.04484 -0.992809 0.113061 0.0393482
-3.06615 -18.571 13.3297 0.667106 -0.667054 0.331677
2.26768 -10.4685 15.8586 -0.944722 -0.0057532 0.327821
4.47979 4.28566 -9.51973 -0.805941 -0.000661445 -0.591996
