ply
format ascii 1.0
comment created by cisstICP
element vertex 300
property float32 x
property float32 y
property float32 z
property float32 nx
property float32 ny
property float32 nz
end_header
-13.492 18.9628 -15.7855 -0.297115 -0.365978 -0.88192
-12.7926 10.5861 -6.42067 -0.995053 -0.080189 -0.0586376
9.54157 12.1843 -4.78274 -0.420067 0.664139 0.618436
11.5322 17.8171 -10.2179 0.993848 -0.0120281 -0.110099
-6.63103 11.2938 -5.8144 0.82029 0.494401 0.287562
-7.45743 -14.535 4.29174 -0.807744 0.301633 0.506524
-3.5226 -17.1064 2.76958 0.639959 -0.69254 -0.332929
3.85394 -0.365983 -3.60185 -0.969775 -0.180555 -0.164123
-8.99867 15.3855 -11.6326 -0.51763 -0.529921 -0.671746
-3.90114 -3.42492 6.81361 -0.993329 0.0374393 0.109071
3.77171 -1.57017 15.9946 -0.86748 0.161866 0.470402
-4.63879 -14.2199 17.5683 0.965611 0.116793 0.232281
-6.67617 11.9732 -7.23483 0.813708 0.498081 0.299658
5.50522 -9.1636 -0.657393 -0.95926 -0.133757 -0.248855
2.16124 -7.04633 -2.08594 -0.99884 -0.0404575 -0.0260971
3.45024 -2.87633 4.46587 -0.952748 -0.0445061 -0.300483
4.46211 -15.8058 6.51848 -0.962332 -0.271483 -0.0145965
7.15033 -1.09079 -6.03253 0.44752 -0.426107 -0.786231
-9.31118 4.82163 -9.71165 -0.894736 -0.0919951 -0.437017
8.95149 11.589 -10.8064 -0.856042 0.21434 -0.470373
7.90907 -3.80969 -0.50585 0.691619 0.316968 0.648995
8.61741 16.1068 -10.4831 -0.758562 -0.147198 -0.634757
-7.7439 19.4432 -11.446 0.689621 0.676399 0.258665
8.50468 8.90329 -3.68286 -0.347299 0.615034 0.707896
12.8028 20.5288 -12.3219 0.40837 0.740172 -0.534209
-1.38593 -11.5683 8.2161 0.921024 -0.277077 -0.273758
-8.82418 2.59328 -1.64874 -0.84351 -0.432085 0.319052
5.76036 -15.3197 -1.11542 -0.23246 -0.82309 -0.518156
-10.7709 10.2474 -8.92215 -0.759799 -0.200046 -0.618617
5.16515 -19.6241 12.9768 -0.771885 -0.475023 -0.422548
7.927 -16.9196 3.13259 0.596613 -0.644995 -0.477529
11.8342 5.08511 -2.75527 -0.301842 -0.550996 -0.778007
5.30743 -15.3233 20.7634 -0.763225 -0.210633 0.610837
5.86568 -22.079 10.7186 -0.773645 -0.384371 -0.503718
-13.7557 12.0275 -11.8342 -0.804394 -0.511074 -0.302909
-3.51394 -7.92734 -1.87284 0.997073 -0.00966045 -0.0758367
4.91099 -22.4414 12.8749 -0.370385 -0.91511 -0.159337
-9.93032 11.2093 -6.64034 0.0137616 0.678591 0.734388
9.55104 6.27825 -5.22067 0.857972 -0.0561303 0.510621
-6.88679 3.8396 -0.356185 -0.619844 -0.76098 0.191583
-11.5082 6.46889 -5.14599 -0.747861 0.217783 0.627116
-8.81795 19.8692 -13.1369 0.784157 0.403219 0.471712
6.21461 15.387 -10.9926 -0.848658 0.140391 -0.50997
-5.74221 -1.20527 4.02589 -0.976799 0.144084 0.158443
-10.9531 17.5854 -8.24612 -0.566267 0.593111 0.57233
-14.022 10.4849 -7.46275 -0.991566 -0.117807 -0.0540242
-5.25546 -15.7944 11.4541 -0.950176 0.30496 0.0645323
5.48876 -12.8219 17.6954 0.991004 -0.00795108 0.133596
9.66585 14.2918 -6.71344 -0.29919 0.633993 0.713118
-4.57196 6.95645 -0.953016 0.71394 0.480253 0.509555
10.9197 10.2091 -10.7067 0.673294 -0.337037 -0.658089
3.53817 -5.1895 16.624 -0.755698 0.423358 0.499689
-5.56307 -18.0224 4.50301 0.746565 -0.561033 -0.357606
4.14951 -3.44465 14.7 0.946603 0.0293422 -0.321064
-12.4331 -0.419005 -7.13504 -0.729912 -0.177822 -0.660006
3.17234 -10.4659 -3.01951 -0.912817 -0.184503 -0.364312
-11.7217 15.2315 -7.64086 -0.630101 0.575268 0.521575
-10.8978 0.409321 -1.99582 -0.8652 0.00809736 0.501362
-4.68097 -15.4208 8.90812 0.968443 -0.0815701 -0.235507
3.31205 -10.8874 2.19199 -0.983584 -0.137355 -0.117034
7.9339 0.332274 -7.62083 0.412519 -0.320699 -0.852631
8.29054 4.41078 -2.62148 0.240156 -0.820527 -0.51871
-2.57147 3.38404 -3.73059 0.999369 -0.030044 -0.0189404
-5.5784 5.78435 -2.5621 0.643501 0.601588 0.473285
-7.07713 -10.8676 -1.57498 -0.46978 -0.294049 -0.832371
11.0026 9.02566 -9.9161 0.908436 -0.23688 -0.344429
7.4453 -12.8864 -1.43043 0.296409 -0.525524 -0.797475
2.87802 1.63282 16.2154 -0.574674 0.334013 0.747118
-4.62004 -1.65349 8.20372 -0.99286 0.0430238 0.111256
-1.7455 0.260631 7.78143 0.979582 0.0984711 -0.175279
12.8068 13.9193 -9.416 0.877927 -0.424555 -0.221351
5.23175 0.10886 -0.610912 0.958673 0.130465 0.252833
10.2222 18.2315 -10.5318 -0.36101 0.889405 0.28041
-2.21568 -9.58542 2.08937 0.996595 -0.0678036 -0.0469062
-12.24 18.3216 -11.3109 -0.580327 0.733506 0.353821
3.1091 -13.0017 13.9517 -0.999913 -0.000896058 0.013141
-9.63136 18.867 -10.8632 0.629804 0.77153 0.0899323
5.30951 3.33862 1.62567 -0.812831 0.580139 -0.052399
-9.29008 19.4131 -15.235 -0.290453 -0.469607 -0.833731
-5.1262 -4.59416 12.2452 -0.993323 0.109877 0.0351755
-5.26074 -6.41896 -3.62408 0.834514 -0.28379 -0.472281
0.600658 -3.3742 12.113 0.990513 0.129919 0.0447835
5.23879 -20.0497 14.1349 -0.358121 -0.907668 -0.218834
-12.0651 11.0361 -4.50896 -0.359965 0.563015 0.743935
-5.04411 -8.60727 4.61263 -0.859216 0.270007 0.434563
9.54772 8.4039 -3.23004 0.838467 -0.0367749 0.54371
-5.96083 -1.91017 -5.71874 0.911765 -0.140764 -0.385836
9.74498 10.4254 -11.7617 0.19634 -0.240843 -0.950497
-11.7563 13.3826 -6.99158 -0.225492 0.64822 0.727299
-4.33399 -4.72877 -5.19276 0.834604 -0.158445 -0.527571
-9.93443 4.98116 -7.66801 -0.99533 -0.0462188 0.0847455
2.71029 -0.613589 7.46197 0.988708 -0.0198746 0.14853
-6.45224 -16.0825 7.11646 -0.888954 0.214123 0.40486
-2.02127 1.93383 -4.95462 0.962407 0.148291 -0.227559
2.86943 2.94028 12.4183 0.22731 0.891401 0.39209
7.90052 -0.513377 -9.04938 0.389442 -0.276549 -0.878553
7.97739 6.40975 -10.1871 -0.786511 -0.148102 -0.599555
-4.71453 -2.36846 -0.306593 -0.612824 0.468746 0.636179
4.5885 1.69771 9.03786 0.980684 -0.0284804 -0.193513
6.11396 -3.53947 1.34232 0.940823 0.197011 0.27575
4.97158 7.35973 -6.79204 -0.994238 0.0618936 -0.0875191
5.08328 -13.4762 0.582446 -0.861696 -0.3721 -0.344996
4.69354 -7.8573 11.3481 0.989639 0.141893 0.0219546
9.4375 6.20787 -3.36519 0.774322 -0.411508 0.480715
7.18842 -16.0457 9.57144 0.941676 -0.115417 0.316109
6.98133 2.51075 0.123104 0.397239 -0.794513 -0.459294
-3.55321 -19.9862 6.53081 0.690502 -0.667619 -0.278374
8.627 -14.6341 9.79153 0.823027 0.305022 0.479154
4.59094 -1.23107 -7.29874 -0.00773214 -0.309248 -0.95095
-0.959321 -4.80732 12.2812 0.984037 0.0605983 0.167329
-3.14091 -19.358 8.70936 0.596811 -0.748896 -0.288048
13.3975 14.49 -7.93143 0.993589 -0.106606 0.0376227
2.97123 -19.9908 15.2253 0.983379 -0.169891 0.0640511
-8.79254 6.75494 -1.69343 0.295552 0.571257 0.765712
13.3189 15.7051 -11.4411 0.961284 -0.218171 -0.168328
9.57892 -12.6383 -0.609797 0.537259 -0.321672 -0.779667
-5.22527 -18.4745 18.0251 -0.9585 -0.284181 0.0227716
-4.19107 -17.138 10.0054 -0.894311 -0.00828471 0.44737
3.04076 -0.830788 15.6187 -0.916622 0.172426 0.360658
9.51105 -13.6952 -1.31709 0.806081 -0.369895 -0.461965
6.59782 3.92727 -7.94554 -0.0451818 -0.133044 -0.99008
-2.02733 -13.5042 16.3636 0.992251 0.0893758 0.0863129
7.40167 -19.8088 4.39155 -0.546322 -0.83712 -0.0276064
5.17002 -7.41619 17.7629 0.991655 0.110175 0.0669412
13.3029 21.1498 -13.1876 0.141995 0.710076 -0.689659
-1.08836 -9.60689 14.6154 0.959052 -0.21312 0.186545
3.70739 -4.89834 5.96523 -0.644314 0.00149134 -0.764759
7.7353 14.7854 -8.5505 -0.587498 0.615498 0.525365
10.6648 -12.7462 1.77008 0.976861 0.0733011 0.200919
10.8465 5.0608 1.3003 0.608524 -0.482791 0.62977
8.9665 12.869 -11.0147 -0.680583 0.0358237 -0.731794
11.0105 13.8691 -7.8198 0.981757 0.118598 0.14862
-9.43245 -16.3251 2.59259 -0.997588 -0.0638901 -0.0271239
-4.55777 -14.9407 21.1657 -0.723205 -0.0337432 0.689809
-2.19737 -14.3188 19.4919 0.934051 -0.0336973 0.355546
5.66589 -14.72 13.7716 0.978832 0.177595 -0.101724
4.23408 -10.5197 -2.24009 -0.77098 -0.341882 -0.537315
10.2842 5.51233 -1.09945 -0.0457853 -0.790947 -0.610169
-9.69084 -13.2317 2.79031 -0.815713 0.323257 0.479705
-5.16372 9.33027 -11.7341 0.716396 -0.0785743 -0.693256
6.64183 4.41929 -0.173924 0.981126 -0.179653 0.0715273
-6.18426 7.50549 -4.83262 0.641875 0.515652 0.567538
-8.47737 -9.35642 1.83178 -0.760581 0.347433 0.548458
-9.6298 16.4163 -11.6165 -0.257901 -0.527631 -0.809378
10.2506 -7.04228 -2.83275 0.786388 -0.197714 -0.585237
-11.6225 19.4002 -15.066 0.235736 0.954191 -0.184249
7.96536 -3.05128 0.532291 0.787729 0.220511 0.575203
4.44705 -20.6062 16.1843 0.960732 -0.274904 0.037705
-6.73459 3.23281 -0.327359 -0.414813 -0.637504 0.649246
2.72648 -14.6509 7.17285 -0.985512 -0.165842 -0.0355289
5.28299 -12.8001 18.3527 0.950001 0.264974 -0.165187
9.2909 -8.41218 2.39356 0.775279 0.369561 0.512217
-9.81005 4.3342 -10.4049 -0.525117 -0.0569044 -0.849125
2.61475 -0.550723 9.8167 0.986421 -0.148772 -0.0695768
-2.75206 -13.4339 6.47689 0.985058 -0.118163 -0.12529
-8.66465 17.3275 -7.70262 0.603355 0.597789 0.527836
-12.7758 11.2277 -7.83408 -0.995442 -0.0822538 0.0482715
4.37555 6.73167 -3.0596 -0.90477 0.185381 0.383438
3.71882 0.615054 0.662901 -0.992771 0.0939454 0.0747044
-1.58863 -0.422951 10.4766 -0.987407 -0.0591391 -0.146733
4.86229 -16.537 20.8259 0.559342 -0.520607 0.645062
-7.25897 -18.4713 8.44765 -0.795059 -0.507078 0.332796
-3.64817 -17.3563 13.8858 -0.968183 -0.0624869 0.242316
4.22565 -6.68362 14.3424 0.997349 -0.0231623 0.0689836
-4.07823 -16.871 14.9074 -0.952428 0.302548 0.0366775
5.15738 -20.2157 4.60008 -0.509651 -0.836348 -0.201936
3.2469 -7.58407 -5.14304 -0.941205 -0.226118 -0.251007
-7.57814 2.40559 -9.26323 0.259044 -0.272165 -0.926727
3.8828 1.21194 -5.00775 -0.972025 0.00989851 -0.234668
2.16438 1.21805 15.3938 -0.667804 0.575603 0.471932
10.0431 5.06826 -0.809622 -0.161399 -0.935454 -0.314445
-2.69275 -20.3512 16.5968 0.698243 -0.677829 0.230227
10.7073 4.35888 -1.308 0.969404 -0.223142 -0.102291
1.91939 -17.1477 14.7405 -0.989115 -0.111097 -0.0964875
6.91434 -6.30269 -4.88708 0.771988 -0.273638 -0.573722
-6.187 -6.85253 -4.5003 0.264453 -0.427384 -0.864527
-1.66505 -2.50043 8.85234 0.919504 -0.10032 -0.380063
4.94693 -13.9157 14.777 0.972076 0.22809 -0.0551694
5.10636 -12.4213 15.5078 0.980934 0.113535 -0.157727
-2.62556 1.77982 13.5036 -0.961507 0.223375 0.160021
-2.26268 -2.98729 12.0953 -0.987048 -0.14284 -0.0730249
7.16409 7.99897 -0.901401 -0.508949 0.541147 0.669425
-12.6897 20.3838 -11.9751 0.201127 0.928939 0.310839
-6.26046 -0.745528 -3.75455 0.9976 0.0245741 -0.0647403
10.0083 6.13832 -3.47943 0.525647 0.317602 0.789192
-8.11847 -11.1711 -0.533953 -0.202776 -0.37415 -0.904928
-6.66232 7.18034 -10.7142 0.66586 -0.0867449 -0.741017
9.92361 4.65802 -4.8356 0.545374 0.330909 0.770108
4.86763 -5.59469 4.58773 0.648242 -0.625827 0.43373
-6.95485 8.7942 -3.33947 -0.0080639 0.640699 0.76775
11.7773 18.1268 -11.4922 0.65309 0.545929 0.524819
8.70895 -14.919 7.46237 0.863248 0.177884 0.472398
12.323 4.93199 -2.27441 0.955812 -0.257013 0.142715
8.26844 -9.71632 -4.79926 0.53464 -0.394177 -0.747519
-0.418242 -15.4412 17.6833 0.999633 -0.0249751 0.0104629
5.26455 -12.8445 -3.24692 -0.6793 -0.471728 -0.56216
-4.95562 -10.7662 -2.51127 0.789112 -0.316156 -0.526637
-8.4945 17.6475 -13.205 0.676674 0.0985995 -0.729651
5.79326 -18.2076 3.779 -0.133523 -0.988498 -0.0710124
5.01981 -20.746 15.748 -0.955132 -0.282133 0.0901366
-6.42339 2.50101 -1.10114 -0.831534 -0.264872 0.488256
-5.48805 -0.911721 -6.88506 0.79983 -0.10601 -0.590791
7.36749 13.4784 -12.2068 -0.86332 0.133646 -0.486639
-8.43616 -3.77074 -5.32361 -0.621569 -0.274219 -0.733795
-11.9817 13.1486 -10.0317 -0.871224 -0.369821 -0.322801
-8.68224 -7.83732 1.63449 -0.902917 0.0524523 0.426602
2.3485 2.28962 1.63621 -0.93701 0.194639 -0.290049
4.23075 1.80592 12.2011 0.407869 0.908609 0.0898471
-9.6393 10.8872 -1.82992 -0.11121 0.692344 0.712946
9.77216 1.27456 -2.41246 0.498048 0.0386587 0.866287
-3.77738 -9.49154 11.562 -0.992417 0.0901263 -0.0835766
4.12229 -6.18455 -4.89525 -0.937687 -0.177918 -0.298476
4.3612 0.55344 12.4879 0.858961 0.321744 0.398329
-3.06339 -12.4122 8.13523 0.972414 -0.109406 -0.206014
-3.04486 -19.758 16.1908 -0.441582 -0.755321 0.484247
7.75918 -18.1153 8.36084 0.954448 -0.256738 0.152037
6.40558 -0.467069 -8.29993 -0.575918 -0.253843 -0.777098
5.44897 -13.987 21.1702 0.999784 0.0197779 0.00631948
-2.40524 -10.4616 -0.0342669 0.996716 -0.0672176 -0.0451449
10.0083 8.20215 -2.02183 0.390027 0.514187 0.763866
-9.16095 -3.33227 -2.25088 -0.92419 0.0543596 0.378044
-7.07881 -9.3423 1.21418 -0.922891 0.104013 0.370746
12.6376 15.1981 -11.5229 0.895034 -0.338577 -0.29031
-5.3699 -17.2977 19.7784 -0.943511 -0.320797 0.0829228
5.44786 7.15286 -6.89755 -0.933029 0.23799 0.269847
3.79111 -6.84931 17.7373 -0.37944 0.449907 0.808461
2.8027 -12.83 21.4363 -0.953556 -0.122473 0.275192
5.42106 -13.1325 17.155 0.991147 0.128449 0.0336078
11.915 9.10004 -4.55076 0.470538 -0.719554 -0.510721
-5.67288 7.98518 -1.13805 0.73549 0.409563 0.539735
-4.20187 2.14629 0.0424806 -0.87494 -0.0840576 0.476879
5.40825 -6.83621 -3.12377 -0.943111 -0.0817427 -0.322274
-9.22038 4.88308 -4.38482 -0.934439 -0.201373 0.293722
-2.48702 -14.3396 13.7869 0.997313 -0.059848 -0.0422477
9.358 18.5418 -14.5052 -0.497827 0.684737 -0.532262
-1.00034 -13.2423 15.4895 0.999161 0.0196359 -0.0359519
-0.309574 -2.90931 9.72659 0.950264 -0.103763 -0.293653
-2.78955 -5.91234 14.56 -0.948559 0.198082 -0.246982
10.0566 7.84244 -5.46623 0.70586 0.0830213 0.703469
2.66307 -15.8339 7.99616 -0.935198 -0.27649 -0.221266
-9.56614 -10.9842 -0.590705 -0.995209 -0.0962604 0.0171381
11.6125 4.66364 -5.01794 0.993028 -0.0693405 -0.0953326
-12.3366 7.27939 -8.95633 -0.982006 -0.155902 -0.10658
-6.03627 9.34814 -11.7875 0.903808 0.0964698 -0.416922
-3.66647 -4.62229 17.8013 0.745075 0.453635 0.488957
6.96025 -12.8997 6.51175 0.878739 0.254948 0.40351
6.08758 -8.95259 -4.85532 -0.659975 -0.365967 -0.656126
6.23448 3.39294 3.19167 0.833649 0.533297 0.143605
9.32344 -15.6569 6.16415 0.91704 0.173654 0.359
-8.04303 -5.95103 -6.97876 -0.321468 -0.341691 -0.883123
4.30087 -0.09395 3.48064 0.946779 0.0482223 0.318251
-4.20965 -14.623 1.26715 0.721479 -0.487552 -0.491692
-4.58879 -20.6464 9.58805 0.670748 -0.639113 -0.376341
-11.5104 19.4077 -9.99708 -0.379354 0.835323 0.397902
-9.35943 -9.41002 -3.25241 -0.475211 -0.422272 -0.77192
-9.36778 -9.48056 0.342962 -0.921258 -0.042743 0.386597
-3.02223 -4.38366 3.71277 0.954236 0.0339022 -0.297127
11.9382 20.3889 -13.2003 0.358815 0.764271 -0.535856
-1.74861 -2.70967 6.92137 0.963871 0.105388 -0.244635
6.22377 7.54262 -6.85524 -0.980958 0.191703 -0.0311548
6.17601 -14.9616 12.5426 0.932721 0.306806 0.189479
8.53587 -2.54875 -1.21303 0.668975 0.0947218 0.737224
4.10873 -18.3552 8.67161 -0.898559 -0.343221 -0.273481
-12.1838 10.8538 -5.92254 -0.39077 -0.743104 -0.543227
-12.6019 18.4035 -13.8002 -0.940233 0.327023 0.0949623
10.6972 9.87631 -5.89451 0.609943 -0.565452 -0.555188
9.51077 6.74828 -8.8015 0.639032 -0.270804 -0.719933
-1.68017 -2.98333 13.523 -0.955829 -0.187307 -0.22651
8.39726 6.91888 -1.029 -0.386767 0.598062 0.70195
-8.70814 -13.8055 -0.768281 -0.844313 -0.400101 -0.356446
-4.9978 -14.6998 13.8072 -0.985106 0.164944 -0.0485741
-4.41185 -2.05282 16.0987 0.416456 0.153522 0.8961
6.36645 2.91783 -7.39457 -0.569417 -0.113725 -0.814145
-1.40253 -11.0447 6.35208 0.948563 -0.146734 -0.280532
-5.79594 -9.32732 -0.924146 0.98407 -0.0925731 -0.151778
10.6929 15.512 -9.5496 -0.0897878 0.696034 0.712372
14.5045 15.9638 -8.23699 0.890221 0.334275 0.309462
-9.53296 18.6651 -14.1214 0.523816 0.727156 -0.44369
3.33547 -9.08196 12.3369 0.996052 0.0593035 0.0660521
7.35474 3.93852 -7.43353 0.252972 -0.318642 -0.913495
-8.68016 19.4368 -13.1062 0.582817 0.810853 0.0533096
5.11603 8.36387 -2.22972 -0.580391 0.595678 0.555261
-10.6435 0.177707 -5.09109 -0.999525 -0.0215139 0.0220823
-9.43285 -6.22726 -6.22857 -0.624714 -0.384705 -0.67951
-0.746052 2.08872 9.08917 0.951488 0.300498 0.0661141
8.94945 -6.53022 2.02176 0.714045 0.435722 0.547984
-2.97957 1.29921 -5.25439 0.991883 0.0859417 -0.0937134
-12.2982 10.1365 -5.62304 -0.347518 -0.788125 -0.508027
-7.43001 -17.564 6.79029 -0.925129 -0.0663382 0.373811
-2.39786 -10.8519 17.6458 0.968624 0.0229524 0.247469
-0.55879 -1.40133 11.225 0.974198 0.224106 0.0267409
12.4668 10.8464 -5.34793 0.470075 0.600771 0.646609
14.0288 18.2651 -9.37534 0.99746 0.0689488 0.0178518
4.23329 -11.7281 -0.682926 -0.890604 -0.324937 -0.318183
5.09868 -16.5634 20.8602 0.884629 -0.406611 0.228253
-4.63785 -1.80765 6.1902 -0.907752 0.0690897 0.413779
-1.92711 1.21204 8.62925 -0.991959 0.12052 0.038625
-3.10145 -20.624 14.9176 0.661844 -0.671978 0.332276
2.29128 -12.5613 17.4487 -0.94497 0.00140514 0.327155
4.632 2.17075 -7.93089 -0.805506 0.00527287 -0.592565
