ply
format ascii 1.0
comment created by cisstICP
element vertex 300
property float32 x
property float32 y
property float32 z
property float32 nx
property float32 ny
property float32 nz
end_header
-13.746 20.8551 -17.3588 -0.295479 -0.370277 -0.880674
-12.9917 12.5099 -7.97014 -0.994598 -0.0862212 -0.0577943
9.33371 14.2444 -6.35056 -0.423605 0.663441 0.616769
11.2878 19.8731 -11.8033 0.993836 -0.00648991 -0.110674
-6.83398 13.2556 -7.36971 0.817533 0.500057 0.285626
-7.50207 -12.5482 2.81164 -0.809206 0.298333 0.506145
-3.55306 -15.1008 1.29451 0.643831 -0.689718 -0.331317
3.72086 1.66431 -5.12987 -0.968792 -0.186742 -0.163004
-9.22917 17.3164 -13.1983 -0.514898 -0.534906 -0.669892
-4.00983 -1.41009 5.29917 -0.993467 0.0319007 0.109572
3.65743 0.516441 14.47 -0.868138 0.158113 0.470465
-4.67741 -12.1781 16.0855 0.965044 0.123155 0.231349
-6.88397 13.9306 -8.79208 0.810936 0.503734 0.297716
5.42573 -7.11486 -2.16098 -0.958603 -0.140129 -0.247878
2.06848 -5.02148 -3.59359 -0.9986 -0.0464186 -0.0253665
3.33679 -0.824991 2.94533 -0.952648 -0.0509906 -0.299768
4.42608 -13.7423 5.03473 -0.960724 -0.277191 -0.0132198
7.02001 0.951902 -7.56046 0.449555 -0.425738 -0.785269
-9.47825 6.75652 -11.2466 -0.894439 -0.0985322 -0.436199
8.74355 13.6282 -12.3721 -0.857571 0.207927 -0.470466
7.79807 -1.74646 -2.0264 0.690126 0.322918 0.64765
8.38304 18.1449 -12.0617 -0.75806 -0.153505 -0.633862
-7.99823 21.382 -13.0242 0.685776 0.681198 0.256283
8.31683 10.9606 -5.24056 -0.350496 0.615025 0.706326
12.5412 22.5861 -13.9158 0.40368 0.741015 -0.5366
-1.44583 -9.53438 6.72367 0.922478 -0.272436 -0.27352
-8.97331 4.55445 -3.17755 -0.840757 -0.436122 0.320819
5.71688 -13.2707 -2.60134 -0.227913 -0.825943 -0.515629
-10.9695 12.1759 -10.4719 -0.758976 -0.206312 -0.617568
5.15547 -17.5376 11.5037 -0.769323 -0.480786 -0.420698
7.89546 -14.8454 1.64995 0.60012 -0.642849 -0.476027
11.6693 7.16476 -4.30397 -0.299053 -0.555017 -0.776224
5.27705 -13.2135 19.2777 -0.761605 -0.213356 0.611913
5.86912 -19.9949 9.25211 -0.771667 -0.390382 -0.502128
-13.9664 13.9299 -13.3872 -0.801548 -0.516681 -0.300934
-3.60128 -5.9353 -3.37445 0.997068 -0.00400403 -0.0764207
4.91787 -20.3567 11.4101 -0.365079 -0.917735 -0.15646
-10.1332 13.1493 -8.19338 0.0101995 0.680785 0.732412
9.37773 8.33728 -6.7714 0.858593 -0.0495933 0.510254
-7.04253 5.81591 -1.88979 -0.615232 -0.764061 0.194165
-11.6822 8.40403 -6.68434 -0.748757 0.215188 0.626943
-9.07578 21.7967 -14.7156 0.782048 0.409198 0.470062
5.98422 17.4095 -12.5676 -0.849775 0.133909 -0.509853
-5.86562 0.79059 2.50617 -0.977536 0.138783 0.158625
-11.1945 19.5145 -9.81697 -0.569412 0.591419 0.570958
-14.2211 12.3985 -9.01117 -0.990886 -0.123804 -0.0530742
-5.28844 -13.7739 9.97629 -0.951919 0.299541 0.064233
5.4418 -10.72 16.2023 0.991113 -0.00172362 0.13301
9.44441 16.347 -8.28743 -0.302496 0.634283 0.711464
-4.74647 8.94461 -2.49706 0.711401 0.485926 0.507725
10.7199 12.2602 -12.2696 0.674876 -0.334969 -0.657524
3.44561 -3.10236 15.11 -0.757882 0.420343 0.498926
-5.58706 -16.0238 3.03184 0.749646 -0.557658 -0.35644
4.0455 -1.35952 13.1806 0.946221 0.0339897 -0.321729
-12.5677 1.50507 -8.65288 -0.729245 -0.184032 -0.659041
3.09917 -8.43768 -4.51788 -0.911931 -0.190934 -0.363216
-11.9489 17.158 -9.20443 -0.63317 0.573053 0.520294
-11.0342 2.35731 -3.51703 -0.864933 0.00445111 0.501867
-4.71768 -13.4042 7.42886 0.968767 -0.0765435 -0.235865
3.24446 -8.84326 0.694731 -0.982827 -0.143487 -0.116032
7.79424 2.37495 -9.15335 0.413893 -0.320732 -0.851953
8.12981 6.46996 -4.16605 0.244679 -0.820597 -0.516481
-2.72662 5.37601 -5.26552 0.999517 -0.0242088 -0.0194671
-5.74695 7.76193 -4.10213 0.640226 0.606738 0.471147
-7.14689 -8.89562 -3.06591 -0.468535 -0.299223 -0.831228
10.8103 11.0796 -11.4757 0.909611 -0.23252 -0.344299
7.38726 -10.8284 -2.92442 0.299026 -0.526076 -0.796133
2.74501 3.71473 14.6821 -0.576187 0.332784 0.746501
-4.73833 0.361097 6.68458 -0.99303 0.0374941 0.11174
-1.87537 2.29089 6.25499 0.97888 0.103734 -0.176165
12.5859 15.9852 -10.9908 0.880283 -0.420014 -0.22066
5.09764 2.15593 -2.14116 0.958038 0.136844 0.251865
9.97525 20.2789 -12.1175 -0.366079 0.888071 0.278056
-2.2909 -7.57421 0.591741 0.99695 -0.0620649 -0.0473218
-12.4875 20.2343 -12.883 -0.58443 0.731096 0.352053
3.06101 -10.9247 12.4606 -0.999883 -0.00675065 0.0137576
-9.88192 20.7964 -12.4385 0.625299 0.775486 0.0873123
5.15769 5.39255 0.08602 -0.816267 0.575184 -0.0535786
-9.54647 21.3318 -16.8122 -0.288177 -0.473724 -0.83219
-5.22473 -2.57078 10.7348 -0.993932 0.104122 0.0354673
-5.35799 -4.44231 -5.12898 0.835891 -0.280235 -0.47197
0.494755 -1.31748 10.5956 0.989756 0.135883 0.0437991
5.23231 -17.9594 12.663 -0.352894 -0.910393 -0.215986
-12.2656 12.9697 -6.06019 -0.362834 0.563037 0.742523
-5.12354 -6.60543 3.11389 -0.860533 0.266197 0.434307
9.36307 10.4686 -4.78693 0.838994 -0.0302574 0.543299
-6.08589 0.0561808 -7.23625 0.912349 -0.136506 -0.385987
9.54331 12.4666 -13.3246 0.197189 -0.242435 -0.949917
-11.9722 15.3108 -8.54978 -0.228875 0.648984 0.725559
-4.44215 -2.75125 -6.70312 0.835209 -0.155052 -0.527623
-10.1012 6.9183 -9.20301 -0.99499 -0.0518379 0.08549
2.5853 1.44203 5.93532 0.988897 -0.0136171 0.14798
-6.48608 -14.0815 5.64021 -0.889959 0.210052 0.404785
-2.1686 3.92553 -6.48568 0.96138 0.153301 -0.228578
2.72645 5.01112 10.8812 0.222285 0.893858 0.389369
7.76499 1.52498 -10.5794 0.390541 -0.276794 -0.877988
7.80036 8.44512 -11.7373 -0.785982 -0.154472 -0.598641
-4.83369 -0.379075 -1.82357 -0.615197 0.466967 0.635196
4.45079 3.76891 7.50336 0.980719 -0.0232611 -0.194032
6.0025 -1.48146 -0.177923 0.93981 0.20335 0.274601
4.79104 9.3872 -8.34309 -0.994638 0.0557795 -0.0870873
5.02997 -11.4263 -0.908402 -0.859693 -0.37817 -0.343388
4.61353 -5.77858 9.84117 0.988798 0.147786 0.0209362
9.26571 8.27161 -4.91566 0.777021 -0.405543 0.481428
7.15559 -13.9573 8.0867 0.942529 -0.108949 0.315864
6.83347 4.5702 -1.41517 0.401641 -0.793486 -0.457236
-3.56445 -17.9698 5.06407 0.694259 -0.664342 -0.276865
8.58594 -12.5366 8.30182 0.8215 0.311254 0.477764
4.46074 0.792875 -8.82469 -0.00647673 -0.312042 -0.950046
-1.05665 -2.75927 10.7689 0.983762 0.066881 0.166549
-3.15456 -17.3329 7.24055 0.601043 -0.746197 -0.286246
13.1741 16.5636 -9.50828 0.994223 -0.100639 0.0373209
2.9651 -17.9107 13.7546 0.984402 -0.163906 0.0639386
-8.96623 8.71607 -3.2343 0.292636 0.575205 0.763874
13.0862 17.7681 -13.0215 0.962453 -0.212989 -0.168286
9.51987 -10.5653 -2.10583 0.53868 -0.320758 -0.779062
-5.23852 -16.4346 16.5549 -0.956795 -0.289758 0.0241825
-4.21701 -15.1154 8.53082 -0.893979 -0.0122586 0.447941
2.92191 1.25041 14.0924 -0.917407 0.168065 0.360721
9.45782 -11.6247 -2.81001 0.807971 -0.366475 -0.461388
6.43679 5.96105 -9.48764 -0.0449878 -0.136176 -0.989663
-2.07094 -11.4505 14.8771 0.991758 0.0954715 0.0854446
7.38792 -17.734 2.91758 -0.541395 -0.840401 -0.0248481
5.09124 -5.31609 16.2544 0.991028 0.116211 0.0660131
13.0371 23.2075 -14.7836 0.137395 0.708899 -0.691798
-1.156 -7.55274 13.1171 0.960403 -0.206923 0.186572
3.60674 -2.84109 4.45038 -0.644768 -0.0045217 -0.764365
7.50989 16.8239 -10.1247 -0.590802 0.613545 0.523942
10.6078 -10.66 0.273689 0.976532 0.0796386 0.200106
10.6843 7.14638 -0.247733 0.611736 -0.47737 0.630791
8.75089 14.9077 -12.5841 -0.681219 0.0296917 -0.731477
10.7909 15.929 -9.39338 0.981129 0.124812 0.147673
-9.46752 -14.3548 1.1189 -0.99721 -0.0698463 -0.0263263
-4.58999 -12.8879 19.6849 -0.722581 -0.0360057 0.690347
-2.2343 -12.2569 18.0079 0.934446 -0.0271618 0.355068
5.62778 -12.6284 12.2839 0.977707 0.183065 -0.102838
4.16167 -8.48298 -3.73896 -0.769272 -0.347975 -0.535849
10.1179 7.58764 -2.64844 -0.0414862 -0.792968 -0.607849
-9.74402 -11.2624 1.30782 -0.817318 0.319833 0.479268
-5.35865 11.2836 -13.2846 0.716432 -0.0763594 -0.693465
6.48254 6.47584 -1.71751 0.982211 -0.17366 0.0714444
-6.3643 9.47289 -6.37724 0.639163 0.521068 0.565649
-8.55399 -7.38286 0.337333 -0.762289 0.344533 0.547917
-9.86636 18.3435 -13.1847 -0.255269 -0.531484 -0.807689
10.1572 -4.97192 -4.34538 0.787191 -0.194771 -0.585146
-11.8787 21.3057 -16.6416 0.229997 0.955026 -0.187154
7.85051 -0.984724 -0.990495 0.786758 0.226815 0.574079
4.44509 -18.5147 14.7144 0.962358 -0.269127 0.0379104
-6.88674 5.21012 -1.8593 -0.41066 -0.638053 0.651342
2.68407 -12.5957 5.68682 -0.984538 -0.171749 -0.0344436
5.2363 -10.6975 16.8597 0.948324 0.270088 -0.166537
9.20874 -6.33231 0.885463 0.773393 0.375606 0.510669
-9.97465 6.26416 -11.9381 -0.52528 -0.0624582 -0.848634
2.4908 1.51115 8.28992 0.987239 -0.143157 -0.0697517
-2.80197 -11.413 4.9907 0.985663 -0.112718 -0.125552
-8.90425 19.2717 -9.27414 0.600136 0.602861 0.525733
-12.9794 13.1474 -9.38542 -0.994911 -0.0879785 0.0491206
4.20095 8.76645 -4.60848 -0.905618 0.181156 0.383456
3.5825 2.65688 -0.867889 -0.993262 0.0883093 0.0750418
-1.71287 1.61606 8.95204 -0.987128 -0.0653819 -0.145954
4.83911 -14.4296 19.344 0.562786 -0.51543 0.646223
-7.27793 -16.4712 6.9788 -0.791857 -0.510788 0.334751
-3.67052 -15.3192 12.4114 -0.967653 -0.0674891 0.24309
4.14052 -4.59901 12.8324 0.997509 -0.0170844 0.0684379
-4.10282 -14.8335 13.432 -0.954173 0.297035 0.0363867
5.14619 -18.1535 3.12868 -0.504833 -0.839918 -0.199202
3.15547 -5.56166 -6.64979 -0.940005 -0.232387 -0.249773
-7.73073 4.35205 -10.7922 0.26009 -0.273318 -0.926094
3.73958 3.23829 -6.54034 -0.972206 0.00348999 -0.234099
2.03333 3.29339 13.8622 -0.670903 0.573022 0.470674
9.87954 7.143 -2.35718 -0.156069 -0.937297 -0.311637
-2.69584 -18.3005 15.1306 0.702364 -0.673033 0.231759
10.5476 6.4361 -2.85391 0.970641 -0.217721 -0.10224
1.89622 -15.0753 13.2621 -0.9885 -0.117204 -0.0955582
6.81544 -4.25796 -6.39979 0.773245 -0.270745 -0.573402
-6.2822 -4.88387 -6.00337 0.266452 -0.428321 -0.863449
-1.77802 -0.46653 7.33383 0.919853 -0.0959998 -0.380336
4.90469 -11.8254 13.2874 0.970681 0.233654 -0.0564262
5.05574 -10.328 14.0139 0.980154 0.118857 -0.158658
-2.76096 3.82144 11.9732 -0.962712 0.218168 0.159965
-2.37082 -0.947511 10.5785 -0.986232 -0.148865 -0.072005
6.98325 10.0564 -2.45567 -0.511731 0.540076 0.668169
-12.9498 22.2919 -13.553 0.195833 0.931004 0.308026
-6.39121 1.22472 -5.27526 0.997398 0.030265 -0.0654238
9.8368 8.2051 -5.03004 0.524237 0.32298 0.787946
-8.18581 -9.20224 -2.02336 -0.201107 -0.377959 -0.903716
-6.84394 9.12789 -12.2575 0.665917 -0.0849661 -0.741171
9.76007 6.72039 -6.38188 0.543874 0.336348 0.768812
4.77025 -3.53458 3.07419 0.652179 -0.620737 0.435142
-7.14158 10.7614 -4.88736 -0.0113823 0.642862 0.765897
11.5304 20.1805 -13.0786 0.650174 0.551287 0.522835
8.66819 -12.8278 5.97344 0.862467 0.184336 0.471351
12.1594 7.01592 -3.82297 0.957396 -0.250961 0.142871
8.1897 -7.66328 -6.30292 0.536508 -0.393184 -0.746703
-0.449667 -13.3741 16.2015 0.999769 -0.0190532 0.0099213
5.20522 -10.8046 -4.73969 -0.676843 -0.47735 -0.560375
-5.02658 -8.78443 -4.00378 0.790648 -0.313025 -0.526205
-8.73928 19.5768 -14.7776 0.675645 0.100471 -0.730349
5.76973 -16.1441 2.30139 -0.127736 -0.98947 -0.0680694
5.01841 -18.6523 14.2781 -0.953398 -0.287494 0.0915392
-6.57169 4.47792 -2.63116 -0.829667 -0.268351 0.489531
-5.6197 1.05401 -8.40574 0.800088 -0.103006 -0.590973
7.14761 15.5041 -13.777 -0.864383 0.127146 -0.486494
-8.54998 -1.81779 -6.83422 -0.62038 -0.280003 -0.732617
-12.198 15.0666 -11.589 -0.869222 -0.375883 -0.321195
-8.76792 -5.86557 0.135772 -0.902956 0.0483661 0.427003
2.20293 4.32616 0.101411 -0.938314 0.188272 -0.290035
4.0943 3.88417 10.6665 0.402559 0.911253 0.0869667
-9.83742 12.8429 -3.38222 -0.114864 0.69374 0.711008
9.63002 3.34314 -3.94886 0.498328 0.0441031 0.865866
-3.84747 -7.46209 10.065 -0.992981 0.0840336 -0.0832276
4.02273 -4.1563 -6.40659 -0.9368 -0.184305 -0.297384
4.2323 2.63332 10.9568 0.857287 0.327953 0.396869
-3.11833 -10.3884 6.64627 0.972919 -0.10427 -0.206294
-3.05168 -17.7106 14.7231 -0.436833 -0.756504 0.486702
7.73781 -16.027 6.88174 0.956035 -0.250667 0.152194
6.27025 1.56465 -9.8292 -0.574876 -0.259483 -0.776007
5.41095 -11.8752 19.6805 0.999654 0.0256877 0.00564827
-2.47657 -8.45767 -1.52924 0.997068 -0.0614731 -0.0455623
9.82559 10.2731 -3.57843 0.387445 0.518688 0.762135
-9.27551 -1.3747 -3.76233 -0.924269 0.0500074 0.378453
-7.15591 -7.36229 -0.281169 -0.923267 0.0996461 0.37101
12.4079 17.2569 -13.1013 0.896841 -0.334136 -0.289878
-5.38904 -15.2536 18.305 -0.941554 -0.32611 0.0844302
5.26846 9.18283 -8.44829 -0.934255 0.233268 0.26973
3.709 -4.75742 16.228 -0.381602 0.450003 0.807389
2.75807 -10.733 19.9449 -0.952653 -0.127293 0.27613
5.37561 -11.0325 15.6628 0.990392 0.134384 0.0326273
11.7254 11.1749 -6.11112 0.474467 -0.718245 -0.508925
-5.85355 9.96628 -2.68439 0.733385 0.415452 0.538095
-4.34744 4.13961 -1.48787 -0.874145 -0.0878302 0.477657
5.31357 -4.79523 -4.63401 -0.942805 -0.0882327 -0.321457
-9.38464 6.83394 -5.92 -0.93306 -0.206025 0.294877
-2.52723 -12.2959 12.3032 0.997623 -0.0540917 -0.0426868
9.10686 20.5725 -16.0913 -0.502173 0.680246 -0.533936
-1.04603 -11.185 14.0017 0.999006 0.0254196 -0.0366221
-0.419627 -0.864884 8.20843 0.950683 -0.0990112 -0.293935
-2.87897 -3.86845 13.052 -0.949857 0.191772 -0.246971
9.87395 9.9037 -7.0218 0.705778 0.0892176 0.702793
2.62813 -13.7767 6.51359 -0.933683 -0.282636 -0.219891
-9.63459 -9.02405 -2.07976 -0.994613 -0.102074 0.0180277
11.4488 6.73544 -6.56527 0.993362 -0.0637631 -0.0957413
-12.5177 9.19858 -10.4965 -0.981133 -0.161995 -0.105525
-6.23132 11.2962 -13.3375 0.902975 0.100586 -0.417754
-3.76154 -2.57421 16.2901 0.742679 0.459433 0.487185
6.90704 -10.8215 5.01806 0.877461 0.26129 0.402231
6.00433 -6.91259 -6.35985 -0.658198 -0.37175 -0.654658
6.08326 5.45687 1.65128 0.830577 0.538615 0.141549
9.28624 -13.5658 4.67698 0.916215 0.180095 0.357933
-8.14499 -4.00052 -8.48329 -0.319976 -0.346137 -0.881932
4.17041 1.95949 1.95153 0.946668 0.054723 0.317529
-4.25564 -12.6258 -0.214673 0.724047 -0.484714 -0.490722
-4.59429 -18.6272 8.12385 0.674279 -0.636236 -0.374902
-11.7636 21.3284 -11.5729 -0.384034 0.834222 0.395716
-9.43875 -7.45639 -4.74614 -0.473175 -0.4273 -0.770403
-9.44454 -7.51656 -1.15057 -0.920759 -0.047051 0.387284
-3.12713 -2.37261 2.20057 0.953842 0.038664 -0.29781
11.6769 22.4386 -14.7933 0.353983 0.764817 -0.538285
-1.86149 -0.681852 5.40353 0.963087 0.110357 -0.245531
6.04209 9.57728 -8.40758 -0.98209 0.185828 -0.0311071
6.13857 -12.8705 11.0553 0.931009 0.312845 0.188017
8.41701 -0.4839 -2.73762 0.668845 0.100798 0.736536
4.08902 -16.2875 7.19544 -0.896683 -0.349301 -0.271934
-12.3841 12.7826 -7.47317 -0.386707 -0.746964 -0.540834
-12.8514 20.3068 -15.3723 -0.942088 0.32175 0.0945928
10.5023 11.9401 -7.45636 0.612934 -0.563454 -0.553924
9.33255 8.79669 -10.3535 0.640188 -0.269118 -0.719538
-1.78749 -0.935978 12.0059 -0.954844 -0.193592 -0.22538
8.22269 8.98325 -2.5809 -0.389867 0.597803 0.700454
-8.76007 -11.8407 -2.2497 -0.842153 -0.406101 -0.354768
-5.03583 -12.671 12.3261 -0.98609 0.158994 -0.0484463
-4.52308 -0.0141262 14.5806 0.416078 0.158569 0.895396
6.21171 4.95187 -8.93361 -0.569222 -0.119437 -0.813462
-1.46662 -9.0163 4.85815 0.949243 -0.141953 -0.280689
-5.87442 -7.34595 -2.42031 0.984508 -0.0872115 -0.152113
10.4626 17.5651 -11.1277 -0.093464 0.697554 0.71041
14.2722 18.0431 -9.81878 0.88842 0.34041 0.307947
-9.78427 20.5856 -15.6963 0.519256 0.728942 -0.446114
3.2633 -7.00836 10.8344 0.995725 0.0653636 0.0652686
7.19394 5.97825 -8.97614 0.2543 -0.319791 -0.912724
-8.93543 21.3652 -14.6838 0.578058 0.814425 0.0506049
4.93229 10.4054 -3.78378 -0.58356 0.593853 0.553891
-10.7804 2.11823 -6.61177 -0.999367 -0.0273399 0.0227583
-9.53271 -4.28276 -7.73145 -0.622841 -0.390347 -0.67801
-0.885941 4.12862 7.55682 0.94974 0.306291 0.0646599
8.85598 -4.45348 0.508428 0.711791 0.441509 0.546282
-3.12333 3.2844 -6.78302 0.991303 0.0915137 -0.0945708
-12.4941 12.0655 -7.17152 -0.343169 -0.791628 -0.50553
-7.4553 -15.5697 5.31893 -0.924499 -0.0707056 0.37457
-2.45633 -8.79666 16.1519 0.968619 0.0293772 0.246807
-0.676833 0.645936 9.70265 0.972876 0.229919 0.025494
12.2665 12.9222 -6.91368 0.466912 0.605402 0.644579
13.7822 20.3382 -10.9635 0.997047 0.0748773 0.0170397
4.16892 -9.68683 -2.17831 -0.888863 -0.3311 -0.316694
5.07567 -14.4545 19.3782 0.887146 -0.400728 0.228885
-4.75644 0.201005 4.67153 -0.907896 0.0649376 0.414135
-2.06209 3.24367 7.10016 -0.992629 0.114783 0.0388852
-3.10393 -18.5806 13.4524 0.665992 -0.6671 0.333813
2.24269 -10.479 15.9569 -0.944766 -0.00321585 0.327729
4.48138 4.19303 -9.4667 -0.805876 -0.00119124 -0.592083
