ply
format ascii 1.0
comment created by cisstICP
element vertex 300
property float32 x
property float32 y
property float32 z
property float32 nx
property float32 ny
property float32 nz
end_header
-3.37989 15.5463 -4.20274 -0.448664 -0.335519 -0.828328
-1.47162 6.93454 4.77248 -0.993638 -0.0468686 0.102409
20.8757 7.77752 2.78774 -0.290683 0.662595 0.690269
22.1589 13.4694 -2.79694 0.961882 -0.0412862 -0.270331
4.72804 7.43006 4.38202 0.872997 0.460993 0.159251
4.63342 -18.5886 14.024 -0.703952 0.315417 0.636368
8.17655 -21.2483 11.8368 0.552726 -0.704704 -0.444844
15.0132 -4.60828 4.65222 -0.98933 -0.145496 -0.00756195
1.59665 11.7306 -0.899907 -0.637934 -0.497188 -0.588085
8.9421 -7.6602 16.133 -0.960636 0.0666849 0.269687
18.0601 -6.26774 23.9768 -0.773657 0.17852 0.607936
9.57238 -18.6749 26.6696 0.993993 0.0803217 0.0743386
4.47777 8.14366 3.00019 0.868593 0.464598 0.17232
16.8065 -13.5208 7.13119 -0.991012 -0.0970877 -0.0920254
13.3526 -11.2646 6.30317 -0.9907 -0.00780895 0.135839
15.8315 -7.29263 12.632 -0.989782 -0.00690652 -0.142418
16.7036 -20.2924 14.2611 -0.961018 -0.240092 0.137115
17.8451 -5.38123 1.70561 0.299039 -0.421701 -0.856005
1.22513 1.14015 0.856811 -0.956344 -0.0530199 -0.287393
19.2981 7.34266 -3.06963 -0.912732 0.252615 -0.321102
19.3913 -8.25171 6.98595 0.798297 0.279361 0.533553
19.181 11.86 -2.61557 -0.856 -0.107913 -0.505588
3.008 15.7406 -0.847033 0.745903 0.647712 0.155236
19.9149 4.50656 3.98255 -0.206185 0.609102 0.765821
23.1677 16.1874 -5.03049 0.342511 0.739012 -0.580127
11.3611 -15.9106 16.962 0.854197 -0.299961 -0.424701
2.93103 -1.29085 8.69221 -0.795541 -0.412186 0.44409
16.766 -19.6695 6.52763 -0.342235 -0.80286 -0.488151
0.105476 6.58995 1.97006 -0.85648 -0.161058 -0.490411
18.3066 -24.2814 20.4499 -0.846414 -0.440022 -0.29994
19.5334 -21.4371 10.3378 0.488268 -0.652422 -0.579603
23.2133 0.562983 4.28826 -0.443066 -0.522673 -0.728358
19.8591 -20.1709 28.1856 -0.661312 -0.200314 0.72287
18.5452 -26.704 18.0643 -0.858073 -0.347484 -0.378109
-3.24618 8.5325 -0.385873 -0.860394 -0.477804 -0.177274
7.75906 -11.9681 7.41983 0.97069 -0.0398261 -0.237011
17.9397 -27.086 20.3402 -0.42346 -0.89879 -0.113394
1.3377 7.47067 4.1018 0.156426 0.660419 0.734423
20.605 1.88607 2.2484 0.92675 -0.0955341 0.363328
5.09493 -0.137849 9.67487 -0.607237 -0.745004 0.276101
-0.144524 2.74961 5.74757 -0.628354 0.226891 0.744105
1.69029 16.2402 -2.333 0.863928 0.366729 0.345163
16.7034 11.2297 -2.74062 -0.914476 0.179415 -0.362691
6.75403 -5.31803 13.7217 -0.932569 0.17156 0.317619
0.295054 13.9121 2.798 -0.44484 0.597387 0.667268
-2.85623 6.89728 3.94238 -0.990784 -0.0846764 0.10572
7.91921 -20.0852 20.7096 -0.915811 0.333655 0.223526
19.6301 -17.6054 25.1742 0.99865 -0.0428275 -0.029379
20.7606 9.92454 0.900559 -0.157224 0.626383 0.763495
7.39161 2.91635 8.76573 0.803532 0.445067 0.395287
21.2064 5.89841 -3.31582 0.545583 -0.342936 -0.764679
17.8034 -9.89147 24.5709 -0.649419 0.435539 0.623347
6.41228 -22.1388 13.8621 0.658525 -0.57614 -0.484157
18.1568 -8.12253 22.6047 0.882621 0.00650509 -0.47004
-1.62238 -4.05665 3.81222 -0.832915 -0.138839 -0.535702
14.0776 -14.692 5.15662 -0.965689 -0.146578 -0.214384
-0.448374 11.5706 3.47786 -0.516636 0.582792 0.627249
0.752574 -3.39851 8.64764 -0.771845 0.0240749 0.635354
8.08707 -19.6707 18.1112 0.914075 -0.107023 -0.391169
15.0436 -15.2397 10.2678 -0.993799 -0.102989 0.0419108
18.4113 -3.9472 0.0368318 0.257512 -0.3137 -0.913937
19.7163 -0.000398164 4.98401 0.123854 -0.81543 -0.56545
8.78855 -0.652313 5.63648 0.981438 -0.0615994 -0.181619
6.09721 1.81509 7.32085 0.732495 0.569412 0.373123
4.18914 -14.7988 8.24003 -0.60838 -0.259274 -0.750101
21.3742 4.69475 -2.57054 0.831773 -0.257738 -0.491655
18.4629 -17.2848 5.98663 0.144675 -0.515934 -0.844323
17.3279 -3.04381 24.3972 -0.434027 0.334671 0.836431
8.52078 -5.89968 17.6529 -0.959623 0.0721988 0.271867
11.3551 -4.06928 16.8035 0.941181 0.0711092 -0.330337
23.4077 9.51498 -2.28271 0.814952 -0.447169 -0.368636
16.8727 -4.248 7.38753 0.990961 0.0937234 0.0959854
20.831 13.9328 -2.88627 -0.279155 0.893707 0.351227
9.62174 -13.7592 11.0881 0.97284 -0.0985855 -0.209434
-1.44381 14.7608 -0.00321763 -0.489087 0.743239 0.456497
16.6713 -17.6212 21.8643 -0.984009 0.0308369 0.175432
1.2205 15.2117 0.0243359 0.662981 0.748636 0.000196904
17.4257 -1.07565 9.63923 -0.789536 0.606954 0.0907776
0.869055 15.8488 -4.33439 -0.437967 -0.440408 -0.783726
8.57135 -8.91644 21.6696 -0.970021 0.140795 0.198082
5.80647 -10.3639 6.00301 0.736525 -0.299248 -0.606615
14.2409 -7.87785 20.6304 0.988679 0.0970292 -0.114448
18.5516 -24.7361 21.5729 -0.420727 -0.890354 -0.17395
-0.42885 7.31611 6.54829 -0.214688 0.556686 0.802502
7.27527 -12.7503 14.0545 -0.767475 0.28715 0.573172
20.9991 3.96354 4.25085 0.913554 -0.0763438 0.399488
4.93683 -5.78719 4.13103 0.831761 -0.160834 -0.531325
19.8849 6.17692 -4.16191 0.0313125 -0.224689 -0.973927
-0.442958 9.70901 4.09093 -0.0817463 0.637905 0.765764
6.52647 -8.66801 4.3351 0.732107 -0.17271 -0.658932
0.946792 1.27168 2.97709 -0.969509 -0.0162736 0.244516
15.6667 -5.07811 15.7486 0.99838 -0.0550177 -0.0144862
6.02695 -20.2331 16.6196 -0.803588 0.232959 0.547701
9.08175 -2.09035 4.31354 0.917548 0.122665 -0.378231
16.7514 -1.64819 20.676 0.319179 0.874234 0.36584
18.1173 -4.75767 -1.38222 0.232123 -0.268239 -0.934969
18.2542 2.18419 -2.39318 -0.877899 -0.108745 -0.466335
7.02534 -6.41179 9.25964 -0.484828 0.473117 0.735597
17.8558 -2.86571 17.0395 0.934821 -0.0553506 -0.350778
17.9296 -7.96745 9.10579 0.979422 0.160252 0.122687
15.8729 3.15023 1.46168 -0.992474 0.0957523 0.0763279
16.4383 -17.8456 8.34569 -0.918792 -0.336118 -0.206994
17.9948 -12.4707 19.1304 0.984548 0.109557 -0.136614
20.7908 1.77594 4.09611 0.826831 -0.447251 0.341053
19.8777 -20.691 16.8257 0.975727 -0.152902 0.15677
18.802 -1.92125 7.87038 0.289302 -0.795861 -0.531892
8.65293 -24.2129 15.5009 0.61228 -0.682701 -0.398789
21.382 -19.3317 16.8343 0.899988 0.26719 0.34443
15.1113 -5.40974 0.869814 -0.172437 -0.28649 -0.942438
12.679 -9.26379 21.0242 0.999665 0.0251013 0.00625937
9.43425 -23.6495 17.5944 0.51544 -0.760685 -0.394564
24.2506 10.0315 -0.903881 0.982178 -0.13924 -0.126248
16.4938 -24.6302 23.0181 0.974144 -0.202767 -0.0996496
3.10239 2.86757 8.7175 0.435591 0.543407 0.717614
23.6483 11.3304 -4.33185 0.913046 -0.24486 -0.326176
20.7086 -17.1244 6.45396 0.392299 -0.320378 -0.862241
8.91722 -22.918 27.1393 -0.951642 -0.253778 0.17313
8.68693 -21.428 19.0834 -0.80987 0.00990273 0.586526
17.3046 -5.49672 23.738 -0.839502 0.193216 0.507843
20.4898 -18.1618 5.74828 0.707103 -0.384615 -0.59336
17.1685 -0.304627 -0.00202173 -0.20946 -0.108308 -0.9718
11.9782 -18.0152 25.0695 0.995677 0.0554899 -0.0744861
19.1167 -24.3366 11.6134 -0.572891 -0.818308 0.0465504
19.5182 -12.1954 25.3895 0.992692 0.0767458 -0.0931279
23.5428 16.8122 -5.95469 0.0535982 0.721115 -0.690739
12.7594 -14.1101 23.262 0.96844 -0.248051 0.0243756
16.2561 -9.35638 14.0332 -0.759097 0.0400428 -0.649744
18.5769 10.5226 -0.58924 -0.472583 0.621536 0.624786
22.1607 -17.3228 8.62344 0.998474 0.0372375 0.0407914
22.8946 0.475375 8.44932 0.684915 -0.516656 0.513768
19.3246 8.62605 -3.25469 -0.788316 0.0747383 -0.610715
21.8927 9.485 -0.416996 0.996444 0.0835663 -0.0107891
2.34736 -20.2741 12.6365 -0.990461 -0.0312391 0.134202
10.2088 -19.4819 30.1924 -0.602803 -0.0266952 0.797443
12.2878 -18.8969 28.1687 0.977483 -0.0719255 0.198378
19.1027 -19.4159 21.2405 0.955144 0.148473 -0.256232
15.2488 -14.798 5.75206 -0.859375 -0.304327 -0.410926
21.9678 1.00077 6.18131 -0.171888 -0.77457 -0.608684
2.23408 -17.1795 12.929 -0.715384 0.337908 0.611591
5.14777 5.5597 -1.73161 0.591553 -0.0852349 -0.801748
18.4867 0.00362138 7.6667 0.972785 -0.212625 -0.0920826
5.19332 3.60746 5.21015 0.743098 0.48139 0.464833
3.41296 -13.3237 11.8556 -0.649033 0.358688 0.670894
1.01336 12.7805 -0.762957 -0.403979 -0.5 -0.766029
21.2095 -11.5023 4.25198 0.673836 -0.209053 -0.708691
-1.4043 15.9067 -3.78881 0.236463 0.9502 -0.202989
19.6417 -7.52001 8.01456 0.877724 0.181627 0.443409
18.0826 -25.3149 23.7133 0.943827 -0.306355 -0.123842
5.2282 -0.749708 9.66771 -0.326616 -0.638912 0.696501
15.1387 -19.0981 15.2094 -0.983523 -0.1333 0.122123
19.5343 -17.5925 25.8565 0.919538 0.238192 -0.312593
21.0602 -12.9627 9.53939 0.860535 0.332434 0.385963
0.603716 0.685329 0.245191 -0.657265 -0.0201509 -0.75339
15.9557 -5.06737 18.0883 0.956271 -0.178633 -0.231596
9.66635 -17.6902 15.4348 0.946997 -0.1467 -0.28579
2.6307 13.5684 2.9577 0.701595 0.565626 0.433396
-1.66095 7.6082 3.38682 -0.976796 -0.0514226 0.207906
15.8667 2.45437 5.22951 -0.82367 0.205248 0.528622
15.6047 -3.72355 8.89912 -0.963645 0.123933 0.236704
11.9216 -4.82046 19.4247 -0.999604 -0.0240175 0.0146335
19.3872 -21.3709 28.2979 0.637546 -0.553224 0.53617
5.36213 -22.6254 18.0212 -0.748192 -0.488995 0.448434
9.84242 -21.7543 22.8194 -0.917818 -0.0370883 0.395264
18.0594 -11.353 22.1815 0.993915 -0.0567171 -0.0944259
9.60078 -21.2795 23.9059 -0.922624 0.331969 0.196369
16.9227 -24.6762 12.1765 -0.564905 -0.81463 -0.131379
13.9096 -11.7651 3.10115 -0.976825 -0.189904 -0.0987356
2.92122 -1.34001 0.974324 0.0958863 -0.258552 -0.961227
14.8701 -2.99961 3.28881 -0.996218 0.0465319 -0.0733825
16.4765 -3.41615 23.6953 -0.561838 0.585497 0.584406
21.7611 0.557982 6.49847 -0.243176 -0.922183 -0.300739
11.1172 -24.8409 25.2851 0.701842 -0.70506 0.101529
22.3104 -0.160456 5.88617 0.931562 -0.251633 -0.262436
15.4788 -21.7443 22.7616 -0.994999 -0.0770567 0.0635497
17.6132 -10.6083 2.78066 0.658808 -0.284726 -0.69635
4.73588 -10.7469 5.28133 0.105787 -0.415278 -0.903523
11.5099 -6.85582 17.7975 0.841759 -0.120805 -0.526164
18.5849 -18.6127 22.3636 0.957802 0.198054 -0.208303
18.9133 -17.1417 23.0854 0.945887 0.0857072 -0.312972
11.4668 -2.65708 22.6188 -0.914426 0.250262 0.318111
11.428 -7.39909 21.0851 -0.99029 -0.10939 0.0857925
19.0108 3.58078 6.92824 -0.374444 0.541354 0.752813
-1.92175 16.8513 -0.548502 0.281542 0.914484 0.29061
5.00038 -4.65986 6.13834 0.974217 -0.0058952 -0.225537
21.3327 1.69083 3.88941 0.657324 0.28203 0.698845
3.31987 -15.0931 9.43084 -0.35964 -0.346168 -0.866503
3.75874 3.43561 -0.520405 0.533698 -0.0906614 -0.840801
20.9774 0.246159 2.53873 0.674162 0.295141 0.677051
17.1528 -10.0571 12.4733 0.6873 -0.656261 0.31135
4.7206 4.88488 6.8315 0.138957 0.622475 0.770205
22.2055 13.8008 -4.08835 0.748319 0.512283 0.421409
21.0759 -19.5645 14.5181 0.934058 0.139022 0.328952
23.7677 0.383058 4.68047 0.956599 -0.290779 -0.0191247
18.8419 -14.0647 2.58614 0.39235 -0.393495 -0.831398
13.71 -20.0332 26.0753 0.986635 -0.0572314 -0.152563
16.0198 -17.1305 4.5497 -0.77758 -0.436427 -0.452659
6.13346 -14.7435 6.97342 0.681809 -0.328861 -0.653443
1.91956 14.0116 -2.49261 0.552765 0.0939243 -0.828027
17.4881 -22.6708 11.2991 -0.178178 -0.981778 -0.0660614
18.5719 -25.4627 23.1873 -0.937348 -0.253416 0.239078
5.38399 -1.47279 8.84066 -0.750432 -0.249451 0.612066
5.24973 -4.77737 2.92146 0.689441 -0.117722 -0.714711
17.5763 9.31407 -4.15996 -0.925399 0.172599 -0.337412
2.49371 -7.57623 4.88976 -0.741421 -0.236904 -0.62783
-1.16534 9.55362 1.12416 -0.924517 -0.334055 -0.183509
3.2328 -11.7947 11.7214 -0.819567 0.0713539 0.568524
14.4701 -2.02918 10.112 -0.964104 0.231302 -0.130399
18.0186 -2.8202 20.2202 0.448953 0.89272 0.0386315
2.39159 7.02694 8.79445 0.0301981 0.678668 0.733824
21.1002 -3.18652 4.89329 0.6327 0.00238508 0.774393
9.61756 -13.8372 20.6887 -0.989041 0.123812 0.0804271
14.8625 -10.4006 3.22842 -0.97933 -0.140742 -0.145275
18.1493 -4.08258 20.4595 0.922941 0.28464 0.259153
9.66381 -16.6982 17.1397 0.921776 -0.135655 -0.363216
10.7253 -24.2274 24.9524 -0.383885 -0.751915 0.535962
20.1714 -22.7489 15.5015 0.956772 -0.290679 -0.00970091
16.7659 -4.68104 -0.399097 -0.702686 -0.216993 -0.677604
20.1118 -18.8497 28.5879 0.987699 -0.0124215 -0.155874
9.06016 -14.5789 9.00812 0.973265 -0.0980451 -0.207705
21.6417 3.7189 5.36434 0.526441 0.483398 0.699418
2.29162 -7.18683 8.04678 -0.848335 0.0750784 0.52411
4.69278 -13.34 11.0193 -0.846476 0.124822 0.517588
22.9452 10.8476 -4.31088 0.823711 -0.360191 -0.437908
9.09995 -21.7785 28.9136 -0.928425 -0.292254 0.229381
16.3182 2.93073 1.27649 -0.868054 0.261381 0.422093
18.1742 -11.5841 25.5984 -0.227459 0.44278 0.867299
17.5861 -17.615 29.3012 -0.900199 -0.0982661 0.424247
19.4649 -17.901 24.6465 0.987444 0.0958015 -0.125603
23.1447 4.6142 2.57569 0.355923 -0.722106 -0.593197
6.3124 3.98387 8.78051 0.827163 0.373035 0.420292
7.7473 -1.92519 9.60156 -0.788676 -0.0671221 0.611134
16.3943 -11.1344 4.75543 -0.985123 -0.0439123 -0.166149
2.17871 1.07391 6.09832 -0.881142 -0.17815 0.438008
11.0784 -18.7748 22.5872 0.974584 -0.0907682 -0.204812
19.3468 14.3635 -6.66027 -0.552818 0.712613 -0.431944
12.8589 -17.7659 24.045 0.980239 -0.0115536 -0.197478
12.9736 -7.32829 18.4324 0.885953 -0.127254 -0.445976
11.2036 -10.3627 23.5499 -0.968403 0.234103 -0.0859732
21.1193 3.43858 1.95199 0.81287 0.0438663 0.580791
15.1675 -20.2974 16.0107 -0.967874 -0.241124 -0.0712735
1.88963 -14.8586 9.61344 -0.9821 -0.0646967 0.176903
22.6137 0.201929 2.0845 0.961432 -0.098873 -0.256656
-1.54925 3.67523 2.13761 -0.991208 -0.121818 0.0516356
4.27927 5.60677 -1.64217 0.827286 0.0771956 -0.556452
10.9089 -9.12142 26.9132 0.829961 0.417954 0.36943
19.2691 -17.4685 13.9005 0.940917 0.217141 0.259854
16.7091 -13.2304 2.89889 -0.769979 -0.329168 -0.546608
18.5932 -1.08767 11.0348 0.864258 0.502802 0.0157569
21.4457 -20.2911 13.1242 0.96861 0.135727 0.208263
2.5364 -9.72865 3.15395 -0.472015 -0.310442 -0.825122
16.6095 -4.51662 11.5717 0.986902 0.010395 0.160984
7.34385 -18.7097 10.5107 0.614694 -0.498773 -0.611046
8.10292 -24.911 18.6734 0.577958 -0.65129 -0.491718
-0.473282 15.7918 1.19379 -0.280151 0.837504 0.469151
1.71859 -13.23 6.98215 -0.608497 -0.388637 -0.691876
2.28957 -13.3844 10.5292 -0.847498 -0.0222419 0.530332
9.27322 -8.57373 12.9138 0.894183 0.0102564 -0.447583
22.1679 16.096 -5.75908 0.294228 0.764719 -0.573267
11.1077 -7.017 15.9023 0.91471 0.0801483 -0.396083
17.104 3.29433 1.19914 -0.965661 0.223714 0.1321
19.3984 -19.6448 19.9408 0.961361 0.272241 0.0408587
19.9397 -6.99529 6.20901 0.78237 0.0559491 0.620295
16.6132 -22.8789 16.397 -0.942552 -0.307754 -0.129934
-0.781089 7.1709 5.16976 -0.499583 -0.717277 -0.485727
-2.20061 14.9125 -2.39874 -0.900301 0.354669 0.252326
21.7538 5.46035 1.4618 0.491665 -0.571551 -0.656959
20.0026 2.44087 -1.26929 0.504133 -0.274209 -0.818938
12.2336 -7.44722 22.3991 -0.98591 -0.151228 -0.0714968
20.1681 2.46502 6.58263 -0.246672 0.593547 0.766065
2.60713 -17.701 9.24831 -0.904494 -0.364386 -0.221616
8.5928 -19.0548 23.0088 -0.973518 0.197517 0.11511
9.98933 -6.49023 25.4007 0.561126 0.119074 0.819121
16.9937 -1.31876 0.561059 -0.697305 -0.0763265 -0.712699
11.0617 -15.3432 15.1352 0.884876 -0.170444 -0.433525
5.61249 -13.3161 8.70151 0.942643 -0.120479 -0.311302
21.3578 11.1774 -2.04249 0.0513622 0.681683 0.729843
25.3451 11.4759 -1.35882 0.939834 0.29824 0.166626
0.783213 15.0831 -3.2097 0.470548 0.720188 -0.509818
16.7721 -13.674 20.3047 0.995083 0.0257939 -0.0956305
17.9982 -0.329625 0.380297 0.0903931 -0.305107 -0.948018
1.81583 15.803 -2.33286 0.61211 0.790291 -0.0275936
16.7891 4.04212 5.95713 -0.461439 0.600804 0.65277
0.494306 -3.56561 5.54855 -0.982909 0.0100135 0.18382
1.27737 -9.97769 4.11495 -0.739653 -0.348474 -0.575743
12.6171 -2.30528 17.9639 0.959686 0.268225 -0.0840086
20.7299 -11.0626 9.26178 0.808276 0.399668 0.432384
8.06571 -2.68675 4.16216 0.966065 0.0562857 -0.252092
-0.870858 6.45078 5.47098 -0.452827 -0.764473 -0.458834
4.95744 -21.6745 16.4302 -0.85422 -0.0453951 0.517925
11.9142 -15.3831 26.4422 0.996098 -0.0138976 0.0871516
13.0237 -5.8486 19.9781 0.973006 0.192087 -0.12791
23.6218 6.36021 1.73084 0.589479 0.570094 0.572282
24.7733 13.8173 -2.36334 0.989014 0.0365151 -0.143238
15.4572 -16.0419 7.26677 -0.941292 -0.288693 -0.175
19.625 -21.4056 28.2928 0.89494 -0.439981 0.0741504
8.17197 -6.00599 15.6666 -0.82582 0.0884334 0.556957
11.3468 -3.13266 17.6864 -0.967741 0.151306 0.201454
10.4328 -25.0611 23.69 0.682665 -0.700436 0.208225
16.4461 -17.2369 25.4551 -0.878936 0.0240231 0.476333
15.17 -1.99712 0.300415 -0.890068 0.0449544 -0.453606
