ply
format ascii 1.0
comment created by cisstICP
element vertex 300
property float32 x
property float32 y
property float32 z
property float32 nx
property float32 ny
property float32 nz
end_header
-13.5914 20.9742 -17.3956 -0.292235 -0.365346 -0.883811
-12.9375 12.5866 -8.03724 -0.992948 -0.101119 -0.061877
9.39273 14.1532 -6.31599 -0.430574 0.656048 0.619844
11.4107 19.7891 -11.7379 0.994942 -0.00140222 -0.100442
-6.77717 13.2854 -7.40769 0.816615 0.495833 0.295447
-7.67497 -12.553 2.66771 -0.805837 0.300769 0.510063
-3.73804 -15.128 1.15718 0.637874 -0.697356 -0.32682
3.68407 1.60928 -5.16933 -0.97683 -0.160184 -0.141931
-9.11807 17.3864 -13.2301 -0.513982 -0.526799 -0.676983
-4.11311 -1.45038 5.21445 -0.990625 0.0458963 0.128668
3.5286 0.384323 14.4254 -0.87025 0.169095 0.46268
-4.90447 -12.2558 15.9549 0.957961 0.111958 0.26415
-6.81621 13.9664 -8.82756 0.816446 0.496104 0.295461
5.31284 -7.19368 -2.22827 -0.958601 -0.126738 -0.254992
1.97694 -5.07041 -3.66676 -0.998917 -0.0447971 -0.0125686
3.24753 -0.909125 2.89417 -0.9553 -0.0484275 -0.291645
4.23464 -13.8421 4.93663 -0.968525 -0.247648 -0.0250858
6.98835 0.882651 -7.58871 0.440193 -0.423811 -0.79159
-9.45169 6.82101 -11.3216 -0.89919 -0.0999651 -0.425986
8.82387 13.5651 -12.3424 -0.858617 0.21669 -0.464567
7.72326 -1.84315 -2.06222 0.696959 0.318598 0.642451
8.49465 18.083 -12.0155 -0.763468 -0.16234 -0.62511
-7.85857 21.4423 -13.0346 0.687759 0.676751 0.262671
8.34744 10.8724 -5.22342 -0.350637 0.608812 0.711619
12.6926 22.5013 -13.8342 0.423344 0.744553 -0.516159
-1.61391 -9.59858 6.6174 0.926795 -0.264989 -0.266141
-8.99714 4.58342 -3.2594 -0.850977 -0.410726 0.327326
5.56144 -13.3496 -2.69195 -0.236561 -0.821407 -0.51897
-10.907 12.2479 -10.5317 -0.751903 -0.200444 -0.628063
4.90897 -17.6682 11.3934 -0.775302 -0.478951 -0.411719
7.7104 -14.9569 1.56223 0.599094 -0.642258 -0.478111
11.6684 7.04878 -4.28776 -0.30867 -0.552678 -0.774125
5.02852 -13.3759 19.185 -0.758613 -0.214013 0.615389
5.61448 -20.1217 9.13512 -0.775948 -0.376725 -0.505948
-13.8788 14.0351 -13.4527 -0.8057 -0.502704 -0.313266
-3.70016 -5.94405 -3.47534 0.997731 -0.00479877 -0.0671521
4.65143 -20.4851 11.2876 -0.363224 -0.919931 -0.147628
-10.0735 13.2062 -8.24578 0.0187895 0.657747 0.753005
9.39591 8.2476 -6.7602 0.848904 -0.0450953 0.52662
-7.06283 5.82577 -1.95844 -0.609173 -0.770544 0.187534
-11.6632 8.46634 -6.76228 -0.741185 0.213378 0.636487
-8.92587 21.8715 -14.7289 0.782585 0.425544 0.454393
6.09276 17.367 -12.5346 -0.847443 0.162886 -0.505281
-5.94101 0.774707 2.42239 -0.975155 0.154148 0.159093
-11.0819 19.5853 -9.84846 -0.576901 0.594776 0.559845
-14.1632 12.4882 -9.08391 -0.991357 -0.122104 -0.0479797
-5.50089 -13.823 9.83675 -0.954367 0.292322 0.0610837
5.22441 -10.8715 16.1204 0.989179 -0.0031678 0.146677
9.52688 16.2625 -8.24397 -0.306798 0.626284 0.71669
-4.74167 8.94016 -2.54347 0.707539 0.49143 0.507823
10.7899 12.1824 -12.237 0.676067 -0.339857 -0.653782
3.28793 -3.23536 15.05 -0.759778 0.412851 0.502286
-5.78605 -16.0432 2.88217 0.741382 -0.56694 -0.359072
3.90863 -1.48928 13.1302 0.948929 0.033465 -0.313711
-12.59 1.58181 -8.76206 -0.719023 -0.182057 -0.670717
2.98688 -8.49029 -4.60029 -0.909091 -0.175192 -0.377969
-11.8559 17.2319 -9.24853 -0.628773 0.57652 0.521795
-11.0724 2.40261 -3.61639 -0.877025 0.00312915 0.480435
-4.91659 -13.4474 7.29326 0.968635 -0.0708775 -0.238166
3.10697 -8.91755 0.61123 -0.983776 -0.133979 -0.119304
7.77963 2.30635 -9.17262 0.422348 -0.326896 -0.845435
8.12343 6.37905 -4.16764 0.234978 -0.805897 -0.543429
-2.73581 5.36803 -5.31754 0.999695 -0.012598 -0.0212463
-5.74379 7.77111 -4.15748 0.630026 0.601042 0.491748
-7.26833 -8.87985 -3.19366 -0.461816 -0.297295 -0.835668
10.8683 10.9981 -11.4474 0.906916 -0.248448 -0.340261
7.25076 -10.9182 -2.9982 0.286046 -0.525456 -0.801295
2.63838 3.58827 14.6463 -0.577132 0.334849 0.744846
-4.83472 0.320534 6.60381 -0.995282 0.0306106 0.0920658
-1.9561 2.23126 6.19408 0.979178 0.0975491 -0.178029
12.6772 15.8887 -10.9354 0.885829 -0.414955 -0.207653
5.05157 2.07909 -2.17287 0.96088 0.106772 0.255558
10.1024 20.2056 -12.056 -0.350462 0.893778 0.279888
-2.41861 -7.60809 0.489808 0.995783 -0.0800349 -0.0448499
-12.3566 20.3266 -12.9171 -0.569606 0.733022 0.37179
2.85821 -11.0441 12.3678 -0.999952 0.000410477 0.00982397
-9.74892 20.868 -12.4593 0.629502 0.771069 0.0958096
5.12547 5.30635 0.0674409 -0.812086 0.580478 -0.0596827
-9.39093 21.4183 -16.8293 -0.292181 -0.470808 -0.832448
-5.35957 -2.62376 10.6402 -0.99357 0.112835 0.00930131
-5.43853 -4.43147 -5.23134 0.847887 -0.272552 -0.454756
0.369355 -1.41132 10.5303 0.989549 0.13239 0.057154
4.97781 -18.0951 12.5513 -0.342571 -0.915783 -0.209732
-12.2163 13.0336 -6.1224 -0.365197 0.5524 0.749323
-5.25493 -6.62884 3.00376 -0.859253 0.276889 0.430135
9.38815 10.3711 -4.76733 0.829204 -0.0382322 0.557637
-6.12494 0.0804805 -7.32372 0.910766 -0.140916 -0.388134
9.6193 12.4015 -13.2961 0.194315 -0.249141 -0.948773
-11.8953 15.3823 -8.60136 -0.237145 0.650756 0.721304
-4.5038 -2.74085 -6.79482 0.835257 -0.168643 -0.523359
-10.0822 6.9792 -9.28012 -0.996412 -0.00900963 0.0841605
2.49966 1.35141 5.88997 0.988812 -0.0194449 0.147892
-6.68218 -14.1048 5.49443 -0.881875 0.240201 0.405709
-2.18307 3.91839 -6.54109 0.968696 0.139208 -0.205548
2.64542 4.89979 10.8506 0.213902 0.892172 0.397839
7.75034 1.46227 -10.6022 0.400533 -0.264787 -0.877189
7.8406 8.3865 -11.7322 -0.772702 -0.168574 -0.611976
-4.89905 -0.385245 -1.90755 -0.609522 0.473649 0.63572
4.37518 3.65852 7.47518 0.979835 -0.00906666 -0.199602
5.92177 -1.57249 -0.220333 0.930333 0.209373 0.301069
4.82368 9.33688 -8.34714 -0.994048 0.0665666 -0.0862387
4.88062 -11.5071 -0.9946 -0.865921 -0.36759 -0.339203
4.45902 -5.89908 9.77555 0.990219 0.136526 0.0287711
9.2755 8.1754 -4.90523 0.766798 -0.413161 0.491242
6.94946 -14.0889 7.99927 0.948367 -0.113915 0.296013
6.80166 4.47785 -1.42989 0.401328 -0.80333 -0.439996
-3.78624 -18.0118 4.91519 0.688879 -0.667322 -0.283069
8.38909 -12.6795 8.22613 0.824997 0.299246 0.479408
4.43343 0.747147 -8.86442 0.00328796 -0.309465 -0.950905
-1.19314 -2.84253 10.6912 0.984047 0.0612349 0.167038
-3.38107 -17.3865 7.09591 0.604354 -0.746197 -0.279188
13.2632 16.457 -9.4481 0.994619 -0.0984975 0.0321257
2.70636 -18.0344 13.6335 0.983572 -0.171876 0.0551793
-8.95978 8.74507 -3.29952 0.299046 0.571405 0.764243
13.1991 17.676 -12.9568 0.963703 -0.21684 -0.155745
9.3817 -10.6738 -2.16951 0.552095 -0.331548 -0.765027
-5.49829 -16.5101 16.4049 -0.958903 -0.283657 0.00666496
-4.43299 -15.1665 8.39049 -0.903211 -0.0301905 0.428134
2.80001 1.12509 14.0476 -0.916434 0.171668 0.361494
9.31501 -11.73 -2.87817 0.80388 -0.376942 -0.4601
6.44954 5.90348 -9.49836 -0.0369525 -0.149159 -0.988123
-2.28767 -11.5424 14.7604 0.993351 0.0646028 0.0952858
7.17662 -17.8468 2.81617 -0.540385 -0.839224 -0.0607276
4.91264 -5.46544 16.1926 0.990744 0.107961 0.0822864
13.1967 23.1226 -14.6974 0.147717 0.703885 -0.694784
-1.33712 -7.64441 13.0198 0.957827 -0.214955 0.190687
3.4965 -2.93307 4.3923 -0.643074 0.00998044 -0.765739
7.60371 16.7607 -10.0875 -0.592635 0.613006 0.5225
10.4587 -10.7858 0.214206 0.975398 0.0971197 0.197906
10.6659 7.02147 -0.23585 0.605805 -0.490996 0.626038
8.84136 14.8453 -12.5493 -0.662516 0.0394654 -0.748008
10.875 15.8392 -9.34586 0.981011 0.128283 0.145469
-9.64616 -14.3386 0.959439 -0.998401 -0.0389341 -0.0409781
-4.83756 -12.9805 19.5517 -0.733605 -0.0413879 0.678314
-2.47023 -12.36 17.8872 0.929908 -0.0350223 0.366122
5.41335 -12.7657 12.1953 0.98017 0.172165 -0.098108
4.04569 -8.54636 -3.81705 -0.769676 -0.348477 -0.534941
10.113 7.47632 -2.63716 -0.0531725 -0.787759 -0.613684
-9.90114 -11.2451 1.15952 -0.818402 0.326194 0.473092
-5.29085 11.3262 -13.3241 0.726578 -0.0817045 -0.682209
6.4658 6.38716 -1.72612 0.981749 -0.172444 0.0802014
-6.33905 9.49548 -6.42834 0.648246 0.512808 0.562854
-8.679 -7.37044 0.20958 -0.755223 0.337553 0.561868
-9.74788 18.4181 -13.2152 -0.237018 -0.537391 -0.809341
10.0689 -5.07639 -4.38401 0.789098 -0.18653 -0.585261
-11.724 21.4084 -16.6688 0.21993 0.959379 -0.176702
7.77677 -1.08592 -1.02307 0.785598 0.229302 0.574679
4.17784 -18.6528 14.5971 0.958046 -0.283517 0.0420332
-6.91154 5.21875 -1.9297 -0.413696 -0.638304 0.649171
2.49818 -12.6856 5.58589 -0.984221 -0.172174 -0.0408207
5.01627 -10.8502 16.777 0.953803 0.265434 -0.140729
9.08834 -6.45057 0.837294 0.779069 0.371948 0.504685
-9.94867 6.33499 -12.0173 -0.518502 -0.0391614 -0.854179
2.39559 1.4119 8.2444 0.988046 -0.141566 -0.061022
-2.97615 -11.4605 4.87121 0.985361 -0.12025 -0.120843
-8.79582 19.3238 -9.29688 0.584571 0.610867 0.533965
-12.9146 13.2297 -9.44989 -0.995937 -0.0756954 0.0487743
4.21317 8.70564 -4.61758 -0.910814 0.202252 0.359879
3.53467 2.58595 -0.904052 -0.994661 0.0914127 0.0478786
-1.81 1.54459 8.88908 -0.988287 -0.0400279 -0.147261
4.58154 -14.5891 19.2446 0.534292 -0.537018 0.652797
-7.49696 -16.494 6.82009 -0.794158 -0.516043 0.320955
-3.90458 -15.3896 12.2725 -0.970242 -0.0644714 0.233395
3.98175 -4.72796 12.7694 0.998639 -0.0181254 0.048905
-4.33772 -14.9048 13.2932 -0.957449 0.287925 0.0197408
4.93103 -18.2509 3.01607 -0.503257 -0.839112 -0.206453
3.07305 -5.60634 -6.72045 -0.942793 -0.217662 -0.252517
-7.72352 4.40218 -10.8695 0.263737 -0.269687 -0.926127
3.72018 3.18865 -6.57342 -0.971725 0.0179551 -0.235434
1.92719 3.17533 13.8218 -0.661267 0.581209 0.474259
9.87023 7.03226 -2.34869 -0.153913 -0.939385 -0.306378
-2.96307 -18.3886 14.9839 0.700489 -0.673496 0.236046
10.5353 6.32252 -2.8454 0.970432 -0.217403 -0.104874
1.66009 -15.1893 13.1478 -0.988638 -0.0983293 -0.113696
6.74123 -4.33015 -6.44972 0.777716 -0.260302 -0.57219
-6.36216 -4.86287 -6.11141 0.263393 -0.438387 -0.859326
-1.88326 -0.531049 7.26232 0.918825 -0.0720657 -0.388029
4.69179 -11.9614 13.1989 0.974888 0.216546 -0.0519727
4.85054 -10.4681 13.9319 0.982709 0.127805 -0.133974
-2.85505 3.74552 11.9146 -0.965579 0.217317 0.142933
-2.49338 -1.02057 10.5025 -0.986872 -0.144324 -0.0724912
6.99548 9.96691 -2.44785 -0.502309 0.553162 0.664603
-12.8011 22.3901 -13.5808 0.192677 0.928687 0.316884
-6.43019 1.24343 -5.3594 0.997786 0.0242509 -0.0619352
9.84657 8.10521 -5.01745 0.523154 0.299968 0.797703
-8.31388 -9.18307 -2.15677 -0.196997 -0.363149 -0.910667
-6.79604 9.17724 -12.3119 0.668084 -0.0766619 -0.740126
9.76491 6.62646 -6.37552 0.546413 0.327027 0.771029
4.66084 -3.62951 3.01831 0.649367 -0.629537 0.426622
-7.11337 10.7836 -4.93665 -0.0102417 0.623354 0.781873
11.6609 20.0999 -13.0109 0.654175 0.535358 0.534273
8.47919 -12.962 5.89698 0.866421 0.18483 0.463846
12.1553 6.89449 -3.80528 0.953247 -0.261438 0.151559
8.09045 -7.74568 -6.3606 0.531987 -0.387962 -0.752646
-0.686001 -13.4829 16.084 0.999804 -0.0197079 -0.0020524
5.07673 -10.8715 -4.8226 -0.6792 -0.468851 -0.564682
-5.14328 -8.78029 -4.12208 0.800313 -0.313732 -0.510951
-8.60513 19.6495 -14.7983 0.679143 0.110392 -0.725657
5.57259 -16.2427 2.19946 -0.119346 -0.98935 -0.0833307
4.75201 -18.7929 14.1628 -0.95913 -0.272042 0.0778603
-6.5985 4.48735 -2.70313 -0.831721 -0.270195 0.48501
-5.64657 1.07954 -8.48723 0.800488 -0.109084 -0.589339
7.24753 15.4581 -13.7465 -0.863863 0.132391 -0.486018
-8.60418 -1.77719 -6.93964 -0.599087 -0.290274 -0.746214
-12.1099 15.1519 -11.6425 -0.870481 -0.368562 -0.326229
-8.88112 -5.85085 0.0131674 -0.90635 0.0435437 0.420278
2.16304 4.26131 0.0660351 -0.942229 0.172173 -0.287334
4.00601 3.76384 10.6372 0.40516 0.910184 0.0860844
-9.80053 12.8786 -3.43468 -0.10281 0.689475 0.716976
9.60009 3.24063 -3.95657 0.491856 0.0326073 0.870066
-4.0148 -7.52221 9.95676 -0.98957 0.0966081 -0.106859
3.94938 -4.20826 -6.46797 -0.934157 -0.184437 -0.305504
4.13374 2.51088 10.9231 0.859848 0.31978 0.397996
-3.29219 -10.4402 6.52949 0.968442 -0.11854 -0.219247
-3.3129 -17.7945 14.5772 -0.458684 -0.746363 0.482236
7.52187 -16.158 6.78855 0.950274 -0.270407 0.154467
6.25273 1.50978 -9.85816 -0.570428 -0.260464 -0.778954
5.17035 -12.0402 19.5938 0.999366 0.0159835 0.0318214
-2.60157 -8.48178 -1.63545 0.99659 -0.0727314 -0.0389743
9.84408 10.1675 -3.55766 0.404715 0.515033 0.75561
-9.33962 -1.34103 -3.8691 -0.921297 0.047293 0.385972
-7.27818 -7.35753 -0.402894 -0.918139 0.107651 0.381355
12.5174 17.1701 -13.0416 0.902349 -0.34386 -0.259859
-5.64775 -15.335 18.159 -0.939712 -0.336026 0.0634701
5.30006 9.12948 -8.45114 -0.927611 0.247929 0.279409
3.53459 -4.89669 16.1625 -0.390119 0.440249 0.808696
2.52468 -10.88 19.8515 -0.95429 -0.137792 0.265225
5.15827 -11.1814 15.5794 0.989372 0.14506 0.0100722
11.7612 11.0655 -6.07864 0.484291 -0.711519 -0.50912
-5.84054 9.97055 -2.73142 0.718963 0.42026 0.5536
-4.38164 4.12844 -1.55177 -0.880006 -0.0794988 0.468262
5.22799 -4.86353 -4.69249 -0.938727 -0.0890656 -0.332955
-9.38028 6.87666 -5.99446 -0.932078 -0.206142 0.297886
-2.73905 -12.3743 12.1812 0.997676 -0.0586129 -0.0347541
9.25318 20.5213 -16.0323 -0.496082 0.677832 -0.54263
-1.25715 -11.2809 13.8904 0.999241 0.00978672 -0.0376934
-0.531527 -0.942677 8.14108 0.954748 -0.0998708 -0.280147
-3.03316 -3.94753 12.9621 -0.944963 0.212447 -0.248819
9.90449 9.81137 -7.00224 0.711362 0.0772049 0.698573
2.43018 -13.8694 6.40769 -0.938769 -0.252265 -0.234679
-9.76108 -8.99418 -2.21861 -0.995521 -0.0943252 0.00639332
11.4545 6.63002 -6.55167 0.992525 -0.0812036 -0.0911069
-12.4766 9.282 -10.5747 -0.980526 -0.157257 -0.117639
-6.16317 11.3453 -13.3806 0.902871 0.0874998 -0.420912
-3.9202 -2.65976 16.2016 0.738994 0.465579 0.486954
6.73666 -10.9393 4.94214 0.877516 0.249268 0.409671
5.91082 -6.97898 -6.42382 -0.658972 -0.375942 -0.651478
6.04478 5.35778 1.63686 0.834411 0.529835 0.151769
9.09743 -13.6994 4.60022 0.916644 0.169819 0.361836
-8.20791 -3.95625 -8.59567 -0.313912 -0.345689 -0.884284
4.10548 1.87317 1.91504 0.948352 0.0515384 0.313006
-4.41628 -12.6421 -0.345085 0.723501 -0.497787 -0.478283
-4.83387 -18.6738 7.96792 0.667036 -0.639671 -0.381948
-11.6304 21.4103 -11.5995 -0.378275 0.832119 0.405569
-9.54254 -7.41743 -4.87785 -0.467452 -0.428357 -0.773304
-9.56413 -7.4918 -1.28262 -0.929813 -0.0392368 0.365936
-3.22414 -2.40698 2.11581 0.952443 0.0311995 -0.303115
11.8311 22.3635 -14.7159 0.353247 0.75768 -0.54876
-1.96003 -0.738119 5.33084 0.96495 0.113918 -0.23642
6.07634 9.51816 -8.40557 -0.980157 0.191201 -0.0522876
5.92763 -13.0066 10.9679 0.934456 0.3031 0.186876
8.35433 -0.582298 -2.76575 0.668074 0.0913595 0.738465
3.86999 -16.3934 7.08572 -0.896638 -0.345268 -0.277182
-12.3301 12.853 -7.5366 -0.378601 -0.746873 -0.546665
-12.7093 20.4116 -15.4076 -0.942612 0.320635 0.0931417
10.5494 11.8448 -7.426 0.61478 -0.560364 -0.555012
9.36936 8.7215 -10.3407 0.642612 -0.269086 -0.717386
-1.91609 -1.01891 11.9324 -0.959717 -0.175641 -0.2193
8.22767 8.88531 -2.5721 -0.388065 0.596546 0.702523
-8.9062 -11.8164 -2.39607 -0.839842 -0.383563 -0.384116
-5.25037 -12.7313 12.192 -0.984767 0.163132 -0.0601742
-4.65592 -0.0874893 14.4991 0.430924 0.152293 0.889444
6.21481 4.89376 -8.94932 -0.578702 -0.126753 -0.805629
-1.62299 -9.07298 4.7539 0.949997 -0.139528 -0.279353
-5.98748 -7.34199 -2.5365 0.983997 -0.0862366 -0.155926
10.5659 17.4845 -11.0751 -0.0643119 0.690765 0.720214
14.3733 17.9297 -9.74803 0.89073 0.327058 0.315647
-9.63888 20.6694 -15.7174 0.522979 0.732602 -0.435647
3.09571 -7.12298 10.7581 0.995408 0.0546662 0.0785844
7.2046 5.91317 -8.98358 0.25764 -0.327589 -0.909015
-8.78876 21.4389 -14.6982 0.572135 0.817886 0.0610359
4.95279 10.336 -3.78325 -0.589389 0.58275 0.559484
-10.8071 2.17395 -6.71095 -0.999523 -0.0144892 0.0272586
-9.60083 -4.23142 -7.85086 -0.624651 -0.384538 -0.679663
-0.959003 4.05661 7.50741 0.953759 0.295817 0.0532467
8.75076 -4.56776 0.466263 0.721401 0.406448 0.560697
-3.14112 3.28537 -6.84505 0.990942 0.0837709 -0.104961
-12.4465 12.1355 -7.23829 -0.356856 -0.785678 -0.505335
-7.66072 -15.5847 5.1631 -0.925479 -0.0676339 0.372712
-2.65934 -8.8909 16.0441 0.968697 0.0300092 0.246424
-0.784207 0.564038 9.64021 0.976087 0.216851 0.0151731
12.3183 12.812 -6.87192 0.462135 0.592342 0.659971
13.9048 20.2328 -10.8857 0.997596 0.0565158 0.0400908
4.03759 -9.7564 -2.2612 -0.894292 -0.317239 -0.315596
4.81777 -14.6158 19.2797 0.878024 -0.414981 0.238463
-4.84538 0.168547 4.59007 -0.916728 0.0614654 0.394755
-2.13954 3.182 7.04224 -0.991842 0.123553 0.0313602
-3.366 -18.6592 13.3029 0.648704 -0.668349 0.363995
2.0282 -10.6064 15.8623 -0.943745 0.00101204 0.330673
4.48134 4.14958 -9.49278 -0.815 -0.000919172 -0.57946
