ply
format ascii 1.0
comment created by cisstICP
element vertex 300
property float32 x
property float32 y
property float32 z
end_header
-8.96721 18.0202 -15.3959
-12.5036 13.6435 -7.89479
6.96928 13.2557 -7.35129
10.8295 20.1328 -14.9666
-5.62019 13.4198 -7.66008
-6.28823 -13.7503 2.13815
-3.70042 -15.4656 -0.470297
2.53076 0.0406879 -7.2437
-10.4435 15.1691 -14.6826
-3.53572 0.52824 5.80753
4.60563 1.63624 15.1159
-2.34377 -13.2504 17.6581
-5.70588 16.2454 -10.2432
5.36564 -7.47795 -5.92547
3.14266 -5.52131 -4.42207
3.76626 1.26077 4.038
1.89411 -12.5874 3.34515
7.76316 0.434477 -9.65301
-9.574 8.06559 -13.2746
5.96389 12.1424 -12.3535
7.50378 -2.57159 -2.2901
8.88862 17.4734 -16.4337
-9.18058 20.0441 -12.181
6.19646 11.5969 -1.40152
13.6278 20.758 -14.5244
-3.65841 -10.2792 7.51627
-7.3413 5.33985 -1.79893
5.52909 -12.4331 -3.89966
-10.4088 9.82754 -11.1619
2.96366 -19.0177 9.15732
8.51323 -15.2045 -2.14829
8.72233 7.12432 -5.50675
5.28902 -13.5022 21.851
3.90613 -19.2581 11.8743
-12.5636 16.3712 -13.1428
-4.95225 -5.24011 -3.6361
2.83001 -19.373 11.0508
-10.7138 16.1105 -7.0219
7.90451 10.3725 -7.80712
-7.6047 4.16348 -3.06313
-10.3586 9.73884 -7.92043
-8.59571 19.1032 -13.4259
8.02272 17.7116 -15.0239
-3.31242 0.379607 -0.587267
-11.5753 19.1903 -8.61916
-13.5209 12.4975 -7.97522
-4.13085 -12.4049 8.17027
4.735 -10.2525 20.1284
9.64006 15.2664 -9.23262
-4.14939 5.96069 -2.24196
8.15533 9.06977 -11.8686
2.47205 -1.09263 15.8901
-5.39714 -16.1064 1.25653
4.33853 -0.927866 12.1185
-10.3796 3.62434 -10.4322
5.34823 -9.32669 -6.07224
-11.5823 17.7007 -7.8917
-7.09866 2.84648 -6.16583
-3.67 -14.4745 7.1898
3.88116 -9.82886 0.00266157
7.79052 3.61455 -10.9754
8.58485 6.38795 -1.63537
-1.93137 1.70986 -6.72424
-5.05994 8.70516 -2.27666
-6.34342 -7.44965 -7.7888
8.59415 11.2203 -12.7003
5.84109 -11.2513 -4.2135
3.86017 1.71612 16.4722
-0.715102 0.132921 5.33319
0.315306 2.081 9.82524
12.06 13.1336 -10.7681
3.97823 0.75807 -0.688693
7.8502 22.1746 -13.7267
-1.42231 -9.75525 -1.40728
-9.98092 21.8466 -14.042
3.3929 -10.787 14.1575
-8.75413 20.5325 -15.0033
2.40235 6.35011 1.45911
-9.63842 19.6462 -15.1123
-5.83238 -2.57159 13.1596
-2.88775 -3.80733 -6.47125
-0.424448 -1.80154 11.74
4.79592 -21.8153 11.1396
-12.9534 13.7886 -6.64163
-2.82568 -7.14614 4.24116
8.79618 9.00775 -5.99717
-4.01038 -1.3275 -8.1337
7.63412 9.46559 -13.1672
-9.02306 18.2233 -9.64159
-3.51248 -3.79019 -6.97873
-12.1183 6.4653 -10.7173
1.60867 1.45368 7.21325
-5.22648 -12.9595 6.91248
-4.87536 6.07876 -6.40647
3.12456 4.7546 11.741
9.2471 0.0366397 -10.3128
6.75372 9.03263 -10.0682
-6.92212 1.84205 -1.30399
4.9633 4.91649 6.98021
5.84347 -1.76168 -0.465092
2.81919 8.80589 -8.12771
4.96009 -12.0988 -1.03672
2.84587 -3.85894 9.83308
7.9666 7.37376 -4.89355
8.20253 -14.3446 7.37258
6.24403 6.6911 -3.79168
-5.54008 -19.3467 5.46545
8.18285 -11.4418 6.72806
5.52846 0.327557 -9.5666
-0.678867 -1.33633 12.6636
-4.73845 -17.7844 6.43095
11.085 14.9336 -9.22035
2.88297 -17.1364 15.5515
-5.47399 10.7715 -2.69746
12.2512 16.4535 -13.5807
8.45117 -11.9465 -4.69237
-3.95936 -15.4302 16.9178
-6.17615 -14.6805 7.19262
3.92425 0.743301 12.5434
6.82832 -12.9324 -1.74135
6.42507 1.56261 -10.7486
-0.887162 -10.089 16.4582
5.22797 -17.8683 2.55195
3.79968 -6.06887 17.2282
11.1805 21.561 -13.7632
-0.174073 -7.43545 10.6167
2.78089 -2.91548 5.0989
7.24174 15.9255 -8.6449
8.74335 -11.7525 -0.405216
9.8457 8.07711 -0.315603
9.67623 16.994 -16.2379
11.1411 16.3235 -7.65309
-8.29459 -14.8568 1.11792
-4.98302 -14.1487 22.0391
-3.00164 -13.0499 19.5419
5.37378 -12.1694 12.2984
3.79615 -10.6745 -4.29955
10.9831 7.38801 -3.91324
-7.67723 -9.7796 1.76896
-6.50705 12.4244 -12.7225
5.35102 6.24625 -2.4091
-4.91095 10.7015 -3.5215
-9.27159 -8.07684 -0.227553
-9.99082 18.1699 -14.4037
8.5725 -6.15856 -5.22866
-10.0532 22.751 -18.3753
7.34995 -1.71537 -2.75208
4.28913 -19.2009 14.5967
-6.33334 6.47725 -0.100119
2.71362 -13.1504 5.70828
4.23746 -8.40234 19.0361
9.92974 -5.23209 1.26227
-8.46398 5.43751 -12.115
4.44647 1.04513 9.17187
-2.48054 -9.47934 6.53382
-10.012 17.1984 -8.42229
-12.9905 15.5127 -7.06757
4.33649 8.0121 -5.40403
4.22327 1.52638 -0.367314
-3.3465 3.35588 7.08062
4.31025 -13.8054 20.3556
-5.03403 -17.2007 3.29763
-4.9273 -15.6879 12.3271
4.79677 -5.98243 11.1203
-5.41215 -12.8386 11.607
4.99043 -16.6964 4.6785
1.97753 -7.76418 -6.06961
-8.73615 3.10803 -12.436
3.85122 4.6276 -9.16117
2.38675 2.46233 14.1404
9.3118 6.68289 -2.7862
-2.81982 -17.5941 15.8191
10.7637 8.57411 -2.5917
1.53923 -14.4278 12.2411
6.8257 -3.90409 -7.52765
-5.78392 -4.65183 -6.10247
-1.59714 0.53472 7.26632
6.73978 -12.1576 12.2486
3.46374 -7.94949 15.0113
-4.89323 3.05274 12.2267
-4.68126 -0.755256 10.6273
6.52492 9.34238 -2.92094
-9.80095 21.6697 -14.2322
-2.57552 3.11878 -6.86206
10.0487 6.23869 -5.33992
-7.77861 -10.5149 -5.7529
-3.96605 10.7386 -10.9542
9.3684 3.81841 -4.37682
4.85979 -1.74032 6.10442
-8.61226 11.7268 -3.36524
11.5449 21.6149 -13.2702
5.83044 -13.7364 5.02402
9.61221 8.62445 -2.59356
8.38041 -10.0365 -5.47379
-2.5042 -14.7453 17.8125
7.2915 -13.0618 -3.78851
-4.79983 -9.5251 -2.44589
-8.31486 19.1353 -14.9863
6.57266 -17.5783 3.45239
2.50879 -18.471 15.5253
-4.44914 5.10508 -1.26573
-4.66575 1.27004 -8.94127
6.57288 14.1191 -12.4505
-7.2591 -3.36749 -6.82001
-10.458 15.8237 -9.89675
-9.56739 -6.94998 -2.6664
3.62729 2.37605 2.35224
2.84644 6.98784 11.1997
-10.2814 12.1298 -5.92383
5.63054 2.97371 -3.94017
-3.19831 -5.69309 11.782
4.05775 -4.0095 -7.66291
3.29859 4.29657 11.0464
-2.4337 -8.76341 4.63968
-1.42568 -18.2342 15.6488
6.84991 -15.7585 7.42072
4.45678 1.06848 -11.1839
5.26794 -12.0869 18.0934
-0.958408 -8.95739 -1.30884
10.8694 10.9806 -1.93552
-9.29568 -1.81776 -2.7256
-6.50374 -9.42297 -1.89936
11.3342 16.6727 -12.8643
-2.47803 -16.4054 18.4093
3.78494 10.9397 -6.27944
4.0532 -1.71491 16.7271
3.02805 -8.73446 20.0121
4.6755 -11.8059 14.6062
11.9937 12.8118 -7.18921
-4.65195 9.41969 -3.07173
-4.01453 0.754837 -1.71771
3.13111 -4.12553 -7.67177
-7.18384 9.63944 -5.95993
-3.33982 -10.9786 10.5802
10.7403 19.2566 -16.9382
-1.82393 -9.1299 14.6009
-1.07828 -0.443567 6.34189
-3.38604 -4.90933 11.8722
10.2399 11.5473 -8.02425
3.85069 -15.2188 7.72671
-9.64241 -9.60181 -3.40841
10.7573 5.19622 -7.92122
-8.78105 11.4083 -11.0391
-6.21936 12.9064 -12.8245
-2.04878 -2.56738 16.7395
5.03566 -12.0954 6.90968
4.96661 -6.6041 -7.76708
5.04209 4.43201 2.95146
8.74874 -11.9932 4.63783
-6.45285 -4.50758 -8.09397
4.45195 2.19296 5.23457
-4.08215 -13.0516 -1.14515
-3.2661 -17.9462 8.68724
-8.20483 20.6507 -13.0405
-6.80033 -7.36045 -8.21519
-8.10281 -9.24699 -0.979251
-2.31306 -1.93263 3.24561
11.0754 21.2426 -15.294
-1.8502 -1.83882 5.2907
6.04731 9.6121 -9.68788
5.30816 -14 10.9709
8.78183 0.79519 -4.34969
3.80385 -13.1849 8.20956
-10.7558 13.1239 -8.45584
-12.4489 20.0659 -14.1056
9.30312 13.7389 -8.03767
9.4401 10.1279 -12.3789
-3.896 -1.8093 15.0612
6.22898 8.37471 -0.510327
-7.76353 -12.6812 -3.3773
-5.61012 -12.9524 14.2732
-3.52425 2.78626 15.3193
7.08061 2.33892 -12.6909
-1.13751 -5.44895 3.8357
-4.22505 -9.7474 -0.579147
8.11913 20.465 -11.4588
11.0874 16.3832 -9.49182
-8.31365 19.4674 -16.3772
4.41627 -5.99611 11.1162
5.94808 5.25152 -12.3296
-8.42801 21.542 -12.0896
5.67745 10.782 -3.0333
-10.4167 -1.04371 -6.62173
-8.47089 -4.29789 -7.06123
-0.719441 4.0217 9.74935
7.41347 -5.10541 -1.71072
-2.3122 3.59985 -5.98872
-10.0613 11.2098 -5.10379
-6.82615 -16.3432 7.55379
-1.7662 -6.99012 18.6491
-1.69263 1.73781 11.4759
10.4297 14.2292 -5.25511
11.9337 18.8984 -12.402
4.71655 -11.5559 -3.19358
4.64483 -12.5726 17.9948
-4.0742 -1.26474 2.16112
-3.50966 3.61175 7.37532
-4.06108 -17.6141 13.4773
2.19259 -11.3944 15.2136
4.73855 3.60762 -8.74088
