ply
format ascii 1.0
comment created by cisstICP
element vertex 300
property float32 x
property float32 y
property float32 z
end_header
1.29815 12.7589 -2.54274
-1.03999 8.16991 5.29326
18.2042 7.18455 2.40706
20.9326 14.2658 -5.50499
5.76681 7.73328 4.3117
5.81698 -19.8015 13.0582
7.8482 -21.4786 9.97526
13.3716 -5.88607 2.79781
-0.135109 9.92459 -1.68876
9.68487 -5.78139 16.718
19.3535 -5.31547 24.4933
12.4114 -20.0861 27.6565
5.33736 10.6686 1.89033
16.1155 -13.5348 3.31918
14.2603 -11.5799 5.26001
16.5906 -5.18927 13.7269
14.1216 -18.9336 12.8576
18.1171 -5.54364 -0.473351
0.705293 2.74451 -0.719763
16.3057 6.31754 -2.38002
19.0302 -8.85459 6.70441
18.6706 11.7304 -6.70782
1.72027 14.6481 0.732957
18.4159 5.29497 8.33439
23.7861 14.7886 -5.53614
9.46564 -16.644 18.0186
4.79509 -0.536903 10.0789
16.4468 -18.5751 5.09942
0.31493 4.43786 1.57038
15.9481 -25.6366 18.1497
19.5864 -21.5062 6.19743
20.0255 0.930486 3.68711
20.6418 -20.7431 30.4371
17.3385 -26.0213 20.649
-1.91033 11.1214 0.241847
6.4405 -11.094 7.45985
16.1323 -26.0689 20.0229
0.963183 10.5432 5.93074
18.94 4.29727 1.68773
4.27339 -1.64953 8.83738
0.923815 4.2084 4.74754
2.04533 13.7447 -0.629253
18.0719 11.9332 -5.16041
8.78906 -5.66141 10.3817
-0.0493234 13.713 4.62449
-2.09695 7.05902 5.34945
9.0365 -18.7809 18.6657
19.9163 -17.4074 28.9601
20.5795 9.19462 0.163634
7.88216 0.00793513 9.10771
18.4342 3.1636 -2.40056
17.2884 -8.01095 25.5268
6.45475 -22.1427 11.9472
18.4766 -7.7393 21.4955
0.243581 -1.78914 2.05252
16.0053 -15.3742 3.10906
0.015604 12.1943 5.28604
4.18463 -2.84625 5.6472
9.24417 -20.8192 17.5434
15.5977 -16.0937 9.32397
18.0308 -2.31184 -1.66091
20.5353 0.0326893 7.49273
9.13145 -4.10981 4.15157
7.08036 2.77704 9.33494
4.2697 -13.0809 3.53529
18.8003 5.33397 -3.21564
16.7426 -17.3907 4.78002
18.8583 -5.27202 25.961
12.3639 -6.23902 15.7432
14.2291 -4.51717 20.055
22.6165 7.05933 -1.84977
15.9603 -5.49428 9.02059
18.2904 16.3395 -3.68794
10.1363 -15.803 8.86727
0.675447 16.5517 -0.890994
17.5394 -17.6448 23.3003
1.66784 15.2446 -2.10034
14.9867 0.0443032 11.6175
0.746273 14.3903 -2.08578
8.58763 -9.12537 24.238
8.03245 -9.60215 4.36255
13.6915 -8.45494 21.9239
17.9931 -28.5697 19.6754
-1.25983 8.27424 6.6103
9.83115 -13.3989 14.7672
20.0819 2.83026 3.26174
6.72969 -7.02107 3.01554
17.7103 3.63011 -3.5724
2.24956 12.7159 3.13611
7.33015 -9.54477 3.97318
-1.41323 1.11152 2.18184
15.0255 -5.06949 17.2355
7.71962 -19.2484 17.5992
6.44906 0.326363 5.14173
17.4241 -2.01251 21.5479
19.4485 -5.95636 -1.39692
17.366 3.09046 -0.385469
5.16566 -4.0636 10.3624
18.4131 -1.70038 16.5482
17.7426 -8.07526 8.82056
13.8225 2.8967 2.20364
16.3961 -18.3477 8.02817
16.5037 -10.524 19.3991
19.3973 1.17552 4.43191
20.9648 -21.0478 15.6511
17.8684 0.497246 5.79196
6.92628 -25.5554 15.9928
20.9397 -18.1206 15.1284
15.929 -5.58818 -0.00138335
13.6184 -8.02257 22.8944
7.93991 -24.0604 16.8606
21.9915 8.81907 -0.0894506
17.0475 -24.0305 24.5249
6.67538 4.87088 9.07022
22.4378 10.49 -4.52694
19.2027 -18.1414 3.82641
10.6132 -22.1834 27.1296
6.77073 -20.951 17.9769
18.2037 -6.07646 22.0483
18.0819 -19.205 6.97707
16.6513 -4.33044 -1.2752
13.7522 -16.9204 26.3387
17.0718 -24.2715 11.2975
18.6453 -13.0771 26.4259
21.5391 15.63 -4.32923
13.5369 -14.0403 20.5653
15.6524 -9.37637 14.7877
18.3454 9.89829 1.18595
20.2416 -18.1407 8.00054
22.067 1.62559 8.63349
19.4622 11.22 -6.67074
22.3696 10.138 1.49443
3.62488 -20.8034 12.3642
10.5417 -21.0936 32.3951
12.0983 -19.9475 29.6324
19.1156 -19.0038 21.0733
14.7363 -16.7506 5.07454
22.5366 1.05856 4.86926
4.5311 -15.7793 13.0856
3.97878 6.98314 -0.551006
17.2133 0.0199005 7.29192
7.08388 4.81979 8.15837
2.67769 -13.9459 11.4635
0.468483 12.8959 -1.38195
19.4407 -12.3419 3.49284
-0.114861 17.6434 -5.10815
18.8299 -7.97513 6.30864
18.1901 -26.0926 23.2627
6.12356 0.496147 11.6163
15.3177 -19.6216 15.0183
19.3047 -15.4981 28.0413
21.9371 -11.7358 9.67615
1.90292 0.0373868 0.129215
18.1434 -5.64546 18.6509
10.4835 -15.8377 16.8757
1.45053 11.6692 4.47062
-1.30723 10.0154 6.26185
15.7595 1.94209 4.58844
16.2853 -4.74806 9.3225
10.1955 -3.01793 18.0426
19.4079 -20.9527 29.1258
7.12642 -23.3341 13.8512
8.85429 -22.2147 22.7727
18.5694 -12.7576 20.2453
8.35629 -19.3241 22.255
17.25 -23.1856 13.4749
12.7456 -13.7145 3.75942
1.49418 -2.26709 -0.225665
14.5059 -1.26192 0.850877
17.0307 -4.38306 23.9524
21.0617 0.355267 6.24426
11.4649 -24.3307 25.7688
22.5935 2.19269 6.25198
15.2494 -21.1435 21.6037
17.4049 -9.94003 1.62035
5.21537 -10.3759 5.20062
11.8462 -5.89486 17.8144
20.4517 -19.0302 20.7858
17.8611 -14.8499 24.2336
9.55555 -3.4963 23.365
9.34729 -7.23659 21.6127
18.3929 3.09918 6.69815
0.813075 16.378 -1.1162
8.52511 -2.67787 4.18106
21.3274 -0.000257421 3.58629
3.09865 -16.1871 5.67541
6.72482 5.14864 0.681567
20.7366 -2.43859 4.56283
17.9158 -8.30741 15.457
3.50589 5.94618 8.99774
21.9853 15.6519 -3.90592
18.2449 -20.2693 13.778
21.4618 2.27703 6.45346
19.0673 -16.1983 3.14101
12.2257 -21.5809 27.7808
18.1776 -19.2598 4.87708
6.64046 -15.4288 8.44482
2.05202 13.8356 -2.21239
18.5621 -24.0603 11.959
16.6259 -25.3511 24.5149
7.72535 -0.879645 10.0888
6.03949 -4.373 2.43226
16.9604 8.27774 -2.50846
3.68598 -9.0189 4.80048
0.705389 10.3729 3.04682
2.00439 -12.707 9.15767
16.202 -3.99891 12.1341
17.138 0.249172 21.147
1.43384 6.50797 6.78738
17.1029 -3.19059 5.6149
10.8266 -12.2611 22.3057
14.6535 -9.95779 1.96757
17.458 -2.44518 20.817
10.227 -15.0427 15.0306
12.7839 -25.0038 25.3336
19.5903 -22.4219 15.8825
14.6206 -4.74708 -1.37758
20.0205 -19.1675 26.7965
10.6391 -15.0241 8.91265
22.8995 4.56462 6.9686
2.44916 -7.58724 9.2428
5.06219 -15.3 9.28441
21.6677 10.7052 -3.65352
12.2943 -23.2651 28.3017
15.1718 4.91959 3.93253
18.967 -8.71504 26.0504
18.2718 -15.8361 29.2008
18.8423 -18.7195 23.4795
23.1608 6.58601 1.67106
7.36998 3.51275 8.5079
7.91555 -5.21735 9.40627
13.7358 -10.0459 2.11664
4.38491 3.93112 6.11736
10.2855 -17.4836 20.9514
20.4705 13.4783 -7.4617
12.5429 -15.855 24.7109
12.1606 -6.84738 16.7777
10.6862 -11.4768 22.4564
21.2437 5.41095 1.10924
16.7116 -21.8076 16.7283
1.70479 -15.3211 8.3421
21.5385 -0.951226 0.883856
1.99595 5.9631 1.46528
4.26183 7.46038 -0.683764
12.9328 -9.38679 27.0984
17.8501 -18.6882 15.8334
15.435 -12.5712 1.60958
17.7735 -2.01327 12.5526
21.1136 -18.5981 12.9524
4.21659 -10.1264 3.36362
17.5072 -4.33004 14.8189
7.44362 -19.0277 9.46786
9.77469 -24.3624 18.8169
2.5535 15.262 -0.260892
3.74928 -12.96 3.19902
3.65464 -15.1167 10.476
10.3534 -8.16482 13.892
21.1584 15.381 -5.82877
11.1674 -8.17274 15.8266
16.758 3.67363 0.133891
18.7537 -20.773 19.7106
20.0535 -5.44155 4.57968
16.8236 -19.7958 17.2872
0.56366 7.62355 4.41618
-1.82952 14.8491 -0.588136
20.3995 7.62774 1.34144
19.6487 4.20429 -3.08808
10.8513 -8.50305 25.7986
18.4848 2.0379 9.08567
3.44669 -18.4531 7.92949
8.62015 -19.5465 24.9086
11.4299 -3.93581 26.1583
16.9877 -3.491 -3.27206
11.4842 -11.7364 14.1361
7.52205 -15.748 10.1726
18.8863 14.5267 -1.56725
21.9997 10.2784 -0.303029
1.8239 14.227 -3.56871
18.1938 -12.7598 20.3073
16.0423 -0.564477 -2.61009
2.53152 16.1178 0.746885
17.592 4.56668 6.7894
0.697871 -6.61361 5.63439
2.41752 -9.90189 4.74054
13.2685 -2.54532 20.2335
18.9492 -11.4072 7.19599
8.95345 -2.24279 5.01215
1.75916 5.54746 7.52148
6.13295 -22.6079 18.3841
13.3807 -13.894 28.7633
12.527 -4.87162 22.0175
22.0092 7.9645 3.9003
22.4194 12.8903 -3.22082
15.8018 -17.7055 5.96888
19.3724 -19.63 26.7903
8.45636 -7.39923 13.1579
10.0954 -2.77026 18.3706
9.83602 -24.2133 23.6812
16.5193 -18.2614 24.5268
15.4149 -2.32477 1.07122
