ply
format ascii 1.0
comment created by cisstICP
element vertex 300
property float32 x
property float32 y
property float32 z
end_header
-9.17093 18.3758 -14.9224
-12.6364 13.8446 -7.48011
6.84093 13.4635 -7.11998
10.6274 20.4972 -14.6287
-5.75093 13.6224 -7.31199
-6.31086 -13.7414 1.93852
-3.74545 -15.4011 -0.727398
2.41313 0.245054 -7.2406
-10.6386 15.5095 -14.2538
-3.5357 0.462267 5.87194
4.6885 1.38861 15.1272
-2.2269 -13.5529 17.4293
-5.86196 16.4998 -9.83635
5.26524 -7.2962 -6.1008
3.05449 -5.37248 -4.53804
3.74949 1.23716 4.05195
1.88119 -12.5958 3.09513
7.62329 0.692378 -9.68845
-9.75135 8.37966 -12.9981
5.79126 12.451 -12.1345
7.43253 -2.46265 -2.38601
8.67519 17.8663 -16.1319
-9.35676 20.3339 -11.6653
6.12302 11.6837 -1.19838
13.429 21.1159 -14.199
-3.63514 -10.3777 7.36206
-7.41324 5.42373 -1.60074
5.45054 -12.2912 -4.1775
-10.5683 10.0976 -10.8427
3.00779 -19.1417 8.76575
8.45237 -15.0949 -2.50967
8.61499 7.29761 -5.4161
5.44359 -13.8827 21.5473
3.97491 -19.4363 11.4687
-12.7456 16.6782 -12.6709
-5.0332 -5.11462 -3.67365
2.89149 -19.5354 10.6528
-10.8405 16.295 -6.57349
7.7741 10.591 -7.64262
-7.68718 4.27301 -2.88613
-10.4888 9.94325 -7.60429
-8.78246 19.4189 -12.9343
7.82188 18.0751 -14.7098
-3.37 0.443582 -0.526306
-11.7186 19.4058 -8.10011
-13.6534 12.6996 -7.57461
-4.10012 -12.5166 7.97702
4.87169 -10.5992 19.896
9.49318 15.5144 -8.9841
-4.2259 6.05632 -2.0598
7.98921 9.37119 -11.7318
2.56397 -1.35734 15.8651
-5.42606 -16.0783 1.00128
4.39623 -1.11441 12.0809
-10.528 3.88094 -10.2393
5.24783 -9.1416 -6.28488
-11.718 17.9018 -7.40299
-7.2082 3.01967 -6.01934
-3.64664 -14.5655 6.95064
3.836 -9.76822 -0.208456
7.63642 3.89864 -10.9462
8.51298 6.48273 -1.55938
-2.04534 1.8993 -6.64721
-5.13872 8.8001 -2.03061
-6.46018 -7.24073 -7.85763
8.41895 11.5385 -12.5236
5.75884 -11.103 -4.47009
3.95525 1.44028 16.4914
-0.71919 0.0792096 5.3643
0.350296 1.93671 9.88549
11.9007 13.4154 -10.5843
3.91917 0.830636 -0.685687
7.65784 22.5107 -13.3208
-1.48002 -9.67084 -1.5688
-10.1752 22.173 -13.482
3.47616 -11.0137 13.9278
-8.95615 20.8798 -14.4809
2.35868 6.37653 1.58925
-9.84073 19.9951 -14.5998
-5.76368 -2.78814 13.18
-2.9954 -3.62275 -6.49763
-0.369342 -1.98455 11.7277
4.85989 -21.9773 10.6743
-13.075 13.9639 -6.22026
-2.83426 -7.17811 4.14383
8.68305 9.19066 -5.86884
-4.13478 -1.11073 -8.09923
7.45601 9.7928 -13.0174
-9.17501 18.4621 -9.16489
-3.6247 -3.59589 -6.99901
-12.2713 6.72551 -10.4511
1.6205 1.36367 7.24976
-5.20666 -13.0467 6.71816
-4.9895 6.25818 -6.21436
3.17478 4.57344 11.8297
9.10151 0.309352 -10.3695
6.60392 9.29627 -9.92002
-6.98707 1.91699 -1.18067
4.97038 4.83353 7.05683
5.78817 -1.69143 -0.53007
2.68723 9.02664 -7.94912
4.90716 -12.0156 -1.30336
2.88513 -3.99987 9.75001
7.86464 7.53387 -4.79119
8.22695 -14.4286 7.02909
6.15259 6.82744 -3.68792
-5.52867 -19.4034 5.1447
8.19937 -11.5134 6.44382
5.38954 0.581701 -9.58411
-0.615754 -1.5384 12.6627
-4.7195 -17.8604 6.13444
10.9385 15.1827 -8.9916
2.98343 -17.3906 15.1972
-5.55804 10.8742 -2.40565
12.0641 16.7919 -13.3305
8.36499 -11.786 -4.98646
-3.84753 -15.7187 16.6595
-6.15251 -14.7738 6.97186
3.98458 0.547416 12.5434
6.76955 -12.8331 -2.04156
6.27456 1.84129 -10.7488
-0.783468 -10.3664 16.2807
5.21158 -17.8565 2.16494
3.90722 -6.35849 17.0899
10.9881 21.901 -13.3997
-0.125034 -7.59428 10.488
2.77675 -2.96064 5.03672
7.09978 16.1592 -8.36156
8.6957 -11.6788 -0.699057
9.78446 8.14592 -0.217015
9.46488 17.3838 -15.9529
11.0076 16.5406 -7.39703
-8.32555 -14.8288 0.914159
-4.82587 -14.5422 21.8147
-2.86789 -13.3912 19.3225
5.44119 -12.3563 12.0233
3.71279 -10.5265 -4.526
10.8898 7.53097 -3.83799
-7.70601 -9.76529 1.6625
-6.68271 12.7292 -12.3854
5.2724 6.35383 -2.30667
-5.00241 10.8214 -3.23597
-9.31955 -8.02382 -0.28461
-10.1857 18.5044 -13.9182
8.4773 -5.98831 -5.40626
-10.2872 23.1651 -17.7953
7.27392 -1.59738 -2.82912
4.38241 -19.434 14.1882
-6.39081 6.52735 0.111659
2.72239 -13.2059 5.43888
4.36298 -8.72776 18.846
9.89236 -5.19247 1.08964
-8.62902 5.72961 -11.9021
4.47615 0.918045 9.17405
-2.46676 -9.55702 6.38548
-10.1521 17.4118 -7.95778
-13.1171 15.6962 -6.61077
4.22961 8.17915 -5.25589
4.16654 1.59249 -0.351004
-3.33705 3.26367 7.20039
4.45159 -14.1564 20.0549
-5.04376 -17.2135 3.0164
-4.85666 -15.884 12.0734
4.8491 -6.14727 10.9762
-5.35005 -13.0212 11.4156
4.99238 -16.7281 4.31689
1.87617 -7.58252 -6.22019
-8.90238 3.40687 -12.2679
3.71291 4.87111 -9.07641
2.46031 2.2323 14.1887
9.2293 6.80162 -2.71049
-2.71638 -17.8587 15.5069
10.6815 8.68982 -2.49073
1.60791 -14.6166 11.9548
6.70819 -3.68925 -7.64321
-5.88751 -4.47719 -6.11999
-1.58404 0.440913 7.31304
6.80667 -12.3423 11.9615
3.55266 -8.19406 14.8384
-4.83707 2.85481 12.353
-4.63678 -0.919769 10.6748
6.4394 9.46076 -2.76613
-9.99679 22.0002 -13.6774
-2.69173 3.31014 -6.7506
9.94343 6.40998 -5.27922
-7.87472 -10.3479 -5.87151
-4.12464 11.0102 -10.6746
9.27363 3.97004 -4.35935
4.86379 -1.80423 6.04712
-8.7029 11.8399 -3.02561
11.3569 21.9453 -12.909
5.83333 -13.775 4.71482
9.53004 8.73914 -2.48121
8.28581 -9.86063 -5.72829
-2.38485 -15.0507 17.5547
7.21434 -12.9205 -4.09501
-4.86694 -9.42273 -2.57206
-8.51572 19.4829 -14.4961
6.56413 -17.5836 3.05894
2.61 -18.7247 15.1473
-4.51622 5.18081 -1.09848
-4.79929 1.50206 -8.84799
6.39792 14.4298 -12.1968
-7.37004 -3.17989 -6.79801
-10.6104 16.0668 -9.45575
-9.63817 -6.84799 -2.69732
3.59451 2.38628 2.39049
2.89018 6.81694 11.3364
-10.3953 12.2933 -5.56036
5.54047 3.11328 -3.90629
-3.1399 -5.87866 11.7156
3.93921 -3.79441 -7.75564
3.34288 4.12975 11.1245
-2.43753 -8.80278 4.50591
-1.32337 -18.494 15.3111
6.87585 -15.8444 7.06072
4.30278 1.35431 -11.1763
5.38758 -12.3915 17.8195
-1.01583 -8.87471 -1.45837
10.7914 11.0826 -1.78683
-9.37071 -1.71538 -2.65482
-6.56592 -9.33326 -2.00825
11.1534 16.9957 -12.6016
-2.35209 -16.7226 18.1175
3.66807 11.1234 -6.06671
4.15306 -1.99504 16.6749
3.16267 -9.0807 19.826
4.7635 -12.0404 14.3442
11.8669 13.021 -7.01219
-4.73843 9.53099 -2.81466
-4.08255 0.841029 -1.64253
3.01261 -3.91108 -7.75851
-7.29643 9.80698 -5.67488
-3.28841 -11.1388 10.4081
10.5209 19.6611 -16.6167
-1.73765 -9.37069 14.4518
-1.07283 -0.517949 6.36431
-3.32737 -5.09707 11.8234
10.1066 11.7722 -7.8569
3.87912 -15.3138 7.40459
-9.71796 -9.48429 -3.49229
10.6295 5.42072 -7.88743
-8.94068 11.677 -10.7025
-6.39629 13.2134 -12.4802
-1.94794 -2.85311 16.725
5.05442 -12.1734 6.64047
4.84897 -6.38554 -7.92062
5.01317 4.43095 3.01854
8.74677 -12.0217 4.33781
-6.57449 -4.29317 -8.10205
4.44527 2.14551 5.26096
-4.13501 -12.9743 -1.34966
-3.22674 -18.0665 8.37364
-8.38924 20.9587 -12.5211
-6.92099 -7.14331 -8.278
-8.15676 -9.17742 -1.07039
-2.33442 -1.94501 3.24971
10.8695 21.6136 -14.9356
-1.8532 -1.89229 5.29203
5.90055 9.86726 -9.52163
5.36492 -14.1597 10.6596
8.68951 0.946365 -4.38829
3.83517 -13.2901 7.92902
-10.8933 13.3381 -8.0673
-12.6423 20.3918 -13.5596
9.16813 13.9627 -7.81741
9.26855 10.4406 -12.2321
-3.81078 -2.06282 15.0792
6.16591 8.44413 -0.37308
-7.83664 -12.5619 -3.54059
-5.52387 -13.1892 14.0807
-3.44005 2.5269 15.427
6.91198 2.65744 -12.6808
-1.15105 -5.47152 3.75771
-4.27519 -9.68232 -0.715464
7.94846 20.7557 -11.0906
10.9373 16.6376 -9.23361
-8.5273 19.8432 -15.88
4.46858 -6.16121 10.9753
5.78065 5.56108 -12.2503
-8.60448 21.8303 -11.5503
5.58991 10.9016 -2.84161
-10.5274 -0.863473 -6.52418
-8.58328 -4.1063 -7.04713
-0.686499 3.8776 9.85831
7.34929 -5.00779 -1.85738
-2.42088 3.77363 -5.87009
-10.1672 11.357 -4.76117
-6.79802 -16.4441 7.30505
-1.64495 -7.31342 18.5418
-1.64241 1.55828 11.5468
10.3194 14.3975 -5.03573
11.7555 19.212 -12.0997
4.64376 -11.4293 -3.44648
4.76396 -12.8757 17.7167
-4.10576 -1.25687 2.1949
-3.49773 3.51337 7.50168
-3.9787 -17.8324 13.1764
2.28588 -11.6436 14.9822
4.60474 3.84362 -8.68491
